<?xml version="1.0" encoding="UTF-8" standalone="no"?>
<!-- Created with Inkscape (http://www.inkscape.org/) -->

<svg
   width="800"
   height="800"
   viewBox="0 0 211.66666 211.66667"
   version="1.1"
   id="svg12652"
   inkscape:version="1.1.2 (b8e25be833, 2022-02-05)"
   sodipodi:docname="aperitivo.svg"
   xmlns:inkscape="http://www.inkscape.org/namespaces/inkscape"
   xmlns:sodipodi="http://sodipodi.sourceforge.net/DTD/sodipodi-0.dtd"
   xmlns="http://www.w3.org/2000/svg"
   xmlns:svg="http://www.w3.org/2000/svg">
  <sodipodi:namedview
     id="namedview12654"
     pagecolor="#505050"
     bordercolor="#ffffff"
     borderopacity="1"
     inkscape:pageshadow="0"
     inkscape:pageopacity="0"
     inkscape:pagecheckerboard="1"
     inkscape:document-units="mm"
     showgrid="false"
     units="px"
     inkscape:zoom="1.1830527"
     inkscape:cx="335.14989"
     inkscape:cy="398.12257"
     inkscape:window-width="2323"
     inkscape:window-height="1321"
     inkscape:window-x="2469"
     inkscape:window-y="-692"
     inkscape:window-maximized="1"
     inkscape:current-layer="layer1" />
  <defs
     id="defs12649">
    <clipPath
       clipPathUnits="userSpaceOnUse"
       id="clipPath1802">
      <path
         d="M 0,500 H 500 V 0 H 0 Z"
         id="path1800" />
    </clipPath>
    <clipPath
       clipPathUnits="userSpaceOnUse"
       id="clipPath1978">
      <path
         d="M 0,500 H 500 V 0 H 0 Z"
         id="path1976" />
    </clipPath>
    <clipPath
       clipPathUnits="userSpaceOnUse"
       id="clipPath2014">
      <path
         d="M 0,500 H 500 V 0 H 0 Z"
         id="path2012" />
    </clipPath>
    <clipPath
       clipPathUnits="userSpaceOnUse"
       id="clipPath2294">
      <path
         d="M 0,500 H 500 V 0 H 0 Z"
         id="path2292" />
    </clipPath>
  </defs>
  <g
     inkscape:label="Capa 1"
     inkscape:groupmode="layer"
     id="layer1">
    <g
       id="g2008"
       transform="matrix(1.2512718,0,0,-1.2512718,-200.90565,401.18352)">
      <g
         id="g2010"
         clip-path="url(#clipPath2014)">
        <g
           id="g2016"
           transform="translate(440.8135,217.6494)" />
        <g
           id="g2020"
           transform="translate(442.501,216.0361)" />
        <g
           id="g2024"
           transform="translate(448.1357,213.1826)" />
        <g
           id="g2028"
           transform="translate(456.7617,217.3467)" />
        <g
           id="g2032"
           transform="translate(461.6406,213.4795)" />
        <g
           id="g2036"
           transform="translate(249.8193,280.7681)">
          <path
             d="m 0,0 c 0.043,-7.194 -0.804,-14.251 -2.36,-21.268 -1.45,-6.538 -3.391,-12.909 -6.197,-18.996 -2.034,-4.415 -4.984,-9.979 -9.977,-11.519 -5.57,-1.717 -10.844,2.756 -13.019,7.521 -2.755,6.034 -1.123,13.222 0.353,19.39 1.762,7.358 4.571,14.442 7.893,21.225 0.815,1.662 1.674,3.303 2.557,4.93 0.442,0.816 0.897,1.625 1.355,2.432 0.23,0.404 0.463,0.805 0.697,1.206 0.04,0.07 0.658,0.801 0.326,0.614 1.063,0.6 3.035,0.064 4.13,-0.146 3.948,-0.758 7.821,-2.191 11.49,-3.814 0.567,-0.251 2.591,-0.811 2.68,-1.61 0.025,-0.23 0.385,0.011 0.367,0.177 C 0.193,1.054 -0.82,1.711 -1.496,2.204 -2.96,3.272 -4.741,3.941 -6.428,4.56 -8.411,5.287 -10.44,5.899 -12.5,6.369 c -1.515,0.345 -3.138,0.678 -4.699,0.532 -1.874,-0.176 -2.393,-1.668 -3.255,-3.172 -1.915,-3.344 -3.678,-6.774 -5.297,-10.271 -3.07,-6.628 -5.549,-13.563 -7.096,-20.708 -1.309,-6.044 -2.212,-12.519 -0.238,-18.519 0.825,-2.507 2.314,-5.096 4.471,-6.668 2.132,-1.554 4.828,-2.301 7.453,-2.095 5.388,0.424 9.395,4.914 12.07,9.21 3.195,5.131 5.435,10.974 7.064,16.772 1.292,4.597 1.913,9.383 2.172,14.141 0.263,4.855 0.424,9.661 0.078,14.515 C 0.212,0.249 0,0.097 0,0"
             style="fill:#000000;fill-opacity:1;fill-rule:nonzero;stroke:none"
             id="path2038" />
        </g>
        <g
           id="g2040"
           transform="translate(217.9868,234.1602)">
          <path
             d="m 0,0 c 0.266,-0.507 0.346,-1.178 0.437,-1.746 0.119,-0.744 0.189,-1.5 0.251,-2.251 0.147,-1.782 0.156,-3.588 0.07,-5.374 -0.222,-4.61 -1.025,-9.257 -1.99,-13.764 -1.963,-9.171 -4.882,-18.815 -9.936,-26.795 -0.531,-0.839 -1.107,-1.65 -1.736,-2.419 -0.666,-0.813 0.437,-0.957 0.937,-0.347 2.465,3.006 4.202,6.606 5.773,10.135 2.04,4.585 3.737,9.353 5.204,14.15 1.465,4.787 2.706,9.71 3.374,14.676 0.488,3.621 0.955,7.689 -0.148,11.245 -0.191,0.615 -0.507,1.117 -0.813,1.673 -0.271,0.493 -0.69,0.71 -1.089,1.101 C 0.212,0.404 -0.072,0.137 0,0"
             style="fill:#000000;fill-opacity:1;fill-rule:nonzero;stroke:none"
             id="path2042" />
        </g>
        <g
           id="g2044"
           transform="translate(235.0688,229.5967)">
          <path
             d="m 0,0 c -0.827,-0.351 -1.602,-0.593 -2.384,-1.074 -0.927,-0.571 -1.757,-1.27 -2.568,-1.991 -1.686,-1.502 -3.089,-3.431 -4.354,-5.287 -2.854,-4.183 -4.797,-8.897 -6.486,-13.647 -1.716,-4.829 -2.93,-9.856 -3.89,-14.886 -0.782,-4.094 -1.367,-8.274 -1.433,-12.448 -0.008,-0.514 -0.002,-1.027 0.014,-1.542 0.024,-0.803 1.311,0.037 1.295,0.623 -0.249,8.863 2.002,17.971 4.889,26.28 1.666,4.797 3.736,9.493 6.393,13.83 1.191,1.943 2.509,3.819 4.043,5.507 1.356,1.494 2.867,3.195 4.532,4.341 C 0.193,-0.196 0.248,0.105 0,0"
             style="fill:#000000;fill-opacity:1;fill-rule:nonzero;stroke:none"
             id="path2046" />
        </g>
        <g
           id="g2048"
           transform="translate(208.1997,185.1982)">
          <path
             d="m 0,0 c -3.67,1.667 -11.349,2.133 -13.049,-2.703 -1.599,-4.549 5.027,-7.641 8.265,-9.052 4.379,-1.908 9.396,-3.155 14.182,-2.482 2.975,0.418 8.133,3.215 6.131,6.942 -0.882,1.642 -2.617,2.805 -4.154,3.764 C 9.834,-2.569 7.999,-1.597 6.133,-1.937 6.015,-1.959 5.82,-2.16 5.925,-2.282 c 0.607,-0.702 1.468,-1.085 2.264,-1.542 1.117,-0.641 2.242,-1.197 3.292,-1.954 1.295,-0.934 3.701,-2.903 2.515,-4.689 -0.888,-1.336 -2.844,-1.595 -4.307,-1.675 -2.352,-0.129 -4.71,0.278 -6.99,0.816 -4.36,1.027 -9.073,2.866 -12.347,6.022 -0.702,0.676 -1.542,1.681 -1.643,2.69 -0.09,0.905 0.898,1.528 1.588,1.878 2.884,1.462 6.522,0.934 9.59,0.547 C -0.041,-0.198 0.095,-0.043 0,0"
             style="fill:#000000;fill-opacity:1;fill-rule:nonzero;stroke:none"
             id="path2050" />
        </g>
        <g
           id="g2052"
           transform="translate(197.2466,184.5303)">
          <path
             d="m 0,0 c -3.586,-4.165 3.687,-7.652 6.673,-8.824 2.318,-0.91 4.757,-1.549 7.208,-1.975 2.019,-0.35 4.559,-1.021 6.373,0.217 0.079,0.054 0.223,0.22 0.162,0.328 -0.667,1.181 -3.013,0.899 -4.187,1.06 -2.196,0.3 -4.359,0.844 -6.466,1.526 -1.882,0.61 -3.721,1.388 -5.455,2.343 -0.869,0.478 -1.729,1.023 -2.52,1.621 -0.421,0.317 -0.79,0.693 -1.16,1.067 -0.799,0.809 -1.032,1.411 -0.507,2.591 C 0.165,0.052 0.052,0.061 0,0"
             style="fill:#000000;fill-opacity:1;fill-rule:nonzero;stroke:none"
             id="path2054" />
        </g>
        <g
           id="g2056"
           transform="translate(219.6206,174.4502)">
          <path
             d="M 0,0 C 2.077,-0.255 4.179,2.649 3.393,4.512 2.985,5.479 1.597,4.24 1.894,3.438 2.169,2.693 2.278,2.101 1.724,1.454 1.26,0.913 0.58,0.56 0.016,0.133 -0.019,0.106 -0.082,0.01 0,0"
             style="fill:#000000;fill-opacity:1;fill-rule:nonzero;stroke:none"
             id="path2058" />
        </g>
        <g
           id="g2060"
           transform="translate(213.3179,188.1758)">
          <path
             d="m 0,0 c -0.336,-1.74 -0.608,-3.496 -0.865,-5.25 -0.12,-0.82 -0.207,-1.643 -0.272,-2.469 -0.061,-0.785 -0.282,-1.677 0.153,-2.365 0.096,-0.152 0.295,0.048 0.327,0.157 0.204,0.698 0.111,1.288 0.091,2.014 -0.027,0.945 0.082,1.899 0.179,2.838 0.176,1.701 0.5,3.39 0.463,5.103 C 0.075,0.076 0.005,0.026 0,0"
             style="fill:#000000;fill-opacity:1;fill-rule:nonzero;stroke:none"
             id="path2062" />
        </g>
        <g
           id="g2064"
           transform="translate(213.9946,191.7061)">
          <path
             d="m 0,0 c -0.292,-0.567 -0.442,-1.19 -0.408,-1.827 0.005,-0.09 0.117,10e-4 0.136,0.034 C 0.042,-1.229 0.18,-0.6 0.182,0.046 0.182,0.165 0.023,0.044 0,0"
             style="fill:#000000;fill-opacity:1;fill-rule:nonzero;stroke:none"
             id="path2066" />
        </g>
        <g
           id="g2068"
           transform="translate(222.0132,217.1543)">
          <path
             d="m 0,0 c 0.769,1.738 1.402,3.498 2.308,5.176 1.006,1.864 2.546,3.201 3.698,4.928 0.06,0.09 0.028,0.207 -0.096,0.149 C 4.322,9.515 3.153,7.681 2.292,6.221 1.185,4.343 0.179,2.165 -0.116,-0.015 -0.128,-0.102 -0.02,-0.045 0,0"
             style="fill:#000000;fill-opacity:1;fill-rule:nonzero;stroke:none"
             id="path2070" />
        </g>
        <g
           id="g2072"
           transform="translate(224.4863,225.1221)">
          <path
             d="M 0,0 C 0.585,0.712 1.43,1.448 1.611,2.381 1.629,2.47 1.556,2.498 1.483,2.464 0.587,2.049 -0.117,0.984 -0.108,-0.014 -0.107,-0.084 -0.019,-0.022 0,0"
             style="fill:#000000;fill-opacity:1;fill-rule:nonzero;stroke:none"
             id="path2074" />
        </g>
        <g
           id="g2076"
           transform="translate(223.5171,223.8809)">
          <path
             d="m 0,0 c -0.308,-0.364 -0.475,-0.717 -0.433,-1.194 0.009,-0.095 0.131,-0.027 0.159,0.019 0.231,0.383 0.386,0.723 0.454,1.172 C 0.201,0.136 0.046,0.055 0,0"
             style="fill:#000000;fill-opacity:1;fill-rule:nonzero;stroke:none"
             id="path2078" />
        </g>
        <g
           id="g2080"
           transform="translate(223.6733,272.0303)">
          <path
             d="m 0,0 c 0.621,0.46 1.596,0.666 2.326,0.897 1.145,0.362 2.367,0.46 3.561,0.472 2.88,0.028 5.766,-0.602 8.498,-1.469 2.617,-0.829 5.212,-1.964 7.454,-3.563 1.49,-1.061 2.415,-2.427 3.442,-3.874 0.119,-0.168 0.408,0.12 0.453,0.221 0.901,2.025 -0.959,3.66 -2.447,4.795 -2.396,1.828 -5.276,3.043 -8.128,3.955 C 12.188,2.384 9.016,2.986 5.888,2.851 3.484,2.747 1.276,2.152 -0.096,0.096 -0.154,0.009 -0.089,-0.066 0,0"
             style="fill:#000000;fill-opacity:1;fill-rule:nonzero;stroke:none"
             id="path2082" />
        </g>
        <g
           id="g2084"
           transform="translate(221.8887,261.6934)">
          <path
             d="m 0,0 c -1.85,-4.97 -3.511,-10.005 -4.483,-15.229 -0.512,-2.75 -0.859,-5.564 -0.671,-8.363 0.125,-1.876 0.434,-5.169 2.321,-6.122 0.148,-0.075 0.37,0.17 0.359,0.308 -0.082,1.044 -0.513,1.916 -0.838,2.894 -0.408,1.231 -0.581,2.519 -0.69,3.806 -0.229,2.677 -0.013,5.389 0.408,8.036 0.795,4.992 2.34,9.825 3.695,14.683 C 0.121,0.084 0.015,0.041 0,0"
             style="fill:#000000;fill-opacity:1;fill-rule:nonzero;stroke:none"
             id="path2086" />
        </g>
        <g
           id="g2088"
           transform="translate(224.2759,268.4531)">
          <path
             d="m 0,0 c -0.344,-0.896 -0.757,-1.776 -0.856,-2.742 -0.008,-0.073 0.101,10e-4 0.114,0.029 0.415,0.879 0.717,1.782 0.909,2.734 C 0.191,0.143 0.025,0.066 0,0"
             style="fill:#000000;fill-opacity:1;fill-rule:nonzero;stroke:none"
             id="path2090" />
        </g>
        <g
           id="g2092"
           transform="translate(245.1196,258.7368)">
          <path
             d="m 0,0 c -1.125,-3.883 -2.091,-7.809 -3.348,-11.654 -0.642,-1.963 -1.378,-3.888 -2.222,-5.771 -0.429,-0.958 -0.921,-1.892 -1.417,-2.816 -0.346,-0.645 -0.823,-1.266 -0.868,-2.012 -0.004,-0.071 0.09,-0.051 0.123,-0.024 1.254,1.05 1.866,2.969 2.48,4.438 0.749,1.793 1.437,3.604 2.052,5.446 1.357,4.06 2.371,8.245 3.306,12.419 C 0.124,0.105 0.013,0.046 0,0"
             style="fill:#000000;fill-opacity:1;fill-rule:nonzero;stroke:none"
             id="path2094" />
        </g>
        <g
           id="g2096"
           transform="translate(235.9043,234.5781)">
          <path
             d="m 0,0 c -0.46,-0.492 -0.882,-1.008 -1.319,-1.52 -0.067,-0.079 -0.037,-0.181 0.071,-0.112 0.622,0.399 1.061,0.912 1.324,1.603 C 0.1,0.033 0.035,0.038 0,0"
             style="fill:#000000;fill-opacity:1;fill-rule:nonzero;stroke:none"
             id="path2098" />
        </g>
        <g
           id="g2100"
           transform="translate(245.6045,261.8335)">
          <path
             d="m 0,0 c -0.093,-0.259 -0.182,-0.521 -0.197,-0.796 -0.004,-0.056 0.074,0.001 0.084,0.021 0.131,0.257 0.206,0.529 0.263,0.812 C 0.173,0.153 0.021,0.059 0,0"
             style="fill:#000000;fill-opacity:1;fill-rule:nonzero;stroke:none"
             id="path2102" />
        </g>
        <g
           id="g2104"
           transform="translate(219.3594,242.5322)">
          <path
             d="m 0,0 c -0.333,-1.735 -0.897,-4.411 0.179,-5.965 0.056,-0.082 0.174,0.08 0.179,0.13 C 0.466,-4.821 0.239,-3.79 0.182,-2.772 0.129,-1.839 0.115,-0.902 0.089,0.032 0.087,0.089 0.006,0.03 0,0"
             style="fill:#000000;fill-opacity:1;fill-rule:nonzero;stroke:none"
             id="path2106" />
        </g>
        <g
           id="g2108"
           transform="translate(220.02,235.54)">
          <path
             d="M 0,0 C -0.035,-0.496 0.096,-0.817 0.308,-1.255 0.34,-1.321 0.435,-1.226 0.435,-1.18 0.432,-0.701 0.365,-0.346 0.107,0.064 0.074,0.118 0.003,0.04 0,0"
             style="fill:#000000;fill-opacity:1;fill-rule:nonzero;stroke:none"
             id="path2110" />
        </g>
        <g
           id="g2112"
           transform="translate(219.9111,246.8691)">
          <path
             d="m 0,0 c -0.296,-0.628 -0.531,-1.388 -0.298,-2.068 0.026,-0.078 0.132,0.032 0.143,0.068 0.186,0.663 0.253,1.349 0.294,2.035 C 0.145,0.125 0.016,0.034 0,0"
             style="fill:#000000;fill-opacity:1;fill-rule:nonzero;stroke:none"
             id="path2114" />
        </g>
        <g
           id="g2116"
           transform="translate(233.1777,231.6758)">
          <path
             d="m 0,0 c -0.968,-0.576 -2.011,-0.924 -3.062,-1.315 -0.456,-0.17 -0.667,-1.08 0.011,-0.807 1.163,0.467 2.241,1.084 3.089,2.023 C 0.074,-0.059 0.082,0.049 0,0"
             style="fill:#000000;fill-opacity:1;fill-rule:nonzero;stroke:none"
             id="path2118" />
        </g>
        <g
           id="g2120"
           transform="translate(246.2637,265.1719)">
          <path
             d="m 0,0 c -0.344,-0.342 -0.655,-1.073 -0.313,-1.501 0.034,-0.043 0.112,0.008 0.137,0.034 0.305,0.319 0.719,1.105 0.348,1.51 C 0.125,0.095 0.035,0.035 0,0"
             style="fill:#000000;fill-opacity:1;fill-rule:nonzero;stroke:none"
             id="path2122" />
        </g>
        <g
           id="g2124"
           transform="translate(225.1943,270.8623)">
          <path
             d="m 0,0 c -0.092,-0.257 -0.186,-0.512 -0.304,-0.757 -0.026,-0.052 0.041,-0.039 0.061,-0.011 0.181,0.248 0.266,0.495 0.337,0.791 C 0.11,0.095 0.013,0.037 0,0"
             style="fill:#000000;fill-opacity:1;fill-rule:nonzero;stroke:none"
             id="path2126" />
        </g>
        <g
           id="g2128"
           transform="translate(221.6245,253.7441)">
          <path
             d="m 0,0 c -0.587,-1.476 -0.859,-3.075 -1.375,-4.579 -0.094,-0.273 0.372,-0.11 0.418,0.104 0.324,1.49 0.791,2.981 1.034,4.485 C 0.086,0.067 0.012,0.031 0,0"
             style="fill:#000000;fill-opacity:1;fill-rule:nonzero;stroke:none"
             id="path2130" />
        </g>
        <g
           id="g2132"
           transform="translate(222.6602,256.9053)">
          <path
             d="m 0,0 c -0.246,-0.356 -0.466,-0.722 -0.286,-1.142 0.025,-0.06 0.102,0.005 0.125,0.031 0.297,0.354 0.465,0.692 0.373,1.164 C 0.191,0.161 0.025,0.037 0,0"
             style="fill:#000000;fill-opacity:1;fill-rule:nonzero;stroke:none"
             id="path2134" />
        </g>
        <g
           id="g2136"
           transform="translate(201.5215,184.4258)">
          <path
             d="m 0,0 c -0.293,0.678 -1.48,0.087 -1.875,-0.165 -0.593,-0.378 -1.485,-1.396 -1.224,-2.162 0.176,-0.515 0.876,0.152 0.991,0.366 0.187,0.348 0.212,0.699 0.546,0.951 0.38,0.285 0.872,0.294 1.27,0.531 C -0.153,-0.396 0.083,-0.193 0,0"
             style="fill:#000000;fill-opacity:1;fill-rule:nonzero;stroke:none"
             id="path2138" />
        </g>
        <g
           id="g2140"
           transform="translate(200.2979,182.3516)">
          <path
             d="M 0,0 C 0.417,0.14 0.644,0.384 0.826,0.777 0.847,0.822 0.854,0.879 0.802,0.903 0.434,1.08 0.121,0.781 -0.1,0.505 -0.184,0.399 -0.293,-0.099 0,0"
             style="fill:#000000;fill-opacity:1;fill-rule:nonzero;stroke:none"
             id="path2142" />
        </g>
        <g
           id="g2144"
           transform="translate(232.1143,237.4043)">
          <path
             d="M 0,0 C 0.014,0.379 -0.446,0.47 -0.735,0.302 -1.123,0.076 -1.446,-0.244 -1.609,-0.67 -1.849,-1.293 -1.593,-1.936 -1,-2.236 c 0.597,-0.303 1.337,-0.07 1.776,0.387 0.273,0.284 0.414,0.643 0.412,1.033 C 1.187,-0.414 0.926,0.022 0.505,-0.069 0.432,-0.085 0.377,-0.157 0.369,-0.229 0.332,-0.548 0.589,-0.646 0.61,-0.967 0.623,-1.16 0.499,-1.449 0.316,-1.537 0.05,-1.666 -0.313,-1.45 -0.518,-1.297 -0.771,-1.109 -0.913,-0.807 -0.783,-0.506 -0.681,-0.271 -0.01,-0.246 0,0"
             style="fill:#000000;fill-opacity:1;fill-rule:nonzero;stroke:none"
             id="path2146" />
        </g>
        <g
           id="g2148"
           transform="translate(233.3774,239.2627)">
          <path
             d="m 0,0 c -0.799,0.001 -0.659,-1.821 0.371,-1.461 0.398,0.139 0.708,0.464 0.848,0.857 0.055,0.155 0.031,0.358 -0.072,0.488 C 0.958,0.123 0.776,0.09 0.529,-0.034 0.484,-0.057 0.429,-0.11 0.433,-0.166 0.452,-0.418 0.557,-0.396 0.667,-0.597 0.744,-0.739 0.604,-0.879 0.491,-0.942 0.018,-1.209 -0.179,-0.35 0.013,-0.069 0.028,-0.049 0.041,0 0,0"
             style="fill:#000000;fill-opacity:1;fill-rule:nonzero;stroke:none"
             id="path2150" />
        </g>
        <g
           id="g2152"
           transform="translate(227.6006,264.0645)">
          <path
             d="m 0,0 c -1.327,-0.079 -1.557,-2.292 -0.103,-2.391 0.59,-0.041 1.109,0.33 1.406,0.819 0.255,0.419 0.362,1.133 -0.116,1.445 C 0.951,0.028 0.467,-0.418 0.685,-0.63 0.902,-0.842 1.022,-0.989 0.948,-1.31 0.883,-1.593 0.632,-1.802 0.364,-1.879 c -0.374,-0.107 -0.73,0.16 -0.952,0.428 -0.45,0.541 0.108,1.054 0.555,1.318 C -0.006,-0.117 0.089,0.005 0,0"
             style="fill:#000000;fill-opacity:1;fill-rule:nonzero;stroke:none"
             id="path2154" />
        </g>
        <g
           id="g2156"
           transform="translate(242.8179,271.354)">
          <path
             d="m 0,0 c -0.338,-1.142 -0.686,-2.282 -1.035,-3.419 0.172,0.641 0.345,1.283 0.509,1.927 C -0.353,-0.995 -0.178,-0.494 0,0 m 2.781,7.985 c 0.301,1.372 0.458,2.817 0.845,4.168 0.095,0.321 -0.403,0.162 -0.515,0.081 0.1,0.058 0.108,0.091 0.022,0.095 C 2.926,12.381 2.64,12.233 2.581,12.024 L 2.567,11.983 c 0.002,0.117 -0.008,0.232 -0.031,0.342 -0.023,0.108 -0.141,0.094 -0.223,0.071 0,0 -0.001,0 -0.002,-0.001 C 2.225,12.37 2.165,12.31 2.14,12.254 2.138,12.254 2.137,12.255 2.136,12.257 1.824,11.606 1.714,10.881 1.565,10.179 1.212,8.497 0.844,6.819 0.464,5.144 -0.284,1.852 -1.097,-1.422 -1.984,-4.679 c -1.347,-4.918 -2.805,-9.813 -4.58,-14.592 -0.352,-0.911 -0.704,-1.821 -1.059,-2.73 -0.302,-0.755 -0.616,-1.509 -0.937,-2.254 -0.015,-0.031 0.033,-0.021 0.042,-0.004 0.047,0.101 0.089,0.203 0.137,0.3 -0.046,-0.117 -0.093,-0.234 -0.137,-0.348 -0.037,-0.099 0.154,-0.044 0.183,0.014 2.98,5.689 5.063,11.853 7.018,17.953 1.017,3.167 1.964,6.358 2.888,9.555 0.453,1.577 0.858,3.166 1.21,4.77"
             style="fill:#000000;fill-opacity:1;fill-rule:nonzero;stroke:none"
             id="path2158" />
        </g>
        <g
           id="g2160"
           transform="translate(273.0703,281.478)">
          <path
             d="m 0,0 c 1.979,-7.084 3.005,-14.261 3.309,-21.6 0.276,-6.681 0.108,-13.34 -1.018,-19.94 -0.766,-4.489 -2.024,-10.107 -5.798,-13.085 -4.493,-3.547 -10.845,-0.951 -14.324,2.741 -4.724,5.011 -5.2,12.392 -5.482,18.933 -0.333,7.706 0.47,15.443 1.876,23.013 0.345,1.856 0.741,3.703 1.164,5.543 0.212,0.923 0.439,1.843 0.669,2.761 0.117,0.46 0.237,0.918 0.356,1.376 -0.006,-0.023 0.493,1.186 0.176,0.813 0.702,0.825 2.851,0.816 3.81,0.896 3.986,0.332 8.069,-0.016 12.017,-0.591 0.643,-0.094 2.862,-0.125 3.176,-0.91 0.073,-0.185 0.418,0.092 0.353,0.254 -0.328,0.822 -1.466,1.179 -2.221,1.461 -1.668,0.623 -3.548,0.785 -5.308,0.932 -3.489,0.291 -7.65,0.621 -11.017,-0.572 -1.751,-0.62 -1.954,-1.782 -2.396,-3.493 -0.985,-3.807 -1.794,-7.659 -2.44,-11.538 -1.223,-7.344 -1.78,-14.826 -1.334,-22.265 0.377,-6.291 1.297,-12.91 5.059,-18.156 1.615,-2.252 3.838,-4.124 6.522,-4.898 2.498,-0.72 5.175,-0.465 7.566,0.498 4.691,1.891 7.241,6.891 8.681,11.434 1.741,5.494 2.333,11.531 2.433,17.265 0.087,4.972 -0.454,10.111 -1.682,14.935 C 2.917,-9.356 1.906,-4.559 0.215,0.153 0.173,0.269 -0.027,0.097 0,0"
             style="fill:#000000;fill-opacity:1;fill-rule:nonzero;stroke:none"
             id="path2162" />
        </g>
        <g
           id="g2164"
           transform="translate(254.8232,228.0742)">
          <path
             d="m 0,0 c 0.391,-0.421 0.55,-1.003 0.816,-1.513 0.329,-0.627 0.557,-1.363 0.786,-2.032 0.56,-1.641 1.066,-3.298 1.457,-4.988 1.011,-4.377 1.449,-8.932 1.781,-13.404 0.69,-9.286 0.367,-19.161 -2.047,-28.192 -0.348,-1.3 -0.765,-2.582 -1.308,-3.812 -0.417,-0.946 0.863,-0.631 1.135,-0.016 1.534,3.465 2.251,7.263 2.825,10.986 0.743,4.826 1.125,9.735 1.294,14.614 0.17,4.92 0.115,9.936 -0.495,14.826 C 5.783,-9.839 5.173,-5.811 3.337,-2.519 2.976,-1.872 2.528,-1.214 1.968,-0.726 1.421,-0.249 0.912,-0.017 0.284,0.334 0.147,0.41 -0.115,0.123 0,0"
             style="fill:#000000;fill-opacity:1;fill-rule:nonzero;stroke:none"
             id="path2166" />
        </g>
        <g
           id="g2168"
           transform="translate(272.5205,228.1973)">
          <path
             d="m 0,0 c -1.608,-1.307 -2.917,-2.593 -4.054,-4.367 -1.23,-1.925 -2.078,-4.116 -2.825,-6.264 -1.664,-4.782 -2.247,-9.875 -2.591,-14.9 -0.351,-5.132 -0.153,-10.326 0.28,-15.448 0.348,-4.142 0.908,-8.314 1.976,-12.337 0.115,-0.435 0.241,-0.866 0.374,-1.295 0.203,-0.655 1.428,0.307 1.248,0.894 -2.619,8.529 -2.864,17.973 -2.26,26.804 0.35,5.118 1.134,10.205 2.544,15.145 0.632,2.217 1.423,4.379 2.457,6.441 0.859,1.712 1.798,3.681 3.033,5.145 C 0.313,-0.026 0.156,0.127 0,0"
             style="fill:#000000;fill-opacity:1;fill-rule:nonzero;stroke:none"
             id="path2170" />
        </g>
        <g
           id="g2172"
           transform="translate(258.4863,178.251)">
          <path
             d="m 0,0 c -3.976,0.57 -10.892,-0.954 -11.921,-5.636 -1.019,-4.634 5.998,-6.103 9.214,-6.644 4.61,-0.775 9.669,-0.853 14.143,0.669 2.828,0.963 7.526,3.763 6.366,7.478 -0.576,1.845 -3.154,2.807 -4.773,3.374 C 11.008,-0.05 8.484,0.633 6.421,-0.24 6.351,-0.27 6.137,-0.486 6.262,-0.567 6.96,-1.02 7.776,-1.142 8.575,-1.347 c 1.238,-0.317 2.472,-0.55 3.683,-0.977 1.571,-0.554 4.453,-1.77 3.961,-3.89 -0.373,-1.606 -1.967,-2.404 -3.374,-2.949 -2.043,-0.792 -4.324,-1.004 -6.491,-1.131 -4.49,-0.262 -9.358,0.244 -13.472,2.165 -1.729,0.808 -3.897,2.383 -2.496,4.383 1.624,2.32 5.303,2.882 7.862,3.309 0.559,0.094 1.12,0.174 1.682,0.247 C 0.002,-0.182 0.117,-0.017 0,0"
             style="fill:#000000;fill-opacity:1;fill-rule:nonzero;stroke:none"
             id="path2174" />
        </g>
        <g
           id="g2176"
           transform="translate(248.0781,174.666)">
          <path
             d="m 0,0 c -0.891,-1.717 -0.075,-3.662 1.512,-4.607 1.99,-1.185 4.319,-1.614 6.591,-1.911 2.576,-0.336 5.212,-0.301 7.796,-0.081 2.049,0.175 5.022,0.206 6.482,1.863 0.067,0.076 0.169,0.218 0.08,0.318 -0.405,0.451 -1.02,0.364 -1.574,0.265 -1.114,-0.201 -2.219,-0.404 -3.345,-0.53 -2.193,-0.245 -4.41,-0.272 -6.611,-0.14 C 8.771,-4.694 6.619,-4.36 4.552,-3.72 3.57,-3.416 2.628,-3.108 1.729,-2.598 0.517,-1.908 -0.009,-1.427 0.163,0.041 0.176,0.146 0.019,0.036 0,0"
             style="fill:#000000;fill-opacity:1;fill-rule:nonzero;stroke:none"
             id="path2178" />
        </g>
        <g
           id="g2180"
           transform="translate(272.3506,170.9629)">
          <path
             d="M 0,0 C 0.951,0.205 1.783,1.135 2.211,1.972 2.497,2.532 2.605,3.07 2.677,3.69 2.729,4.146 2.548,5.074 2.041,5.262 1.236,5.561 0.245,4.643 0.832,3.839 1.332,3.155 1.544,2.572 1.197,1.761 0.927,1.126 0.374,0.638 -0.037,0.096 -0.068,0.056 -0.066,-0.014 0,0"
             style="fill:#000000;fill-opacity:1;fill-rule:nonzero;stroke:none"
             id="path2182" />
        </g>
        <g
           id="g2184"
           transform="translate(262.6123,182.501)">
          <path
             d="M 0,0 C 0.12,-1.76 0.322,-3.518 0.538,-5.271 0.63,-6.02 0.75,-6.764 0.888,-7.506 1.038,-8.32 1.049,-9.435 1.729,-9.972 1.86,-10.075 2.032,-9.863 2.043,-9.745 2.117,-8.949 1.756,-8.297 1.536,-7.536 1.262,-6.582 1.11,-5.584 0.952,-4.606 0.699,-3.044 0.548,-1.469 0.076,0.045 0.063,0.085 -0.001,0.027 0,0"
             style="fill:#000000;fill-opacity:1;fill-rule:nonzero;stroke:none"
             id="path2186" />
        </g>
        <g
           id="g2188"
           transform="translate(262.3145,186.0781)">
          <path
             d="M 0,0 C -0.149,-0.625 -0.133,-1.263 0.1,-1.861 0.128,-1.936 0.229,-1.832 0.239,-1.794 0.41,-1.168 0.38,-0.53 0.187,0.09 0.155,0.19 0.012,0.049 0,0"
             style="fill:#000000;fill-opacity:1;fill-rule:nonzero;stroke:none"
             id="path2190" />
        </g>
        <g
           id="g2192"
           transform="translate(263.2715,212.75)">
          <path
             d="m 0,0 c 0.323,1.938 0.468,3.876 0.922,5.796 0.246,1.04 0.601,2.051 1.022,3.032 0.371,0.864 0.909,1.639 1.168,2.547 0.041,0.146 -0.138,0.086 -0.194,0.036 C 1.538,10.172 0.936,8.162 0.45,6.425 -0.113,4.409 -0.453,2.031 -0.123,-0.046 -0.111,-0.123 -0.007,-0.046 0,0"
             style="fill:#000000;fill-opacity:1;fill-rule:nonzero;stroke:none"
             id="path2194" />
        </g>
        <g
           id="g2196"
           transform="translate(263.5244,221.0879)">
          <path
             d="M 0,0 C 0.392,0.81 1.098,1.817 0.924,2.747 0.905,2.843 0.762,2.753 0.73,2.725 -0.003,2.043 -0.453,0.944 -0.115,-0.042 -0.095,-0.102 -0.013,-0.026 0,0"
             style="fill:#000000;fill-opacity:1;fill-rule:nonzero;stroke:none"
             id="path2198" />
        </g>
        <g
           id="g2200"
           transform="translate(262.9043,219.627)">
          <path
             d="M 0,0 C -0.216,-0.443 -0.286,-0.805 -0.101,-1.259 -0.062,-1.354 0.062,-1.22 0.077,-1.173 0.22,-0.739 0.28,-0.386 0.195,0.072 0.176,0.178 0.018,0.036 0,0"
             style="fill:#000000;fill-opacity:1;fill-rule:nonzero;stroke:none"
             id="path2202" />
        </g>
        <g
           id="g2204"
           transform="translate(250.2461,266.1099)">
          <path
             d="m 0,0 c 1.189,1.531 3.563,2.473 5.357,2.977 2.729,0.765 5.627,0.919 8.446,0.815 2.714,-0.101 5.457,-0.508 8.021,-1.423 1.77,-0.631 3.04,-1.727 4.458,-2.87 0.174,-0.14 0.443,0.12 0.477,0.287 C 27.206,1.975 24.745,3.06 23.045,3.725 20.281,4.807 17.208,5.19 14.262,5.306 11.182,5.427 8.008,5.163 5.058,4.236 3.787,3.836 2.573,3.28 1.494,2.496 0.565,1.821 0.153,1.055 -0.164,0.002 -0.201,-0.122 -0.035,-0.045 0,0"
             style="fill:#000000;fill-opacity:1;fill-rule:nonzero;stroke:none"
             id="path2206" />
        </g>
        <g
           id="g2208"
           transform="translate(251.25,255.6221)">
          <path
             d="m 0,0 c -0.492,-5.322 -0.756,-10.66 -0.29,-15.996 0.235,-2.701 0.644,-5.4 1.515,-7.977 0.617,-1.828 1.831,-4.873 3.921,-5.372 0.17,-0.04 0.408,0.174 0.352,0.352 -0.33,1.054 -1.083,1.81 -1.662,2.727 -0.669,1.059 -1.144,2.218 -1.58,3.386 -0.951,2.547 -1.459,5.263 -1.758,7.957 C -0.055,-9.953 0.135,-4.937 0.109,0.053 0.109,0.124 0.004,0.045 0,0"
             style="fill:#000000;fill-opacity:1;fill-rule:nonzero;stroke:none"
             id="path2210" />
        </g>
        <g
           id="g2212"
           transform="translate(251.7441,262.7666)">
          <path
             d="M 0,0 C -0.106,-0.949 -0.277,-1.898 -0.088,-2.847 -0.076,-2.91 0.024,-2.82 0.03,-2.79 0.213,-1.832 0.26,-0.884 0.18,0.087 0.17,0.208 0.008,0.069 0,0"
             style="fill:#000000;fill-opacity:1;fill-rule:nonzero;stroke:none"
             id="path2214" />
        </g>
        <g
           id="g2216"
           transform="translate(274.4277,258.9873)">
          <path
             d="m 0,0 c -0.064,-3.968 0.048,-7.935 -0.127,-11.901 -0.097,-2.192 -0.302,-4.37 -0.642,-6.536 -0.147,-0.944 -0.359,-1.881 -0.569,-2.812 -0.169,-0.749 -0.516,-1.531 -0.298,-2.291 0.023,-0.081 0.141,0.008 0.163,0.04 0.991,1.423 1.04,3.523 1.253,5.199 0.239,1.882 0.394,3.773 0.488,5.668 0.21,4.22 0.072,8.469 -0.159,12.686 C 0.105,0.123 0.001,0.047 0,0"
             style="fill:#000000;fill-opacity:1;fill-rule:nonzero;stroke:none"
             id="path2218" />
        </g>
        <g
           id="g2220"
           transform="translate(271.9883,233.2246)">
          <path
             d="m 0,0 c -0.323,-0.6 -0.598,-1.206 -0.876,-1.827 -0.046,-0.102 0.071,-0.109 0.126,-0.048 0.496,0.56 0.81,1.148 0.853,1.9 C 0.106,0.094 0.012,0.022 0,0"
             style="fill:#000000;fill-opacity:1;fill-rule:nonzero;stroke:none"
             id="path2222" />
        </g>
        <g
           id="g2224"
           transform="translate(274.0674,262.1016)">
          <path
             d="m 0,0 c -0.024,-0.274 -0.042,-0.549 0.026,-0.818 0.012,-0.047 0.082,0.02 0.087,0.042 0.064,0.282 0.065,0.562 0.041,0.85 C 0.146,0.177 0.005,0.061 0,0"
             style="fill:#000000;fill-opacity:1;fill-rule:nonzero;stroke:none"
             id="path2226" />
        </g>
        <g
           id="g2228"
           transform="translate(253.9287,236.4971)">
          <path
             d="m 0,0 c 0.112,-1.724 0.285,-4.523 1.744,-5.682 0.068,-0.053 0.188,0.057 0.18,0.13 C 1.816,-4.597 1.335,-3.72 1.016,-2.817 0.68,-1.87 0.395,-0.904 0.089,0.053 0.073,0.1 -0.002,0.032 0,0"
             style="fill:#000000;fill-opacity:1;fill-rule:nonzero;stroke:none"
             id="path2230" />
        </g>
        <g
           id="g2232"
           transform="translate(256.4277,229.9473)">
          <path
             d="m 0,0 c 0.082,-0.493 0.308,-0.776 0.634,-1.137 0.045,-0.049 0.13,0.054 0.118,0.1 -0.125,0.47 -0.289,0.785 -0.65,1.11 C 0.065,0.105 -0.007,0.039 0,0"
             style="fill:#000000;fill-opacity:1;fill-rule:nonzero;stroke:none"
             id="path2234" />
        </g>
        <g
           id="g2236"
           transform="translate(253.2979,240.8223)">
          <path
             d="M 0,0 C -0.136,-0.693 -0.159,-1.474 0.268,-2.068 0.311,-2.129 0.403,-2.01 0.405,-1.969 0.43,-1.281 0.306,-0.6 0.144,0.068 0.125,0.146 0.008,0.037 0,0"
             style="fill:#000000;fill-opacity:1;fill-rule:nonzero;stroke:none"
             id="path2238" />
        </g>
        <g
           id="g2240"
           transform="translate(270.1279,229.6973)">
          <path
             d="m 0,0 c -0.78,-0.838 -1.701,-1.47 -2.624,-2.138 -0.18,-0.13 -0.41,-0.408 -0.32,-0.651 0.09,-0.243 0.422,-0.125 0.567,-0.016 1.007,0.76 1.917,1.618 2.476,2.768 C 0.138,0.044 0.042,0.046 0,0"
             style="fill:#000000;fill-opacity:1;fill-rule:nonzero;stroke:none"
             id="path2242" />
        </g>
        <g
           id="g2244"
           transform="translate(273.8125,265.4819)">
          <path
             d="m 0,0 c -0.267,-0.437 -0.386,-1.156 0.08,-1.498 0.066,-0.048 0.143,0.032 0.174,0.084 0.23,0.4 0.415,1.175 -0.056,1.488 C 0.131,0.119 0.037,0.062 0,0"
             style="fill:#000000;fill-opacity:1;fill-rule:nonzero;stroke:none"
             id="path2246" />
        </g>
        <g
           id="g2248"
           transform="translate(251.9922,265.3555)">
          <path
             d="m 0,0 c -0.021,-0.271 -0.044,-0.544 -0.089,-0.812 -0.009,-0.053 0.06,-0.021 0.071,0.008 0.113,0.29 0.13,0.538 0.114,0.851 C 0.093,0.11 0.003,0.04 0,0"
             style="fill:#000000;fill-opacity:1;fill-rule:nonzero;stroke:none"
             id="path2250" />
        </g>
        <g
           id="g2252"
           transform="translate(253.1182,247.8965)">
          <path
             d="M 0,0 C -0.194,-1.57 -0.015,-3.188 -0.128,-4.768 -0.146,-5.012 0.317,-4.777 0.304,-4.561 0.209,-3.043 0.275,-1.469 0.084,0.04 0.076,0.097 0.004,0.031 0,0"
             style="fill:#000000;fill-opacity:1;fill-rule:nonzero;stroke:none"
             id="path2254" />
        </g>
        <g
           id="g2256"
           transform="translate(253.2656,251.2231)">
          <path
             d="m 0,0 c -0.164,-0.43 -0.28,-0.804 0.037,-1.168 0.039,-0.044 0.113,0.031 0.129,0.063 0.204,0.414 0.307,0.76 0.065,1.19 C 0.175,0.186 0.027,0.072 0,0"
             style="fill:#000000;fill-opacity:1;fill-rule:nonzero;stroke:none"
             id="path2258" />
        </g>
        <g
           id="g2260"
           transform="translate(252.2822,175.7187)">
          <path
             d="m 0,0 c -0.443,0.496 -1.459,-0.32 -1.771,-0.637 -0.5,-0.507 -1.089,-1.544 -0.767,-2.269 0.045,-0.102 0.149,-0.186 0.268,-0.172 0.302,0.033 0.492,0.157 0.671,0.407 0.219,0.306 0.151,0.669 0.227,1.015 0.142,0.648 0.832,0.84 1.267,1.236 C -0.006,-0.329 0.11,-0.124 0,0"
             style="fill:#000000;fill-opacity:1;fill-rule:nonzero;stroke:none"
             id="path2262" />
        </g>
        <g
           id="g2264"
           transform="translate(251.7246,173.5107)">
          <path
             d="M 0,0 C 0.296,0.261 0.521,0.489 0.508,0.902 0.507,0.94 0.48,0.971 0.44,0.97 0.055,0.96 -0.827,0.195 -0.252,-0.095 -0.167,-0.138 -0.057,-0.051 0,0"
             style="fill:#000000;fill-opacity:1;fill-rule:nonzero;stroke:none"
             id="path2266" />
        </g>
        <g
           id="g2268"
           transform="translate(267.6006,234.9541)">
          <path
             d="M 0,0 C 0.016,0.503 -0.779,0.115 -0.927,-0.054 -1.226,-0.395 -1.429,-0.778 -1.445,-1.238 -1.468,-1.89 -0.876,-2.32 -0.288,-2.382 0.389,-2.454 1.045,-2.007 1.337,-1.42 1.606,-0.878 1.297,0.441 0.5,0.057 0.442,0.029 0.396,-0.027 0.392,-0.092 0.389,-0.134 0.386,-0.176 0.383,-0.217 0.382,-0.253 0.395,-0.284 0.418,-0.311 0.733,-0.521 1.054,-1.146 0.679,-1.455 0.458,-1.637 0.09,-1.51 -0.139,-1.416 -0.441,-1.291 -0.619,-0.99 -0.569,-0.667 -0.519,-0.338 -0.009,-0.28 0,0"
             style="fill:#000000;fill-opacity:1;fill-rule:nonzero;stroke:none"
             id="path2270" />
        </g>
        <g
           id="g2272"
           transform="translate(268.3203,237.0801)">
          <path
             d="m 0,0 c -0.542,-0.077 -0.382,-0.869 -0.163,-1.172 0.256,-0.353 0.649,-0.282 0.972,-0.058 0.32,0.221 0.572,0.636 0.558,1.031 C 1.35,0.295 0.826,0.35 0.512,0.104 0.47,0.07 0.434,0.022 0.445,-0.033 0.448,-0.06 0.451,-0.085 0.455,-0.111 0.458,-0.171 0.48,-0.213 0.537,-0.238 0.835,-0.377 0.898,-0.613 0.649,-0.86 0.281,-1.224 0.052,-0.173 0.041,-0.026 0.039,-0.002 0.021,0.004 0,0"
             style="fill:#000000;fill-opacity:1;fill-rule:nonzero;stroke:none"
             id="path2274" />
        </g>
        <g
           id="g2276"
           transform="translate(256.1162,259.4321)">
          <path
             d="m 0,0 c -0.538,-0.198 -0.853,-0.843 -0.79,-1.394 0.074,-0.654 0.79,-0.977 1.378,-0.884 0.567,0.09 0.973,0.646 1.14,1.152 0.15,0.452 0.015,1.18 -0.519,1.306 C 0.962,0.239 0.525,-0.193 0.812,-0.375 1.108,-0.562 1.253,-0.693 1.24,-1.071 1.229,-1.389 1.013,-1.702 0.708,-1.794 c -0.411,-0.126 -0.906,0.175 -1.084,0.537 -0.219,0.444 0.125,0.86 0.413,1.158 C 0.083,-0.051 0.083,0.031 0,0"
             style="fill:#000000;fill-opacity:1;fill-rule:nonzero;stroke:none"
             id="path2278" />
        </g>
        <g
           id="g2280"
           transform="translate(268.8525,270.5332)">
          <path
             d="m 0,0 c -0.022,-1.191 -0.053,-2.382 -0.087,-3.573 -0.006,0.665 -0.012,1.33 -0.025,1.994 C -0.076,-1.054 -0.041,-0.527 0,0 M 0.545,8.436 C 0.471,9.841 0.238,11.275 0.25,12.68 c 0.002,0.335 -0.434,0.046 -0.52,-0.059 0.082,0.083 0.082,0.117 -0.002,0.096 -0.215,-0.005 -0.447,-0.222 -0.449,-0.442 l -0.002,-0.04 c -0.032,0.11 -0.071,0.219 -0.124,0.319 -0.05,0.098 -0.158,0.054 -0.231,0.009 -0.003,10e-4 -0.003,-0.001 -0.003,-0.001 -0.076,-0.048 -0.119,-0.12 -0.128,-0.182 -0.002,-0.002 -0.004,-0.001 -0.006,10e-4 -0.129,-0.71 -0.039,-1.439 0.006,-2.154 0.108,-1.715 0.202,-3.43 0.281,-5.146 0.157,-3.371 0.248,-6.747 0.261,-10.121 0.016,-5.099 -0.081,-10.204 -0.519,-15.283 -0.095,-0.973 -0.194,-1.945 -0.29,-2.916 -0.093,-0.809 -0.19,-1.616 -0.304,-2.423 -0.005,-0.032 0.039,-0.009 0.043,0.008 0.021,0.109 0.033,0.219 0.05,0.329 -0.013,-0.125 -0.025,-0.251 -0.038,-0.375 -0.01,-0.105 0.162,10e-4 0.174,0.062 1.355,6.278 1.715,12.775 1.974,19.176 0.133,3.325 0.196,6.65 0.231,9.979 0.019,1.64 -0.019,3.28 -0.109,4.919"
             style="fill:#000000;fill-opacity:1;fill-rule:nonzero;stroke:none"
             id="path2282" />
        </g>
      </g>
    </g>
    <g
       id="g2288"
       transform="matrix(1.1433588,0,0,-1.1433588,-195.30428,367.6764)">
      <g
         id="g2290"
         clip-path="url(#clipPath2294)">
        <g
           id="g2296"
           transform="translate(278.1328,289.7012)">
          <path
             d="m 0,0 c 0.192,-0.011 0.376,0.047 0.548,0.176 0.171,0.128 0.263,0.282 0.272,0.46 0.084,1.453 0.081,3.629 -0.006,6.527 -0.088,2.899 -0.091,5.07 -0.008,6.516 l 0.058,0.232 1.042,-0.217 c 0.194,-0.011 0.371,0.037 0.535,0.143 0.163,0.106 0.25,0.253 0.261,0.439 0.021,0.366 -0.207,0.562 -0.683,0.589 l -0.371,0.01 -3.094,0.391 c -0.157,0.008 -0.32,-0.029 -0.49,-0.113 -0.168,-0.083 -0.256,-0.196 -0.264,-0.338 -0.026,-0.432 0.58,-0.694 1.815,-0.788 0.03,-10e-4 0.06,-0.003 0.089,-0.005 C -0.322,13.298 -0.337,11.308 -0.341,8.048 -0.345,4.789 -0.323,3.061 -0.273,2.863 -0.325,2.351 -0.353,2.09 -0.353,2.083 L -0.408,0.326 Z"
             style="fill:none;stroke:#000000;stroke-width:0.5;stroke-linecap:butt;stroke-linejoin:miter;stroke-miterlimit:10;stroke-dasharray:none;stroke-opacity:1"
             id="path2298" />
        </g>
        <g
           id="g2300"
           transform="translate(283.6416,292.9399)">
          <path
             d="m 0,0 c 0.047,-0.87 0.258,-1.764 0.631,-2.683 0.394,-0.957 1.011,-1.46 1.853,-1.508 2.035,-0.116 3.178,2.02 3.43,6.408 L 6.018,4.812 6.027,4.98 C 6.113,6.485 5.992,7.764 5.664,8.814 5.096,10.641 3.924,11.605 2.151,11.707 1.942,11.718 1.726,11.63 1.497,11.441 1.27,11.252 1.016,10.736 0.735,9.893 0.402,8.895 0.166,7.197 0.028,4.798 L 0.005,4.384 C 0.027,4.382 0.037,4.345 0.032,4.27 L -0.04,3.4 C -0.095,2.446 -0.081,1.312 0,0 Z m 1.547,7.806 c 0.042,0.722 0.146,1.325 0.316,1.809 0.205,0.579 0.57,0.853 1.091,0.823 C 3.498,10.407 3.932,10.164 4.257,9.708 4.583,9.252 4.736,8.744 4.719,8.184 L 4.695,7.782 C 4.662,7.201 4.662,6.315 4.695,5.125 4.728,3.934 4.729,3.052 4.695,2.478 4.662,1.904 4.585,1.213 4.464,0.406 4.392,-0.062 4.304,-0.498 4.197,-0.902 4.085,-1.315 3.953,-1.705 3.801,-2.074 3.647,-2.443 3.455,-2.732 3.218,-2.943 2.981,-3.154 2.726,-3.251 2.449,-3.235 2.117,-3.044 1.787,-2.458 1.463,-1.475 1.2,0.192 1.132,2.132 1.259,4.346 l 0.233,2.106 z"
             style="fill:none;stroke:#000000;stroke-width:0.5;stroke-linecap:butt;stroke-linejoin:miter;stroke-miterlimit:10;stroke-dasharray:none;stroke-opacity:1"
             id="path2302" />
        </g>
        <g
           id="g2304"
           transform="translate(295.0283,293.2402)">
          <path
             d="M 0,0 C 0.29,1.56 0.893,4.239 1.805,8.037 1.821,7.543 1.858,6.747 1.916,5.648 1.973,4.549 2.009,3.587 2.023,2.76 2.04,1.933 2.032,1.242 2.001,0.687 1.969,0.132 1.969,-0.259 2.001,-0.485 0.918,-0.348 0.25,-0.187 0,0 Z M 3.042,4.872 C 2.864,7.177 2.81,8.911 2.876,10.073 c 0.011,0.194 -0.06,0.344 -0.21,0.449 -0.151,0.106 -0.331,0.165 -0.54,0.176 L 1.354,10.743 C 1.129,10.45 0.946,9.746 0.809,8.632 0.749,8.127 0.709,7.823 0.688,7.72 -0.026,3.985 -1.013,0.162 -2.268,-3.75 l -0.068,-0.198 c -0.01,-0.179 0.059,-0.331 0.204,-0.454 0.146,-0.125 0.309,-0.192 0.488,-0.202 0.365,-0.021 0.631,0.248 0.798,0.806 0.081,0.272 0.178,0.708 0.287,1.307 0.11,0.599 0.249,1.148 0.42,1.646 L 2.1,-1.309 c 0.153,-1.25 0.21,-2.199 0.172,-2.847 -0.016,-0.298 0.061,-0.505 0.235,-0.619 0.173,-0.115 0.419,-0.181 0.74,-0.2 0.257,0.083 0.398,0.292 0.417,0.627 l 10e-4,0.022 c 0.013,0.224 -0.033,0.701 -0.138,1.432 -0.102,0.731 -0.149,1.19 -0.138,1.376 L 3.223,-0.095 C 3.28,0.911 3.221,2.566 3.042,4.872 Z"
             style="fill:none;stroke:#000000;stroke-width:0.5;stroke-linecap:butt;stroke-linejoin:miter;stroke-miterlimit:10;stroke-dasharray:none;stroke-opacity:1"
             id="path2306" />
        </g>
        <g
           id="g2308"
           transform="translate(302.0059,288.8364)">
          <path
             d="m 0,0 c 0.03,-0.502 0.356,-0.816 0.978,-0.941 l 0.002,0.056 c 0.494,-0.021 0.939,0.089 1.336,0.332 0.401,0.242 0.716,0.566 0.949,0.971 0.48,0.817 0.743,1.688 0.789,2.613 C 4.13,4.23 3.956,5.309 3.532,6.268 3.347,6.682 3.149,7.11 2.939,7.552 2.729,7.995 2.532,8.397 2.347,8.763 2.162,9.129 2.016,9.543 1.908,10.005 c -0.109,0.463 -0.152,0.849 -0.135,1.158 0.018,0.309 0.051,0.578 0.101,0.806 0.233,1.049 0.592,1.571 1.078,1.565 0.15,-0.099 0.308,-0.152 0.473,-0.162 0.372,-0.021 0.568,0.144 0.589,0.494 0.01,0.201 -0.1,0.394 -0.332,0.579 C 3.449,14.63 3.198,14.731 2.931,14.746 2.215,14.787 1.614,14.329 1.126,13.369 0.864,12.854 0.713,12.253 0.674,11.567 0.609,10.45 0.865,9.292 1.439,8.092 1.679,7.585 1.922,7.087 2.166,6.598 2.411,6.11 2.611,5.584 2.766,5.022 2.92,4.459 2.982,3.898 2.95,3.335 2.918,2.773 2.78,2.132 2.536,1.414 2.41,1.04 2.232,0.732 2.001,0.491 1.771,0.25 1.511,0.138 1.22,0.155 L 0.279,0.377 Z"
             style="fill:none;stroke:#000000;stroke-width:0.5;stroke-linecap:butt;stroke-linejoin:miter;stroke-miterlimit:10;stroke-dasharray:none;stroke-opacity:1"
             id="path2310" />
        </g>
        <g
           id="g2312"
           transform="translate(311.9893,287.7603)">
          <path
             d="m 0,0 c 0.192,-0.011 0.376,0.047 0.548,0.176 0.171,0.127 0.263,0.282 0.272,0.46 0.083,1.453 0.081,3.629 -0.006,6.527 -0.088,2.898 -0.09,5.07 -0.007,6.516 l 0.057,0.232 1.042,-0.217 c 0.194,-0.011 0.371,0.036 0.535,0.143 0.163,0.106 0.25,0.253 0.261,0.439 0.021,0.365 -0.207,0.561 -0.683,0.589 l -0.371,0.01 -3.094,0.39 c -0.157,0.009 -0.32,-0.028 -0.49,-0.112 -0.168,-0.083 -0.256,-0.196 -0.264,-0.338 -0.026,-0.432 0.58,-0.694 1.816,-0.788 0.03,-0.002 0.059,-0.003 0.088,-0.005 C -0.322,13.298 -0.337,11.307 -0.341,8.048 -0.345,4.789 -0.323,3.06 -0.273,2.863 -0.325,2.351 -0.353,2.09 -0.353,2.083 L -0.408,0.326 Z"
             style="fill:none;stroke:#000000;stroke-width:0.5;stroke-linecap:butt;stroke-linejoin:miter;stroke-miterlimit:10;stroke-dasharray:none;stroke-opacity:1"
             id="path2314" />
        </g>
      </g>
    </g>
  </g>
</svg>
