<?xml version="1.0" encoding="UTF-8" standalone="no"?>
<!-- Created with Inkscape (http://www.inkscape.org/) -->

<svg
   width="800"
   height="800"
   viewBox="0 0 211.66666 211.66667"
   version="1.1"
   id="svg81084"
   inkscape:version="1.1.2 (b8e25be833, 2022-02-05)"
   sodipodi:docname="bus.svg"
   xmlns:inkscape="http://www.inkscape.org/namespaces/inkscape"
   xmlns:sodipodi="http://sodipodi.sourceforge.net/DTD/sodipodi-0.dtd"
   xmlns="http://www.w3.org/2000/svg"
   xmlns:svg="http://www.w3.org/2000/svg">
  <sodipodi:namedview
     id="namedview81086"
     pagecolor="#505050"
     bordercolor="#ffffff"
     borderopacity="1"
     inkscape:pageshadow="0"
     inkscape:pageopacity="0"
     inkscape:pagecheckerboard="1"
     inkscape:document-units="mm"
     showgrid="false"
     units="px"
     inkscape:zoom="0.83654462"
     inkscape:rotation="-1"
     inkscape:cx="387.58428"
     inkscape:cy="364.24241"
     inkscape:window-width="2323"
     inkscape:window-height="1321"
     inkscape:window-x="2469"
     inkscape:window-y="-692"
     inkscape:window-maximized="1"
     inkscape:current-layer="layer1" />
  <defs
     id="defs81081" />
  <g
     inkscape:label="Capa 1"
     inkscape:groupmode="layer"
     id="layer1">
    <g
       id="g129294"
       transform="matrix(0.48201964,0,0,0.48201964,-108.4133,36.284781)">
      <path
         d="m 621.21958,128.35321 c -0.2081,3.14325 -0.261,6.2724 -0.3598,9.41213 -0.025,0.4727 -0.081,1.0301 -0.3422,1.40052 -0.3951,0.63852 -1.2841,0.46566 -1.6263,-0.13052 -0.4233,-0.64558 -0.3246,-1.56988 -0.2752,-2.42007 0.063,-1.016 0.1341,-2.09198 0.1658,-3.09739 v -0.0705 c 0.014,-1.53458 0.1905,-3.1468 -0.1552,-4.6849 -0.2646,-1.17827 -1.0795,-2.56468 0.3069,-2.9986 1.9086,-0.47625 2.4871,0.94192 2.2825,2.58937 z m -139.9766,-17.68475 c 28.3239,0.68088 56.6357,2.07788 84.9468,3.33375 11.7369,0.57505 23.4774,1.21005 35.2072,1.85563 1.8063,0.23283 4.3075,-0.49742 5.1435,1.5522 0.4375,1.10773 0.2646,2.87515 -1.0936,3.09388 -27.0404,-0.8114 -54.1288,-2.7164 -81.1928,-3.49956 -14.1016,-0.26107 -28.2466,-1.81327 -42.3337,-0.8255 -0.9546,0.0953 -1.7121,0.37748 -1.6983,0.6209 -0.019,0.22225 0.5761,0.42333 1.4044,0.4727 5.0913,0.0282 10.2002,0.0565 15.2961,0.18346 13.7626,0.30692 27.5139,0.97012 41.2676,1.54517 21.8027,0.81137 43.5924,1.97908 65.387,2.96333 4.9107,0.49035 -0.2222,4.05694 -1.6722,5.65502 -3.5489,3.60185 -3.3972,8.7136 -2.9809,13.38085 0.028,1.34057 0.021,2.87163 -0.095,4.1628 -0.2363,1.76387 -0.6526,0.65262 -0.6103,-0.8114 0.2152,-13.24327 -6.4064,-14.66498 -17.6459,-13.82535 -9.8955,0.29279 -19.7891,0.55033 -29.6863,0.85018 -0.9811,0 -2.2701,0.0212 -2.9679,-0.65264 -1.2217,-1.11125 -0.6145,-6.13127 -0.5637,-7.85636 0.14,-0.78668 0.387,-3.31258 -1.0418,-2.19075 -0.9366,0.96661 -0.9003,2.65994 -0.9521,3.98992 -0.199,18.6196 -0.2939,37.25685 -0.5472,55.88 -0.074,2.01083 0.4868,5.06942 -2.201,5.47158 -13.1554,0.97367 -26.2939,2.24719 -39.3072,4.49792 -2.6215,0.49035 -6.1027,1.16062 -6.3831,4.3462 -0.4537,4.20159 -0.1433,8.44905 -0.098,12.66825 0.1464,2.37422 -0.026,5.2564 -2.7644,6.01488 -15.6302,3.39725 -12.1116,10.39636 -19.3661,13.09159 -3.9871,0.97366 -8.2232,0.067 -12.2519,-0.26813 -7.7301,-0.93485 -15.4185,-1.91559 -23.1345,-2.98802 -3.2226,-0.17992 -3.6802,-2.12019 -3.5641,-4.83658 0.2046,-30.20132 0.2663,-60.39909 0.5454,-90.59686 -0.03,-2.61408 0.6216,-3.16089 3.3683,-3.25966 1.8514,0.0459 5.9214,-1.01248 5.6116,1.97202 -0.097,1.62983 -1.5903,2.26131 -3.0698,2.32129 -2.9725,0.1905 -4.0118,0.97367 -4.0598,4.07459 -0.176,16.55585 -0.1446,33.11524 -0.2148,49.6711 0.058,3.71827 0.4335,8.55837 4.4513,9.99066 2.0147,0.78669 4.5004,0.88546 6.6806,0.99129 5.571,0.25048 11.0902,0.60325 16.631,1.0654 4.2608,0.50093 9.1757,0.55033 10.5466,-4.5226 0.6576,-2.09198 0.8357,-4.47323 0.8389,-6.64634 -0.1189,-17.272 -0.027,-34.55458 -0.086,-51.82306 -0.058,-2.19075 -0.1771,-4.95652 -2.1445,-6.29002 -1.3384,-0.74435 -1.1402,0.60677 -1.5995,1.51342 l -0.023,0.0318 c -0.3779,0.508 -1.2027,0.55033 -1.8204,0.59266 -2.1872,0.06 -4.2333,-0.11641 -5.5481,-1.88031 -0.5673,-0.7126 -1.0111,-2.01083 0.1429,-2.37419 2.5527,-0.381 5.3033,-0.0529 7.8479,-0.2046 1.2939,0.0177 2.9404,-0.29988 3.9426,0.68437 0.8206,0.8608 0.677,2.54355 0.7034,3.7465 -0.04,29.53105 0.034,59.05852 0.1658,88.56134 0.1493,1.94733 0.9169,1.60866 1.0993,-0.18344 0.1203,-1.45698 0.1559,-2.96688 0.1806,-4.45558 0,-28.72317 0.1327,-57.45692 -0.022,-86.18009 0.1009,-4.31093 -3.3513,-3.40783 -6.4223,-3.54189 -6.8837,-0.10936 -13.9178,0.35983 -20.7818,-0.0953 -0.6417,-0.20461 -1.0922,-0.62087 -1.0576,-1.2065 0.1895,-1.15004 1.6747,-1.28059 2.6621,-1.29469 12.0336,-0.64558 12.5271,2.2225 12.2851,-8.79123 0.1651,-2.92804 -1.2696,-3.92287 -4.0781,-3.7465 -35.5494,2.01083 -70.8526,6.93915 -106.3068,10.47398 -29.0149,3.17148 -58.0241,6.2865 -87.0556,9.2216 -1.1127,0.13055 -2.9863,0.31398 -3.1987,-1.02303 0.079,-1.13597 1.1854,-1.51342 2.3696,-1.67924 3.1207,-0.36689 6.2721,-0.68439 9.4047,-1.0301 44.9041,-4.80483 89.7234,-10.29054 134.5989,-15.26471 18.9078,-2.07785 37.7871,-4.73427 56.7979,-5.6656 7.9241,-0.37042 15.8672,-0.42685 23.7973,-0.0741 36.7161,1.84857 73.4117,4.01109 110.1182,6.06425 1.0971,0.0811 2.3107,0.10232 3.0515,1.00542 0.8185,1.23119 1.1148,4.49085 -0.099,5.6021 -1.7392,1.0654 -4.004,-0.007 -5.9019,0.0529 -35.8669,-2.0955 -71.7547,-3.57362 -107.6382,-5.06587 -3.4752,-0.067 -6.9638,-0.06 -10.4358,0.0882 -1.8228,-0.0353 -3.6195,1.05482 -0.7783,1.29469 z m 107.8597,63.79633 c 0.2611,-9.85308 0.1059,-19.72379 0.5821,-29.56983 0.1552,-1.93675 2.3742,-3.10092 3.9335,-1.90145 1.0654,0.85725 1.0936,2.94216 1.0936,4.39208 0,1.97202 0,3.92993 0,5.89843 -0.063,2.5894 0.1834,5.2705 -0.2223,7.82461 l -0.01,0.06 c -0.3316,2.6176 -0.092,5.32341 -0.1623,7.96218 0,1.95088 0.01,3.86998 0,5.83848 -0.039,1.41465 -0.056,3.11857 -1.1677,4.14161 -0.7867,0.70556 -2.1625,0.64206 -3.0021,-0.0635 -1.2453,-1.06538 -1.0302,-3.06563 -1.0443,-4.58259 z m 15.9033,65.00635 c -2.085,0.15172 -3.8136,-1.79916 -3.6689,-3.86291 v -0.0705 c 0.053,-2.56117 2.7869,-4.77663 5.1611,-3.33375 2.8893,1.73919 1.8345,7.07319 -1.4958,7.2672 z m 0.889,-23.52675 c 1.6545,1.83092 2.6881,4.2263 2.741,6.76275 0.014,2.08847 -4.0887,-0.06 -5.7079,0.87138 -3.1574,0.80079 -5.7256,4.16629 -5.5386,7.34129 -0.032,0.71967 0.568,2.30013 1.3476,1.40055 l 0.025,-0.0388 c 0.6173,-1.1924 0.3104,-2.86102 0.9172,-4.1134 1.4323,-4.25801 8.3432,-4.89653 9.7649,-0.37393 0.2893,1.05481 1.0407,3.22085 -0.5151,2.37418 -4.5896,-3.58068 -10.7279,0.43747 -10.1847,5.99724 -0.2504,3.4431 2.54,7.01675 6.0713,6.78743 1.0231,0.381 5.4046,-2.99154 3.8489,-0.3457 -1.5699,2.4906 -5.3376,2.80458 -7.7823,1.48166 -3.0762,-1.45346 -4.1311,-4.90714 -4.0676,-8.08921 -0.2151,-6.38879 0.1129,-12.7776 0.2964,-19.15583 0.2011,-3.49602 0.5997,-7.34835 -1.0372,-10.57275 -3.3972,-6.73452 -12.2167,-9.04169 -18.6443,-12.17787 -3.7712,-1.41113 -2.3354,-6.22655 -3.0797,-9.35919 -0.5151,-2.80458 0.9454,-3.64067 3.5101,-3.2879 4.7166,0.20815 9.4756,1.05482 14.1817,0.48332 4.0287,-0.6209 5.5139,-4.58613 5.588,-8.20915 0.4021,-6.04308 0.201,-12.07206 0.2645,-18.10808 0,1.04423 0.011,2.08139 0,3.05858 0.074,16.4324 -0.1482,32.88242 -0.2999,49.3395 -0.067,1.63687 0.8502,2.88219 2.2789,3.556 2.1661,1.18533 4.3145,2.54 6.0184,4.37795 z m 3.2843,29.79209 c -0.2117,3.41489 -0.4621,6.81214 -2.1802,9.76841 -1.471,2.43772 -4.2298,3.47134 -6.7063,4.58965 -1.0653,0.45508 -2.2577,0.91723 -2.9139,0.88548 -1.7851,0.0388 -1.2347,-4.08165 -1.3441,-5.4469 0.032,-4.18748 0.014,-8.42433 0.011,-12.61885 0.011,-0.37041 0,-1.07598 0.3422,-1.15006 l 0.028,-0.003 c 0.3422,-0.014 0.8643,0.51504 1.1889,0.81492 3.1961,3.175 6.3112,3.75708 9.9307,1.95085 0.4974,-0.21873 1.2594,-0.56444 1.524,0.014 0.1411,0.29633 0.1376,0.8114 0.1199,1.19592 z m -25.2624,-87.66527 -0.01,0.06 c -0.3774,4.826 -0.021,9.71902 -0.1693,14.57325 0,3.9229 -0.6809,6.36058 -5.1858,6.12069 -6.6887,-0.28575 -13.3103,-0.82902 -19.9711,-1.29117 -2.7909,-0.21167 -6.6499,-0.21519 -6.8178,-3.86644 -0.3464,-10.42458 0.045,-20.87739 0.019,-31.30901 -0.08,-4.34624 1.8447,-5.33755 5.8706,-5.37988 7.4549,-0.0705 14.962,-0.98777 22.3809,-0.41979 4.3321,0.58912 4.191,5.37279 4.0781,8.75945 -0.1728,4.23688 0.254,8.5443 -0.1975,12.75292 z m 11.9168,60.34617 c -0.8819,17.26493 -0.3598,34.74508 -1.9967,51.93593 -0.1623,1.77448 -5.2705,8.13858 -5.9866,3.91583 -0.1376,-3.08327 0,-5.11175 -3.7289,-4.55083 -10.9749,1.27355 -21.9033,2.72346 -32.8919,4.01463 -1.6168,0.19402 -3.7229,0.51858 -4.0256,2.40593 -0.575,2.0814 0.6181,4.79425 -0.9909,6.47349 -2.9549,1.53103 -6.7635,-1.4605 -7.4239,-4.58259 -0.6911,-19.25815 0.7761,-38.64681 0.8467,-57.94375 0.1146,-3.3655 0.1048,-7.64116 1.9688,-10.40696 3.6746,-4.93535 13.637,-6.62162 19.6007,-8.23383 1.5656,-0.6491 11.659,-0.97719 5.9581,-3.39371 -7.1956,-2.36363 -14.3651,-4.85775 -21.7191,-6.70983 -0.5828,-0.14465 -1.2323,-0.21873 -1.7491,-0.15523 -0.121,0.0458 -0.2201,0.0246 -0.2283,0.18343 v 0.0177 c 6.9737,3.21027 15.2061,4.45207 22.4292,7.53885 0.049,0.40923 -0.9242,0.40572 -1.3723,0.57505 -5.262,0.97367 -10.1511,2.20133 -15.0509,3.96875 -8.0059,2.28952 -11.5415,6.77333 -11.2148,15.19412 -0.4639,18.7184 -0.8802,37.4368 -1.3416,56.15871 -0.1693,2.86454 0.5634,5.47862 2.3114,7.7611 0.6812,2.22602 -6.9769,1.21002 -7.8811,0.26107 -2.989,-1.51696 -4.7081,-4.82955 -4.3028,-8.15623 0.4943,-12.61885 0.9878,-25.19185 1.669,-37.80719 0.05,-2.91748 -0.4448,-5.87729 -1.7039,-8.42788 -4.2729,-7.9657 -14.599,-12.24491 -22.5679,-15.61393 -1.5695,-0.54327 -2.1548,0.57856 -0.5853,1.56633 1.2034,0.71615 2.5136,1.25235 3.7642,1.88383 5.8342,2.99861 11.8272,6.36059 16.0796,11.44411 2.3925,3.16089 2.7301,7.22138 2.4578,11.06664 -0.4509,9.22867 -0.7296,18.45027 -1.0435,27.68249 -0.1394,9.90245 -5.8233,4.6355 -11.6096,3.7465 -2.5199,-0.40924 -5.0751,-0.4304 -7.626,-0.37042 -8.9824,0.57502 -17.8089,-0.97721 -26.3895,-3.45723 -1.6539,-0.46215 -3.4107,-1.00894 -4.7276,-2.13077 -1.8062,-1.47463 -2.5672,-3.8735 -3.2459,-6.05015 -3.26,-10.10002 -7.4299,-20.57048 -15.379,-27.9541 -1.1769,-1.05482 -2.4702,-2.02142 -3.8566,-2.86808 -0.3834,-0.21522 -1.241,-0.79375 -1.0735,-0.90313 0.212,-0.14462 0.9747,-0.0282 1.4231,0.0177 5.8678,0.70909 11.7292,1.49225 17.6999,1.77094 4.6987,0.47625 8.1679,-1.778 10.4282,-5.78202 3.6727,-5.55977 10.372,-6.8086 16.202,-8.79123 1.6182,-1.51694 0.6597,-4.76602 0.9271,-6.84035 0,-2.81517 -0.09,-5.6656 -0.127,-8.50194 -0.1034,-2.57529 0.043,-5.69738 3.1887,-6.25123 14.3913,-2.35302 29.0358,-4.72017 43.6425,-4.4944 13.9242,0.78672 26.9639,5.60213 39.7027,11.39122 0.3845,0.24693 1.6651,0.70908 1.2312,1.09712 -3.5772,0.0282 -7.2637,-1.13594 -10.8761,-0.74436 -0.5892,-0.0106 -2.3707,0.28927 -0.9173,0.72319 3.9864,0.62796 8.0539,0.99838 12.0403,1.77096 10.213,0.77962 10.5728,8.16679 10.0577,16.55585 z m -10.1564,56.50441 c -0.046,1.76035 -0.035,3.48192 -0.067,5.23875 -0.042,1.04423 -0.063,2.25073 -0.8184,3.04094 -0.7797,0.80081 -2.1837,0.95604 -3.2914,1.10421 -9.7896,1.15358 -19.5256,2.39535 -29.295,3.69004 -0.9166,0.0988 -2.1227,0.32456 -2.9027,-0.14462 -0.8982,-0.52917 -0.7835,-2.06024 -0.792,-3.35492 0,-0.80433 0,-1.59808 -0.021,-2.40242 v -0.0706 c 0,-1.64042 -0.4858,-3.78884 0.3266,-5.07294 1.1921,-1.73921 3.7031,-1.23121 5.5693,-1.50283 9.5208,-1.13948 19.0246,-2.43065 28.5426,-3.60892 0.9278,-0.10938 2.1343,-0.11641 2.5153,0.85019 0.2752,0.66675 0.2434,1.50283 0.2363,2.23308 z m -128.4454,7.08025 c -0.5418,2.3001 -1.2096,5.07294 -2.8942,6.7945 -0.1128,0.067 -0.1016,-0.0635 0.024,-0.35983 0.07,-0.16934 0.1761,-0.38807 0.2992,-0.635 2.1431,-4.16984 3.0314,-8.92882 2.0937,-13.47259 -0.055,-0.0776 -0.109,0 -0.1594,0.20815 -0.4244,2.85044 -0.4992,5.83494 -1.6175,8.54779 -0.3824,1.016 -1.0449,1.651 -1.0319,0.0177 0.037,-1.38994 0.3302,-2.82223 0.3796,-4.22982 0.2815,-6.33235 -1.5445,-12.9681 -5.6339,-17.91052 -1.1063,-1.15006 -2.3992,-1.82033 -4.3546,-2.37066 -0.4661,-0.16227 -1.4387,-0.3316 -1.7128,-0.56092 l -0.01,-0.0106 c -0.02,-0.16227 0.4978,-0.15169 0.7317,-0.18698 0.3764,-0.0318 0.7983,-0.0705 1.1575,-0.17992 0.6127,-0.19402 0.865,-0.60325 1.2312,-0.87487 0.3549,-0.28223 0.8152,-0.28575 1.2643,-0.20463 1.7826,0.34925 3.2766,1.47815 4.5551,2.72346 5.9411,5.80671 7.1649,14.8731 5.6772,22.70477 z m -5.8462,2.8575 c -1.3215,2.85398 -4.0322,4.68842 -7.2513,4.46617 -0.5063,0.007 -1.8426,-0.29634 -1.6532,-0.53975 l 0.01,-0.0177 c 0.1475,-0.23635 0.9822,-0.37393 1.3554,-0.49035 1.0679,-0.25048 1.9745,-0.74083 2.7108,-1.42875 1.2047,-1.10419 1.924,-2.71992 2.4168,-4.27919 2.0222,-6.38881 0.9779,-13.91004 -4.0354,-18.61963 -1.9371,-1.55575 -4.5117,-1.77093 -6.7229,-0.67733 -0.5496,0.23638 -0.8272,0.3175 -0.6861,0.10583 1.4436,-1.75328 4.7498,-2.81516 7.051,-2.22953 2.3837,0.43391 4.3074,2.0955 5.5192,4.15218 3.7958,6.0325 4.2816,13.17625 1.2869,19.558 z m -7.5731,6.01133 v -0.007 c 0.1619,-0.0882 0.5937,-0.0282 0.8361,-0.0459 1.8193,0 3.5454,-0.69498 5.4084,-1.36173 0.2798,-0.0705 0.7987,-0.34219 1.0069,-0.17285 0.028,0.16933 -0.3052,0.43743 -0.4795,0.58208 -1.8157,1.48167 -4.5691,1.94027 -6.7719,1.00542 z m 7.7968,0.51859 c -3.4195,2.89631 -7.8493,2.44123 -9.9403,-1.06892 l 0.01,-0.003 c 3.2335,3.13971 6.0265,2.46592 9.9448,0.67027 0.6547,-0.24694 0.4392,0.0353 -0.012,0.40217 z m -12.5215,-6.26182 c -2.4942,-2.83278 -3.0392,-6.3641 -3.2847,-10.3646 v -0.0776 c -0.3768,-3.75005 1.6164,-10.73505 6.3313,-10.31523 6.992,1.27352 7.6055,14.68966 4.5688,19.6356 -2.0013,3.48546 -4.7978,4.44855 -7.6108,1.12183 z m -15.5674,-11.54287 c -0.2992,1.95085 -3.4495,1.18179 -4.0982,0.0106 -0.3814,-0.68088 -0.3821,-1.83799 -0.4011,-2.70934 0.049,-7.55298 0.093,-15.11654 0.2279,-22.68008 -0.01,-1.39348 0.1651,-3.17148 -0.919,-4.19455 -28.139,-6.21945 -57.398,-9.40151 -85.881,-14.605 -3.0053,-0.4727 -6.0444,-1.016 -9.0487,-1.43226 -0.7137,-0.0776 -1.3212,0.0106 -1.4683,0.22576 -0.1199,0.8114 1.8197,0.99132 2.6109,1.16065 29.9156,4.8119 59.8153,9.75784 89.7104,14.6826 2.2211,0.16934 4.0019,1.09363 3.7253,3.56307 -0.074,7.96573 -0.041,15.93143 -0.1087,23.89716 -0.022,0.4445 -0.1266,1.00542 -0.3912,1.36174 -0.7387,0.94191 -2.5185,0.29633 -3.6195,0.0776 -30.1653,-6.96032 -60.283,-14.07935 -90.4921,-20.8421 -2.8412,-0.34574 -3.3517,-2.35657 -3.163,-4.84717 -0.2116,-6.20183 0.6213,-12.74233 -0.34,-18.79955 -0.4516,-0.36335 -0.8023,0.90313 -0.743,1.40759 -0.069,5.75029 -0.01,11.56758 -0.065,17.3355 0.7366,5.03063 -3.4819,4.33213 -3.073,-0.13404 0.087,-12.25905 -0.2766,-24.43692 -4.1406,-36.26556 -0.3355,-1.3335 0.4872,-1.5099 1.6771,-1.36877 44.0034,5.3481 88.1236,9.62025 131.7417,15.99845 v 0.0106 c -18.8506,5.207 -21.8644,31.64065 -21.7381,48.14713 z m -2.3746,9.4121 c -33.7601,-9.01348 -67.5527,-17.91758 -101.4546,-26.34191 -0.8273,-0.25752 -2.9365,-0.51507 -2.9831,-1.38642 -0.017,-0.38806 1.2633,-0.33867 1.8263,-0.15523 34.5927,8.17388 69.1801,16.48883 103.6306,25.26596 1.0157,0.38452 1.8281,1.02304 1.9008,2.03552 v 0.0494 c -8e-4,1.4887 -1.9343,0.81137 -2.9213,0.53268 z m -127.7538,-79.39264 c -3.2022,3.31258 -7.9305,1.64041 -12.0347,1.23473 -3.8449,-0.63148 -7.9707,-0.59267 -11.7246,-1.51694 -2.7753,-0.86431 -3.5563,-21.25485 -3.4928,-24.84614 0.093,-2.38125 9.6329,-0.57854 11.8858,-0.87842 23.5539,1.05129 47.2694,1.74273 70.7802,2.45888 l 0.057,0.014 c 26.6456,1.68275 53.5104,2.2366 80.1952,3.3655 2.1872,-0.22577 1.0054,-1.16065 -0.5662,-1.1924 -52.4443,-2.29658 -104.9542,-3.73237 -157.3858,-6.31825 -6.1867,0.1764 -5.2067,-2.71991 -5.3121,-7.56708 0,-10.57275 -0.1486,-21.14195 -0.1158,-31.72177 -0.1485,-2.7164 2.6572,-3.048 4.7968,-3.13973 57.7899,-4.83658 115.559,-10.16352 173.4051,-14.43567 1.4841,-0.0776 4.064,-0.56443 4.2414,1.42172 -0.024,3.06916 -8.2599,1.70743 -10.8437,2.21543 -2.226,-0.16933 -4.3335,0.85725 -4.0911,3.429 -0.1634,31.14323 -0.018,62.3076 -0.3031,93.4367 0.076,3.95113 -4.4446,2.0814 -6.9419,2.03555 -37.1659,-4.44148 -74.3624,-8.82298 -111.584,-12.95048 -1.2107,-0.13406 -2.3823,-0.41627 -3.2265,-1.31585 -4.5681,-7.5918 -10.8451,-11.85688 -17.7394,-3.72888 z m 16.1452,3.4925 -0.01,0.007 c -0.085,0.0423 -0.4325,-0.33515 -0.8774,-0.84667 -0.612,-0.70556 -1.2527,-1.38641 -1.9236,-1.97556 -2.5863,-2.48002 -6.2347,-3.048 -9.482,-1.29117 -2.9164,1.50638 -4.7459,4.29332 -6.3352,7.23197 -0.088,0.17637 -0.6212,1.14651 -0.5845,0.98776 0.5736,-1.6651 1.4749,-3.556 2.3943,-5.10468 2.4616,-4.30742 7.8655,-8.07863 12.5222,-4.66373 1.5769,1.08302 2.7901,2.54 3.7069,4.21216 0.3362,0.66675 0.6682,1.22767 0.5885,1.44286 z m -2.22,41.74066 c -0.2861,0.64559 -0.6668,1.64042 -1.3886,1.82034 -0.877,0.11641 -1.7914,-0.95954 -2.377,-1.59809 -3.2011,-3.70062 -3.9694,-8.255 -3.5549,-13.02808 0.2494,-2.85395 0.8837,-5.75733 2.631,-8.08918 1.6478,-2.10257 3.5994,-3.69007 4.7896,-0.26107 1.1864,3.3373 1.6408,6.81567 1.7396,10.28348 v 0.0706 c -0.095,3.63712 -0.5179,7.39068 -1.8397,10.80203 z m -4.4525,-24.45808 c 1.837,-0.10229 1.6916,0.48332 0.4209,1.4323 -3.8622,2.91041 -4.9311,7.70466 -4.8768,12.27312 0,4.40621 1.0862,8.54429 4.4164,12.00856 0.3031,0.3316 0.8527,0.89958 0.7306,1.26648 l -0.011,0.0282 c -0.4233,0.59621 -1.8697,0.32104 -2.5516,0.11641 -8.4977,-2.76577 -8.2367,-26.80051 1.8718,-27.12508 z m -0.5129,29.88733 c -4.0241,-0.63852 -6.3729,-4.73075 -7.6327,-8.20912 -1.4005,-3.70771 -1.4347,-7.83873 -1.0996,-11.90979 v -0.007 c 1.2298,8.07154 1.4573,18.40442 9.7631,19.39219 0.9705,0.3669 -0.2533,0.77965 -1.0354,0.73377 z m -17.7387,-9.50028 c 0,0.58208 -0.043,1.48166 -0.4664,1.75328 l -0.035,0.0246 c -0.6907,0.381 -1.6895,-0.1905 -2.7439,-0.49742 -0.7123,-0.23989 -1.4259,-0.47979 -2.1378,-0.71966 -3.4957,-1.33705 -7.952,-2.24367 -9.8609,-5.78909 -1.7265,-3.67596 -0.7084,-8.001 -0.3552,-11.89214 0.9807,-6.81215 0.7341,-13.68073 -0.186,-20.46465 -0.1908,-1.55221 -0.066,-2.57879 1.7018,-2.48708 6.1267,0.46921 12.1702,1.25237 18.4253,1.87679 1.7822,0.14817 1.882,0.98071 1.2061,2.43062 -4.6736,11.45117 -5.4056,23.4809 -5.5481,35.76463 z m 3.8241,3.63008 -0.033,0.0246 c -0.5486,0.35276 -1.5586,-0.16227 -2.0437,-0.77965 -0.8262,-1.14652 -0.5563,-2.75871 -0.5461,-4.10634 0.1369,-3.72178 -0.053,-7.48945 0.465,-11.19362 0.077,-0.50096 0.1584,-0.78671 0.1993,-0.10231 0.1182,4.95652 0.7814,9.88483 2.0574,14.79902 0.1073,0.43746 0.2283,1.0795 -0.099,1.35821 z m 185.0528,-92.88992 2e-4,0.0706 c -0.067,1.1571 0.224,3.27025 -0.5648,4.03225 -0.538,0.4092 -1.2566,0.41627 -1.9202,0.46566 -3.3161,0.18696 -3.2473,-1.47108 -3.1841,-4.13104 -0.026,-3.55952 0.1563,-5.55977 4.1994,-4.78012 2.0035,0.381 1.3604,2.8081 1.4694,4.34268 z m -4.4412,-15.1271 c 1.1109,-0.55388 3.2996,-0.69146 4.1004,0.44096 0.5023,0.94898 0.2349,2.39538 0.3242,3.50663 l 8e-4,0.0635 c -0.083,1.40403 0.4261,3.82058 -1.5113,4.05341 -1.8669,0.20108 -4.384,0.50094 -4.2746,-2.10608 0.095,-1.93675 -0.3384,-4.83658 1.3606,-5.95842 z m -12.1151,34.32175 0.048,0.0212 c 0.5006,0.22929 1.1353,0.32808 1.7145,0.3175 1.5836,0 3.1754,-0.003 4.7622,-0.003 2.2824,0 4.5776,0.0106 6.8516,0.0177 0.9102,0.0494 2.4546,-0.27165 2.8244,0.79375 0.043,0.99835 -1.2454,1.21001 -2.0677,1.28058 -7.6193,0.5574 -15.216,-0.15875 -22.8194,-0.38807 -1.9936,-0.0705 -3.9748,-0.13758 -5.9725,-0.20108 -0.9201,-0.0246 -2.3037,-0.127 -2.5683,-1.0936 -0.2222,-1.27352 1.432,-1.43582 2.3725,-1.40052 2.8677,-0.003 5.7506,-0.003 8.6243,-0.003 2.0751,0.10938 4.3653,-0.39862 6.2304,0.65971 z m -2.7188,-45.17673 c 0,-0.78668 -0.07,-1.66158 0.187,-2.40242 0.6579,-1.60514 2.9298,-0.87135 4.2961,-0.98425 1.7388,0.0423 4.0234,-0.11641 5.0602,1.38994 0.5881,0.83256 0.6103,2.0955 0.5719,3.15738 -0.1464,3.5701 -0.3592,7.12962 -0.6498,10.68562 -0.26,3.45371 -0.2939,6.34648 -4.4606,6.61106 -1.4093,0.0282 -3.6777,0.40923 -4.5233,-0.80081 -0.5073,-0.75142 -0.4826,-2.74812 -0.4956,-3.97933 0,-2.06021 0,-4.27567 0,-6.2865 l 3e-4,-0.067 c 0.01,-2.43065 0.058,-4.88244 0.01,-7.32367 z m 9.32,-12.10381 c -3.187,0.23989 -6.3881,0.0282 -9.6291,0.0953 -0.4229,-0.007 -1.3158,-0.0423 -1.4414,-0.36336 l -0.01,-0.0212 c -0.1345,-0.33515 0.4593,-0.65617 0.7387,-0.81844 2.8427,-1.44288 7.7188,0.1905 9.6343,-2.70229 0.2717,-0.81137 -0.8332,-0.73729 -1.4206,-0.70554 -2.1357,0.20812 -4.2362,0.14817 -6.2946,0.21167 -7.2464,0.0564 -4.481,4.6002 -10.493,4.7131 -38.4189,2.81516 -76.7952,6.36058 -115.2021,9.60966 -19.6148,1.64042 -39.225,3.39019 -58.8373,5.03767 -1.4902,-0.0246 -3.5617,0.9525 -4.4909,-0.5221 -0.152,-0.27517 -0.2593,-0.62442 -0.3037,-0.9525 -0.019,-0.10938 -0.038,-0.32105 -0.038,-0.33163 -0.064,-1.0442 0.1422,-1.94733 0.8626,-2.3495 1.1913,-0.61029 2.613,-0.57854 3.9401,-0.76904 56.296,-5.95841 112.5672,-12.2555 168.8783,-18.05516 6.9677,-0.70205 13.9456,-1.32292 20.9472,-1.5734 0.9758,-0.0282 1.9957,-0.0847 2.9641,-0.0353 0.6819,0.0423 1.2266,0.1552 1.5257,0.52917 0.3267,0.38803 0.3634,1.05478 0.3782,1.83443 0.01,0.92075 -0.01,1.87325 0,2.78342 -0.045,1.68275 0.357,4.07106 -1.7043,4.38502 z m -197.5097,0.58563 c 0.416,-7.4648 0.8358,-14.92605 1.5223,-22.373172 0.093,-1.02658 0.3139,-2.16958 1.0396,-2.8928 0.6749,-0.6985 1.7787,-1.02303 2.8727,-1.2841 6.3976,-1.46756 12.7698,-2.86808 19.1674,-4.26156 55.8395,-11.88154 111.6066,-24.12294 167.4407,-36.0045 12.446,-2.71285 25.2578,-2.24012 37.8608,-1.21709 2.594,0.13407 5.212,0.51155 7.7985,0.52917 2.406,-0.29279 0.2269,-1.18533 -0.7553,-1.22412 -18.839,-1.93675 -37.7489,-1.67923 -56.1717,2.87867 -57.18,12.9046 -114.6189,24.66975 -171.8673,37.27095 -1.4051,0.30692 -2.7591,0.59621 -4.1297,0.86783 -0.8805,0.1764 -1.6573,0.22932 -2.0436,-0.1411 l -0.03,-0.0282 c -0.4149,-0.41979 -0.3817,-1.45344 -0.2247,-2.14842 1.0477,-7.16137 1.7797,-14.23458 3.4688,-21.05377 1.6119,-7.10848 5.7612,-13.51491 12.5265,-16.77458 10.4217,-4.56848 21.4718,-7.43656 32.2424,-11.03841 11.8915,-3.95465 23.7751,-7.93044 35.6884,-11.81807 33.9591,-11.00312 67.8985,-22.0874203 101.7531,-33.4045203 1.318,-0.3951 2.6847,-0.70202 4.0069,-0.9525 0.6149,-0.15523 1.3769,-0.26458 1.8341,-0.70556 0.3154,-0.32454 -0.1221,-0.63146 -0.9814,-0.635 -0.6918,0 -1.3872,0.13758 -2.0645,0.28929 -6.9416,1.63336 -13.6222,4.31446 -20.3849,6.55812 -48.7768,16.0055503 -97.5706,31.9793203 -146.2825,48.1683003 -2.201,0.71612 -4.4651,1.52045 -6.4639,2.64229 -4.2655,2.24366 -7.4327,5.89491 -10.1473,9.91306 -0.2343,0.26107 -0.4054,0.34219 -0.4985,0.21873 -0.2618,-1.00189 0.1919,-2.47298 0.5083,-3.69713 4.6719,-15.73387 19.5051,-20.17535 33.3128,-25.07191 50.7126,-18.11512 101.23,-36.7982503 152.3746,-53.67512 5.968,-1.79565 12.1539,-2.55765 18.3671,-2.68817 27.2083,-0.6209 54.2205,3.07269 79.7394,12.68942 9.3835,3.8558497 16.5132,10.0082797 21.4838,19.0711597 0.3775,0.59971 0.9948,1.96144 0.042,1.94027 -0.4092,0.0353 -1.0724,-0.15168 -1.5698,-0.27165 -9.1899,-2.3777 -18.6789,-3.22085 -28.1041,-4.68487 -1.5095,-0.22579 -3.2286,-0.45863 -4.7332,-0.23638 -4.8588,0.68792 -4.9368,5.35517 -4.2658,9.2921703 1.2252,8.84415 2.8173,17.6248 4.0559,26.4654 0.5786,4.318 1.3173,9.04875 5.2945,11.58168 1.5727,1.08657 3.557,1.65807 5.4702,1.90855 8.5418,0.99129 17.0614,1.8415 25.6197,2.76577 4.0782,0.47273 9.6168,0.3034 10.5516,-4.61082 0.3669,-1.78858 0.1023,-3.92993 -0.2787,-5.74675 -1.5381,-7.28133 -3.3866,-14.47093 -4.9106,-21.73816 -0.074,-0.47977 -0.092,-0.78317 -0.042,-0.80434 3.683,11.3524 5.5845,23.42092 10.1424,34.86857 0.2434,0.57502 0.5256,1.46756 0.3775,1.93675 -0.088,0.27517 -0.3175,0.44802 -0.6668,0.52565 -0.388,0.0882 -0.889,0.0635 -1.3335,0.0212 -3.369,-0.32808 -6.6357,-0.74438 -9.9554,-0.67733 -0.388,0.014 -0.9489,0.067 -1.2453,0.2046 -0.261,0.1129 -0.3528,0.25752 -0.2575,0.39865 0.7479,0.6491 2.1907,0.54679 3.175,0.62442 2.5541,0.10935 5.1259,0.39862 7.687,0.65262 1.1959,0.127 2.5012,0.25048 3.3902,1.13241 0.6597,0.63855 1.0337,1.65455 1.3159,2.55059 3.5031,10.89731 6.0078,22.01333 6.9673,33.44333 0.18,2.22605 0.3352,4.452062 0.4798,6.678082 0.06,1.02307 -0.1587,2.07788 -1.1888,2.3495 -0.6527,0.1905 -1.3441,0.10938 -2.0285,0.0741 -24.2958,-2.03904 -48.652,-2.91746 -72.9908,-4.24744 -25.472,-1.66158 -51.0625,-3.443102 -76.5429,-0.83608 -57.6964,6.21948 -115.2938,13.39143 -172.9839,19.73085 -3.8893,0.39158 -7.7604,0.82198 -11.6783,1.09363 -3.2851,0.29279 -2.8106,-2.20488 -2.7563,-4.39208 z m 314.4732,-101.423632 -0.025,0.0317 c -0.2858,0.39865 -1.1571,0.29281 -1.6969,0.19404 -10.541,-1.72156 -20.9409,-3.41138 -31.3196,-5.13646 -1.0629,-0.19402 -2.1964,-0.37393 -3.0829,-1.00893 -1.8013,-1.1430003 -1.6168,-4.1486703 0.5835,-4.6355003 0.9416,-0.21874 1.9569,-0.0317 2.9189,0.11289 8.134,1.30879 16.2457,2.70934 24.3984,3.8664403 2.152,0.3175 4.6532,0.73377 6.2689,2.23308 0.8467,0.73377 2.5259,3.1115 1.9544,4.34269 z m 2.5365,16.67581 c 2.0002,4.99885 3.2102,10.20585 4.3321,15.45167 0.6138,2.90335 -1.3371,3.56658 -3.8806,3.40783 l -0.071,-0.003 c -9.4439,-0.87138 -18.8384,-1.80975 -28.2138,-2.88925 -1.7745,-0.23638 -3.7066,-0.76906 -5.0391,-1.89441 -3.4032,-2.85399 -3.1351,-8.27972 -3.9899,-12.34724 -0.3898,-2.02848 -0.5038,-3.57716 1.6644,-4.16276 6.4714,-1.72863 12.9279,-3.47134 19.4352,-5.04474 7.2143,-2.08491 13.0105,0.34219 15.7622,7.48242 z m 45.9175,79.720732 c -2.092,-3.23498 -6.6428,-4.32154 -10.3858,-4.69196 -1.658,-0.3316 -4.4273,0.0494 -5.3692,-1.56279 -0.9808,-2.85398 -0.6104,-6.23358 -1.0619,-9.232212 -2.6176,-27.559 -13.8712,-53.3541 -20.7222,-80.00645 -5.588,-19.3110703 -19.6144,-33.1329 -38.5438,-38.87965 -28.0183,-8.28323 -57.4265,-12.7635 -86.6083,-9.40506 -4.6031,0.71262 -9.1705,1.84856 -13.5964,3.35846 -53.4462,18.3973497 -106.8395,37.0769297 -159.7297,56.99125 -6.9621,3.06916 -13.9527,7.61293 -18.694,13.48316 -7.2009,8.15621 -7.8804,19.58975 -9.2777,29.91554 -6.6181,36.628922 -5.4413,74.083332 -4.3882,111.125002 0.5489,11.4935 3.2593,22.82825 3.3443,34.32175 0.092,8.4314 -3.6675,18.13631 1.3638,25.70692 6.2093,8.31143 18.6613,6.96735 26.2061,13.29266 2.2959,2.29658 3.47,5.58094 6.2195,7.45419 6.3909,4.60729 14.9444,5.24933 21.9678,1.24179 1.9932,-1.28058 4.3318,-1.84856 6.616,-1.04775 33.5707,8.98171 67.5481,16.83454 100.8197,26.7335 1.1179,0.67734 1.7642,1.85209 2.3615,3.07269 4.198,8.71715 11.2769,16.58056 21.5321,17.30023 11.6745,1.00187 22.588,-3.40783 29.0982,-14.05821 0.7281,-1.16769 1.5614,-2.56821 2.8268,-3.00567 16.3248,-1.56279 32.8955,-1.69685 49.2982,-2.77987 2.0271,-0.16582 3.7839,0.69143 5.1192,2.18017 4.288,4.58962 9.9998,7.48241 16.2867,7.63762 7.6799,0.32456 16.4281,-0.14817 22.6546,-5.06587 2.981,-1.92617 4.7555,-5.61624 7.3061,-8.1774 1.3864,-0.98777 3.3231,-1.2065 4.5049,-2.5259 1.2418,-1.16062 1.4358,-3.1256 2.727,-4.22979 2.5823,-1.48873 5.8738,-1.1924 8.6607,-2.33188 9.7331,-2.78693 12.9575,-8.60777 12.8341,-18.2245 3.6018,-14.35803 8.5972,-43.83262 -5.9443,-53.3682 -1.3335,-0.90665 -2.0073,-2.35305 -1.8909,-3.937 0.4092,-11.27831 0.2892,-22.6836 0.6949,-33.95485 l 0.011,-0.0565 c 0.8714,-10.36109 0.1588,-20.93029 0.3034,-31.34784 0,-2.032 -0.1235,-4.22627 0.7761,-6.08893 0.7726,-1.66865 2.4871,-2.88925 3.6477,-4.42384 0.9102,-1.21708 2.1696,-3.51718 3.9335,-2.57881 0.7091,0.49038 0.8326,1.4958 0.7938,2.3354 0.095,3.937 -0.6844,8.06802 0.2046,11.94506 0.8784,3.14677 5.7608,3.65477 7.9445,1.78859 1.2383,-1.12538 1.584,-3.00567 1.771,-4.61434 0.5609,-3.96523 0.014,-7.95515 0.3563,-11.90625 0.4657,-2.19781 3.2561,-2.97391 4.1945,-4.85775 1.3441,-2.2225 1.2277,-5.334 -0.1658,-7.52475"
         style="display:inline;fill:#000000;fill-opacity:1;fill-rule:nonzero;stroke:none;stroke-width:0.0352777"
         id="path40788-6-6" />
      <path
         d="m 383.17048,26.619168 v 0.0635 c -0.2998,3.99696 -0.4346,7.37304 -5.0599,8.43137 -7.6238,2.00732 -15.2343,4.02874 -22.8451,6.08897 -2.5051,0.70202 -2.7051,-0.5715 -2.3552,-2.65997 0.4057,-2.26128 0.6255,-4.6355 1.7325,-6.67808 0.7264,-1.28058 2.1202,-1.90145 3.4816,-2.31775 7.4436,-2.1872 14.8269,-4.57904 22.3153,-6.59693 2.438,-0.61384 2.7852,1.70039 2.7326,3.66889 z m -36.7175,11.38767 v 0.0705 c -0.2974,4.27566 -0.8961,6.26888 -5.3591,7.24254 -5.9524,1.46754 -11.8233,3.35137 -17.7821,4.70604 -1.4721,0.10938 -1.2957,-1.16062 -1.1239,-2.35654 0.1129,-0.76554 0.2166,-1.53106 0.3721,-2.286 0.8128,-4.43089 4.2387,-5.82789 8.2099,-6.76981 3.8876,-1.0936 7.6902,-2.5259 11.5545,-3.71827 3.4699,-1.05833 4.3448,-0.79375 4.1328,3.1115 z m -30.002,9.37683 v 0.0776 c -0.094,5.3975 -1.772,6.69573 -6.7899,7.77875 -4.2908,1.01951 -8.4487,2.49414 -12.7402,3.51366 -1.1321,0.18344 -1.5537,-0.51506 -1.4736,-1.4605 0.083,-1.15006 0.3426,-2.26835 0.5525,-3.40077 0.641,-3.85233 2.8783,-4.93889 6.3553,-5.99723 2.9711,-1.00541 5.9185,-2.01083 8.9161,-2.98098 3.0215,-0.93485 5.3841,-1.77093 5.1812,2.46946 z m 68.0569,-27.76008 c -1.6581,-1.21708 -4.2729,-0.43392 -6.1662,0.1411 -6.8753,2.0461 -13.7132,4.19452 -20.567,6.31473 -3.9063,1.04069 -6.023,2.83634 -7.1582,6.76979 -0.1358,0.40217 -0.4011,1.42171 -0.7796,1.38642 l -0.026,-0.003 c -0.5627,-0.23635 -0.7655,-1.02659 -1.1028,-1.52048 -0.5958,-1.07244 -1.2036,-1.67921 -2.0313,-1.90146 -0.5813,-0.16229 -1.2901,-0.13054 -2.1618,0.0353 -2.1872,0.44802 -4.4072,1.25942 -6.5221,1.91207 -2.5556,0.81491 -5.1129,1.62276 -7.6906,2.36712 -1.9262,0.55388 -4.04,1.10066 -5.7457,2.07433 -1.2245,0.68088 -2.3139,1.5875 -3.1387,2.72698 -0.3675,0.508 -0.6893,1.06185 -0.9606,1.67217 -0.2995,0.5715 -0.5489,1.65452 -1.2911,1.49225 -0.8181,-0.29985 -1.723,-1.9544 -2.8388,-2.18723 -1.2143,-0.381 -2.739,0.0882 -4.0542,0.44098 -1.3204,0.38806 -2.686,0.8396 -3.9747,1.2559 -2.1851,0.7126 -4.3681,1.42875 -6.5574,2.12725 -2.2575,0.70201 -4.6052,1.51341 -6.2587,3.22085 -1.0724,1.06891 -1.8291,2.39183 -2.317,3.83468 -0.2156,0.61738 -0.3867,1.27 -0.5472,1.88738 -0.1665,0.5715 -0.2307,0.94544 -0.491,1.11829 -0.076,0.007 -0.1429,-0.0564 -0.1874,-0.127 -0.2441,-0.33867 -0.5418,-1.4887 -1.0241,-2.26835 -0.9736,-1.79917 -2.9294,-2.4765 -4.9248,-1.74625 -9.9035,4.15218 -12.3521,16.77106 -13.9565,26.29252 -0.8118,5.75733 -1.7819,12.47423 6.5041,10.31171 1.1815,-0.28223 2.2892,-0.57857 3.429,-0.8749 1.7244,-0.46215 3.5959,-0.87842 4.8987,-2.07081 2.2211,-2.03552 2.6769,-5.24934 2.9566,-8.11036 0.3789,-3.99698 0.7423,-7.99393 1.119,-12.00501 0.06,-0.63149 0.2149,-1.84857 1.0143,-1.70747 0.363,0.0812 0.6498,0.41982 0.8519,0.73732 0.6438,1.05481 0.4953,2.55058 0.3556,3.94406 -0.1961,1.7921 -0.3647,3.55952 -0.49,5.3481 -0.032,2.96686 -1.1299,7.493 1.5812,9.49325 2.6345,1.69686 6.6117,-0.0706 9.4932,-0.53623 1.487,-0.33866 2.9739,-0.67027 4.463,-0.99835 2.377,-0.49035 5.0133,-1.05481 6.5183,-3.1115 1.5039,-1.9685 1.9269,-4.54025 2.1463,-6.94973 0.2554,-3.20675 0.4865,-6.42054 0.726,-9.63083 0.2095,-1.83092 0.1,-3.73944 0.5778,-5.51037 0.1718,-0.51859 0.7271,-1.11125 1.1935,-0.58563 0.4039,0.48683 0.3955,1.24531 0.3626,1.86266 -0.2476,3.51367 -0.5817,7.02382 -0.8487,10.53397 -0.5038,6.20887 0.5552,10.81262 7.9068,8.98525 3.5955,-0.76907 7.149,-1.5875 10.7315,-2.36009 1.8327,-0.41981 3.8015,-0.68791 5.3932,-1.75683 3.9589,-2.76932 3.6919,-8.44198 4.0944,-12.7988 0.17,-2.21543 0.3436,-4.42735 0.521,-6.63927 0.1567,-1.83443 0.2752,-3.67241 0.4703,-5.50333 0.072,-0.55033 0.133,-1.17827 0.4268,-1.64042 0.9427,-1.31939 2.2959,0.65265 2.2853,1.76036 0.1179,1.05481 -0.02,2.16958 -0.1181,3.23146 -0.392,3.94758 -0.6728,7.86693 -0.8054,11.84275 -0.2255,3.34785 0.7457,6.86858 4.6563,7.16137 1.1582,0.0988 2.408,-0.10583 3.5525,-0.33867 5.5093,-1.17475 10.9502,-2.35302 16.4366,-3.556 7.1042,-1.4111 8.9559,-4.51202 9.5116,-11.48291 0.8001,-7.41186 1.1341,-14.86959 1.9727,-22.27792 0.1827,-3.23144 1.4919,-9.9342 -1.4146,-12.08262"
         style="display:inline;fill:#000000;fill-opacity:1;fill-rule:nonzero;stroke:none;stroke-width:0.0352777"
         id="path40790-0" />
      <path
         d="m 532.59828,37.583508 c -0.015,-1.45347 0.4512,-3.03742 1.6408,-3.94759 0.6336,-0.508 1.585,-0.889 2.1837,-0.57856 0.5799,0.27517 0.7496,1.07243 0.8579,1.72508 0.4011,2.51177 0.8308,5.0165 1.1437,7.53534 0.1676,1.33701 0.272,2.78693 -0.6921,3.69006 -1.3656,1.2347 -3.6682,1.2841 -3.9684,-0.91371 -0.4152,-2.4271 -0.9786,-4.98121 -1.1649,-7.43654 z m -3.0406,-27.6013403 c -14.0885,-2.37066 -28.1926,-4.61788 -42.2836,-6.88623 -1.3624,-0.26458 -1.7138,-1.0936 -1.4111,-2.32126996 0.2635,-1.28413 0.7574,-2.62114004 2.0856,-2.64938004 l 0.065,-0.003 c 12.1546,1.28058004 24.2813,3.19616 36.4285,4.68841 3.2509,0.34925 6.0809,1.44992 7.2366,4.79777 0.8671,2.23308 0.053,2.8151703 -2.1206,2.37421 z m -3.0787,35.4894403 c -0.1989,0.51506 -0.9623,0.52917 -1.5,0.48683 -6.8273,-0.5715 -13.6126,-1.14652 -20.3789,-1.71802 -0.3422,-0.0353 -1.1455,-0.0741 -1.2347,-0.26813 v -0.0177 c 0.056,-0.20815 0.7648,-0.4163 1.0932,-0.52917 4.5629,-1.48521 9.1613,-2.60704 13.878,-3.18913 3.3242,-0.54679 6.5122,0.2893 7.9145,3.7183 0.2071,0.45154 0.4043,1.15358 0.2293,1.51693 z m 14.3761,1.28765 c 1.1567,-1.68275 1.2746,-4.35682 0.9698,-6.4629 -1.4803,-10.58685 -2.8858,-21.15257 -4.6528,-31.7076703 -0.7987,-4.11691 -3.4343,-7.50358 -7.4567,-8.85117996 -2.9979,-1.00897004 -6.2449,-1.18534004 -9.3553,-1.67923004 -9.9416,-1.32644 -19.8903,-2.58586 -29.8471,-3.78884 -1.2083,-0.1411 -2.4536,-0.28575 -3.664,-0.20108 -5.9901,0.54327 -8.4324,5.64092004 -8.1075,11.2889 v 0.067 c 0.8527,9.8283903 1.5787,19.6850003 2.3911,29.5169103 0.3154,7.18609 4.003,10.84792 11.1739,11.1619 13.7718,1.24177 27.5202,2.56469 41.3107,3.64419 2.7315,0.20108 5.8303,-0.64911 7.2358,-2.98802"
         style="display:inline;fill:#000000;fill-opacity:1;fill-rule:nonzero;stroke:none;stroke-width:0.0352777"
         id="path40792-1" />
      <path
         d="m 473.62198,29.078028 c -1.1331,-11.82511 -3.1687,-34.3182403 -19.9108,-31.5171703 -2.4049,0.43392 -4.6951,1.18885 -7.0503,1.78152004 -6.2932,1.32998 -10.0386,4.68489996 -10.9608,11.19716026 -1.2887,10.18824 -2.0013,20.41525 -2.8014,30.65288 -0.7161,7.20725 2.231,10.91846 9.6079,9.00642 6.8637,-1.46405 13.6875,-2.96333 20.5564,-4.41325 8.3492,-1.28413 11.1379,-8.89355 10.5629,-16.64055 v -0.067"
         style="display:inline;fill:#000000;fill-opacity:1;fill-rule:nonzero;stroke:none;stroke-width:0.0352777"
         id="path40794-5" />
      <path
         d="m 427.23488,13.379418 v 0.0635 c -0.297,4.78719 -1.2883,6.48404 -6.1076,7.56354 -8.5665,2.25425 -17.0942,4.62846 -25.6406,6.96383 -0.883,0.20463 -2.3298,0.59974 -2.7764,-0.32101 -0.3764,-0.99132 -0.016,-2.25074 0.087,-3.302 0.2029,-1.56986 0.5811,-3.64774 1.2577,-4.59669 1.5194,-2.29658 5.3862,-2.89631 7.916,-3.80296 7.5177,-2.19075 14.9122,-4.86127 22.4804,-6.8368403 2.8603,-0.61735 2.861,2.0990503 2.7873,4.2686303 z m -9.4146,-6.3782303 c -6.7197,2.09902 -13.4514,4.2086503 -20.1891,6.3182503 -1.2249,0.39159 -2.4991,0.83257 -3.6029,1.47109 -2.5076,1.3476 -3.8919,3.94758 -4.3741,6.6675 -0.4943,2.86808 -0.9751,5.75026 -1.0517,8.6501 0.075,1.41465 0.9413,2.64231 1.0383,4.04283 0.045,0.508 0.025,1.016 0,1.52755 -0.4268,5.9196 -1.0033,11.81803 -1.2132,17.75177 -0.1866,3.39018 1.0587,6.76981 4.7823,7.26723 1.7152,0.254 3.616,-0.1623 5.3107,-0.53623 6.6827,-1.46757 13.3523,-2.94217 20.0307,-4.44852 1.4852,-0.34222 3.1302,-0.8114 4.4644,-1.5099 3.2611,-1.57692 4.8662,-4.8119 5.2374,-8.3185 1.1052,-11.02783 1.9275,-22.04157 2.7209,-32.76952 v -0.067 c 0.4167,-10.5445103 -5.8526,-8.4384303 -13.1519,-6.0466003"
         style="display:inline;fill:#000000;fill-opacity:1;fill-rule:nonzero;stroke:none;stroke-width:0.0352777"
         id="path40796-9" />
      <path
         d="m 579.82468,61.082028 c 0.5468,0.39158 0.9031,0.97366 1.1712,1.81326 1.8627,9.4968 2.8293,19.20172 4.3251,28.77257 0.254,1.8556 0.7902,4.73075 -1.517,5.38691 -1.0724,0.32809 -2.2966,0.26459 -3.4149,0.22932 -3.3126,-0.13407 -6.6216,-0.31046 -9.9201,-0.44805 h -0.067 c -18.2542,-1.02303 -36.522,-1.94027 -54.7741,-3.09737 -1.7155,-0.19404 -2.8807,-0.84666 -3.4113,-2.57881 -0.2942,-0.88548 -0.4516,-1.92265 -0.5729,-2.86102 -1.1332,-9.60967 -2.2063,-19.22288 -3.3176,-28.86075 -0.1919,-2.42006 -1.0272,-5.12588 2.4212,-4.94596 21.3494,1.45698 42.6162,3.71475 63.948,5.50688 1.5628,0.17285 3.8488,0.21518 5.1294,1.08302 z m -71.8923,-7.40834 c -1.2999,0.80434 -1.1927,2.87867 -1.0586,4.32859 1.0548,9.9201 2.2486,19.80141 3.3552,29.70741 0.1524,1.34057 0.3179,2.90335 0.7529,4.14867 0.7027,2.06023 2.1805,2.83281 4.313,3.20323 18.3025,1.56633 36.793,1.58043 55.0683,3.21027 l 0.06,0.014 c 0.7268,0.16933 1.524,0.32808 2.3213,0.32808 2.4942,0.003 4.9918,-0.003 7.493,0 1.9191,-0.0388 4.3392,0.13759 5.7856,-1.32291 1.0901,-1.11125 0.9807,-3.21379 0.7726,-4.75544 -1.577,-10.18116 -2.5788,-20.50343 -4.6355,-30.5929 -0.8185,-2.68462 -3.7818,-2.97037 -6.2019,-3.16441 -21.0594,-1.74977 -42.0962,-3.81352 -63.1567,-5.53154 -1.476,-0.10583 -3.6728,-0.32808 -4.8691,0.42685"
         style="display:inline;fill:#000000;fill-opacity:1;fill-rule:nonzero;stroke:none;stroke-width:0.0352777"
         id="path40798-5" />
      <path
         d="m 379.63388,144.03419 c -0.628,2.33185 -3.6259,1.82385 -6.1952,1.9191 -3.0903,0.11997 -6.2498,0.10584 -9.2921,0.53623 l -0.061,0.0106 c -3.3069,0.32102 -6.6629,0.007 -9.9935,0.14816 -2.2853,0.067 -3.8153,-0.06 -3.3902,-2.81868 0.2219,-1.70746 0.3888,-3.38315 0.7458,-5.06238 0.2702,-1.55927 1.2008,-3.02329 2.9002,-3.20675 6.9864,-0.63145 13.9954,-0.89252 20.9853,-1.41462 1.2453,-0.0635 2.7736,-0.254 3.8252,0.47977 1.0135,0.70556 1.2393,2.26835 1.2294,3.58423 -0.032,1.75329 -0.2099,4.21568 -0.7535,5.82435 z m -36.1058,-0.56092 c -0.3538,3.29142 -1.7543,4.50499 -5.0507,4.41325 -2.1964,0.007 -4.3681,-0.007 -6.5408,0.007 -0.7451,0.014 -1.481,0.21166 -2.1453,0.37745 l -0.056,0.014 c -0.5299,0.13403 -1.1293,0.23635 -1.7128,0.23635 -2.008,-0.003 -4.0121,-0.007 -6.0374,0.007 -1.9745,0.0741 -2.9556,-0.5574 -2.6688,-2.64938 0.2004,-1.79916 0.4177,-3.55952 0.652,-5.34104 0.2127,-2.30364 1.1726,-3.38666 3.5299,-3.49604 5.0715,-0.36687 10.0954,-0.75142 15.1595,-1.09008 1.3018,-0.0529 2.9542,-0.27517 4.0623,0.45862 1.6616,1.37936 0.9518,5.12586 0.8078,7.06261 z m -41.0915,6.11011 -0.058,0.0106 c -2.0546,0.35631 -4.186,0.0952 -6.2801,0.18698 -2.4349,0.11642 -3.0773,-0.69144 -2.7954,-3.09033 0.3019,-2.15548 -0.063,-5.06235 1.4626,-6.70277 0.9684,-0.91371 2.4465,-0.98425 3.7243,-1.06892 3.9803,-0.21873 7.9198,-0.50096 11.9087,-0.73025 2.4408,-0.18698 3.3993,0.94544 3.4561,3.29494 0.2262,10.89025 -3.8322,6.79098 -11.4183,8.09977 z m 77.1881,-19.14171 c -7.4263,-0.64206 -14.9952,0.76552 -22.4589,0.93837 -8.1227,0.0776 -8.2345,2.89632 -9.7359,9.91659 -0.5991,-5.76086 -1.1434,-9.95186 -8.3993,-9.18634 -4.9051,0.30692 -9.7938,0.63148 -14.6978,0.98073 -2.7757,0.0741 -5.769,0.762 -6.7695,3.71827 -1.427,4.00405 -1.3398,-2.83985 -5.4073,-2.32127 -4.2888,-0.0317 -8.6039,0.51507 -12.8902,0.73025 -3.8389,0.13052 -7.0975,0.32102 -8.5224,4.41677 -0.6509,1.34763 -1.1881,0.0246 -1.6132,-0.68791 -1.5315,-2.69169 -5.0038,-1.97909 -7.9277,-1.79917 -3.1827,0.53975 -7.0647,-0.5221 -9.6964,1.72156 -1.8546,1.72157 -2.2317,4.45207 -2.2416,6.88269 -0.1051,6.91092 -0.2173,13.81479 -0.2988,20.72217 -0.024,2.19781 0.1503,4.81541 1.4221,6.63223 2.9831,3.46075 8.5891,1.81681 12.6605,2.20133 5.0606,0.19402 6.8361,-2.86808 6.7024,-7.53533 0.09,-3.70065 0.1273,-7.38365 0.2014,-11.07017 0.1189,-0.68085 -0.2328,-3.07623 0.6989,-2.98098 1.6863,4.86833 -2.1248,18.36563 3.066,21.16667 4.2361,1.82033 9.5306,0.91016 14.1051,1.34762 10.5096,1.34761 7.5014,-11.08781 8.0334,-17.66712 0.04,-0.68438 -0.3055,-8.68892 1.1349,-5.57742 0.1926,0.86079 0.082,1.82388 0.093,2.70933 -0.032,3.81355 -0.1259,7.63059 -0.2543,11.44765 -0.3299,5.82435 1.7861,9.95892 8.1897,9.66258 5.316,-0.0353 10.6648,0.79375 15.9533,0.26811 4.9904,-0.79727 5.3368,-6.46288 5.2663,-10.53394 0.2476,-6.30415 -0.4749,-12.93283 0.29,-19.14525 l 0.016,-0.014 c 0.2696,-0.20815 0.8478,0.7761 1.0474,1.05833 1.1568,1.36525 2.159,2.69875 1.9082,4.55083 -0.1566,4.97769 -0.3475,9.98361 -0.4625,14.96484 -0.145,3.57362 0.4484,7.7611 4.2813,9.18633 6.0869,1.58396 12.6453,0.67733 18.8863,1.30527 3.6605,0.1905 8.3397,0.22225 9.6312,-4.04283 1.8161,-8.8759 1.0404,-18.25977 1.7251,-27.29794 -0.1245,-5.36929 2.7196,-14.32983 -3.937,-16.66875"
         style="display:inline;fill:#000000;fill-opacity:1;fill-rule:nonzero;stroke:none;stroke-width:0.0352777"
         id="path40812-5" />
      <path
         d="m 424.53968,140.06192 c -0.2011,2.14487 -0.8294,4.43087 -3.1154,4.72369 -4.5558,0.37748 -9.1828,0.0317 -13.7485,0.15523 -0.8156,-0.003 -1.5952,0.28575 -2.287,0.53975 l -0.05,0.0177 c -0.4675,0.16933 -1.0277,0.28575 -1.5664,0.28575 -2.2471,0 -4.524,-0.0282 -6.7821,-0.0212 -1.9869,-0.0458 -4.0037,0.14113 -5.9969,-0.0212 -2.2161,-0.1411 -2.1311,-2.0602 -1.9431,-3.78177 0.1687,-1.64748 0.2773,-3.23498 0.4216,-4.87539 0.1108,-1.88736 0.7454,-3.52425 2.8501,-3.77471 9.072,-0.70908 18.1486,-1.05833 27.2196,-1.651 1.2541,-0.0529 2.8889,-0.14465 3.9165,0.54327 2.0116,1.55927 1.2482,5.63385 1.0817,7.8599 z m -5.3016,-12.42838 c -8.861,0.53975 -17.7122,1.08657 -26.5765,1.64397 -3.0124,0.0988 -6.0724,1.22766 -6.8576,4.39208 -1.0097,4.19452 -1.8228,8.57602 -0.7927,12.85168 0.2628,0.99836 0.5496,2.00732 0.5838,3.04094 -0.081,7.4154 -0.8692,14.80963 -0.623,22.22854 0.3771,5.59859 4.5325,7.48242 9.7554,7.43654 3.7856,0.20815 7.644,-0.25752 11.3986,0.20109 l 0.058,0.0106 c 3.1641,0.63854 6.4908,0.47979 9.7166,0.69146 3.2653,0.25046 7.7308,-0.15523 9.3207,-3.048 1.0838,-1.57692 1.4002,-4.35329 1.4087,-6.43821 0.084,-5.82787 0.098,-11.64167 0.1577,-17.46954 -0.068,-2.33188 -0.016,-4.67079 0.7535,-6.90033 0.9024,-3.35492 0.8629,-6.76275 0.8068,-10.18471 0.1584,-6.50875 -2.6748,-8.97819 -9.1098,-8.45609"
         style="display:inline;fill:#000000;fill-opacity:1;fill-rule:nonzero;stroke:none;stroke-width:0.0352777"
         id="path40814-6" />
      <path
         d="m 566.73658,238.25054 c 0.5786,-7.56356 0.067,-15.24706 0.2329,-22.8459 -0.028,-1.75328 0.085,-3.9511 -0.8644,-5.44687 -1.1288,-1.78506 -4.0026,-1.25589 -5.8405,-0.82198 -4.7918,1.21357 -9.8464,2.59644 -13.6825,5.82435 -5.0158,4.23688 -4.7463,11.40884 -4.9442,17.42372 -0.1358,11.25712 -0.6033,22.48251 -0.5091,33.75376 -0.1206,6.38527 2.5661,7.3519 8.3224,6.96384 3.0568,-0.19402 6.0417,-0.6209 9.0989,-1.016 2.9591,-0.37748 6.3062,-0.80434 6.853,-4.32507 1.0795,-9.75077 0.4622,-19.6991 1.3229,-29.44635 l 0.011,-0.0635"
         style="display:inline;fill:#000000;fill-opacity:1;fill-rule:nonzero;stroke:none;stroke-width:0.0352777"
         id="path40816-9" />
      <path
         d="m 589.95288,211.62639 c -2.5964,-3.175 -8.9817,-3.89818 -12.954,-3.73237 -3.5136,0.15521 -3.4501,3.97227 -3.4925,6.62162 -0.021,3.5913 -0.011,7.20725 -0.018,10.80559 0,3.90879 0,7.82815 0,11.72988 0.01,0.62087 -0.127,1.28058 -0.3352,1.80268 l -0.021,0.0494 c -0.3281,0.7761 -0.6809,1.71095 -0.6421,2.67758 -0.01,5.83494 0.042,11.67694 -0.039,17.51187 -0.035,1.67217 -0.1411,3.33375 -0.2011,5.00947 0,1.7286 -0.2857,4.27918 1.4852,5.19993 1.2136,0.53975 2.727,0.30692 4.0287,0.15523 2.219,-0.29281 4.4098,-0.65265 6.6182,-1.02658 1.9226,-0.37748 4.3038,-0.57505 5.722,-2.02848 0.5468,-0.58915 0.8643,-1.4111 1.0372,-2.42359 0.7937,-12.78114 0.7796,-25.61166 0.9701,-38.44218 -0.2011,-4.50498 0.8326,-10.18471 -2.159,-13.91005"
         style="display:inline;fill:#000000;fill-opacity:1;fill-rule:nonzero;stroke:none;stroke-width:0.0352777"
         id="path40818-9" />
      <path
         d="m 540.15088,190.31156 c -1.0805,-0.0353 -2.1576,0.17288 -3.2378,0.33867 -10.4302,1.80271 -21.0971,3.46075 -30.9312,7.53533 -3.2057,1.7004 -3.5447,3.63008 -3.8029,7.63058 -0.061,1.47815 -0.1813,3.50663 1.2746,4.3039 9.8326,3.78532 19.2659,7.24959 29.5215,10.76677 0.4339,0.14817 1.4044,0.48683 1.6069,0.20815 l 0.012,-0.0177 c 0.1666,-0.17992 -0.34,-0.89604 -0.6452,-1.2065 -1.7085,-1.88735 -3.9878,-2.83985 -6.2505,-3.8876 -7.0323,-3.25967 -14.3069,-5.9196 -21.7022,-8.27265 -2.1286,-0.67027 -2.5844,-2.28245 -2.2218,-4.35679 0.3352,-2.10962 1.2478,-3.34433 3.0847,-4.26156 10.3995,-4.07106 21.6091,-5.78556 32.567,-7.65881 0.5296,-0.11288 1.8398,-0.26811 1.8408,-0.77259 -0.053,-0.18695 -0.5016,-0.32454 -1.1162,-0.34925"
         style="display:inline;fill:#000000;fill-opacity:1;fill-rule:nonzero;stroke:none;stroke-width:0.0352777"
         id="path40820-4" />
      <path
         d="m 512.07968,237.38977 c 4.3282,1.81327 6.3546,6.44171 6.1662,10.91846 v 0.0706 c 0.027,7.10494 -5.6529,13.18332 -12.9014,12.26257 -9.3416,-1.17124 -11.5662,-13.59959 -5.8428,-19.94255 3.0745,-3.67593 8.0469,-5.53508 12.5801,-3.30904 z m -16.474,16.25246 c 1.095,3.56306 3.3902,6.42763 6.9522,7.70114 8.7901,3.2879 17.2512,-4.19806 17.0772,-13.24681 l -3e-4,-0.0776 c 0.1136,-8.24794 -7.2196,-15.20473 -15.3892,-12.23082 -6.9445,2.5259 -10.9153,10.88322 -8.6399,17.85409"
         style="display:inline;fill:#000000;fill-opacity:1;fill-rule:nonzero;stroke:none;stroke-width:0.0352777"
         id="path40822-9" />
      <path
         d="m 488.56638,123.45667 c 1.1959,-1.05833 2.7058,-1.53106 4.3095,-1.61925 12.2188,0.0177 24.4306,0.72671 36.6688,1.16769 4.1127,0.0459 7.965,0.70908 8.7746,5.51391 0.1775,0.76907 0.1683,2.66349 -1.0657,1.94382 -0.6872,-0.46921 -1.1624,-1.24532 -1.7099,-1.86973 -1.3113,-1.60867 -3.0745,-2.19075 -5.0832,-2.33185 -13.9637,-0.0776 -27.9524,0.11287 -41.9111,0.0494 -0.5101,0.007 -1.2072,-0.11287 -1.3359,-0.46919 l -0.016,-0.0353 c -0.2137,-0.8255 0.6516,-1.65454 1.3685,-2.3495 z m 49.6171,23.16337 c -0.2586,1.09009 -1.6524,1.32647 -2.595,0.94898 -3.3737,-1.524 -2.5891,-7.00264 -0.097,-9.0805 0.6272,-0.49741 1.7501,-1.18885 2.4515,-0.5221 0.4205,0.45154 0.3668,1.43934 0.3725,2.3001 0,0.77965 0,1.55575 0,2.30717 v 0.0706 c -0.055,1.26293 0.127,2.69168 -0.1309,3.97578 z m -0.3083,5.32342 c -0.7342,2.15548 -3.6033,4.0005 -5.8734,3.43958 -0.9458,-0.27162 -0.9465,-1.32291 -0.9571,-2.16604 l 10e-4,-0.0776 c -0.055,-2.31069 1.0263,-2.81517 3.1179,-2.80811 1.3349,0.067 4.2958,-0.5856 3.7116,1.61219 z m -14.368,-6.78037 c -0.1118,1.49929 0.1489,2.8716 -1.0121,3.40783 -1.0534,0.34571 -3.0642,0.16227 -4.494,0.22929 -3.0854,0.0565 -6.2135,0 -9.2943,0.0459 l -0.067,0.003 c -3.454,0.0353 -6.9151,-0.0282 -10.3886,0.0212 -3.0624,0.10584 -3.8932,-0.74789 -3.9885,-3.78883 -0.193,-3.38315 0.4674,-5.30577 4.0665,-5.55273 6.478,-0.36687 12.9561,-0.14462 19.4479,-0.23987 1.6253,0.0246 3.8432,-0.10938 4.868,1.00542 0.9962,1.12535 0.8541,3.3302 0.8625,4.86833 z m -2.1099,10.19175 c -9.107,0.0353 -18.3092,0.0776 -27.4077,-0.26813 -0.532,-0.13052 -0.9098,-0.35983 -0.8932,-0.7126 0.2236,-0.70557 1.3007,-0.69498 1.9515,-0.71615 4.2133,-0.0317 8.6392,0.0317 12.8115,-0.0423 l 0.069,-0.003 c 4.1437,-0.06 8.5404,-0.0423 12.7225,-0.0106 0.5934,0.0353 1.3131,0.15523 1.5868,0.72319 0.1997,0.49742 -0.2212,0.91371 -0.8406,1.03013 z m -37.5423,-2.88573 c 1.6281,4.78718 6.8012,5.81731 11.3132,5.73264 5.6699,0.21871 11.3948,-0.254 17.0364,0.17286 l 0.058,0.007 c 6.3334,0.59971 12.7935,0.16227 19.1745,0.23283 4.7029,0.16579 9.1715,-2.13079 10.038,-6.98148 0.6156,-7.03791 0.7761,-14.14639 0.088,-21.209 -0.3239,-3.21027 -1.3004,-6.78039 -4.0122,-8.73125 -1.2474,-0.93485 -2.8388,-1.524 -4.669,-1.75331 -10.9911,-0.71612 -22.0588,-0.83254 -33.0299,-1.34054 -9.2205,-0.43746 -16.7671,-0.37042 -16.813,11.08075 -0.058,4.37796 -0.079,8.74887 -0.076,13.12685 0.059,3.19617 -0.2332,6.62869 0.8918,9.66259"
         style="display:inline;fill:#000000;fill-opacity:1;fill-rule:nonzero;stroke:none;stroke-width:0.0352777"
         id="path40832-4" />
      <path
         d="m 493.52148,165.14088 c 0,-0.95954 0.014,-1.80269 0.3676,-2.17311 0.5076,-0.55739 2.3343,-0.37748 3.32,-0.40216 3.4674,0.0494 7.0276,-0.0882 10.4842,0.0882 l 0.064,0.003 c 3.1263,0.14462 6.3151,0.0741 9.458,0.0741 2.9764,-0.0388 4.9541,-0.36338 4.6842,3.25612 -0.08,1.98966 -0.3905,3.16441 -2.6159,3.27379 -7.0026,0.24694 -14.0162,0.11994 -21.0241,0.23987 -4.07,0.0353 -4.7869,0.0177 -4.7385,-4.36033 z m 40.6375,-1.62629 c 0.6297,-1.4958 2.764,-0.52565 3.5052,0.41979 1.1264,1.59808 0.587,4.10987 0.708,6.0325 -0.043,1.43933 0.3161,3.69006 -1.7215,3.71829 -3.2562,0.10935 -2.6656,-3.7959 -2.7048,-5.97254 l -2e-4,-0.0705 c 0.062,-1.27 -0.1937,-2.83634 0.2134,-4.1275 z m -50.2652,25.05427 c 1.2125,2.62112 4.1078,3.97578 6.8122,2.78693 1.2343,-0.52916 2.3435,-1.51693 3.4932,-2.09902 0.9676,-0.49741 2.0108,-0.77964 3.0797,-1.00189 10.9411,-1.97909 22.0218,-2.91394 33.0856,-3.95463 1.391,-0.13054 2.8685,-0.28575 4.203,-0.69498 7.1392,-2.13783 7.6821,-10.84791 7.2866,-17.13441 -0.3206,-5.7785 -3.5983,-7.06615 -8.8272,-7.08732 -6.302,-0.18343 -12.6375,0.15523 -18.9304,-0.13404 l -0.063,-0.007 c -6.7976,-0.34573 -13.6503,-0.21167 -20.4639,-0.11993 -7.4835,-0.0246 -10.4278,3.92641 -10.5195,11.10895 -0.2931,4.99181 -0.2769,9.99067 0.079,14.99306 0.095,1.13946 0.2851,2.32127 0.7652,3.34434"
         style="display:inline;fill:#000000;fill-opacity:1;fill-rule:nonzero;stroke:none;stroke-width:0.0352777"
         id="path40834-6" />
      <path
         d="m 562.52518,276.99612 c -0.435,-1.71098 -2.6335,-1.74976 -3.8767,-0.9031 -1.0767,0.69496 -0.7042,1.97909 -0.6795,3.30552 0.015,0.69144 -0.018,1.37935 -0.038,2.07082 v 0.067 c 0.033,0.59974 -0.4099,4.33917 0.6213,3.88761 0.3887,-0.36687 0.3954,-1.05127 0.4004,-1.57692 -0.019,-1.63335 -0.047,-3.32669 -0.026,-4.94242 0.019,-0.55033 0.1094,-1.2065 0.5468,-1.56633 0.8791,-0.67027 1.584,0.33867 1.4799,1.2559 -0.1058,1.65452 -0.3838,3.40783 -0.1827,5.08352 0.1361,1.30529 1.0248,1.91558 1.3419,0.56091 0.1884,-0.99483 -0.02,-2.0955 0,-3.11502 -0.056,-1.37231 0.7814,-2.85398 0.4195,-4.1275"
         style="display:inline;fill:#000000;fill-opacity:1;fill-rule:nonzero;stroke:none;stroke-width:0.0352777"
         id="path40842-0" />
      <path
         d="m 572.89608,279.54671 v 0.0706 c -0.021,1.44637 0.1623,3.89819 -1.965,3.63712 -1.4746,-0.22577 -0.9842,-1.94027 -0.9595,-2.99508 0.1623,-1.32995 -0.5786,-3.48544 0.5644,-4.31445 0.5927,-0.35984 1.4888,-0.25049 1.9333,0.29278 0.6526,0.91017 0.3951,2.23663 0.4268,3.30907 z m -0.063,-4.23685 c -0.6561,-0.6985 -1.7356,-0.74084 -2.6423,-0.53624 -0.822,0.18344 -1.27,0.82199 -1.277,1.70392 -0.035,1.02307 0.032,2.0814 0.06,3.08682 v 0.067 c 0.1799,1.50284 -0.6774,4.16277 1.1077,4.86482 0.6279,0.18343 1.4181,-0.12348 2.1449,-0.27165 0.8043,-0.13052 1.6051,-0.51858 1.6651,-1.43227 0.1834,-1.56988 -0.025,-3.13973 -0.2082,-4.71313 -0.1234,-0.99483 -0.2751,-2.13783 -0.8537,-2.76928"
         style="display:inline;fill:#000000;fill-opacity:1;fill-rule:nonzero;stroke:none;stroke-width:0.0352777"
         id="path40844-6" />
      <path
         d="m 556.89018,278.53777 -0.027,0.003 c -0.4558,0.15169 -0.7948,1.21357 -1.4368,1.05834 -0.6746,-0.18344 -0.8397,-1.143 -0.4717,-1.67924 0.3023,-0.54678 1.2128,-0.72318 1.4199,-0.94895 0.3147,-0.46921 -1.144,-0.57505 -1.4538,-0.49742 -1.8757,0.27517 -1.4488,2.86809 -1.524,4.48734 -2e-4,0.90662 0.01,1.81327 0.016,2.71991 0.018,0.6985 -0.06,1.73212 0.3545,2.23309 0.9955,0.5362 0.5285,-3.13267 0.7363,-3.68655 0.1358,-1.25587 1.6301,-0.99835 2.4126,-1.72508 0.4441,-0.41627 0.5472,-1.18885 0.2939,-1.71802 -0.088,-0.1764 -0.2022,-0.26107 -0.3189,-0.24694"
         style="display:inline;fill:#000000;fill-opacity:1;fill-rule:nonzero;stroke:none;stroke-width:0.0352777"
         id="path40846-1" />
      <path
         d="m 583.46888,278.18852 v 0.0705 c 0.014,1.32646 0.06,3.45371 -1.3935,4.00405 -1.5804,0.2681 -1.1853,-2.22605 -1.3088,-3.21734 -0.028,-0.68791 -0.063,-1.37938 -0.1552,-2.06375 -0.2928,-1.59104 -0.4833,-3.21381 1.5592,-2.9704 1.771,0.50449 1.2277,2.73402 1.2983,4.1769 z m 0.4727,-0.17288 c -0.1023,-1.524 0.4092,-4.43793 -1.7639,-4.70252 -2.0884,-0.15523 -2.9175,0.70557 -2.5012,2.69524 0.2364,1.47108 0.2611,2.94216 0.3493,4.40266 0.063,0.77259 -0.035,1.67217 0.4445,2.32479 0.5397,0.71263 1.7568,0.60325 2.4765,0.0212 1.3123,-1.11829 0.9948,-3.17852 0.9948,-4.67784 v -0.0635"
         style="display:inline;fill:#000000;fill-opacity:1;fill-rule:nonzero;stroke:none;stroke-width:0.0352777"
         id="path40848-7" />
      <path
         d="m 565.62888,283.94937 c -0.3104,0.43744 -1.0866,0.79727 -1.4711,0.27869 -0.4551,-0.87842 0.088,-2.7587 1.2065,-2.93862 l 0.042,0.014 c 0.1094,0.0494 0.1623,0.18344 0.2011,0.30692 0.1941,0.8114 0.5751,1.63335 0.021,2.33892 z m 0.3845,-5.08706 c -0.7514,-0.41627 -1.8062,0.20108 -2.1343,0.9243 -0.2152,0.4727 -0.2222,1.0936 -0.2928,1.6792 -0.085,0.77258 -0.2399,1.41465 -0.261,2.11667 v 0.067 c -0.1901,1.9826 2.0462,2.20134 3.0622,0.91721 0.7408,-0.94192 0.4268,-2.25777 0.2998,-3.39725 -0.1023,-0.78669 -0.134,-1.94734 -0.6703,-2.30717"
         style="display:inline;fill:#000000;fill-opacity:1;fill-rule:nonzero;stroke:none;stroke-width:0.0352777"
         id="path40850-1" />
      <path
         d="m 575.74658,274.21623 c -0.3951,0.29281 -0.4198,0.81846 -0.4057,1.36525 0.099,1.60866 0.3774,3.29848 -0.081,4.78014 -0.2399,0.82902 -0.6279,1.68627 -0.5044,2.56117 0.2257,1.36173 1.4605,1.3194 1.6368,-0.10583 0.1376,-1.24884 0.025,-2.66348 0.1094,-3.88409 v -0.0706 c 0.035,-1.18885 0.1059,-2.59644 0.035,-3.78883 -0.06,-0.4445 -0.2928,-1.08654 -0.7937,-0.85725"
         style="display:inline;fill:#000000;fill-opacity:1;fill-rule:nonzero;stroke:none;stroke-width:0.0352777"
         id="path40852-2" />
      <path
         d="m 577.63038,275.41214 c 0.028,2.29307 -0.025,4.60023 0.3104,6.88975 0.063,0.31047 0.1023,0.91372 0.2858,1.08657 h 0.011 c 0.1728,-0.1764 0.1728,-0.77965 0.2222,-1.08657 0.2152,-2.46237 0.4586,-4.96003 0.1694,-7.42595 -0.4269,-1.75332 -1.076,-0.56092 -0.9984,0.5362"
         style="display:inline;fill:#000000;fill-opacity:1;fill-rule:nonzero;stroke:none;stroke-width:0.0352777"
         id="path40854-0" />
      <path
         d="m 564.48588,276.61512 c 0.5292,-0.54681 0.9807,0.014 1.3194,0.57857 0.1552,0.21518 0.2328,0.56795 0.4551,0.53975 l 0.025,-0.0177 c 0.194,-0.19402 0.254,-0.82902 0.254,-1.143 0.042,-0.79023 -0.5821,-1.30175 -1.3124,-1.3335 -1.1289,-0.12348 -2.558,1.24884 -1.7639,2.32834 0.4516,0.37748 0.7373,-0.7479 1.0231,-0.9525"
         style="display:inline;fill:#000000;fill-opacity:1;fill-rule:nonzero;stroke:none;stroke-width:0.0352777"
         id="path40856-3" />
      <path
         d="m 516.14158,83.028338 c 0.4219,3.0621 1.059,6.70629 4.5893,7.51417 1.2911,0.35983 2.8518,0.45508 4.2107,0.5362 8.104,0.46921 16.207,0.89255 24.3022,1.31588 l 0.067,0.003 c 8.4853,0.45156 16.9703,1.016 25.4723,1.26648 5.2387,0.17992 5.1999,-3.53131 4.4908,-7.5918 -0.8043,-4.87891 -1.6439,-9.75428 -2.4341,-14.64378 -0.4727,-2.29659 -0.5398,-5.46807 -2.5753,-6.94622 -1.4852,-1.00541 -3.9511,-1.11476 -5.7468,-1.2982 -16.9407,-1.34056 -33.8395,-3.15383 -50.7978,-4.20158 -3.3567,0.0459 -4.5092,2.00025 -4.2489,5.11527 0.7027,6.35 1.7893,12.59768 2.6702,18.93006"
         style="display:inline;fill:#000000;fill-opacity:1;fill-rule:nonzero;stroke:none;stroke-width:0.0352777"
         id="path40862-6" />
      <path
         d="m 503.86248,248.78448 c 0.5164,-5.92312 8.038,-6.50875 8.352,-0.22577 l 10e-4,0.0741 c 0.1161,3.1115 -2.8423,6.0325 -5.8684,4.54732 -1.6179,-0.76555 -2.5728,-2.62115 -2.4846,-4.39563 z m 11.6441,0.72673 c 0.7969,-4.99533 -3.283,-10.07533 -8.5214,-9.08757 -4.1144,0.71615 -6.708,4.70255 -6.6819,8.84063 l 3e-4,0.0741 c 0.3574,10.5057 13.8166,10.4775 15.203,0.17285"
         style="display:inline;fill:#000000;fill-opacity:1;fill-rule:nonzero;stroke:none;stroke-width:0.0352777"
         id="path40864-9" />
    </g>
  </g>
</svg>
