<?xml version="1.0" encoding="UTF-8" standalone="no"?>
<!-- Created with Inkscape (http://www.inkscape.org/) -->

<svg
   width="800"
   height="800"
   viewBox="0 0 211.66666 211.66667"
   version="1.1"
   id="svg14124"
   inkscape:version="1.1.2 (b8e25be833, 2022-02-05)"
   sodipodi:docname="comer.svg"
   xmlns:inkscape="http://www.inkscape.org/namespaces/inkscape"
   xmlns:sodipodi="http://sodipodi.sourceforge.net/DTD/sodipodi-0.dtd"
   xmlns="http://www.w3.org/2000/svg"
   xmlns:svg="http://www.w3.org/2000/svg">
  <sodipodi:namedview
     id="namedview14126"
     pagecolor="#505050"
     bordercolor="#ffffff"
     borderopacity="1"
     inkscape:pageshadow="0"
     inkscape:pageopacity="0"
     inkscape:pagecheckerboard="1"
     inkscape:document-units="mm"
     showgrid="false"
     units="px"
     inkscape:zoom="1.1830527"
     inkscape:cx="323.086"
     inkscape:cy="392.24864"
     inkscape:window-width="2323"
     inkscape:window-height="1321"
     inkscape:window-x="2469"
     inkscape:window-y="-692"
     inkscape:window-maximized="1"
     inkscape:current-layer="layer1" />
  <defs
     id="defs14121">
    <clipPath
       clipPathUnits="userSpaceOnUse"
       id="clipPath1838">
      <path
         d="M 0,500 H 500 V 0 H 0 Z"
         id="path1836" />
    </clipPath>
    <clipPath
       clipPathUnits="userSpaceOnUse"
       id="clipPath1978">
      <path
         d="M 0,500 H 500 V 0 H 0 Z"
         id="path1976" />
    </clipPath>
  </defs>
  <g
     inkscape:label="Capa 1"
     inkscape:groupmode="layer"
     id="layer1">
    <g
       id="g1832"
       transform="matrix(1.4629124,0,0,-1.4629124,-460.67856,361.42591)">
      <g
         id="g1834"
         clip-path="url(#clipPath1838)">
        <g
           id="g1840"
           transform="translate(429.2471,368.3135)" />
        <g
           id="g1844"
           transform="translate(431.3418,372.187)" />
        <g
           id="g1848"
           transform="translate(438.0059,369.147)" />
        <g
           id="g1852"
           transform="translate(442.6318,373.7251)" />
        <g
           id="g1856"
           transform="translate(447.2891,377.5425)" />
        <g
           id="g1860"
           transform="translate(365.2686,136.4424)">
          <path
             d="m 0,0 c 9.432,-5.845 21.059,-6.953 31.545,-3.484 9.683,3.202 18.042,10.152 23.212,18.904 5.379,9.106 6.826,20.348 3.554,30.439 -3.367,10.382 -11.435,18.635 -21.127,23.367 -4.847,2.366 -10.178,3.749 -15.564,4.019 -5.499,0.276 -10.82,-0.892 -15.877,-3 -9.197,-3.834 -16.938,-10.737 -21.742,-19.46 -4.24,-7.702 -5.565,-16.88 -3.712,-25.468 2.035,-9.422 8.011,-17.655 15.853,-23.14 1.228,-0.859 2.496,-1.548 3.851,-2.186 0.121,-0.056 0.378,0.211 0.254,0.299 -4.285,3.074 -8.442,6.155 -11.808,10.265 -3.006,3.672 -5.272,7.923 -6.605,12.476 -2.599,8.871 -1.357,18.358 2.842,26.525 4.585,8.917 12.836,15.238 22.011,18.917 10.364,4.154 21.844,2.399 31.416,-2.979 C 47.466,60.233 55.246,51.229 57.837,40.696 60.432,30.151 56.865,18.765 50.305,10.394 44.745,3.299 36.815,-1.763 28.057,-3.866 18.497,-6.161 8.796,-4.274 0.213,0.299 0.087,0.366 -0.147,0.092 0,0"
             style="fill:#000000;fill-opacity:1;fill-rule:nonzero;stroke:none"
             id="path1862" />
        </g>
        <g
           id="g1864"
           transform="translate(404.4727,203.1826)">
          <path
             d="m 0,0 c -9.432,5.847 -21.058,6.954 -31.545,3.486 -9.682,-3.203 -18.042,-10.154 -23.212,-18.906 -5.379,-9.107 -6.826,-20.349 -3.555,-30.44 3.367,-10.381 11.434,-18.635 21.126,-23.368 4.847,-2.365 10.178,-3.748 15.565,-4.019 5.499,-0.276 10.821,0.893 15.878,3 9.197,3.834 16.938,10.738 21.742,19.461 4.24,7.702 5.565,16.88 3.711,25.468 -2.035,9.422 -8.011,17.655 -15.853,23.141 -1.227,0.859 -2.495,1.548 -3.85,2.186 -0.121,0.057 -0.378,-0.211 -0.254,-0.299 4.285,-3.074 8.441,-6.155 11.807,-10.265 3.006,-3.673 5.272,-7.924 6.606,-12.477 2.598,-8.871 1.357,-18.358 -2.841,-26.525 -4.585,-8.918 -12.837,-15.239 -22.012,-18.918 -10.364,-4.155 -21.846,-2.398 -31.417,2.98 -9.363,5.261 -17.143,14.266 -19.734,24.799 -2.594,10.546 0.973,21.93 7.533,30.302 5.561,7.095 13.49,12.158 22.248,14.261 9.56,2.295 19.261,0.409 27.844,-4.166 C -0.087,-0.366 0.147,-0.092 0,0"
             style="fill:#000000;fill-opacity:1;fill-rule:nonzero;stroke:none"
             id="path1866" />
        </g>
        <g
           id="g1868"
           transform="translate(399.2656,194.25)">
          <path
             d="m 0,0 c -9.165,5.813 -20.833,5.071 -29.853,-0.609 -8.847,-5.573 -14.496,-15.272 -14.328,-25.782 0.177,-11.02 7.647,-20.443 17.403,-24.93 4.885,-2.246 10.337,-3.082 15.662,-2.373 5.258,0.7 10.376,3.249 14.502,6.518 7.239,5.738 11.877,14.267 11.718,23.604 -0.077,4.45 -1.4,8.829 -3.593,12.685 -1.163,2.045 -2.617,3.913 -4.247,5.606 -1.713,1.777 -3.784,3.671 -6.029,4.742 -0.414,0.198 -0.834,0.382 -1.255,0.564 -0.121,0.053 -0.376,-0.204 -0.253,-0.298 2.114,-1.635 4.315,-3.151 6.249,-5.007 1.811,-1.74 3.378,-3.731 4.662,-5.887 2.363,-3.972 3.502,-8.542 3.468,-13.151 -0.071,-9.594 -5.851,-18.405 -14.064,-23.105 -4.771,-2.73 -9.87,-4.365 -15.407,-4.032 -5.436,0.326 -10.751,2.486 -15.152,5.638 -4.381,3.138 -8.115,7.349 -10.318,12.289 -2.243,5.027 -2.417,10.59 -1.001,15.869 2.197,8.194 8.314,15.027 15.954,18.563 3.912,1.811 8.226,2.661 12.528,2.538 C -8.733,3.31 -4.317,1.821 -0.239,-0.282 -0.124,-0.342 0.116,-0.074 0,0"
             style="fill:#000000;fill-opacity:1;fill-rule:nonzero;stroke:none"
             id="path1870" />
        </g>
        <g
           id="g1872"
           transform="translate(377.6533,147.7197)">
          <path
             d="m 0,0 c 0.984,-0.67 1.772,-1.188 2.949,-1.501 1.159,-0.308 2.37,-0.398 3.565,-0.434 2.611,-0.075 5.38,0.259 7.861,1.089 2.59,0.867 5.019,2.112 7.274,3.647 1.032,0.702 1.997,1.502 2.921,2.339 0.876,0.795 2.017,1.793 2.473,2.901 C 27.464,9.062 26.562,9.47 25.762,8.864 24.932,8.237 24.299,7.343 23.547,6.619 22.759,5.861 21.887,5.201 20.992,4.575 19.044,3.214 16.85,2.145 14.611,1.355 12.216,0.511 9.831,-0.187 7.28,-0.34 4.957,-0.478 2.378,-0.272 0.09,0.125 0.048,0.133 -0.051,0.034 0,0"
             style="fill:#000000;fill-opacity:1;fill-rule:nonzero;stroke:none"
             id="path1874" />
        </g>
        <g
           id="g1876"
           transform="translate(407.0146,162.2656)">
          <path
             d="m 0,0 c -0.867,-0.401 -1.419,-1.518 -1.814,-2.329 -0.234,-0.479 -0.211,-1.216 0.479,-1.224 0.725,-0.009 1.318,0.615 1.643,1.196 0.255,0.461 0.394,0.938 0.423,1.463 0.013,0.227 -0.027,0.736 -0.229,0.882 C 0.343,0.104 0.173,0.08 0,0"
             style="fill:#000000;fill-opacity:1;fill-rule:nonzero;stroke:none"
             id="path1878" />
        </g>
        <g
           id="g1880"
           transform="translate(365.3926,184.958)">
          <path
             d="m 0,0 c 1.83,1.671 3.637,3.32 5.737,4.653 1.057,0.672 2.191,1.221 3.347,1.697 1.207,0.497 2.499,0.615 3.708,1.047 0.352,0.127 1.21,1.054 0.427,1.165 C 12.126,8.717 10.793,8.167 9.783,7.788 8.364,7.255 7.032,6.574 5.733,5.795 3.44,4.418 0.979,2.538 -0.195,0.074 -0.274,-0.093 -0.086,-0.078 0,0"
             style="fill:#000000;fill-opacity:1;fill-rule:nonzero;stroke:none"
             id="path1882" />
        </g>
        <g
           id="g1884"
           transform="translate(381.2842,193.4141)">
          <path
             d="m 0,0 c 0.109,-0.06 0.179,-0.208 0.3,-0.253 0.168,-0.062 0.39,-0.067 0.566,-0.067 0.439,0 0.738,0.175 1.135,0.328 C 2.07,0.034 2.167,0.153 2.107,0.226 1.854,0.535 1.759,0.646 1.33,0.645 0.798,0.643 0.486,0.375 0.049,0.134 0.013,0.113 -0.062,0.035 0,0"
             style="fill:#000000;fill-opacity:1;fill-rule:nonzero;stroke:none"
             id="path1886" />
        </g>
        <g
           id="g1888"
           transform="translate(419.4834,160.457)">
          <path
             d="m 0,0 c -0.832,-1.819 -2.032,-3.553 -3.006,-5.309 -0.996,-1.797 -2.08,-3.55 -3.301,-5.205 -0.86,-1.166 0.637,-1.368 1.294,-0.479 1.236,1.669 2.347,3.435 3.328,5.266 0.452,0.844 0.857,1.695 1.177,2.597 0.374,1.055 0.45,2.068 0.687,3.152 C 0.208,0.156 0.03,0.065 0,0"
             style="fill:#000000;fill-opacity:1;fill-rule:nonzero;stroke:none"
             id="path1890" />
        </g>
        <g
           id="g1892"
           transform="translate(411.8672,147.5879)">
          <path
             d="m 0,0 c -0.728,-0.338 -1.483,-0.9 -1.822,-1.655 -0.249,-0.555 0.264,-0.73 0.679,-0.437 0.651,0.459 1.137,1.228 1.281,2.003 C 0.155,0.006 0.079,0.036 0,0"
             style="fill:#000000;fill-opacity:1;fill-rule:nonzero;stroke:none"
             id="path1894" />
        </g>
        <g
           id="g1896"
           transform="translate(370.873,202.2031)">
          <path
             d="M 0,0 C 1.264,-0.173 2.775,0.895 3.928,1.311 4.741,1.604 5.576,1.83 6.421,2.014 7.275,2.198 8.043,2.184 8.796,2.645 9.081,2.82 9.491,3.39 9.194,3.714 8.716,4.234 7.811,3.906 7.195,3.793 6.141,3.598 5.12,3.223 4.12,2.847 2.656,2.296 0.751,1.575 -0.053,0.137 -0.087,0.077 -0.071,0.009 0,0"
             style="fill:#000000;fill-opacity:1;fill-rule:nonzero;stroke:none"
             id="path1898" />
        </g>
        <g
           id="g1900"
           transform="translate(381.9404,205.6455)">
          <path
             d="M 0,0 C 0.18,-0.324 0.349,-0.4 0.735,-0.44 1.261,-0.494 1.64,-0.146 2.056,0.106 2.114,0.142 2.251,0.314 2.158,0.382 1.833,0.617 1.767,0.795 1.31,0.756 0.835,0.716 0.489,0.527 0.121,0.246 0.063,0.202 -0.046,0.085 0,0"
             style="fill:#000000;fill-opacity:1;fill-rule:nonzero;stroke:none"
             id="path1902" />
        </g>
        <g
           id="g1904"
           transform="translate(348.6924,165.1807)">
          <path
             d="m 0,0 c -0.187,-0.917 -0.505,-1.758 -0.512,-2.706 -0.003,-0.448 0.134,-0.933 0.261,-1.358 0.123,-0.412 0.574,-0.411 0.902,-0.482 0.13,-0.028 0.242,0.091 0.281,0.204 0.302,0.877 0.283,1.289 0.043,2.193 -0.203,0.76 -0.727,1.42 -0.832,2.202 C 0.131,0.144 0.011,0.051 0,0"
             style="fill:#000000;fill-opacity:1;fill-rule:nonzero;stroke:none"
             id="path1906" />
        </g>
        <g
           id="g1908"
           transform="translate(415.7744,158.2227)">
          <path
             d="m 0,0 c -1.046,-1.543 -2.007,-3.141 -3.049,-4.686 -1.026,-1.524 -2.468,-2.877 -3.328,-4.486 -0.048,-0.09 0.025,-0.166 0.116,-0.116 1.536,0.84 2.599,2.619 3.536,4.041 1.088,1.65 1.971,3.452 2.829,5.228 C 0.145,0.067 0.034,0.049 0,0"
             style="fill:#000000;fill-opacity:1;fill-rule:nonzero;stroke:none"
             id="path1910" />
        </g>
        <g
           id="g1912"
           transform="translate(413.0107,156.498)">
          <path
             d="m 0,0 c -0.979,-1.129 -1.896,-2.334 -2.539,-3.688 -0.031,-0.066 0.052,-0.05 0.077,-0.014 0.858,1.208 1.711,2.424 2.525,3.662 C 0.102,0.018 0.041,0.047 0,0"
             style="fill:#000000;fill-opacity:1;fill-rule:nonzero;stroke:none"
             id="path1914" />
        </g>
        <g
           id="g1916"
           transform="translate(348.8154,168.1748)">
          <path
             d="M 0,0 C 0.156,2.795 0.738,5.448 1.244,8.185 1.263,8.289 1.131,8.217 1.106,8.168 -0.129,5.681 -0.618,2.702 -0.06,-0.036 -0.053,-0.069 -0.001,-0.02 0,0"
             style="fill:#000000;fill-opacity:1;fill-rule:nonzero;stroke:none"
             id="path1918" />
        </g>
        <g
           id="g1920"
           transform="translate(352.2812,175.5781)">
          <path
             d="m 0,0 c -0.822,-3.771 -1.291,-8.1 -0.621,-11.919 0.01,-0.058 0.106,0.027 0.107,0.065 0.06,2.015 -0.016,4.028 0.066,6.044 0.08,1.951 0.31,3.889 0.502,5.83 C 0.057,0.053 0.004,0.02 0,0"
             style="fill:#000000;fill-opacity:1;fill-rule:nonzero;stroke:none"
             id="path1922" />
        </g>
        <g
           id="g1924"
           transform="translate(353.2041,171.0928)">
          <path
             d="m 0,0 c -0.433,-0.931 -0.599,-1.998 -0.338,-2.995 0.013,-0.05 0.092,0.022 0.092,0.055 -0.01,1.01 0.162,1.963 0.341,2.952 C 0.108,0.083 0.017,0.035 0,0"
             style="fill:#000000;fill-opacity:1;fill-rule:nonzero;stroke:none"
             id="path1926" />
        </g>
        <g
           id="g1928"
           transform="translate(371.2842,200.0586)">
          <path
             d="m 0,0 c 1.957,0.995 3.917,1.804 6.061,2.306 2.335,0.546 4.797,0.657 7.184,0.802 0.045,0.003 0.125,0.101 0.053,0.11 C 8.846,3.737 3.609,2.846 -0.007,0.041 -0.024,0.027 -0.034,-0.018 0,0"
             style="fill:#000000;fill-opacity:1;fill-rule:nonzero;stroke:none"
             id="path1930" />
        </g>
        <g
           id="g1932"
           transform="translate(374.5762,200.2939)">
          <path
             d="M 0,0 C 1.94,0.352 3.862,0.823 5.806,1.147 5.846,1.154 5.915,1.26 5.847,1.259 3.783,1.229 1.897,0.948 0.01,0.071 -0.018,0.059 -0.054,-0.01 0,0"
             style="fill:#000000;fill-opacity:1;fill-rule:nonzero;stroke:none"
             id="path1934" />
        </g>
        <g
           id="g1936"
           transform="translate(376.2607,199.1162)">
          <path
             d="M 0,0 C 0.807,0.126 1.54,0.449 2.333,0.623 2.357,0.628 2.402,0.694 2.358,0.692 1.503,0.649 0.798,0.381 0.009,0.074 -0.021,0.062 -0.055,-0.009 0,0"
             style="fill:#000000;fill-opacity:1;fill-rule:nonzero;stroke:none"
             id="path1938" />
        </g>
        <g
           id="g1940"
           transform="translate(363.6582,224.8926)">
          <path
             d="m 0,0 c -2.27,-3.47 -4.288,-7.125 -6.292,-10.752 -1.111,-2.011 -2.294,-3.992 -3.676,-5.831 -1.069,-1.424 -1.651,-2.316 -3.435,-1.89 -1.75,0.418 -4.801,2.113 -4.741,4.228 0.048,1.647 1.086,3.405 1.814,4.826 1.106,2.16 2.387,4.228 3.698,6.268 1.216,1.89 2.66,3.695 3.74,5.667 0.404,0.736 0.529,1.563 0.875,2.323 0.169,0.368 -0.247,0.369 -0.443,0.168 -0.421,-0.43 -0.886,-0.823 -1.368,-1.183 -0.865,-0.644 -1.475,-1.686 -2.076,-2.563 -1.36,-1.986 -2.682,-3.996 -3.943,-6.045 -1.244,-2.024 -2.442,-4.086 -3.432,-6.247 -0.668,-1.455 -1.413,-3.166 -1.315,-4.807 0.137,-2.272 2.783,-3.939 4.642,-4.723 2.04,-0.859 3.939,-0.521 5.586,0.888 1.474,1.263 2.602,2.939 3.643,4.56 1.333,2.077 2.552,4.246 3.651,6.456 1.364,2.744 2.481,5.708 3.342,8.653 C 0.328,0.193 0.057,0.087 0,0"
             style="fill:#000000;fill-opacity:1;fill-rule:nonzero;stroke:none"
             id="path1942" />
        </g>
        <g
           id="g1944"
           transform="translate(358.0781,228.1504)">
          <path
             d="m 0,0 c -1.312,-1.227 -2.286,-2.88 -3.284,-4.359 -1.308,-1.939 -2.514,-3.938 -3.693,-5.957 -1.157,-1.984 -2.416,-3.905 -3.559,-5.897 -0.521,-0.906 -1.048,-1.808 -1.578,-2.707 -0.211,-0.357 -0.522,-0.759 -0.617,-1.168 -0.064,-0.274 0.048,-0.488 0.016,-0.724 -0.033,-0.237 0.197,-0.272 0.36,-0.139 0.622,0.512 1.064,0.81 1.501,1.54 0.515,0.856 0.999,1.731 1.483,2.605 1.066,1.918 1.975,3.914 3.031,5.836 1.09,1.984 2.192,3.961 3.311,5.928 0.975,1.713 2.161,3.296 3.136,5.001 C 0.159,0.048 0.045,0.042 0,0"
             style="fill:#000000;fill-opacity:1;fill-rule:nonzero;stroke:none"
             id="path1946" />
        </g>
        <g
           id="g1948"
           transform="translate(360.3389,226.3594)">
          <path
             d="m 0,0 c -2.408,-3.133 -4.469,-6.674 -6.462,-10.08 -1.1,-1.879 -2.145,-3.79 -3.215,-5.686 -0.478,-0.847 -0.957,-1.695 -1.436,-2.543 -0.298,-0.527 -1.162,-1.567 -0.804,-2.205 0.145,-0.256 0.409,-0.237 0.652,-0.125 -0.459,-0.212 0.316,0.166 0.356,0.195 0.385,0.275 0.626,0.696 0.862,1.093 0.469,0.789 0.903,1.598 1.354,2.396 1.104,1.96 2.207,3.921 3.311,5.881 1.114,1.977 2.15,3.995 3.149,6.033 0.808,1.648 1.717,3.31 2.404,5.012 C 0.229,0.118 0.06,0.077 0,0"
             style="fill:#000000;fill-opacity:1;fill-rule:nonzero;stroke:none"
             id="path1950" />
        </g>
        <g
           id="g1952"
           transform="translate(350.0146,207.5137)">
          <path
             d="m 0,0 c -0.141,0.094 -0.277,0.183 -0.408,0.263 -0.133,0.079 -0.27,0.153 -0.403,0.23 0.425,0.144 1.275,0.669 0.628,0.98 C -0.22,1.486 -0.257,1.504 -0.293,1.518 0.219,1.759 0.655,2.162 1.049,2.633 1.04,2.59 1.03,2.544 1.023,2.5 0.888,1.837 0.533,1.328 0.545,0.623 0.545,0.471 0.589,0.34 0.644,0.213 0.415,0.216 0.199,0.136 0,0 M -2.44,3.555 C -2.595,2.966 -2.658,2.391 -2.514,1.969 -2.522,1.994 -2.536,2.002 -2.546,2.025 -2.745,2.462 -2.899,2.909 -3.087,3.35 -2.853,3.393 -2.63,3.471 -2.44,3.555 M 6.911,4.601 C 6.928,4.74 6.697,4.692 6.634,4.649 5.248,3.711 4.687,1.98 3.495,0.816 2.588,-0.07 1.211,-0.096 1.637,1.545 1.912,2.623 2.172,3.925 2.701,4.89 2.946,5.326 2.042,5.271 1.861,5.039 1.845,5.018 1.825,4.989 1.806,4.962 L 1.804,4.959 C 1.802,4.959 1.802,4.957 1.8,4.955 1.219,4.159 -0.529,1.115 -1.476,2.132 c -0.72,0.769 0.38,2.951 0.694,3.726 0.178,0.442 -0.646,0.32 -0.805,0.06 -0.28,-0.467 -0.519,-0.956 -0.797,-1.429 -0.799,-0.596 -1.248,-0.52 -1.352,0.226 -0.127,0.416 0.02,0.947 0.104,1.358 0.308,1.456 1.238,2.75 1.88,4.073 0.083,0.173 -0.249,0.118 -0.315,0.024 C -3.079,8.73 -5.495,5.884 -4.378,3.952 -4.877,3.809 -5.319,3.473 -5.199,3.077 -4.96,2.29 -4.943,1.807 -4.444,1.322 c 0.193,-0.416 0.449,-0.791 0.886,-1.076 0.183,-0.122 0.379,-0.174 0.575,-0.192 0.688,-0.457 1.442,-0.83 2.14,-1.234 0.04,-0.021 0.084,-0.034 0.125,-0.052 0.022,-1.043 2.364,-0.51 3.001,-0.319 0.436,0.132 0.608,0.405 0.574,0.625 0.013,0.006 0.027,0.006 0.039,0.01 0.056,0.015 0.248,0.143 0.111,0.203 -0.156,0.067 -0.317,0.15 -0.484,0.235 0.93,0.248 1.671,0.91 2.303,1.614 0.793,0.88 1.956,2.328 2.085,3.465"
             style="fill:#000000;fill-opacity:1;fill-rule:nonzero;stroke:none"
             id="path1954" />
        </g>
        <g
           id="g1956"
           transform="translate(353.0391,205.0205)">
          <path
             d="m 0,0 c -4.142,-2.075 -6.977,-6.069 -9.437,-9.85 -3.29,-5.055 -6.045,-10.439 -8.821,-15.786 -2.443,-4.706 -4.621,-9.784 -7.871,-14.005 -0.858,-1.115 -3.46,-4.133 -4.7,-1.743 -1.019,1.961 0.805,5.134 1.677,6.838 1.918,3.746 4.558,7.144 7.057,10.513 2.783,3.753 5.562,7.493 8.021,11.469 1.868,3.019 3.631,6.123 4.863,9.461 0.609,1.649 1.056,3.319 1.249,5.067 0.167,1.508 -0.29,2.678 -1.317,3.765 -0.2,0.211 -0.588,-0.21 -0.575,-0.414 0.083,-1.263 -0.146,-2.519 -0.238,-3.778 -0.106,-1.456 -0.437,-2.85 -0.902,-4.232 -0.917,-2.726 -2.355,-5.305 -3.826,-7.765 -3.656,-6.112 -8.144,-11.631 -12.231,-17.447 -1.739,-2.477 -3.416,-5.02 -4.711,-7.762 -0.968,-2.054 -1.966,-4.567 -1.385,-6.864 0.543,-2.148 2.991,-2.208 4.61,-1.367 2.24,1.164 3.873,3.48 5.208,5.547 1.878,2.911 3.357,6.104 4.858,9.219 1.83,3.799 3.694,7.575 5.593,11.34 1.814,3.592 3.841,7.103 6.154,10.398 1.866,2.656 3.977,5.478 6.751,7.241 C 0.104,-0.106 0.125,0.062 0,0"
             style="fill:#000000;fill-opacity:1;fill-rule:nonzero;stroke:none"
             id="path1958" />
        </g>
        <g
           id="g1960"
           transform="translate(353.8232,206.4756)">
          <path
             d="m 0,0 c -1.667,-0.174 -3.08,-1.401 -4.235,-2.517 -1.687,-1.627 -3.213,-3.423 -4.631,-5.287 -2.999,-3.942 -5.42,-8.246 -7.707,-12.628 -2.363,-4.527 -4.691,-9.076 -6.987,-13.637 -0.979,-1.948 -1.907,-3.918 -2.929,-5.845 -0.528,-0.993 -1.191,-1.928 -1.933,-2.772 -0.671,-0.761 -1.531,-1.294 -2.233,-2.018 -0.126,-0.129 -0.243,-0.522 0.08,-0.438 1.439,0.375 2.606,1.804 3.512,2.908 1.294,1.576 2.244,3.397 3.375,5.086 2.835,4.233 5.13,8.75 7.463,13.271 2.251,4.361 4.484,8.733 7.232,12.808 1.368,2.028 2.863,3.976 4.436,5.85 1.447,1.722 2.8,3.628 4.537,5.061 C 0.008,-0.136 0.104,0.011 0,0"
             style="fill:#000000;fill-opacity:1;fill-rule:nonzero;stroke:none"
             id="path1962" />
        </g>
        <g
           id="g1964"
           transform="translate(451.5371,172.8857)">
          <path
             d="m 0,0 c 1.782,-0.062 -0.908,-4.181 -1.254,-4.742 -1.172,-1.899 -2.511,-3.682 -3.785,-5.511 -4.661,-6.684 -9.508,-13.236 -14.059,-19.997 -4.531,-6.731 -8.951,-13.537 -13.544,-20.228 -1.265,-1.843 -2.493,-3.719 -3.822,-5.519 -1.142,-1.547 -2.639,-3.735 -4.535,-4.421 -1.532,-0.554 -2.468,0.763 -2.129,2.142 0.444,1.806 1.836,3.444 2.972,4.861 2.571,3.204 5.609,6.076 8.326,9.157 2.277,2.581 4.42,5.265 6.107,8.275 1.734,3.093 2.317,6.411 2.743,9.886 0.22,1.806 0.47,3.599 0.947,5.358 0.438,1.62 1.269,3.163 2.089,4.618 1.626,2.889 3.791,5.46 6.168,7.755 1.936,1.869 4.117,3.492 6.461,4.815 2.378,1.343 5.002,2.04 7.379,3.347 0.118,0.063 0.637,0.624 0.256,0.693 -1.317,0.24 -2.228,0.008 -3.487,-0.456 -1.562,-0.574 -3.059,-1.276 -4.51,-2.09 -2.819,-1.58 -5.401,-3.569 -7.728,-5.806 -4.695,-4.511 -8.391,-10.322 -9.364,-16.82 -0.544,-3.638 -0.748,-7.195 -2.409,-10.548 -1.574,-3.179 -3.945,-5.941 -6.283,-8.578 -2.698,-3.042 -5.642,-5.89 -8.206,-9.046 -1.511,-1.861 -5.515,-6.805 -2.732,-9.113 1.463,-1.214 3.414,-0.38 4.774,0.544 1.919,1.304 3.417,3.277 4.772,5.126 3.738,5.101 7.098,10.523 10.53,15.828 4.402,6.806 8.753,13.643 13.335,20.328 3.174,4.632 6.321,9.305 9.336,14.043 0.411,0.647 4.243,6.475 1.773,6.351 C 0.016,0.246 -0.161,0.006 0,0"
             style="fill:#000000;fill-opacity:1;fill-rule:nonzero;stroke:none"
             id="path1966" />
        </g>
      </g>
    </g>
    <g
       id="g1972"
       transform="matrix(1.4629124,0,0,-1.4629124,-460.67856,361.42591)">
      <g
         id="g1974"
         clip-path="url(#clipPath1978)">
        <g
           id="g1980"
           transform="translate(404.4746,219.5889)">
          <path
             d="m 0,0 1.297,-1.031 c 0.81,-0.167 1.597,-0.162 2.356,0.015 0.332,0.08 0.661,0.208 0.993,0.385 0.331,0.176 0.709,0.422 1.137,0.739 0.43,0.318 1.121,1.079 2.077,2.283 L 8.647,3.382 9.4,4.256 c 0.729,0.917 1.2,1.965 1.41,3.141 0.375,2.056 -0.054,3.575 -1.287,4.554 C 9.371,12.072 9.181,12.125 8.951,12.112 8.721,12.1 8.521,11.984 8.35,11.769 8.178,11.552 7.812,11.021 7.253,10.173 6.694,9.325 6.262,8.709 5.955,8.323 L 1.41,2.711 C 0.166,1.146 -0.305,0.242 0,0 Z M 4.875,4.777 C 6.182,6.608 7.163,7.937 7.82,8.765 8.478,9.591 9.038,10.206 9.502,10.61 10.763,9.341 9.958,6.901 7.089,3.29 6.731,2.84 6.336,2.392 5.904,1.943 4.023,0.007 2.562,-0.548 1.521,0.278 l 0.341,0.43 C 2.563,1.59 3.567,2.946 4.875,4.777 Z"
             style="fill:none;stroke:#000000;stroke-width:0.5;stroke-linecap:butt;stroke-linejoin:miter;stroke-miterlimit:10;stroke-dasharray:none;stroke-opacity:1"
             id="path1982" />
        </g>
        <g
           id="g1984"
           transform="translate(420.6729,222.2187)">
          <path
             d="M 0,0 C 0.492,0.619 0.91,1.192 1.253,1.721 L 2.174,0.989 C 2.308,0.883 2.465,0.834 2.645,0.844 2.823,0.854 2.958,0.914 3.046,1.025 3.245,1.276 3.104,1.596 2.619,1.98 L 0.479,3.681 C -0.11,4.149 -0.515,4.246 -0.733,3.971 -0.882,3.784 -0.934,3.618 -0.888,3.472 -0.842,3.325 -0.73,3.183 -0.556,3.044 L -0.13,2.733 0.212,2.462 C -0.207,1.814 -0.688,1.147 -1.231,0.464 l -3.273,-3.921 -2.906,-3.909 -0.224,-0.209 -0.509,0.404 c -0.074,0.049 -0.185,0.052 -0.335,0.009 -0.149,-0.044 -0.268,-0.121 -0.356,-0.233 -0.214,-0.268 -0.106,-0.572 0.32,-0.911 0.052,-0.042 0.13,-0.094 0.233,-0.156 0.134,-0.144 0.472,-0.433 1.015,-0.864 l 0.789,-0.627 c 0.158,-0.125 0.34,-0.182 0.545,-0.169 0.206,0.014 0.369,0.096 0.49,0.248 0.236,0.298 0.11,0.642 -0.381,1.031 l -0.531,0.394 -0.237,0.187 0.405,0.494 0.425,0.535 2.943,3.882 z"
             style="fill:none;stroke:#000000;stroke-width:0.5;stroke-linecap:butt;stroke-linejoin:miter;stroke-miterlimit:10;stroke-dasharray:none;stroke-opacity:1"
             id="path1986" />
        </g>
        <g
           id="g1988"
           transform="translate(418.2539,210.6279)">
          <path
             d="m 0,0 c -0.58,-0.73 -0.675,-1.25 -0.283,-1.562 0.146,-0.116 0.317,-0.162 0.512,-0.135 0.199,0.024 0.339,0.093 0.427,0.204 0.089,0.11 0.147,0.26 0.173,0.45 0.011,0.086 0.021,0.145 0.027,0.178 l 7.18,9.037 C 7.712,6.972 7.033,4.841 6.003,1.78 4.973,-1.281 4.281,-3.034 3.929,-3.478 L 3.856,-3.55 C 3.839,-3.631 3.781,-3.775 3.684,-3.983 3.585,-4.191 3.536,-4.364 3.535,-4.503 c 0,-0.138 0.064,-0.257 0.189,-0.356 0.126,-0.1 0.391,-0.23 0.797,-0.391 0.435,0.15 1.643,1.356 3.625,3.618 1.984,2.262 3.54,4.092 4.67,5.49 l 1.08,1.359 c 0.149,0.187 0.237,0.385 0.263,0.593 0.028,0.207 -0.045,0.378 -0.214,0.512 C 13.646,6.56 13.356,6.5 13.073,6.144 L 12.717,5.64 C 9.885,2.075 7.353,-0.865 5.121,-3.182 c 0.081,0.27 0.421,1.127 1.021,2.572 0.599,1.444 1.189,2.88 1.769,4.305 0.581,1.426 1.044,2.79 1.393,4.092 0.346,1.302 0.381,2.064 0.099,2.286 -0.041,0.033 -0.095,0.053 -0.165,0.061 l 0.09,0.114 C 8.63,10.269 8.06,10.002 7.619,9.447 L 4.854,6.182 Z"
             style="fill:none;stroke:#000000;stroke-width:0.5;stroke-linecap:butt;stroke-linejoin:miter;stroke-miterlimit:10;stroke-dasharray:none;stroke-opacity:1"
             id="path1990" />
        </g>
        <g
           id="g1992"
           transform="translate(427.2979,203.4434)">
          <path
             d="m 0,0 c -0.58,-0.73 -0.675,-1.251 -0.283,-1.562 0.146,-0.117 0.317,-0.162 0.512,-0.136 0.199,0.024 0.339,0.093 0.427,0.204 0.089,0.111 0.147,0.261 0.173,0.45 0.011,0.086 0.021,0.146 0.027,0.178 l 7.18,9.037 C 7.712,6.971 7.033,4.84 6.003,1.779 4.973,-1.282 4.281,-3.034 3.929,-3.479 L 3.856,-3.55 C 3.839,-3.632 3.781,-3.776 3.684,-3.984 3.585,-4.192 3.535,-4.365 3.535,-4.504 c 0,-0.138 0.064,-0.257 0.189,-0.356 0.126,-0.1 0.39,-0.23 0.797,-0.391 0.435,0.15 1.643,1.357 3.625,3.618 1.984,2.262 3.54,4.092 4.67,5.491 l 1.08,1.359 c 0.149,0.186 0.236,0.385 0.263,0.592 0.027,0.208 -0.045,0.378 -0.214,0.512 -0.299,0.238 -0.589,0.178 -0.872,-0.178 L 12.717,5.64 C 9.885,2.075 7.353,-0.865 5.121,-3.183 c 0.081,0.27 0.421,1.127 1.021,2.572 0.598,1.444 1.189,2.88 1.769,4.306 0.58,1.426 1.044,2.789 1.393,4.091 0.346,1.302 0.381,2.064 0.099,2.286 -0.041,0.033 -0.096,0.053 -0.165,0.061 l 0.09,0.114 C 8.63,10.268 8.06,10.001 7.619,9.446 L 4.854,6.182 Z"
             style="fill:none;stroke:#000000;stroke-width:0.5;stroke-linecap:butt;stroke-linejoin:miter;stroke-miterlimit:10;stroke-dasharray:none;stroke-opacity:1"
             id="path1994" />
        </g>
        <g
           id="g1996"
           transform="translate(438.5283,198.9395)">
          <path
             d="m 0,0 -2.296,-3.124 -0.376,-0.473 c -0.114,-0.157 -0.15,-0.341 -0.107,-0.55 0.042,-0.21 0.142,-0.378 0.3,-0.504 l 1.516,-1.204 c 0.199,-0.159 0.409,-0.259 0.633,-0.303 0.224,-0.043 0.405,0.025 0.55,0.207 0.232,0.292 0.12,0.619 -0.336,0.981 l -1.358,1.007 c -0.023,0.02 0.232,0.364 0.766,1.036 l 2.663,3.19 c 0.358,0.45 0.699,0.917 1.026,1.4 L 3.437,1.302 C 3.605,1.129 3.77,0.979 3.93,0.852 4.091,0.724 4.263,0.667 4.444,0.68 4.626,0.692 4.768,0.764 4.87,0.892 5.13,1.219 4.971,1.612 4.393,2.072 L 3.732,2.554 c 0.104,0.203 0.161,0.31 0.17,0.322 L 6.028,5.391 C 6.232,5.647 6.429,5.911 6.615,6.183 6.933,5.863 7.295,5.39 7.702,4.762 8.154,4.611 8.478,4.659 8.673,4.904 8.858,5.139 8.733,5.551 8.297,6.141 7.859,6.73 7.481,7.153 7.16,7.408 6.656,7.808 6.069,7.583 5.396,6.736 L 4.287,5.144 Z"
             style="fill:none;stroke:#000000;stroke-width:0.5;stroke-linecap:butt;stroke-linejoin:miter;stroke-miterlimit:10;stroke-dasharray:none;stroke-opacity:1"
             id="path1998" />
        </g>
        <g
           id="g2000"
           transform="translate(451.4727,199.8652)">
          <path
             d="m 0,0 c -0.09,-0.234 -0.188,-0.435 -0.293,-0.604 -0.105,-0.168 -0.289,-0.417 -0.549,-0.744 -0.26,-0.327 -0.72,-0.73 -1.383,-1.211 -0.663,-0.479 -1.191,-0.68 -1.588,-0.603 0.334,0.421 0.858,1.103 1.57,2.048 0.713,0.945 1.264,1.663 1.653,2.154 l 0.265,0.205 C 0.08,0.894 0.188,0.479 0,0 Z m -4.376,-4.159 c -0.078,-0.291 -0.757,-1.678 -2.033,-4.161 -0.418,-0.812 -0.738,-1.599 -0.965,-2.358 -0.228,-0.759 -0.215,-1.238 0.037,-1.437 0.122,-0.098 0.256,-0.13 0.401,-0.098 0.145,0.033 0.27,0.115 0.374,0.246 0.105,0.132 0.189,0.363 0.251,0.695 0.224,1.157 0.901,2.806 2.032,4.949 0.513,0.983 0.853,1.646 1.022,1.99 0.046,0.021 0.277,0.121 0.694,0.299 0.419,0.177 0.804,0.357 1.159,0.538 0.353,0.182 0.667,0.444 0.941,0.789 l 1.002,1.263 C 1.022,-0.837 1.181,-0.2 1.014,0.467 0.848,1.133 0.451,1.714 -0.173,2.21 -0.57,2.526 -0.995,2.401 -1.445,1.834 c -0.86,-1.081 -2.109,-2.758 -3.746,-5.03 -1.64,-2.273 -2.725,-3.743 -3.256,-4.412 -0.532,-0.669 -1.017,-1.269 -1.455,-1.797 l 0.027,-0.45 0.499,-0.398 0.585,0.322 c 0.496,1.093 1.374,2.431 2.633,4.014 l 1.563,1.932 z"
             style="fill:none;stroke:#000000;stroke-width:0.5;stroke-linecap:butt;stroke-linejoin:miter;stroke-miterlimit:10;stroke-dasharray:none;stroke-opacity:1"
             id="path2002" />
        </g>
      </g>
    </g>
  </g>
</svg>
