<?xml version="1.0" encoding="UTF-8" standalone="no"?>
<!-- Created with Inkscape (http://www.inkscape.org/) -->

<svg
   width="800"
   height="800"
   viewBox="0 0 211.66666 211.66667"
   version="1.1"
   id="svg10872"
   inkscape:version="1.1.2 (b8e25be833, 2022-02-05)"
   sodipodi:docname="fotos.svg"
   xmlns:inkscape="http://www.inkscape.org/namespaces/inkscape"
   xmlns:sodipodi="http://sodipodi.sourceforge.net/DTD/sodipodi-0.dtd"
   xmlns="http://www.w3.org/2000/svg"
   xmlns:svg="http://www.w3.org/2000/svg">
  <sodipodi:namedview
     id="namedview10874"
     pagecolor="#505050"
     bordercolor="#ffffff"
     borderopacity="1"
     inkscape:pageshadow="0"
     inkscape:pageopacity="0"
     inkscape:pagecheckerboard="1"
     inkscape:document-units="mm"
     showgrid="false"
     units="px"
     inkscape:zoom="0.83654462"
     inkscape:cx="413.00845"
     inkscape:cy="392.08907"
     inkscape:window-width="2323"
     inkscape:window-height="1321"
     inkscape:window-x="2469"
     inkscape:window-y="-692"
     inkscape:window-maximized="1"
     inkscape:current-layer="layer1" />
  <defs
     id="defs10869">
    <clipPath
       clipPathUnits="userSpaceOnUse"
       id="clipPath1382">
      <path
         d="M 0,500 H 500 V 0 H 0 Z"
         id="path1380" />
    </clipPath>
    <clipPath
       clipPathUnits="userSpaceOnUse"
       id="clipPath1802">
      <path
         d="M 0,500 H 500 V 0 H 0 Z"
         id="path1800" />
    </clipPath>
    <clipPath
       clipPathUnits="userSpaceOnUse"
       id="clipPath2294">
      <path
         d="M 0,500 H 500 V 0 H 0 Z"
         id="path2292" />
    </clipPath>
  </defs>
  <g
     inkscape:label="Capa 1"
     inkscape:groupmode="layer"
     id="layer1">
    <g
       id="g1376"
       transform="matrix(1.7301448,0,0,-1.7301447,-604.41564,657.96079)">
      <g
         id="g1378"
         clip-path="url(#clipPath1382)">
        <g
           id="g1384"
           transform="translate(288.666,410.6816)" />
        <g
           id="g1388"
           transform="translate(292.1631,408.7744)" />
        <g
           id="g1392"
           transform="translate(295.8574,407.5352)" />
        <g
           id="g1396"
           transform="translate(302.1484,409.1982)" />
        <g
           id="g1400"
           transform="translate(308.0889,410.1865)" />
        <g
           id="g1404"
           transform="translate(370.1475,326.833)">
          <path
             d="m 0,0 c -0.4,-7.608 -1.076,-15.202 -1.613,-22.803 -0.471,-6.649 -0.573,-13.314 -1.034,-19.958 -0.168,-2.411 -0.493,-6.839 2.685,-7.306 1.61,-0.237 3.264,-0.268 4.887,-0.337 14.971,-0.633 29.996,-0.514 44.975,-0.425 7.269,0.044 14.538,0.115 21.803,0.322 2.248,0.064 4.498,0.133 6.742,0.284 1.589,0.106 3.059,0.113 4.218,1.381 1.995,2.185 1.538,5.698 1.312,8.398 -0.359,4.28 -0.264,8.621 -0.395,12.915 -0.151,4.959 -0.325,9.916 -0.463,14.875 -0.068,2.476 -0.124,4.953 -0.166,7.429 -0.043,2.574 -0.02,5.05 -0.798,7.524 -0.162,0.518 -0.901,-0.212 -0.962,-0.464 -0.952,-3.94 -0.684,-7.954 -0.601,-11.978 0.079,-3.792 0.193,-7.583 0.314,-11.374 0.12,-3.755 0.243,-7.51 0.345,-11.266 0.082,-3.031 0.044,-6.076 0.297,-9.099 0.095,-1.134 0.167,-2.268 0.149,-3.407 -0.008,-0.535 -0.055,-1.064 -0.156,-1.59 -0.048,-0.25 -0.463,-0.935 -0.124,-0.742 0.25,0.143 0.247,0.072 -0.065,0.016 -0.096,-0.018 -0.193,-0.031 -0.288,-0.044 0.146,0.02 0.061,0.006 -0.2,-0.02 -1.849,-0.189 -3.716,-0.241 -5.573,-0.307 -15.267,-0.545 -30.57,-0.478 -45.845,-0.393 -7.036,0.039 -14.076,0.1 -21.109,0.324 -2.038,0.065 -4.081,0.13 -6.113,0.304 -0.283,0.024 -0.564,0.052 -0.844,0.087 -0.107,0.013 -0.214,0.029 -0.32,0.046 0.359,-0.058 0.025,-0.003 -0.062,0.019 -1.334,0.329 -1.276,2.947 -1.288,3.944 -0.032,2.663 0.273,5.353 0.327,8.019 0.081,4.03 0.204,8.062 0.325,12.091 C 0.599,-15.634 0.675,-7.773 0.252,0.121 0.243,0.284 0.006,0.104 0,0"
             style="fill:#000000;fill-opacity:1;fill-rule:nonzero;stroke:none"
             id="path1406" />
        </g>
        <g
           id="g1408"
           transform="translate(370.2744,321.4731)">
          <path
             d="m 0,0 c 0.141,2.328 0.06,4.967 1.019,7.143 0.502,1.141 1.366,1.565 2.565,1.849 1.964,0.465 4.083,0.443 6.088,0.559 4.044,0.235 8.093,0.372 12.141,0.461 16.319,0.358 32.688,0.27 49.004,-0.072 2.457,-0.051 4.949,-0.069 7.358,-0.608 1.498,-0.335 2.172,-1.634 2.514,-3.013 0.376,-1.513 0.227,-3.108 0.274,-4.649 0.04,-1.329 0.303,-2.645 0.517,-3.953 0.043,-0.26 0.373,0.034 0.387,0.186 0.223,2.256 1.036,4.326 1.031,6.633 -0.004,1.967 -0.222,4.236 -1.643,5.731 -0.711,0.748 -1.727,0.983 -2.701,1.152 -1.819,0.316 -3.658,0.404 -5.499,0.456 -3.887,0.109 -7.774,0.163 -11.662,0.195 C 44.925,12.209 28.386,12.463 11.935,11.612 9.784,11.501 7.61,11.505 5.473,11.236 3.973,11.047 2.465,10.701 1.312,9.665 -1.128,7.474 -0.471,2.765 -0.174,-0.084 -0.162,-0.199 -0.004,-0.071 0,0"
             style="fill:#000000;fill-opacity:1;fill-rule:nonzero;stroke:none"
             id="path1410" />
        </g>
        <g
           id="g1412"
           transform="translate(413.5361,323.0879)">
          <path
             d="m 0,0 c -9.46,0.496 -17.226,-7.461 -18.705,-16.418 -1.627,-9.855 4.886,-19.247 14.833,-20.79 5.072,-0.787 10.429,0.45 14.605,3.431 4.151,2.961 7.066,7.93 7.882,12.939 1.516,9.296 -4.161,18.096 -13.305,20.438 -1.756,0.449 -3.546,0.668 -5.344,0.404 -0.089,-0.012 -0.319,-0.286 -0.153,-0.317 2.565,-0.48 5.079,-0.661 7.533,-1.645 2.235,-0.897 4.205,-2.285 5.824,-4.062 3.131,-3.437 4.554,-8.305 4.071,-12.905 -0.513,-4.886 -3.189,-10.125 -7.166,-13.075 -4.187,-3.107 -9.708,-3.461 -14.65,-2.422 -4.214,0.884 -8.331,3.181 -10.672,6.881 -2.155,3.405 -2.918,7.686 -2.381,11.653 0.544,4.026 2.34,7.69 5.222,10.562 3.308,3.296 7.683,4.717 12.258,5.016 C -0.021,-0.301 0.202,-0.011 0,0"
             style="fill:#000000;fill-opacity:1;fill-rule:nonzero;stroke:none"
             id="path1414" />
        </g>
        <g
           id="g1416"
           transform="translate(368.9844,282.6006)">
          <path
             d="m 0,0 c 1.424,-0.463 2.905,-0.4 4.387,-0.409 1.821,-0.01 3.641,-0.022 5.463,-0.022 3.47,0 6.943,0 10.414,0.001 6.911,0 13.821,0.001 20.732,0.001 13.94,0.002 27.887,-0.139 41.825,0.022 0.725,0.009 1.803,1.621 0.785,1.634 C 69.839,1.388 56.063,1.247 42.294,1.248 L 21.566,1.25 c -3.47,0 -6.941,0 -10.412,0 C 9.327,1.25 7.5,1.242 5.674,1.231 3.89,1.221 2.138,1.256 0.396,0.822 0.181,0.769 -0.442,0.144 0,0"
             style="fill:#000000;fill-opacity:1;fill-rule:nonzero;stroke:none"
             id="path1418" />
        </g>
        <g
           id="g1420"
           transform="translate(413.2383,286.728)">
          <path
             d="m 0,0 c 9.462,-0.496 17.227,7.462 18.708,16.42 1.63,9.855 -4.887,19.247 -14.834,20.79 -5.072,0.787 -10.429,-0.451 -14.605,-3.432 -4.15,-2.961 -7.066,-7.929 -7.882,-12.939 -1.517,-9.295 4.16,-18.097 13.303,-20.439 1.757,-0.449 3.546,-0.668 5.344,-0.404 0.089,0.012 0.32,0.286 0.153,0.317 -2.565,0.48 -5.078,0.661 -7.532,1.645 -2.235,0.897 -4.205,2.286 -5.824,4.063 -3.131,3.436 -4.554,8.305 -4.071,12.905 0.513,4.886 3.189,10.125 7.167,13.075 4.188,3.108 9.708,3.461 14.651,2.423 4.213,-0.884 8.331,-3.181 10.673,-6.881 2.156,-3.405 2.917,-7.687 2.381,-11.654 C 17.088,11.863 15.289,8.198 12.407,5.327 9.099,2.03 4.724,0.609 0.148,0.31 0.021,0.301 -0.202,0.011 0,0"
             style="fill:#000000;fill-opacity:1;fill-rule:nonzero;stroke:none"
             id="path1422" />
        </g>
        <g
           id="g1424"
           transform="translate(369.9102,317.0459)">
          <path
             d="m 0,0 c 0.939,-0.748 2.176,-0.537 3.313,-0.503 2.211,0.065 4.421,0.137 6.631,0.217 5.458,0.199 10.915,0.393 16.375,0.509 1.158,0.025 2.315,0.044 3.472,0.056 0.835,0.01 2.1,0.095 2.526,0.984 0.507,1.056 -1.386,0.971 -1.859,0.966 C 29.185,2.215 27.912,2.19 26.64,2.162 21.185,2.043 15.731,1.848 10.278,1.653 8.194,1.579 6.11,1.49 4.026,1.412 2.714,1.363 1.566,1.298 0.364,0.746 0.187,0.665 -0.266,0.211 0,0"
             style="fill:#000000;fill-opacity:1;fill-rule:nonzero;stroke:none"
             id="path1426" />
        </g>
        <g
           id="g1428"
           transform="translate(425.5791,318.189)">
          <path
             d="m 0,0 c 0.003,-0.073 0.007,-0.146 0.01,-0.219 0.007,-0.148 0.065,-0.239 0.196,-0.305 1.896,-0.968 4.376,-0.643 6.439,-0.678 2.529,-0.042 5.059,-0.093 7.588,-0.131 2.479,-0.037 4.958,-0.043 7.437,-0.015 1.496,0.016 4.828,-0.569 5.339,1.476 0.34,1.357 -3.063,0.955 -3.723,0.947 C 22.065,1.061 20.845,1.067 19.624,1.074 17.114,1.089 14.604,1.127 12.095,1.168 10.772,1.19 -0.097,2.067 0,0"
             style="fill:#000000;fill-opacity:1;fill-rule:nonzero;stroke:none"
             id="path1430" />
        </g>
        <g
           id="g1432"
           transform="translate(426.0137,332.2808)">
          <path
             d="m 0,0 c -0.914,-4.358 -0.402,-9.095 -0.389,-13.525 0,-0.256 0.185,-0.44 0.442,-0.441 0.619,-0.002 1.26,0.615 1.259,1.259 C 1.307,-11.153 1.282,-9.6 1.24,-8.047 1.166,-5.358 1.26,-2.393 0.346,0.167 0.281,0.348 0.021,0.097 0,0"
             style="fill:#000000;fill-opacity:1;fill-rule:nonzero;stroke:none"
             id="path1434" />
        </g>
        <g
           id="g1436"
           transform="translate(413.2607,291.5474)">
          <path
             d="m 0,0 c 9.548,-0.69 16.151,10.293 13.407,18.796 -1.524,4.729 -5.693,8.14 -10.564,8.857 -5.257,0.773 -10.462,-1.415 -13.729,-5.543 -3.287,-4.157 -4.101,-10.034 -1.823,-14.834 2.103,-4.429 7.69,-8.278 12.743,-7.28 0.085,0.016 0.323,0.272 0.153,0.317 -1.211,0.325 -2.468,0.368 -3.69,0.668 -1.231,0.302 -2.403,0.809 -3.495,1.447 -2.059,1.202 -3.633,3.176 -4.553,5.356 -2.032,4.813 -0.468,10.006 2.645,13.93 3.241,4.085 9.368,4.251 13.926,2.731 5.049,-1.683 7.885,-6.052 7.874,-11.305 C 12.887,9.955 11.703,6.924 9.596,4.545 7.136,1.77 3.751,0.628 0.148,0.31 0.026,0.298 -0.206,0.015 0,0"
             style="fill:#000000;fill-opacity:1;fill-rule:nonzero;stroke:none"
             id="path1438" />
        </g>
        <g
           id="g1440"
           transform="translate(387.1035,321.0737)">
          <path
             d="M 0,0 C 0.488,1.94 0.742,4.106 0.377,6.093 0.17,7.218 -0.581,7.478 -1.594,7.59 -4.711,7.936 -7.869,7.522 -10.997,7.495 c -0.351,-0.003 -0.725,-0.379 -0.729,-0.729 -0.023,-2.007 -0.418,-4.296 0.144,-6.259 0.309,-1.078 1.424,-1.062 2.351,-1.117 1.78,-0.107 3.576,-0.047 5.358,-0.006 1.178,0.027 2.734,-0.219 3.769,0.424 0.102,0.063 0.202,0.22 0.125,0.332 -0.45,0.652 -2.197,0.26 -2.881,0.242 -1.656,-0.044 -3.313,-0.078 -4.968,-0.044 -0.922,0.018 -2.418,-0.202 -2.808,0.847 -0.276,0.744 -0.199,1.669 -0.193,2.446 0.009,1.203 0.059,2.406 0.088,3.608 C -10.984,6.996 -11.227,6.753 -11.47,6.51 -8.734,6.502 -6.032,6.46 -3.301,6.335 -2.359,6.292 -1.28,6.422 -0.936,5.379 -0.356,3.63 -0.822,1.64 -0.317,-0.153 -0.269,-0.327 -0.02,-0.081 0,0"
             style="fill:#000000;fill-opacity:1;fill-rule:nonzero;stroke:none"
             id="path1442" />
        </g>
        <g
           id="g1444"
           transform="translate(444.4365,321.25)">
          <path
             d="M 0,0 C 0.518,2.456 0.683,5.292 0.187,7.773 0.003,8.692 -1.619,8.391 -2.29,8.402 -5.783,8.463 -9.264,8.307 -12.759,8.289 -13.095,8.288 -13.502,7.91 -13.486,7.562 c 0.11,-2.427 -0.123,-5.1 0.407,-7.485 0.144,-0.652 1.968,-0.404 2.416,-0.417 1.98,-0.059 3.961,-0.097 5.941,-0.134 1.379,-0.025 3.307,-0.418 4.565,0.25 0.099,0.053 0.292,0.241 0.178,0.364 -0.657,0.703 -2.604,0.343 -3.487,0.358 -1.862,0.03 -3.724,0.067 -5.586,0.114 -0.695,0.017 -1.39,0.036 -2.086,0.06 -0.232,0.008 -0.465,0.017 -0.697,0.029 -0.271,0.012 -0.341,0.104 -0.27,-0.033 -0.341,0.66 -0.188,1.87 -0.218,2.584 -0.069,1.594 -0.118,3.188 -0.181,4.782 -0.242,-0.242 -0.485,-0.485 -0.727,-0.727 3.144,-0.017 6.264,-0.181 9.404,-0.223 0.663,-0.008 1.326,-0.02 1.989,-0.039 C -1.633,7.04 -1.428,7.031 -1.223,7.021 -0.907,7.003 -1.15,7.052 -1.127,6.995 -0.793,6.173 -0.904,5.049 -0.844,4.182 -0.74,2.718 -0.695,1.271 -0.317,-0.153 -0.272,-0.324 -0.018,-0.083 0,0"
             style="fill:#000000;fill-opacity:1;fill-rule:nonzero;stroke:none"
             id="path1446" />
        </g>
        <g
           id="g1448"
           transform="translate(384.5371,322.6343)">
          <path
             d="M 0,0 C 0.405,1.04 1.283,4.149 -0.522,4.399 -2.31,4.646 -4.098,4.327 -5.891,4.299 -6.242,4.293 -6.614,3.922 -6.619,3.57 -6.634,2.474 -6.77,1.34 -6.565,0.255 c 0.118,-0.63 0.638,-0.72 1.178,-0.771 0.995,-0.093 2.014,-0.043 3.012,-0.022 0.663,0.014 1.66,-0.157 2.215,0.285 0.135,0.108 0.31,0.304 0.243,0.496 C 0.074,0.269 0.065,0.293 0.057,0.319 0.033,0.38 -0.01,0.422 -0.07,0.446 -1.404,0.681 -2.925,0.405 -4.283,0.435 -4.811,0.447 -5.439,0.34 -5.62,0.932 -5.9,1.851 -5.658,3.103 -5.635,4.043 -5.878,3.8 -6.121,3.557 -6.363,3.314 -4.931,3.305 -3.539,3.2 -2.111,3.146 -1.638,3.128 -1.038,3.223 -0.852,2.707 -0.515,1.774 -0.803,0.8 -0.303,-0.111 -0.229,-0.245 -0.037,-0.092 0,0"
             style="fill:#000000;fill-opacity:1;fill-rule:nonzero;stroke:none"
             id="path1450" />
        </g>
        <g
           id="g1452"
           transform="translate(436.6846,332.708)">
          <path
             d="M 0,0 C 0.498,1.787 0.359,3.686 0.405,5.523 0.154,5.272 -0.097,5.021 -0.349,4.77 2.118,4.929 4.633,4.735 7.096,4.601 7.692,4.568 8.289,4.53 8.886,4.485 9.084,4.471 9.282,4.453 9.48,4.435 9.923,4.394 9.81,4.486 9.81,4.185 9.808,3.108 9.497,2.028 9.474,0.937 9.468,0.617 9.407,0.204 9.502,-0.107 c 0.186,-0.607 0.29,-0.337 0.649,-0.845 0.073,-0.103 0.252,0.073 0.28,0.136 0.42,0.987 0.677,1.423 0.673,2.536 -0.004,1.146 -0.334,2.222 -0.336,3.358 0,0.158 -0.106,0.23 -0.248,0.248 C 7.106,5.775 3.578,5.754 0.142,5.787 -0.231,5.791 -0.596,5.391 -0.612,5.034 -0.691,3.356 -0.656,1.528 -0.206,-0.099 -0.175,-0.212 -0.015,-0.05 0,0"
             style="fill:#000000;fill-opacity:1;fill-rule:nonzero;stroke:none"
             id="path1454" />
        </g>
        <g
           id="g1456"
           transform="translate(443.7266,337.8911)">
          <path
             d="m 0,0 c -0.326,-1.015 -0.354,-2.12 -0.423,-3.178 -0.047,-0.727 -0.431,-1.992 0.189,-2.502 0.083,-0.069 0.191,0.046 0.229,0.112 0.483,0.836 0.329,1.822 0.376,2.772 C 0.417,-1.863 0.567,-0.787 0.187,0.09 0.145,0.189 0.017,0.05 0,0"
             style="fill:#000000;fill-opacity:1;fill-rule:nonzero;stroke:none"
             id="path1458" />
        </g>
        <g
           id="g1460"
           transform="translate(445.1758,337.7515)">
          <path
             d="m 0,0 c -0.229,-0.904 -0.194,-1.812 -0.215,-2.738 -0.015,-0.756 -0.445,-1.823 0.124,-2.428 0.068,-0.072 0.193,0.062 0.206,0.124 0.343,1.613 0.042,3.454 0.043,5.1 C 0.158,0.161 0.013,0.051 0,0"
             style="fill:#000000;fill-opacity:1;fill-rule:nonzero;stroke:none"
             id="path1462" />
        </g>
        <g
           id="g1464"
           transform="translate(372.5586,337.1616)">
          <path
             d="m 0,0 c 1.166,-0.44 2.714,-0.165 3.935,-0.134 2.247,0.057 4.493,0.122 6.74,0.186 2.023,0.058 4.047,0.115 6.07,0.162 0.564,0.013 1.126,0.025 1.69,0.03 1.042,0.008 0.75,-2.192 0.653,-2.191 C 15.493,-1.907 11.883,-2.116 8.291,-2.218 6.268,-2.274 4.244,-2.333 2.221,-2.38 1.657,-2.393 1.095,-2.406 0.531,-2.411 c -0.557,-0.005 -0.802,2.312 -0.372,2.527 0.066,0.032 0.198,0.205 0.057,0.223 -1.32,0.174 -1.079,-2.604 -0.764,-3.243 0.388,-0.784 2.666,-0.334 3.352,-0.317 4.314,0.106 8.628,0.243 12.942,0.349 0.908,0.022 2.624,-0.282 3.443,0.2 1.082,0.636 1.313,3.06 0.199,3.737 C 19.102,1.239 18.46,1.113 18.148,1.108 17.342,1.094 16.534,1.074 15.728,1.054 13.529,0.999 11.331,0.936 9.133,0.876 7.31,0.827 5.485,0.773 3.661,0.725 2.518,0.695 1.321,0.754 0.214,0.442 0.097,0.409 -0.236,0.089 0,0"
             style="fill:#000000;fill-opacity:1;fill-rule:nonzero;stroke:none"
             id="path1466" />
        </g>
        <g
           id="g1468"
           transform="translate(374.8926,334.4819)">
          <path
             d="M 0,0 C -0.309,-0.479 -0.333,-1.039 -0.334,-1.601 -0.335,-1.885 -0.403,-2.32 -0.297,-2.588 -0.195,-2.847 -0.116,-2.875 0.126,-3 0.171,-3.024 0.235,-2.969 0.258,-2.936 0.63,-2.389 0.693,-2.012 0.652,-1.35 0.625,-0.905 0.654,-0.138 0.232,0.114 0.158,0.159 0.035,0.055 0,0"
             style="fill:#000000;fill-opacity:1;fill-rule:nonzero;stroke:none"
             id="path1470" />
        </g>
        <g
           id="g1472"
           transform="translate(388.5684,334.7725)">
          <path
             d="m 0,0 c 0.216,0.314 -0.112,-0.153 -0.147,-0.226 -0.137,-0.286 -0.165,-0.624 -0.196,-0.934 -0.038,-0.381 -0.178,-1.437 0.338,-1.533 0.209,-0.039 0.371,0.09 0.497,0.245 0.357,0.439 0.257,0.887 0.196,1.412 C 0.648,-0.688 0.609,-0.132 0.381,0.142 0.277,0.266 0.058,0.084 0,0"
             style="fill:#000000;fill-opacity:1;fill-rule:nonzero;stroke:none"
             id="path1474" />
        </g>
        <g
           id="g1476"
           transform="translate(386.1348,337.7798)">
          <path
             d="M 0,0 C -0.161,0.496 -0.319,0.993 -0.477,1.49 -0.497,1.555 -0.561,1.578 -0.622,1.583 -2.994,1.777 -5.42,1.578 -7.796,1.5 -8.04,1.491 -8.29,1.292 -8.384,1.071 -8.563,0.647 -8.733,0.273 -8.81,-0.182 c -0.018,-0.111 0.086,-0.107 0.156,-0.061 0.505,0.334 0.793,0.753 1.03,1.304 -0.196,-0.143 -0.392,-0.286 -0.588,-0.429 1.372,0.037 2.743,0.085 4.115,0.133 0.844,0.029 1.683,0.068 2.525,0.135 0.212,0.017 0.423,0.049 0.634,0.077 C -0.951,0.975 -0.289,0.026 -0.146,-0.125 -0.091,-0.183 0.02,-0.06 0,0"
             style="fill:#000000;fill-opacity:1;fill-rule:nonzero;stroke:none"
             id="path1478" />
        </g>
        <g
           id="g1480"
           transform="translate(373.1943,337.4956)">
          <path
             d="m 0,0 c -0.168,-0.588 -0.131,-1.218 -0.142,-1.826 -0.007,-0.432 -0.169,-1.192 0.235,-1.445 0.048,-0.031 0.132,0.04 0.154,0.076 0.285,0.45 0.197,0.866 0.179,1.394 C 0.404,-1.201 0.42,-0.467 0.192,0.093 0.151,0.195 0.015,0.053 0,0"
             style="fill:#000000;fill-opacity:1;fill-rule:nonzero;stroke:none"
             id="path1482" />
        </g>
        <g
           id="g1484"
           transform="translate(374.4766,337.647)">
          <path
             d="m 0,0 c -0.367,-1.059 -0.245,-2.222 -0.206,-3.325 0.016,-0.434 0.685,0.03 0.688,0.331 -0.21,-0.359 -0.241,-0.444 -0.094,-0.258 0.039,0.054 0.067,0.112 0.085,0.176 0.085,0.343 0.002,0.791 -0.01,1.142 -0.022,0.673 -0.003,1.391 -0.326,2 C 0.1,0.135 0.014,0.04 0,0"
             style="fill:#000000;fill-opacity:1;fill-rule:nonzero;stroke:none"
             id="path1486" />
        </g>
        <g
           id="g1488"
           transform="translate(376.2441,337.5781)">
          <path
             d="m 0,0 c -0.113,-0.483 -0.123,-1.006 -0.131,-1.501 -0.009,-0.529 -0.108,-1.355 0.129,-1.828 0.086,-0.17 0.299,0.065 0.331,0.159 0.202,0.596 0.07,1.289 0.042,1.91 C 0.352,-0.835 0.477,-0.242 0.106,0.064 0.067,0.096 0.009,0.036 0,0"
             style="fill:#000000;fill-opacity:1;fill-rule:nonzero;stroke:none"
             id="path1490" />
        </g>
        <g
           id="g1492"
           transform="translate(391.0039,337.8989)">
          <path
             d="m 0,0 c -0.186,-0.56 -0.135,-1.174 -0.137,-1.759 -0.001,-0.419 -0.167,-1.08 0.144,-1.398 0.036,-0.037 0.097,0.025 0.112,0.054 0.241,0.475 0.144,1.011 0.143,1.535 C 0.26,-1.052 0.354,-0.414 0.125,0.06 0.094,0.125 0.012,0.035 0,0"
             style="fill:#000000;fill-opacity:1;fill-rule:nonzero;stroke:none"
             id="path1494" />
        </g>
        <g
           id="g1496"
           transform="translate(389.4844,338.0117)">
          <path
             d="m 0,0 c -0.169,-0.575 -0.145,-1.188 -0.176,-1.783 -0.023,-0.446 -0.231,-1.314 0.112,-1.644 0.046,-0.045 0.12,0.03 0.139,0.068 0.247,0.467 0.151,1.008 0.152,1.527 C 0.228,-1.24 0.305,-0.517 0.081,0.039 0.064,0.082 0.007,0.022 0,0"
             style="fill:#000000;fill-opacity:1;fill-rule:nonzero;stroke:none"
             id="path1498" />
        </g>
        <g
           id="g1500"
           transform="translate(448.4209,329.2319)">
          <path
             d="m 0,0 c 0.608,-0.17 0.81,-1.681 0.888,-2.158 0.131,-0.79 -0.056,-1.659 0.162,-2.408 0.021,-0.071 0.127,0.006 0.146,0.037 0.539,0.825 0.308,1.946 0.139,2.867 C 1.206,-0.957 0.977,0.176 0.098,0.165 0.042,0.164 -0.091,0.025 0,0"
             style="fill:#000000;fill-opacity:1;fill-rule:nonzero;stroke:none"
             id="path1502" />
        </g>
        <g
           id="g1504"
           transform="translate(449.3164,322.9106)">
          <path
             d="m 0,0 c -0.629,-4.109 0.048,-8.452 0.073,-12.592 0.013,-2.06 -0.059,-4.134 0.099,-6.19 0.172,-2.217 0.033,-4.421 0.399,-6.614 0.022,-0.131 0.187,0.016 0.194,0.092 0.409,4.325 0.073,8.728 0.063,13.074 -0.005,2.069 -0.107,4.129 -0.213,6.195 C 0.51,-4.006 0.556,-1.911 0.187,0.09 0.169,0.188 0.008,0.052 0,0"
             style="fill:#000000;fill-opacity:1;fill-rule:nonzero;stroke:none"
             id="path1506" />
        </g>
        <g
           id="g1508"
           transform="translate(371.7861,293.4844)">
          <path
             d="m 0,0 c -0.402,-2.083 -0.269,-4.297 -0.35,-6.412 -0.044,-1.124 -0.087,-2.249 -0.129,-3.373 -0.034,-0.871 -0.364,-2.114 0.199,-2.834 0.099,-0.127 0.312,0.09 0.351,0.172 0.406,0.843 0.305,1.683 0.329,2.613 0.03,1.117 0.063,2.234 0.088,3.352 0.049,2.103 0.351,4.548 -0.276,6.584 C 0.178,0.214 0.012,0.058 0,0"
             style="fill:#000000;fill-opacity:1;fill-rule:nonzero;stroke:none"
             id="path1510" />
        </g>
        <g
           id="g1512"
           transform="translate(371.9521,297.3691)">
          <path
             d="m 0,0 c -0.183,-0.62 -0.349,-1.604 -0.028,-2.193 0.043,-0.078 0.139,0.03 0.156,0.075 C 0.356,-1.481 0.358,-0.585 0.1,0.048 0.078,0.101 0.008,0.027 0,0"
             style="fill:#000000;fill-opacity:1;fill-rule:nonzero;stroke:none"
             id="path1514" />
        </g>
        <g
           id="g1516"
           transform="translate(371.7363,313.9526)">
          <path
             d="m 0,0 c 0.446,2.447 0.414,4.952 0.506,7.431 0.048,1.291 0.097,2.581 0.138,3.872 0.033,1.054 -0.153,1.939 0.558,2.807 0.069,0.085 0.125,0.338 -0.062,0.323 C -0.656,14.29 -0.135,11.069 -0.171,9.958 -0.277,6.698 -0.802,3.16 -0.112,-0.054 -0.1,-0.114 -0.006,-0.03 0,0"
             style="fill:#000000;fill-opacity:1;fill-rule:nonzero;stroke:none"
             id="path1518" />
        </g>
        <g
           id="g1520"
           transform="translate(449.6777,286.0664)">
          <path
             d="m 0,0 c 0.213,-1.639 0.021,-3.396 -0.097,-5.039 -0.006,-0.075 0.043,-0.153 0.115,-0.178 0.051,-0.018 0.103,-0.036 0.155,-0.054 0.077,-0.027 0.157,0.043 0.2,0.099 0.483,0.614 0.269,1.574 0.27,2.322 C 0.645,-1.849 0.514,-0.853 0.107,0.064 0.084,0.118 -0.006,0.041 0,0"
             style="fill:#000000;fill-opacity:1;fill-rule:nonzero;stroke:none"
             id="path1522" />
        </g>
        <g
           id="g1524"
           transform="translate(406.3154,316.1719)">
          <path
             d="m 0,0 c -3.951,-2.417 0.019,-6.692 2.105,-8.808 1.041,-1.054 1.882,-2.357 3.185,-3.123 1.094,-0.644 2.046,-0.194 2.939,0.538 2.251,1.844 4.109,4.421 5.636,6.873 0.591,0.948 1.206,1.977 1.439,3.083 C 15.627,0.092 14.11,1.325 12.721,1.28 12.588,1.276 12.417,1.117 12.46,0.976 c 0.213,-0.708 0.486,-0.951 1.018,-1.462 0.389,-0.376 0.689,-0.854 0.574,-1.396 -0.19,-0.894 -0.762,-1.758 -1.237,-2.521 -1.197,-1.924 -2.623,-3.742 -4.212,-5.356 -0.402,-0.406 -0.944,-1.164 -1.565,-0.916 -1.128,0.45 -1.974,1.508 -2.761,2.39 -0.98,1.099 -2.077,2.117 -3.244,3.014 -0.684,0.526 -1.329,1.183 -1.929,1.802 -1.033,1.066 0.15,2.557 0.947,3.389 C 0.104,-0.024 0.076,0.046 0,0"
             style="fill:#000000;fill-opacity:1;fill-rule:nonzero;stroke:none"
             id="path1526" />
        </g>
        <g
           id="g1528"
           transform="translate(414.3672,318.4014)">
          <path
             d="m 0,0 c -0.33,-2.13 -0.455,-4.298 -0.689,-6.441 -0.268,-2.445 -0.678,-4.852 -1.018,-7.281 -0.144,-1.023 1.338,-0.246 1.357,0.498 0.056,2.082 0.138,4.112 0.344,6.191 0.229,2.316 0.525,4.769 0.139,7.082 C 0.119,0.132 0.008,0.05 0,0"
             style="fill:#000000;fill-opacity:1;fill-rule:nonzero;stroke:none"
             id="path1530" />
        </g>
        <g
           id="g1532"
           transform="translate(402.2773,311.2812)">
          <path
             d="m 0,0 c 2.729,-3.302 5.784,-6.428 9.304,-8.903 0.252,-0.178 0.481,-0.289 0.773,-0.387 0.735,-0.244 0.736,-0.784 0.625,-1.442 -0.156,-0.922 -0.611,-1.804 -1.011,-2.64 -0.892,-1.866 -2.011,-3.675 -2.804,-5.576 -0.28,-0.671 0.594,-0.427 0.791,-0.01 0.924,1.957 1.857,3.909 2.79,5.863 0.391,0.821 0.725,1.661 0.951,2.542 0.142,0.551 0.283,1.682 0.024,2.198 -0.431,0.856 -1.396,1.327 -2.138,1.899 -1.034,0.8 -2.078,1.584 -3.128,2.363 C 4.179,-2.609 2.384,-0.89 0.074,0.088 0.036,0.104 -0.029,0.035 0,0"
             style="fill:#000000;fill-opacity:1;fill-rule:nonzero;stroke:none"
             id="path1534" />
        </g>
        <g
           id="g1536"
           transform="translate(410.9365,291.9687)">
          <path
             d="m 0,0 c 0.76,1.695 1.242,3.499 1.852,5.251 0.461,1.329 0.799,3.222 1.76,4.302 0.617,0.693 1.89,0.51 2.714,0.541 0.993,0.037 1.987,0.086 2.979,0.149 1.948,0.123 3.974,0.281 5.895,0.59 0.295,0.047 0.973,0.79 0.475,0.983 -0.808,0.314 -1.692,0.144 -2.533,0.027 C 11.739,11.648 10.337,11.533 8.923,11.455 7.071,11.354 4.883,11.704 3.308,10.529 2.137,9.655 1.718,8.139 1.332,6.807 0.687,4.587 -0.151,2.289 -0.187,-0.047 -0.189,-0.167 -0.022,-0.049 0,0"
             style="fill:#000000;fill-opacity:1;fill-rule:nonzero;stroke:none"
             id="path1538" />
        </g>
        <g
           id="g1540"
           transform="translate(408.2461,308.4492)">
          <path
             d="m 0,0 c -1.392,1.184 -3.583,2.889 -3.333,4.957 0.007,0.019 0.007,0.042 0.016,0.061 0.147,0.313 0.06,0.44 -0.104,0.464 C -3.425,5.495 -3.423,5.507 -3.427,5.52 -3.564,6.029 -4.267,5.346 -4.368,5.174 -4.477,4.991 -4.575,4.804 -4.678,4.618 -4.752,4.556 -4.811,4.494 -4.834,4.456 -5.055,4.063 -5.393,3.622 -5.444,3.18 -5.48,3.146 -5.51,3.085 -5.521,3.027 -5.692,2.884 -5.809,2.659 -5.618,2.604 -5.573,2.585 -5.541,2.572 -5.51,2.56 -5.5,2.513 -5.479,2.469 -5.437,2.432 -5.276,2.282 -5.11,2.151 -4.935,2.035 -4.6,1.764 -4.27,1.485 -3.943,1.201 -3.757,1.037 -3.489,1.169 -3.312,1.375 -3.033,1.014 -2.726,0.669 -2.4,0.34 c 0.702,-0.714 1.489,-1.346 2.252,-1.993 0.406,-0.345 1.243,-1.49 1.84,-1.224 C 3.228,-2.195 0.529,-0.452 0,0"
             style="fill:#000000;fill-opacity:1;fill-rule:nonzero;stroke:none"
             id="path1542" />
        </g>
        <g
           id="g1544"
           transform="translate(411.001,293.9336)">
          <path
             d="M 0,0 C 0.187,0.44 0.343,0.888 0.419,1.352 0.435,1.445 0.327,1.39 0.298,1.353 -0.25,0.699 -0.633,-0.059 -0.991,-0.828 c -0.188,-0.206 -0.346,-0.434 -0.497,-0.681 -0.062,-0.102 -0.197,-0.392 0.01,-0.445 0.31,-0.075 0.619,-0.086 0.935,-0.089 0.24,-0.004 0.477,0.234 0.532,0.455 0.073,0.282 0.155,0.559 0.198,0.847 0.036,0.25 -0.028,0.508 -0.024,0.76 C 0.165,0.123 0.052,0.052 0,0"
             style="fill:#000000;fill-opacity:1;fill-rule:nonzero;stroke:none"
             id="path1546" />
        </g>
        <g
           id="g1548"
           transform="translate(425.8779,309.127)">
          <path
             d="m 0,0 c -0.258,0.848 -0.56,1.597 -1.042,2.344 -0.518,0.8 -1.5,1.768 -1.526,2.772 -0.013,0.5 -0.476,0.408 -0.87,0.124 -0.03,0.13 -0.074,0.259 -0.135,0.386 C -3.788,6.075 -4.383,5.527 -4.506,5.283 -5.003,4.299 -5.49,3.349 -6.195,2.492 -6.32,2.341 -6.354,2.2 -6.338,2.081 -7.649,0.408 -8.84,-1.378 -10.29,-2.903 c -0.389,-0.407 -1.05,-0.993 -1.591,-1.647 -0.279,-0.169 -0.568,-0.318 -0.879,-0.437 -0.129,0.019 -0.248,0.041 -0.277,0.072 -0.182,0.174 -0.474,-0.116 -0.551,-0.269 l -0.035,-0.07 c -0.066,-0.132 -0.065,-0.27 0.069,-0.35 0.117,-0.072 0.237,-0.128 0.358,-0.179 0.024,-0.019 0.044,-0.038 0.082,-0.049 0.071,-0.023 0.144,-0.045 0.217,-0.068 0.066,-0.025 0.141,-0.015 0.215,0.009 -0.107,-0.342 -0.127,-0.683 0,-1.01 0.061,-0.163 0.204,-0.193 0.348,-0.175 0.097,-0.292 0.629,-0.209 0.919,0.067 1.293,1.238 3.494,1.017 5.15,1.052 1.947,0.042 3.895,0.375 5.844,0.145 0.356,-0.043 0.703,0.342 0.85,0.617 C 1.228,-3.675 0.46,-1.514 0,0"
             style="fill:#000000;fill-opacity:1;fill-rule:nonzero;stroke:none"
             id="path1550" />
        </g>
        <g
           id="g1552"
           transform="translate(416.8887,294.7852)">
          <path
             d="M 0,0 C 0.485,-0.359 1.497,0.392 1.888,0.643 2.424,0.988 3.596,1.858 3.316,2.652 3.182,3.036 2.887,3.055 2.526,3 1.944,2.912 1.243,2.799 0.725,3.173 0.445,3.375 0.671,4.105 0.534,4.425 0.344,4.871 0.013,4.997 -0.439,5.082 -0.451,5.084 -0.471,5.06 -0.457,5.057 0.67,4.811 -0.079,3.819 -0.056,3.042 -0.039,2.479 0.706,2.216 1.174,2.21 1.524,2.206 1.874,2.188 2.118,1.904 2.136,1.883 1.57,1.416 1.423,1.306 0.935,0.938 0.336,0.601 0.009,0.069 -0.001,0.053 -0.021,0.016 0,0"
             style="fill:#000000;fill-opacity:1;fill-rule:nonzero;stroke:none"
             id="path1554" />
        </g>
        <g
           id="g1556"
           transform="translate(402.5645,306.439)">
          <path
             d="m 0,0 c -0.377,-2.166 -0.061,-4.453 0.691,-6.504 0.527,-1.439 2.031,-4.662 3.876,-4.51 0.081,0.007 0.204,0.096 0.191,0.191 C 4.642,-9.956 3.78,-9.458 3.24,-8.811 2.514,-7.94 2.006,-6.907 1.592,-5.859 0.836,-3.952 0.635,-1.918 0.081,0.039 0.069,0.082 0.004,0.022 0,0"
             style="fill:#000000;fill-opacity:1;fill-rule:nonzero;stroke:none"
             id="path1558" />
        </g>
        <g
           id="g1560"
           transform="translate(404.6973,302.6348)">
          <path
             d="m 0,0 c -0.132,-0.837 0.043,-2.35 0.939,-2.708 0.053,-0.021 0.13,0.056 0.125,0.107 C 1.022,-2.132 0.81,-1.796 0.622,-1.371 0.417,-0.908 0.317,-0.406 0.118,0.057 0.094,0.116 0.006,0.037 0,0"
             style="fill:#000000;fill-opacity:1;fill-rule:nonzero;stroke:none"
             id="path1562" />
        </g>
        <g
           id="g1564"
           transform="translate(406.1738,299.0239)">
          <path
             d="m 0,0 c 0.011,-0.395 0.202,-0.754 0.63,-0.743 0.05,0.002 0.098,0.052 0.099,0.101 C 0.75,-0.262 0.504,0.009 0.146,0.126 0.081,0.147 -0.002,0.063 0,0"
             style="fill:#000000;fill-opacity:1;fill-rule:nonzero;stroke:none"
             id="path1566" />
        </g>
        <g
           id="g1568"
           transform="translate(410.3271,314.9687)">
          <path
             d="M 0,0 C 0.32,0.041 0.649,0.066 0.972,0.104 1.326,0.146 1.652,0.276 2.003,0.34 2.057,0.35 2.187,0.472 2.116,0.528 1.775,0.803 1.521,0.881 1.085,0.8 0.634,0.715 0.277,0.458 -0.022,0.124 -0.062,0.08 -0.091,-0.012 0,0"
             style="fill:#000000;fill-opacity:1;fill-rule:nonzero;stroke:none"
             id="path1570" />
        </g>
        <g
           id="g1572"
           transform="translate(437.166,329.1055)">
          <path
             d="m 0,0 c -1.094,0.418 -2.04,-0.845 -2.185,-1.808 -0.18,-1.211 1.024,-2.522 2.269,-2.254 1.189,0.254 2.185,0.738 2.803,1.827 C 3.434,-1.271 3.119,0.393 1.736,0.001 1.655,-0.022 1.548,-0.129 1.604,-0.217 1.996,-0.815 2.788,-0.785 2.643,-1.689 2.521,-2.441 1.506,-3.605 0.641,-3.267 c -0.633,0.248 -1.238,0.574 -1.585,1.186 -0.179,0.315 -0.255,0.706 -0.21,1.064 0.059,0.469 0.696,0.658 1.073,0.798 C -0.023,-0.198 0.106,-0.041 0,0"
             style="fill:#000000;fill-opacity:1;fill-rule:nonzero;stroke:none"
             id="path1574" />
        </g>
        <g
           id="g1576"
           transform="translate(444.1846,321.854)">
          <path
             d="m 0,0 c -0.135,0.257 -0.194,0.53 -0.243,0.806 0.027,0.046 0.045,0.09 0.056,0.13 0.18,0.88 0.002,1.778 -0.066,2.67 C -0.324,4.572 -0.35,5.542 -0.419,6.507 -0.433,6.692 -0.531,6.772 -0.708,6.796 -1.094,6.848 -1.684,6.876 -2.146,6.729 -2.172,6.741 -2.183,6.759 -2.211,6.767 -2.506,6.856 -2.767,6.946 -3.038,7.091 -3.555,7.365 -4.373,6.427 -4.188,5.94 -4.03,5.518 -4.521,4.825 -4.78,4.535 -5.294,3.952 -6.042,3.753 -6.789,3.777 -8.375,3.826 -9.078,5.311 -8.42,6.63 -8.108,7.186 -8.865,7.018 -9.089,6.747 -9.091,6.746 -9.091,6.745 -9.094,6.744 c 0,0.104 -0.002,0.209 -0.013,0.317 -0.023,0.19 -0.245,0.093 -0.33,0.008 C -9.438,7.066 -9.44,7.063 -9.443,7.06 c -0.006,0.013 -0.002,0.026 -0.01,0.038 -0.331,0.484 -1.647,0.424 -2.144,0.148 -0.094,-0.055 -0.178,-0.115 -0.252,-0.177 -0.163,0.079 -0.342,0.084 -0.55,-0.058 -0.142,-0.099 -0.29,-0.365 -0.247,-0.519 l -0.011,-0.006 c 0.008,-0.015 0.026,-0.371 0.035,-0.406 0.023,-0.101 0.083,-0.204 0.146,-0.306 -0.003,-0.012 -0.014,-0.028 -0.016,-0.039 -0.187,-0.613 -0.13,-1.411 0.262,-1.945 -0.119,-0.128 -0.21,-0.257 -0.221,-0.347 -0.173,-1.167 -0.041,-2.322 0.253,-3.46 0.046,-0.179 0.289,-0.215 0.435,-0.168 0.782,0.25 1.631,0.076 2.436,0.05 1.08,-0.032 2.16,0.007 3.236,-0.111 1.107,-0.118 3.036,-0.655 4.112,0.063 0.017,-0.094 0.073,-0.172 0.216,-0.192 0.44,-0.062 0.883,-0.07 1.323,-0.139 C -0.243,-0.544 0.106,-0.202 0,0"
             style="fill:#000000;fill-opacity:1;fill-rule:nonzero;stroke:none"
             id="path1578" />
        </g>
        <g
           id="g1580"
           transform="translate(383.8652,325.8804)">
          <path
             d="M 0,0 C -0.801,0.573 -2.175,0.293 -3.092,0.5 -3.56,0.606 -4.159,0.602 -4.578,0.355 -4.653,0.446 -4.762,0.482 -4.885,0.45 L -5.005,0.417 C -5.09,0.394 -5.192,0.315 -5.256,0.221 c -0.509,-0.645 -0.311,-1.918 -0.121,-2.657 0.303,-1.181 1.777,-1.051 2.701,-0.994 1.171,0.072 2.215,-0.212 3.06,0.786 C 0.917,-2.015 0.635,-0.453 0,0"
             style="fill:#000000;fill-opacity:1;fill-rule:nonzero;stroke:none"
             id="path1582" />
        </g>
        <g
           id="g1584"
           transform="translate(388.7754,333.6543)">
          <path
             d="M 0,0 C -0.04,0.341 0.059,0.691 -0.223,0.943 -0.414,1.115 -0.673,0.916 -0.823,0.732 -0.825,0.737 -0.825,0.743 -0.827,0.748 -0.873,0.853 -0.966,0.843 -1.057,0.795 -1.084,0.888 -1.148,0.966 -1.272,1.014 -1.901,1.255 -2.55,1.168 -3.199,1.081 -4.246,0.941 -5.26,0.828 -6.316,0.799 -7.527,0.766 -8.737,0.85 -9.945,0.823 -10.8,0.803 -11.781,0.911 -12.577,0.557 -12.612,0.541 -12.645,0.514 -12.682,0.488 -12.771,0.696 -13.036,0.655 -13.289,0.504 -13.338,0.49 -13.381,0.458 -13.418,0.42 -13.6,0.28 -13.76,0.097 -13.8,-0.076 c -0.087,-0.382 -0.083,-0.654 -0.028,-1.044 0.041,-0.298 0.234,-0.383 0.516,-0.335 0.664,0.114 1.328,0.19 1.99,0.249 0.047,-0.015 0.09,-0.033 0.148,-0.041 1.246,-0.154 2.576,0.02 3.824,0.091 0.066,0.005 0.265,0.013 0.535,0.025 0.722,-0.035 1.458,-0.039 2.116,0.095 1.277,0.062 2.651,0.135 3.24,0.198 0.036,-0.137 0.084,-0.273 0.158,-0.421 0.041,-0.079 0.148,0.015 0.168,0.063 0.028,0.053 0.053,0.111 0.08,0.168 0.295,-0.281 1.049,0.417 1.082,0.818 C 0.035,-0.133 0.023,-0.063 0,0"
             style="fill:#000000;fill-opacity:1;fill-rule:nonzero;stroke:none"
             id="path1586" />
        </g>
        <g
           id="g1588"
           transform="translate(384.2148,338.8687)">
          <path
             d="m 0,0 c -0.004,0.077 -0.053,0.129 -0.132,0.131 -0.253,0.005 -0.501,0.023 -0.753,0.027 -0.181,0.004 -0.369,-0.197 -0.372,-0.373 -0.009,-0.281 -0.083,-1.028 0.248,-1.141 0.028,-0.011 0.055,0.003 0.078,0.022 0.142,-0.083 0.4,0.027 0.605,0.209 0.097,-0.254 0.515,0.133 0.47,0.339 C 0.082,-0.522 0.01,-0.273 0,0"
             style="fill:#000000;fill-opacity:1;fill-rule:nonzero;stroke:none"
             id="path1590" />
        </g>
        <g
           id="g1592"
           transform="translate(444.9756,337.5962)">
          <path
             d="m 0,0 c -0.017,0.043 -0.056,0.033 -0.093,0.006 -0.08,0.515 -0.987,-0.105 -1.052,-0.464 -0.233,-1.302 -0.231,-2.628 -0.173,-3.945 0.003,-0.104 0.05,-0.231 0.168,-0.26 0.264,-0.068 0.537,-0.11 0.81,-0.127 0.389,-0.022 0.786,0.434 0.798,0.797 C 0.501,-2.66 0.493,-1.254 0,0"
             style="fill:#000000;fill-opacity:1;fill-rule:nonzero;stroke:none"
             id="path1594" />
        </g>
        <g
           id="g1596"
           transform="translate(374.7568,303.6343)">
          <path
             d="M 0,0 C 0.898,4.448 1.031,9.201 1.137,13.728 1.142,13.946 0.983,14.064 0.783,14.081 0.312,14.12 -0.09,13.688 -0.202,13.236 -0.542,11.88 -0.366,10.239 -0.409,8.849 -0.498,5.939 -0.822,2.792 -0.137,-0.066 -0.119,-0.14 -0.007,-0.036 0,0"
             style="fill:#000000;fill-opacity:1;fill-rule:nonzero;stroke:none"
             id="path1598" />
        </g>
        <g
           id="g1600"
           transform="translate(377.1221,310.2827)">
          <path
             d="M 0,0 C 0.521,1.31 0.734,2.521 0.76,3.934 0.774,4.726 0.733,5.52 0.7,6.311 0.676,6.885 0.855,7.458 0.316,7.765 0.171,7.848 -0.014,7.629 -0.072,7.529 -0.596,6.627 -0.2,5.314 -0.146,4.305 -0.07,2.916 0.052,1.365 -0.143,-0.018 -0.157,-0.124 -0.022,-0.058 0,0"
             style="fill:#000000;fill-opacity:1;fill-rule:nonzero;stroke:none"
             id="path1602" />
        </g>
        <g
           id="g1604"
           transform="translate(378.9482,306.8755)">
          <path
             d="m 0,0 c 0.185,1.971 0.331,3.946 0.515,5.917 0.149,1.614 0.74,3.345 0.473,4.967 -0.016,0.104 -0.043,0.23 -0.168,0.262 L 0.562,11.21 C 0.378,11.256 0.186,11.096 0.112,10.937 -0.19,10.277 0.013,9.667 0.011,8.951 0.008,8.074 -0.145,7.208 -0.232,6.337 -0.444,4.255 -0.33,2.015 -0.135,-0.065 -0.126,-0.156 -0.005,-0.053 0,0"
             style="fill:#000000;fill-opacity:1;fill-rule:nonzero;stroke:none"
             id="path1606" />
        </g>
        <g
           id="g1608"
           transform="translate(380.7617,312.4331)">
          <path
             d="M 0,0 C 0.639,1.599 0.669,3.167 0.762,4.867 0.767,4.966 0.704,5.085 0.604,5.114 0.544,5.13 0.484,5.147 0.425,5.164 0.327,5.192 0.219,5.133 0.153,5.063 -0.4,4.465 -0.276,3.836 -0.279,3.046 -0.284,2.01 -0.159,1.002 -0.108,-0.027 -0.105,-0.096 -0.013,-0.032 0,0"
             style="fill:#000000;fill-opacity:1;fill-rule:nonzero;stroke:none"
             id="path1610" />
        </g>
        <g
           id="g1612"
           transform="translate(383.0088,315.3364)">
          <path
             d="M 0,0 C 0.237,0.425 0.439,0.828 0.513,1.316 0.566,1.677 0.681,2.162 0.421,2.459 0.271,2.631 -0.019,2.339 -0.079,2.215 0.127,2.434 0.161,2.482 0.025,2.36 -0.06,2.274 -0.103,2.166 -0.154,2.058 -0.255,1.851 -0.229,1.593 -0.229,1.371 c 0,-0.468 0.148,-0.934 0.138,-1.394 C -0.092,-0.083 -0.011,-0.021 0,0"
             style="fill:#000000;fill-opacity:1;fill-rule:nonzero;stroke:none"
             id="path1614" />
        </g>
        <g
           id="g1616"
           transform="translate(372.708,310.1919)">
          <path
             d="M 0,0 C 0.443,1.286 0.583,2.509 0.664,3.86 0.729,4.95 1.128,6.618 0.662,7.614 0.54,7.875 0.161,7.565 0.099,7.406 -0.326,6.315 -0.162,5.072 -0.187,3.911 -0.218,2.576 -0.306,1.28 -0.127,-0.046 -0.115,-0.132 -0.014,-0.039 0,0"
             style="fill:#000000;fill-opacity:1;fill-rule:nonzero;stroke:none"
             id="path1618" />
        </g>
        <g
           id="g1620"
           transform="translate(385.3945,306.2139)">
          <path
             d="M 0,0 C 0.544,1.92 0.477,3.783 0.439,5.762 0.418,6.866 0.509,7.967 0.585,9.068 0.635,9.796 1.058,11.124 0.359,11.587 0.198,11.694 0.015,11.519 -0.06,11.383 -0.471,10.633 -0.314,9.905 -0.303,9.063 -0.287,7.965 -0.371,6.87 -0.341,5.771 -0.289,3.851 0.073,1.87 -0.127,-0.046 -0.135,-0.126 -0.012,-0.04 0,0"
             style="fill:#000000;fill-opacity:1;fill-rule:nonzero;stroke:none"
             id="path1622" />
        </g>
        <g
           id="g1624"
           transform="translate(387.3252,309.7603)">
          <path
             d="M 0,0 C 0.288,1.566 0.569,3.126 0.724,4.713 0.819,5.7 1.254,7.769 0.147,8.296 0.046,8.345 -0.065,8.199 -0.093,8.122 -0.503,6.938 -0.116,5.551 -0.122,4.307 -0.129,2.852 -0.253,1.41 -0.114,-0.042 -0.107,-0.115 -0.008,-0.041 0,0"
             style="fill:#000000;fill-opacity:1;fill-rule:nonzero;stroke:none"
             id="path1626" />
        </g>
        <g
           id="g1628"
           transform="translate(389.2998,313.8555)">
          <path
             d="M 0,0 C 0.116,0.804 0.297,1.59 0.373,2.402 0.42,2.912 0.658,3.814 0.11,4.093 0.04,4.129 -0.059,4.043 -0.095,3.993 -0.471,3.455 -0.429,2.936 -0.433,2.294 -0.438,1.476 -0.32,0.729 -0.196,-0.072 -0.178,-0.194 -0.011,-0.074 0,0"
             style="fill:#000000;fill-opacity:1;fill-rule:nonzero;stroke:none"
             id="path1630" />
        </g>
        <g
           id="g1632"
           transform="translate(391.4258,308.3662)">
          <path
             d="M 0,0 C 0.439,1.739 0.523,3.521 0.572,5.307 0.599,6.248 0.625,7.186 0.693,8.125 0.738,8.749 0.97,9.354 0.567,9.868 0.518,9.931 0.406,9.837 0.379,9.798 -0.477,8.597 -0.247,6.785 -0.256,5.375 -0.268,3.566 -0.194,1.753 -0.146,-0.054 -0.144,-0.148 -0.013,-0.047 0,0"
             style="fill:#000000;fill-opacity:1;fill-rule:nonzero;stroke:none"
             id="path1634" />
        </g>
        <g
           id="g1636"
           transform="translate(393.4492,312.9839)">
          <path
             d="M 0,0 C 0.288,1.015 0.495,2.053 0.692,3.089 0.828,3.801 1.148,4.841 0.686,5.457 0.574,5.606 0.321,5.352 0.278,5.258 -0.072,4.499 0,3.654 -0.021,2.827 -0.047,1.872 -0.152,0.916 -0.107,-0.04 -0.104,-0.111 -0.009,-0.033 0,0"
             style="fill:#000000;fill-opacity:1;fill-rule:nonzero;stroke:none"
             id="path1638" />
        </g>
        <g
           id="g1640"
           transform="translate(395.5117,315.2285)">
          <path
             d="M 0,0 C 0.348,0.796 0.747,1.828 0.235,2.647 0.183,2.732 0.063,2.622 0.049,2.557 -0.15,1.691 -0.075,0.832 -0.157,-0.039 -0.166,-0.139 -0.018,-0.04 0,0"
             style="fill:#000000;fill-opacity:1;fill-rule:nonzero;stroke:none"
             id="path1642" />
        </g>
        <g
           id="g1644"
           transform="translate(385.7109,297.3687)">
          <path
             d="m 0,0 c -0.339,-2.174 -0.402,-4.391 -0.531,-6.585 -0.145,-2.457 -0.301,-4.948 -0.266,-7.409 0.002,-0.147 0.068,-0.241 0.196,-0.306 0.085,-0.043 0.171,-0.086 0.257,-0.13 0.127,-0.064 0.305,0.09 0.369,0.182 0.618,0.887 0.457,1.749 0.446,2.813 -0.015,1.29 -0.016,2.581 -0.017,3.871 C 0.452,-5.046 0.549,-2.435 0.105,0.051 0.096,0.106 0.004,0.029 0,0"
             style="fill:#000000;fill-opacity:1;fill-rule:nonzero;stroke:none"
             id="path1646" />
        </g>
        <g
           id="g1648"
           transform="translate(388.6016,293.9106)">
          <path
             d="m 0,0 c -0.129,-2.017 -0.293,-4.03 -0.394,-6.049 -0.049,-0.992 -0.097,-1.983 -0.122,-2.975 -0.017,-0.736 -0.21,-1.411 0.296,-1.981 0.175,-0.197 0.505,0.137 0.575,0.281 0.708,1.463 0.25,3.526 0.167,5.115 C 0.424,-3.716 0.258,-1.83 0.129,0.062 0.123,0.146 0.004,0.052 0,0"
             style="fill:#000000;fill-opacity:1;fill-rule:nonzero;stroke:none"
             id="path1650" />
        </g>
        <g
           id="g1652"
           transform="translate(390.8896,287.1592)">
          <path
             d="m 0,0 c -0.109,-0.602 -0.144,-1.209 -0.18,-1.819 -0.038,-0.641 -0.167,-1.297 -0.162,-1.935 0.005,-0.573 0.763,0.075 0.845,0.31 C 0.881,-2.368 0.339,-1.017 0.068,0.033 0.059,0.069 0.003,0.019 0,0"
             style="fill:#000000;fill-opacity:1;fill-rule:nonzero;stroke:none"
             id="path1654" />
        </g>
        <g
           id="g1656"
           transform="translate(382.9678,299.5054)">
          <path
             d="m 0,0 c -0.399,-2.802 -0.279,-5.72 -0.44,-8.546 -0.089,-1.56 -0.198,-3.12 -0.298,-4.679 -0.056,-0.868 -0.09,-1.736 -0.211,-2.599 -0.072,-0.505 -0.12,-0.667 0.249,-0.974 0.076,-0.064 0.201,-0.001 0.256,0.064 0.789,0.917 0.638,1.918 0.68,3.082 0.056,1.536 0.126,3.072 0.19,4.608 0.12,2.927 0.543,6.282 -0.214,9.146 C 0.183,0.212 0.009,0.06 0,0"
             style="fill:#000000;fill-opacity:1;fill-rule:nonzero;stroke:none"
             id="path1658" />
        </g>
        <g
           id="g1660"
           transform="translate(380.5576,295.5322)">
          <path
             d="m 0,0 c -0.132,-2.423 -0.156,-4.845 -0.22,-7.271 -0.024,-0.943 -0.013,-1.884 -0.011,-2.827 0.002,-0.787 -0.458,-1.871 -0.17,-2.593 0.114,-0.288 0.489,0.026 0.591,0.148 1.029,1.217 0.38,3.685 0.343,5.158 C 0.472,-4.905 0.243,-2.431 0.09,0.043 0.087,0.102 0.002,0.037 0,0"
             style="fill:#000000;fill-opacity:1;fill-rule:nonzero;stroke:none"
             id="path1662" />
        </g>
        <g
           id="g1664"
           transform="translate(378.8242,288.981)">
          <path
             d="m 0,0 c -0.206,-1.093 -0.291,-2.202 -0.369,-3.31 -0.068,-0.947 -0.37,-2.288 0.099,-3.145 0.171,-0.31 0.609,0.101 0.655,0.316 0.218,1.013 -0.041,2.123 -0.064,3.161 C 0.299,-1.963 0.323,-0.943 0.112,0.054 0.1,0.114 0.006,0.03 0,0"
             style="fill:#000000;fill-opacity:1;fill-rule:nonzero;stroke:none"
             id="path1666" />
        </g>
        <g
           id="g1668"
           transform="translate(377.1084,296.9258)">
          <path
             d="m 0,0 c -0.308,-2.548 -0.45,-5.152 -0.532,-7.718 -0.036,-1.155 -0.014,-2.311 -0.05,-3.467 -0.022,-0.681 -0.072,-1.359 -0.159,-2.035 -0.062,-0.479 -0.248,-0.817 -0.007,-1.243 0.113,-0.201 0.369,-0.005 0.462,0.116 0.522,0.681 0.501,1.457 0.546,2.299 0.067,1.252 -0.011,2.514 -0.032,3.766 C 0.181,-5.519 0.46,-2.693 0.109,0.053 0.1,0.127 0.005,0.042 0,0"
             style="fill:#000000;fill-opacity:1;fill-rule:nonzero;stroke:none"
             id="path1670" />
        </g>
        <g
           id="g1672"
           transform="translate(375.2861,295.7573)">
          <path
             d="m 0,0 c -0.572,-4.317 -0.309,-8.732 -0.93,-13.035 -0.132,-0.921 1.139,-0.272 1.239,0.309 0.317,1.851 0.007,3.82 0.014,5.69 0.008,2.338 0.113,4.753 -0.228,7.071 C 0.087,0.094 0.005,0.036 0,0"
             style="fill:#000000;fill-opacity:1;fill-rule:nonzero;stroke:none"
             id="path1674" />
        </g>
        <g
           id="g1676"
           transform="translate(373.3486,290.5947)">
          <path
             d="m 0,0 c -0.548,-2.458 -0.437,-5.004 -0.569,-7.506 -0.006,-0.123 0.065,-0.213 0.17,-0.264 0.076,-0.038 0.153,-0.075 0.23,-0.113 0.083,-0.04 0.183,0.058 0.228,0.112 0.748,0.911 0.487,2.049 0.433,3.176 C 0.418,-3.048 0.259,-1.502 0.102,0.038 0.095,0.103 0.008,0.035 0,0"
             style="fill:#000000;fill-opacity:1;fill-rule:nonzero;stroke:none"
             id="path1678" />
        </g>
        <g
           id="g1680"
           transform="translate(392.6729,293.0615)">
          <path
             d="M 0,0 C -0.472,-1.73 -0.359,-3.651 -0.428,-5.434 -0.464,-6.396 -0.5,-7.358 -0.532,-8.321 -0.555,-9 -0.778,-9.708 -0.214,-10.164 c 0.136,-0.109 0.312,0.075 0.374,0.183 0.769,1.343 0.319,3.464 0.309,4.979 C 0.458,-3.396 0.711,-1.455 0.155,0.075 0.126,0.159 0.011,0.041 0,0"
             style="fill:#000000;fill-opacity:1;fill-rule:nonzero;stroke:none"
             id="path1682" />
        </g>
        <g
           id="g1684"
           transform="translate(394.3945,288.5464)">
          <path
             d="m 0,0 c -0.27,-1.7 -0.087,-3.427 -0.367,-5.131 -0.022,-0.131 -0.012,-0.244 0.119,-0.307 0.039,-0.02 0.078,-0.039 0.118,-0.058 0.041,-0.02 0.107,0.009 0.139,0.035 0.63,0.518 0.567,1.242 0.563,2.018 C 0.566,-2.276 0.394,-1.068 0.149,0.072 0.133,0.15 0.007,0.041 0,0"
             style="fill:#000000;fill-opacity:1;fill-rule:nonzero;stroke:none"
             id="path1686" />
        </g>
        <g
           id="g1688"
           transform="translate(396.3027,285.6367)">
          <path
             d="m 0,0 c -0.162,-0.486 -0.211,-0.965 -0.213,-1.476 -0.001,-0.363 -0.019,-0.707 0.35,-0.862 0.055,-0.023 0.125,0.035 0.154,0.076 C 0.78,-1.579 0.577,-0.607 0.206,0.099 0.151,0.203 0.021,0.061 0,0"
             style="fill:#000000;fill-opacity:1;fill-rule:nonzero;stroke:none"
             id="path1690" />
        </g>
        <g
           id="g1692"
           transform="translate(398.9238,288.4414)">
          <path
             d="m 0,0 c -0.156,-0.918 -0.143,-1.835 -0.146,-2.764 -0.002,-0.657 -0.397,-2.208 0.203,-2.6 0.074,-0.049 0.164,0.015 0.209,0.078 0.527,0.735 0.308,1.575 0.231,2.444 C 0.41,-1.872 0.337,-0.892 0.125,0.06 0.109,0.126 0.006,0.034 0,0"
             style="fill:#000000;fill-opacity:1;fill-rule:nonzero;stroke:none"
             id="path1694" />
        </g>
        <g
           id="g1696"
           transform="translate(400.7158,285.0776)">
          <path
             d="m 0,0 c -0.022,-0.53 -0.361,-1.298 -0.04,-1.771 0.129,-0.191 0.45,0.138 0.501,0.244 -0.195,-0.41 0.048,0.1 0.072,0.152 0.071,0.149 0.067,0.341 0.071,0.502 0.015,0.438 -0.12,0.709 -0.418,1.006 C 0.115,0.203 0.002,0.064 0,0"
             style="fill:#000000;fill-opacity:1;fill-rule:nonzero;stroke:none"
             id="path1698" />
        </g>
        <g
           id="g1700"
           transform="translate(403.5137,284.5356)">
          <path
             d="m 0,0 c -0.067,-0.31 -0.111,-0.629 -0.09,-0.947 0.034,-0.514 0.793,0.044 0.8,0.385 C 0.717,-0.246 0.65,0.041 0.383,0.23 0.237,0.333 0.031,0.141 0,0"
             style="fill:#000000;fill-opacity:1;fill-rule:nonzero;stroke:none"
             id="path1702" />
        </g>
        <g
           id="g1704"
           transform="translate(432.1689,315.4194)">
          <path
             d="M 0,0 C 0.388,0.533 0.519,1.109 0.566,1.757 0.605,2.281 0.757,2.958 0.229,3.257 0.175,3.289 0.088,3.215 0.062,3.174 -0.293,2.644 -0.309,2.177 -0.318,1.553 -0.327,1.023 -0.429,0.442 -0.157,-0.04 -0.119,-0.107 -0.03,-0.042 0,0"
             style="fill:#000000;fill-opacity:1;fill-rule:nonzero;stroke:none"
             id="path1706" />
        </g>
        <g
           id="g1708"
           transform="translate(433.666,312.1255)">
          <path
             d="M 0,0 C 0.155,1.136 0.301,2.271 0.425,3.411 0.514,4.228 1.066,6.043 0.283,6.563 0.202,6.617 0.096,6.548 0.049,6.476 -0.533,5.57 -0.372,4.519 -0.397,3.463 -0.426,2.263 -0.404,1.111 -0.118,-0.057 -0.104,-0.119 -0.005,-0.034 0,0"
             style="fill:#000000;fill-opacity:1;fill-rule:nonzero;stroke:none"
             id="path1710" />
        </g>
        <g
           id="g1712"
           transform="translate(430.3203,316.2871)">
          <path
             d="M 0,0 C 0.305,0.388 0.661,1.134 0.146,1.498 0.095,1.533 0.021,1.487 -0.008,1.44 -0.292,0.973 -0.402,0.466 -0.109,-0.027 -0.081,-0.074 -0.022,-0.029 0,0"
             style="fill:#000000;fill-opacity:1;fill-rule:nonzero;stroke:none"
             id="path1714" />
        </g>
        <g
           id="g1716"
           transform="translate(435.4912,308.793)">
          <path
             d="M 0,0 C 1.053,2.964 1.359,6.569 1.295,9.7 1.276,10.59 -0.107,9.637 -0.121,9.019 -0.155,7.476 0.011,5.935 0.023,4.391 0.036,2.912 -0.065,1.436 -0.114,-0.042 -0.117,-0.119 -0.012,-0.031 0,0"
             style="fill:#000000;fill-opacity:1;fill-rule:nonzero;stroke:none"
             id="path1718" />
        </g>
        <g
           id="g1720"
           transform="translate(438.1006,311.7026)">
          <path
             d="M 0,0 C 0.638,1.868 1.003,4.304 0.619,6.259 0.594,6.326 0.547,6.373 0.48,6.398 0.396,6.42 0.312,6.442 0.229,6.464 0.144,6.486 0.069,6.422 0.02,6.361 -0.657,5.531 -0.405,4.534 -0.318,3.526 -0.215,2.344 -0.13,1.12 -0.178,-0.065 -0.183,-0.184 -0.018,-0.05 0,0"
             style="fill:#000000;fill-opacity:1;fill-rule:nonzero;stroke:none"
             id="path1722" />
        </g>
        <g
           id="g1724"
           transform="translate(440.5586,306.1089)">
          <path
             d="M 0,0 C 0.336,2.584 0.26,5.206 0.606,7.78 0.732,8.72 1.813,12.471 0.404,12.774 0.266,12.804 0.107,12.691 0.056,12.563 -0.229,11.846 -0.058,11.129 -0.062,10.372 -0.068,9.389 -0.238,8.406 -0.346,7.431 -0.609,5.022 -0.481,2.342 -0.146,-0.054 -0.134,-0.144 -0.008,-0.055 0,0"
             style="fill:#000000;fill-opacity:1;fill-rule:nonzero;stroke:none"
             id="path1726" />
        </g>
        <g
           id="g1728"
           transform="translate(442.9033,302.3516)">
          <path
             d="m 0,0 c 0.321,2.784 0.333,5.625 0.416,8.425 0.043,1.466 0.091,2.932 0.121,4.399 0.022,1.014 0.384,2.565 -0.239,3.412 C 0.167,16.414 -0.14,16.11 -0.188,15.999 -0.627,14.995 -0.454,13.917 -0.449,12.833 -0.442,11.392 -0.423,9.951 -0.409,8.509 -0.383,5.673 -0.466,2.767 -0.104,-0.05 -0.095,-0.12 -0.005,-0.04 0,0"
             style="fill:#000000;fill-opacity:1;fill-rule:nonzero;stroke:none"
             id="path1730" />
        </g>
        <g
           id="g1732"
           transform="translate(444.8301,311.9062)">
          <path
             d="M 0,0 C 0.275,1.22 0.388,2.463 0.518,3.704 0.611,4.59 1.008,6.122 0.344,6.827 0.238,6.94 0.038,6.751 -0.002,6.658 c -0.39,-0.9 -0.21,-1.865 -0.15,-2.83 0.08,-1.287 0.003,-2.574 0.063,-3.86 C -0.086,-0.09 -0.007,-0.029 0,0"
             style="fill:#000000;fill-opacity:1;fill-rule:nonzero;stroke:none"
             id="path1734" />
        </g>
        <g
           id="g1736"
           transform="translate(447.3203,304.5068)">
          <path
             d="m 0,0 c 0.308,2.464 0.416,4.951 0.524,7.431 0.049,1.136 0.091,2.273 0.118,3.409 0.019,0.822 0.355,2.257 -0.361,2.804 -0.094,0.073 -0.214,-0.048 -0.257,-0.125 -0.471,-0.851 -0.321,-1.686 -0.321,-2.648 0,-1.282 -0.008,-2.564 -0.025,-3.847 -0.033,-2.36 -0.12,-4.739 0.199,-7.083 C -0.111,-0.143 -0.006,-0.046 0,0"
             style="fill:#000000;fill-opacity:1;fill-rule:nonzero;stroke:none"
             id="path1738" />
        </g>
        <g
           id="g1740"
           transform="translate(424.5908,285.103)">
          <path
             d="m 0,0 c -0.062,-0.338 -0.087,-0.658 -0.083,-1.001 0.003,-0.282 -0.025,-0.691 0.214,-0.874 0.052,-0.039 0.116,0.026 0.14,0.068 0.314,0.56 0.065,1.31 -0.09,1.894 C 0.155,0.183 0.009,0.049 0,0"
             style="fill:#000000;fill-opacity:1;fill-rule:nonzero;stroke:none"
             id="path1742" />
        </g>
        <g
           id="g1744"
           transform="translate(426.3457,287.5698)">
          <path
             d="m 0,0 c 0.087,-1.503 -0.338,-3.017 -0.211,-4.51 0.006,-0.075 0.034,-0.16 0.117,-0.183 0.053,-0.015 0.105,-0.03 0.156,-0.044 0.086,-0.024 0.161,0.043 0.21,0.103 0.49,0.585 0.362,1.51 0.376,2.235 C 0.666,-1.522 0.534,-0.705 0.113,0.068 0.083,0.124 -0.003,0.043 0,0"
             style="fill:#000000;fill-opacity:1;fill-rule:nonzero;stroke:none"
             id="path1746" />
        </g>
        <g
           id="g1748"
           transform="translate(428.708,290.7012)">
          <path
             d="m 0,0 c -0.171,-1.335 -0.218,-2.697 -0.27,-4.041 -0.037,-0.986 -0.403,-2.547 0.216,-3.369 0.063,-0.083 0.205,0.058 0.23,0.112 0.431,0.977 0.264,2.042 0.228,3.097 -0.048,1.408 -0.08,2.85 -0.283,4.245 C 0.11,0.119 0.006,0.045 0,0"
             style="fill:#000000;fill-opacity:1;fill-rule:nonzero;stroke:none"
             id="path1750" />
        </g>
        <g
           id="g1752"
           transform="translate(430.8809,287.7939)">
          <path
             d="M 0,0 C -0.101,-0.83 -0.075,-1.667 -0.086,-2.501 -0.093,-3.129 -0.27,-4.005 0.07,-4.55 0.107,-4.609 0.194,-4.544 0.212,-4.498 0.447,-3.889 0.348,-3.313 0.31,-2.664 0.256,-1.769 0.211,-0.85 0.078,0.037 0.07,0.09 0.004,0.029 0,0"
             style="fill:#000000;fill-opacity:1;fill-rule:nonzero;stroke:none"
             id="path1754" />
        </g>
        <g
           id="g1756"
           transform="translate(433.3301,295.7397)">
          <path
             d="m 0,0 c -0.133,-2.213 -0.012,-4.443 -0.041,-6.66 -0.016,-1.191 -0.079,-2.382 -0.167,-3.57 -0.051,-0.674 -0.492,-1.825 -0.049,-2.421 0.049,-0.066 0.161,0.033 0.189,0.069 0.51,0.676 0.503,1.458 0.574,2.284 0.099,1.154 0.077,2.312 0.034,3.468 C 0.455,-4.535 0.29,-2.231 0.123,0.059 0.117,0.139 0.003,0.05 0,0"
             style="fill:#000000;fill-opacity:1;fill-rule:nonzero;stroke:none"
             id="path1758" />
        </g>
        <g
           id="g1760"
           transform="translate(435.2549,292.7246)">
          <path
             d="m 0,0 c -0.064,-1.602 -0.089,-3.205 -0.157,-4.807 -0.067,-1.534 -0.439,-3.355 -0.098,-4.854 0.08,-0.348 0.621,0.142 0.654,0.316 C 0.657,-7.97 0.384,-6.447 0.321,-5.053 0.244,-3.346 0.214,-1.639 0.143,0.068 0.139,0.159 0.003,0.06 0,0"
             style="fill:#000000;fill-opacity:1;fill-rule:nonzero;stroke:none"
             id="path1762" />
        </g>
        <g
           id="g1764"
           transform="translate(437.2129,296.1758)">
          <path
             d="m 0,0 c 0.262,-2.239 0.142,-4.405 0.045,-6.649 -0.051,-1.168 0.022,-2.332 0.043,-3.499 0.019,-1.051 -0.29,-2.312 0.086,-3.303 0.08,-0.213 0.369,0.086 0.398,0.192 0.3,1.077 0.065,2.249 0.028,3.357 C 0.562,-8.746 0.466,-7.599 0.479,-6.44 0.505,-4.323 0.848,-1.974 0.095,0.057 0.076,0.105 -0.005,0.036 0,0"
             style="fill:#000000;fill-opacity:1;fill-rule:nonzero;stroke:none"
             id="path1766" />
        </g>
        <g
           id="g1768"
           transform="translate(439.2324,293.3696)">
          <path
             d="m 0,0 c -0.131,-1.81 -0.126,-3.633 -0.147,-5.448 -0.012,-0.983 -0.025,-1.966 -0.042,-2.948 -0.012,-0.709 -0.213,-1.342 0.239,-1.913 0.074,-0.094 0.234,0.065 0.262,0.128 0.596,1.317 0.178,3.102 0.116,4.522 C 0.344,-3.751 0.297,-1.834 0.143,0.068 0.135,0.162 0.005,0.057 0,0"
             style="fill:#000000;fill-opacity:1;fill-rule:nonzero;stroke:none"
             id="path1770" />
        </g>
        <g
           id="g1772"
           transform="translate(441.2734,290.4648)">
          <path
             d="M 0,0 C 0.151,-1.378 0.159,-2.747 0.101,-4.13 0.063,-5.024 -0.379,-6.602 0.26,-7.306 0.346,-7.4 0.504,-7.24 0.539,-7.169 1.036,-6.161 0.781,-4.936 0.707,-3.839 0.618,-2.519 0.457,-1.2 0.146,0.087 0.128,0.161 -0.006,0.056 0,0"
             style="fill:#000000;fill-opacity:1;fill-rule:nonzero;stroke:none"
             id="path1774" />
        </g>
        <g
           id="g1776"
           transform="translate(443.4209,297.9893)">
          <path
             d="m 0,0 c -0.068,-2.449 -0.126,-4.899 -0.19,-7.349 -0.036,-1.306 -0.07,-2.612 -0.101,-3.919 -0.023,-1.003 -0.403,-2.501 0.136,-3.376 0.115,-0.188 0.387,0.019 0.444,0.164 0.393,1.004 0.195,2.023 0.167,3.088 -0.033,1.274 -0.063,2.549 -0.098,3.824 C 0.289,-5.021 0.228,-2.473 0.154,0.074 0.151,0.172 0.002,0.067 0,0"
             style="fill:#000000;fill-opacity:1;fill-rule:nonzero;stroke:none"
             id="path1778" />
        </g>
        <g
           id="g1780"
           transform="translate(445.3604,300.7876)">
          <path
             d="m 0,0 c -0.184,-2.95 -0.19,-5.92 -0.235,-8.875 -0.022,-1.474 -0.046,-2.949 -0.066,-4.423 -0.016,-1.29 -0.438,-3.193 0.124,-4.37 0.123,-0.258 0.452,0.1 0.498,0.24 0.41,1.248 0.144,2.702 0.128,4.003 -0.018,1.453 -0.042,2.906 -0.064,4.36 C 0.339,-6.026 0.344,-2.966 0.143,0.068 0.136,0.161 0.004,0.058 0,0"
             style="fill:#000000;fill-opacity:1;fill-rule:nonzero;stroke:none"
             id="path1782" />
        </g>
        <g
           id="g1784"
           transform="translate(447.2109,298.4331)">
          <path
             d="m 0,0 c -0.236,-2.656 -0.144,-5.363 -0.171,-8.029 -0.014,-1.318 -0.004,-2.637 -0.028,-3.955 -0.021,-1.07 -0.276,-2.427 0.118,-3.43 0.101,-0.255 0.443,0.103 0.479,0.231 0.319,1.115 0.129,2.377 0.089,3.529 -0.045,1.297 -0.07,2.594 -0.104,3.891 C 0.313,-5.172 0.35,-2.532 0.096,0.047 0.09,0.111 0.003,0.039 0,0"
             style="fill:#000000;fill-opacity:1;fill-rule:nonzero;stroke:none"
             id="path1786" />
        </g>
        <g
           id="g1788"
           transform="translate(448.7148,291.5503)">
          <path
             d="M 0,0 C -0.113,-1.571 -0.111,-3.158 -0.135,-4.733 -0.146,-5.518 -0.146,-6.303 -0.15,-7.087 -0.154,-7.759 -0.327,-8.333 0.042,-8.907 0.1,-8.995 0.257,-8.843 0.277,-8.792 0.74,-7.633 0.427,-6.19 0.373,-4.96 0.301,-3.292 0.24,-1.613 0.104,0.05 0.098,0.118 0.003,0.042 0,0"
             style="fill:#000000;fill-opacity:1;fill-rule:nonzero;stroke:none"
             id="path1790" />
        </g>
      </g>
    </g>
    <g
       id="g1796"
       transform="matrix(1.7301448,0,0,-1.7301447,-604.41564,657.96079)">
      <g
         id="g1798"
         clip-path="url(#clipPath1802)">
        <g
           id="g1804"
           transform="translate(402.9424,353.9985)">
          <path
             d="M 0,0 0.001,-0.079 C 0.003,-0.25 0.05,-0.437 0.142,-0.637 L 0.102,-4.724 C 0.118,-6.127 0.225,-7.249 0.421,-8.09 l 0.484,-0.274 c 0.201,0.002 0.38,0.07 0.535,0.202 0.156,0.133 0.232,0.292 0.23,0.478 L 1.439,-3.342 1.41,-0.891 c 0.535,0.179 0.992,0.393 1.37,0.643 0.169,0.115 0.321,0.252 0.454,0.415 0.132,0.162 0.241,0.311 0.325,0.446 0.084,0.136 0.154,0.312 0.212,0.529 0.057,0.217 0.11,0.447 0.159,0.69 C 3.979,2.075 3.998,2.73 3.985,3.797 3.976,4.641 3.81,5.385 3.488,6.031 3.121,6.758 2.498,7.117 1.617,7.106 L 0.609,7.094 C 0.304,7.09 0.102,6.819 0.003,6.281 0.128,5.797 0.196,5.088 0.207,4.156 L 0.2,1.972 C 0.212,0.958 0.145,0.3 0,0 Z M 1.296,5.859 C 1.46,5.861 1.542,5.851 1.542,5.829 1.945,5.833 2.246,5.699 2.443,5.425 2.625,5.166 2.721,4.674 2.729,3.95 2.759,1.487 2.318,0.191 1.41,0.061 L 1.409,0.095 1.312,4.561 Z"
             style="fill:none;stroke:#000000;stroke-width:0.5;stroke-linecap:butt;stroke-linejoin:miter;stroke-miterlimit:10;stroke-dasharray:none;stroke-opacity:1"
             id="path1806" />
        </g>
        <g
           id="g1808"
           transform="translate(411.249,361.3301)">
          <path
             d="m 0,0 c -0.179,-0.002 -0.331,-0.074 -0.457,-0.213 -0.125,-0.14 -0.186,-0.299 -0.184,-0.478 l 0.218,-5.17 c 0.001,-0.097 -0.023,-0.545 -0.073,-1.345 l 0.001,-0.111 c 0.023,-0.075 0.04,-0.474 0.049,-1.198 l -0.027,-3.493 c 0.012,-0.962 0.078,-1.721 0.202,-2.276 0.122,-0.554 0.335,-0.83 0.641,-0.826 0.209,0.002 0.369,0.088 0.479,0.257 0.11,0.169 0.164,0.362 0.161,0.579 l -0.179,3.771 -0.031,2.63 1.48,-0.195 c 0.15,0.002 0.286,0.019 0.413,0.05 V -8.041 L 2.831,-8.252 2.805,-8.913 2.806,-9.002 c 10e-4,-0.112 -0.002,-0.523 -0.008,-1.232 -0.002,-0.403 -0.002,-0.761 0.002,-1.075 -0.005,-0.232 -0.002,-0.437 0.008,-0.615 0.019,-0.418 0.053,-0.912 0.101,-1.482 0.048,-0.571 0.133,-1.001 0.256,-1.291 0.122,-0.289 0.283,-0.433 0.481,-0.43 0.198,0.002 0.375,0.065 0.536,0.19 0.158,0.126 0.237,0.251 0.235,0.378 -10e-4,0.127 -0.098,2.098 -0.288,5.914 C 3.938,-4.83 3.83,-1.929 3.807,0.056 3.755,0.07 3.683,0.096 3.593,0.132 3.503,0.168 3.42,0.197 3.346,0.219 3.271,0.24 3.173,0.25 3.054,0.249 2.935,0.247 2.809,0.188 2.675,0.071 2.543,-0.046 2.478,-0.191 2.479,-0.363 2.488,-1.094 2.552,-2.181 2.669,-3.624 2.787,-5.067 2.848,-6.001 2.854,-6.426 2.858,-6.852 2.843,-7.098 2.807,-7.166 L 1.979,-7.176 C 1.419,-7.183 1,-7.15 0.723,-7.079 l 0.022,5.722 C 0.733,-0.447 0.485,0.005 0,0 Z"
             style="fill:none;stroke:#000000;stroke-width:0.5;stroke-linecap:butt;stroke-linejoin:miter;stroke-miterlimit:10;stroke-dasharray:none;stroke-opacity:1"
             id="path1810" />
        </g>
        <g
           id="g1812"
           transform="translate(419.4668,349.8735)">
          <path
             d="m 0,0 c 0.107,-0.865 0.379,-1.742 0.815,-2.632 0.458,-0.928 1.11,-1.387 1.954,-1.377 2.036,0.025 3.029,2.235 2.977,6.63 L 5.67,5.218 5.668,5.386 C 5.65,6.893 5.44,8.159 5.041,9.184 4.348,10.968 3.113,11.849 1.338,11.828 1.129,11.825 0.917,11.722 0.702,11.518 0.488,11.313 0.271,10.781 0.05,9.92 -0.214,8.901 -0.332,7.191 -0.304,4.789 l 0.005,-0.415 c 0.023,0 0.035,-0.037 0.036,-0.112 L -0.275,3.389 C -0.264,2.434 -0.172,1.304 0,0 Z m 1.004,7.894 c -0.009,0.723 0.054,1.333 0.19,1.827 0.164,0.592 0.509,0.89 1.032,0.897 C 2.771,10.624 3.22,10.411 3.576,9.979 3.933,9.546 4.12,9.05 4.142,8.491 L 4.146,8.088 C 4.153,7.505 4.215,6.622 4.329,5.437 4.444,4.251 4.505,3.372 4.512,2.797 4.519,2.222 4.489,1.527 4.425,0.713 4.385,0.242 4.327,-0.199 4.25,-0.61 4.166,-1.029 4.062,-1.428 3.935,-1.806 3.809,-2.185 3.636,-2.487 3.413,-2.714 3.192,-2.94 2.943,-3.055 2.667,-3.058 2.322,-2.891 1.953,-2.328 1.562,-1.37 1.185,0.275 0.981,2.206 0.955,4.422 l 0.087,2.117 z"
             style="fill:none;stroke:#000000;stroke-width:0.5;stroke-linecap:butt;stroke-linejoin:miter;stroke-miterlimit:10;stroke-dasharray:none;stroke-opacity:1"
             id="path1814" />
        </g>
        <g
           id="g1816"
           transform="translate(431.5859,346.4687)">
          <path
             d="m 0,0 c 0.193,0.002 0.372,0.073 0.535,0.213 0.162,0.14 0.242,0.3 0.24,0.479 -0.017,1.455 -0.17,3.625 -0.458,6.511 -0.288,2.884 -0.44,5.051 -0.458,6.499 l 0.042,0.236 1.054,-0.145 c 0.194,0.002 0.368,0.063 0.524,0.181 0.155,0.116 0.233,0.269 0.23,0.455 -0.004,0.366 -0.245,0.546 -0.723,0.541 l -0.369,-0.016 -3.115,0.175 c -0.157,-0.002 -0.316,-0.05 -0.48,-0.145 -0.163,-0.095 -0.244,-0.214 -0.242,-0.356 0.005,-0.433 0.627,-0.653 1.867,-0.661 0.03,10e-4 0.06,10e-4 0.089,0.002 0.024,-0.724 0.147,-2.712 0.368,-5.963 C -0.675,4.753 -0.533,3.031 -0.471,2.838 -0.486,2.322 -0.495,2.062 -0.495,2.054 L -0.43,0.297 Z"
             style="fill:none;stroke:#000000;stroke-width:0.5;stroke-linecap:butt;stroke-linejoin:miter;stroke-miterlimit:10;stroke-dasharray:none;stroke-opacity:1"
             id="path1818" />
        </g>
        <g
           id="g1820"
           transform="translate(436.8584,350.0806)">
          <path
             d="m 0,0 c 0.107,-0.865 0.379,-1.742 0.814,-2.632 0.458,-0.928 1.11,-1.387 1.954,-1.377 2.037,0.025 3.03,2.235 2.978,6.63 L 5.67,5.218 5.668,5.386 C 5.65,6.893 5.44,8.159 5.04,9.185 4.348,10.968 3.112,11.849 1.337,11.828 1.128,11.825 0.916,11.722 0.701,11.518 0.487,11.313 0.271,10.781 0.05,9.92 -0.214,8.901 -0.332,7.191 -0.304,4.789 l 0.005,-0.415 c 0.023,0.001 0.035,-0.037 0.036,-0.111 L -0.275,3.389 C -0.264,2.434 -0.172,1.304 0,0 Z m 1.003,7.894 c -0.009,0.724 0.054,1.333 0.19,1.827 0.164,0.592 0.509,0.891 1.032,0.897 C 2.77,10.625 3.219,10.412 3.575,9.979 3.932,9.547 4.12,9.05 4.142,8.491 L 4.146,8.088 C 4.153,7.506 4.215,6.622 4.329,5.437 4.444,4.251 4.505,3.372 4.512,2.797 4.519,2.222 4.489,1.527 4.425,0.713 4.385,0.242 4.327,-0.199 4.25,-0.61 4.165,-1.029 4.061,-1.427 3.934,-1.806 3.808,-2.185 3.635,-2.487 3.412,-2.713 3.191,-2.94 2.942,-3.055 2.666,-3.058 2.321,-2.891 1.952,-2.328 1.561,-1.37 1.184,0.275 0.98,2.206 0.954,4.423 l 0.087,2.116 z"
             style="fill:none;stroke:#000000;stroke-width:0.5;stroke-linecap:butt;stroke-linejoin:miter;stroke-miterlimit:10;stroke-dasharray:none;stroke-opacity:1"
             id="path1822" />
        </g>
        <g
           id="g1824"
           transform="translate(446.2178,347.147)">
          <path
             d="m 0,0 c 0.065,-0.5 0.412,-0.791 1.04,-0.872 l -0.001,0.056 c 0.493,0.013 0.93,0.154 1.311,0.424 0.381,0.269 0.674,0.614 0.879,1.035 C 3.65,1.491 3.853,2.378 3.834,3.303 3.828,4.505 3.58,5.569 3.091,6.497 2.877,6.897 2.65,7.311 2.41,7.737 2.17,8.164 1.945,8.552 1.736,8.904 1.525,9.256 1.351,9.659 1.212,10.113 c -0.141,0.453 -0.211,0.835 -0.215,1.145 -0.004,0.309 0.012,0.58 0.046,0.812 0.159,1.062 0.48,1.607 0.966,1.636 0.157,-0.089 0.318,-0.131 0.483,-0.129 0.373,0.004 0.558,0.182 0.553,0.532 C 3.043,14.311 2.92,14.496 2.674,14.665 2.43,14.833 2.173,14.917 1.904,14.913 1.187,14.905 0.619,14.405 0.198,13.415 -0.026,12.882 -0.136,12.272 -0.127,11.586 -0.114,10.467 0.221,9.329 0.876,8.172 1.15,7.683 1.427,7.203 1.705,6.732 1.983,6.262 2.219,5.751 2.412,5.201 2.605,4.65 2.705,4.094 2.712,3.531 2.719,2.967 2.626,2.318 2.433,1.585 2.333,1.204 2.176,0.884 1.963,0.628 1.75,0.372 1.497,0.242 1.206,0.238 L 0.252,0.395 Z"
             style="fill:none;stroke:#000000;stroke-width:0.5;stroke-linecap:butt;stroke-linejoin:miter;stroke-miterlimit:10;stroke-dasharray:none;stroke-opacity:1"
             id="path1826" />
        </g>
      </g>
    </g>
  </g>
</svg>
