<?xml version="1.0" encoding="UTF-8" standalone="no"?>
<!-- Created with Inkscape (http://www.inkscape.org/) -->

<svg
   width="800"
   height="800"
   viewBox="0 0 211.66666 211.66665"
   version="1.1"
   id="svg8354"
   inkscape:version="1.1.2 (b8e25be833, 2022-02-05)"
   sodipodi:docname="IDo.svg"
   xmlns:inkscape="http://www.inkscape.org/namespaces/inkscape"
   xmlns:sodipodi="http://sodipodi.sourceforge.net/DTD/sodipodi-0.dtd"
   xmlns="http://www.w3.org/2000/svg"
   xmlns:svg="http://www.w3.org/2000/svg">
  <sodipodi:namedview
     id="namedview8356"
     pagecolor="#505050"
     bordercolor="#ffffff"
     borderopacity="1"
     inkscape:pageshadow="0"
     inkscape:pageopacity="0"
     inkscape:pagecheckerboard="1"
     inkscape:document-units="mm"
     showgrid="false"
     units="px"
     fit-margin-top="0"
     fit-margin-left="0"
     fit-margin-right="0"
     fit-margin-bottom="0"
     inkscape:zoom="0.83654462"
     inkscape:cx="330.5263"
     inkscape:cy="319.17006"
     inkscape:window-width="2323"
     inkscape:window-height="1321"
     inkscape:window-x="2469"
     inkscape:window-y="-692"
     inkscape:window-maximized="1"
     inkscape:current-layer="layer1" />
  <defs
     id="defs8351">
    <clipPath
       clipPathUnits="userSpaceOnUse"
       id="clipPath1118">
      <path
         d="M 0,500 H 500 V 0 H 0 Z"
         id="path1116" />
    </clipPath>
    <clipPath
       clipPathUnits="userSpaceOnUse"
       id="clipPath1358">
      <path
         d="M 0,500 H 500 V 0 H 0 Z"
         id="path1356" />
    </clipPath>
  </defs>
  <g
     inkscape:label="Capa 1"
     inkscape:groupmode="layer"
     id="layer1"
     transform="translate(-66.104182,-73.476972)">
    <g
       id="g1114"
       clip-path="url(#clipPath1118)"
       transform="matrix(1.8716348,0,0,-1.8716348,-290.58906,860.15202)">
      <g
         id="g1120"
         transform="translate(50.5708,330.4829)" />
      <g
         id="g1124"
         transform="translate(53.5703,333.104)" />
      <g
         id="g1128"
         transform="translate(56.0107,336.1406)" />
      <g
         id="g1132"
         transform="translate(53.9189,345.4873)" />
      <g
         id="g1136"
         transform="translate(58.7939,349.3589)" />
      <g
         id="g1140"
         transform="translate(243.2056,376.0049)">
        <path
           d="m 0,0 c 4.617,3.524 8.812,8.075 11.315,13.357 1.881,3.971 2.617,9.769 -1.703,12.452 -3.744,2.325 -8.906,1.836 -13.062,1.311 -5.746,-0.725 -11.229,-2.353 -16.431,-4.889 -5.788,-2.819 -11.504,-5.736 -16.73,-9.542 -4.527,-3.297 -9.097,-7.411 -11.379,-12.641 -1.702,-3.899 -1.343,-8.29 2.317,-10.851 3.422,-2.393 8.111,-2.734 12.152,-2.616 7.828,0.228 15.584,3.012 22.504,6.51 0.596,0.301 1.222,0.95 1.213,1.666 -0.008,0.695 -0.757,0.731 -1.241,0.486 -6.497,-3.283 -13.556,-5.738 -20.859,-6.245 -4.207,-0.293 -8.888,-0.202 -12.694,1.825 -4.817,2.566 -3.448,8.267 -1.074,12.083 3.543,5.697 9.481,10.117 15.176,13.476 2.75,1.622 5.59,2.897 8.546,4.08 2.553,1.022 5.248,1.443 7.895,2.134 5.256,1.372 10.599,2.669 16.075,2.41 1.978,-0.092 3.992,-0.454 5.722,-1.461 1.827,-1.062 2.616,-3.233 2.652,-5.248 0.05,-2.747 -1.333,-5.443 -2.78,-7.69 C 5.974,8.062 3.923,5.798 1.702,3.75 0.949,3.055 0.157,2.399 -0.658,1.777 -1.13,1.417 -1.756,0.699 -1.512,0.042 -1.272,-0.604 -0.385,-0.294 0,0"
           style="fill:#000000;fill-opacity:1;fill-rule:nonzero;stroke:none"
           id="path1142" />
      </g>
      <g
         id="g1144"
         transform="translate(239.623,355.1509)">
        <path
           d="m 0,0 c -5.884,-2.824 -12.236,-4.776 -18.733,-5.5 -5.462,-0.61 -11.165,-0.254 -16.199,2.102 -5.177,2.423 -9.118,7.339 -10.376,12.908 -1.236,5.472 0.961,10.951 4.092,15.361 7.002,9.863 18.424,15.856 29.624,19.609 3.607,1.209 7.261,2.12 10.983,2.892 3.923,0.814 8.024,1.089 11.959,0.192 5.998,-1.368 10.377,-6.903 11.922,-12.619 2.58,-9.531 -3.266,-19.379 -9.907,-25.738 -0.543,-0.52 -0.008,-1.054 0.522,-0.523 8.386,8.419 14.537,21.842 6.884,32.721 -1.614,2.295 -3.797,4.167 -6.3,5.427 -2.992,1.506 -6.336,1.642 -9.616,1.674 -7.176,0.069 -14.228,-1.693 -20.882,-4.272 -10.484,-4.062 -20.748,-10.525 -27.078,-20.041 -2.867,-4.311 -4.67,-9.441 -3.92,-14.656 0.769,-5.36 4.244,-10.356 8.811,-13.199 5.282,-3.288 11.697,-3.927 17.778,-3.373 7.089,0.647 14.094,2.791 20.45,5.959 C 0.574,-0.797 0.886,0.425 0,0"
           style="fill:#000000;fill-opacity:1;fill-rule:nonzero;stroke:none"
           id="path1146" />
      </g>
      <g
         id="g1148"
         transform="translate(203.0083,363.9907)">
        <path
           d="m 0,0 c 2.635,8.472 10.943,13.822 18.402,17.707 8.799,4.583 18.272,7.649 28.168,8.553 0.837,0.077 1.694,0.037 2.532,-0.014 0.955,-0.059 1.411,-0.051 2.248,0.456 0.197,0.12 0.349,0.378 0.299,0.609 -0.032,0.151 -0.066,0.303 -0.101,0.454 -0.049,0.217 -0.281,0.271 -0.462,0.297 C 41.929,29.379 32.398,26.171 24.088,22.581 19.324,20.523 14.769,17.964 10.579,14.899 7.077,12.337 3.766,9.284 1.486,5.558 0.927,4.644 0.445,3.688 0.066,2.686 -0.304,1.709 -0.302,0.916 -0.248,-0.091 -0.239,-0.256 -0.023,-0.074 0,0"
           style="fill:#000000;fill-opacity:1;fill-rule:nonzero;stroke:none"
           id="path1150" />
      </g>
      <g
         id="g1152"
         transform="translate(193.542,372.5654)">
        <path
           d="m 0,0 c -0.974,-2.003 -0.792,-4.634 0.132,-6.621 0.923,-1.984 2.852,-3.317 4.784,-4.2 2.326,-1.065 4.918,-1.531 7.446,-1.794 2.667,-0.278 5.289,-0.292 7.874,0.459 0.092,0.027 0.282,0.248 0.102,0.276 -2.276,0.351 -4.555,0.233 -6.851,0.388 -2.421,0.165 -4.837,0.583 -7.119,1.421 -1.99,0.731 -3.789,1.866 -5.05,3.59 -0.651,0.889 -1.038,1.94 -1.212,3.023 -0.188,1.173 0.083,2.319 0.012,3.488 C 0.113,0.105 0.016,0.032 0,0"
           style="fill:#000000;fill-opacity:1;fill-rule:nonzero;stroke:none"
           id="path1154" />
      </g>
      <g
         id="g1156"
         transform="translate(244.103,373.5811)">
        <path
           d="m 0,0 c 6.405,4.597 13.555,11.912 13.923,20.267 0.119,2.675 -0.697,5.531 -2.908,7.18 -1.095,0.817 -2.348,1.351 -3.633,1.792 -0.95,0.325 -1.924,0.57 -2.906,0.774 -1.245,0.258 -2.41,0.111 -3.671,0.069 -0.133,-0.005 -0.458,-0.317 -0.238,-0.399 0.862,-0.322 1.64,-0.801 2.552,-0.97 0.925,-0.172 1.851,-0.355 2.768,-0.565 1.298,-0.297 2.571,-0.711 3.738,-1.355 2.407,-1.326 3.18,-4.136 3.216,-6.71 C 12.895,16.167 10.827,12.467 8.608,9.383 6.104,5.904 3.082,2.985 -0.072,0.114 -0.152,0.041 -0.102,-0.074 0,0"
           style="fill:#000000;fill-opacity:1;fill-rule:nonzero;stroke:none"
           id="path1158" />
      </g>
      <g
         id="g1160"
         transform="translate(203.106,371.7979)">
        <path
           d="m 0,0 c -1.116,-1.135 -1.902,-2.416 -2.596,-3.839 -0.446,-0.917 -1.331,-2.904 -0.067,-3.483 0.1,-0.046 0.241,0.082 0.273,0.165 0.43,1.11 0.213,2.24 0.457,3.401 0.282,1.339 1.218,2.628 2.058,3.676 C 0.214,0.031 0.082,0.083 0,0"
           style="fill:#000000;fill-opacity:1;fill-rule:nonzero;stroke:none"
           id="path1162" />
      </g>
      <g
         id="g1164"
         transform="translate(201.3354,381.2178)">
        <path
           d="m 0,0 c -1.808,-1.928 -3.467,-3.954 -4.855,-6.208 -0.797,-1.294 -2.891,-5.1 -1.132,-6.295 0.138,-0.094 0.306,0.082 0.344,0.208 0.323,1.07 0.187,2.133 0.413,3.229 0.242,1.172 0.743,2.333 1.315,3.379 1.105,2.023 2.616,3.806 4.029,5.615 C 0.192,0.028 0.073,0.078 0,0"
           style="fill:#000000;fill-opacity:1;fill-rule:nonzero;stroke:none"
           id="path1166" />
      </g>
      <g
         id="g1168"
         transform="translate(199.7119,371.3672)">
        <path
           d="m 0,0 c -0.572,-0.663 -3.907,-5.172 -1.684,-5.381 0.087,-0.008 0.186,0.084 0.217,0.157 0.323,0.767 0.11,1.594 0.221,2.413 0.134,0.981 0.862,1.926 1.333,2.778 C 0.125,0.036 0.036,0.042 0,0"
           style="fill:#000000;fill-opacity:1;fill-rule:nonzero;stroke:none"
           id="path1170" />
      </g>
      <g
         id="g1172"
         transform="translate(201.4526,373.4956)">
        <path
           d="M 0,0 C 0.632,0.892 1.631,1.471 2.318,2.323 2.366,2.382 2.333,2.473 2.251,2.428 1.204,1.847 0.374,1.106 -0.155,0.027 -0.217,-0.102 -0.051,-0.072 0,0"
           style="fill:#000000;fill-opacity:1;fill-rule:nonzero;stroke:none"
           id="path1174" />
      </g>
      <g
         id="g1176"
         transform="translate(235.0972,392.0078)">
        <path
           d="m 0,0 c 3.042,1.105 6.198,1.687 9.417,1.965 1.863,0.161 3.697,0.139 5.557,-0.044 0.996,-0.098 1.973,-0.289 2.935,-0.561 0.961,-0.271 1.464,-0.264 2.419,0.049 0.12,0.039 0.267,0.172 0.227,0.313 -0.252,0.882 -0.59,1.066 -1.482,1.264 -0.971,0.215 -1.97,0.342 -2.959,0.436 C 14.189,3.605 12.175,3.5 10.262,3.232 6.733,2.738 3.26,1.651 0.021,0.169 -0.043,0.14 -0.117,-0.043 0,0"
           style="fill:#000000;fill-opacity:1;fill-rule:nonzero;stroke:none"
           id="path1178" />
      </g>
      <g
         id="g1180"
         transform="translate(225.9482,395.9775)">
        <path
           d="m 0,0 c 5.126,1.208 10.239,2.134 15.478,2.711 2.516,0.277 5.041,0.499 7.574,0.379 1.856,-0.089 3.601,-0.847 5.428,-0.867 0.13,-10e-4 0.302,0.166 0.258,0.302 -0.53,1.647 -3.081,1.697 -4.521,1.812 C 21.702,4.539 19.101,4.356 16.606,4.014 11.022,3.247 5.426,1.812 0.04,0.159 -0.028,0.139 -0.118,-0.028 0,0"
           style="fill:#000000;fill-opacity:1;fill-rule:nonzero;stroke:none"
           id="path1182" />
      </g>
      <g
         id="g1184"
         transform="translate(238.2192,396.2437)">
        <path
           d="m 0,0 c 2.966,0.184 5.879,0.842 8.852,1.001 1.484,0.081 2.95,-0.102 4.386,-0.468 1.369,-0.35 2.225,-1.054 3.677,-0.704 0.155,0.038 0.396,0.259 0.32,0.442 -0.464,1.114 -1.653,1.346 -2.78,1.516 C 12.89,2.023 11.202,1.827 9.634,1.675 6.425,1.364 3.23,0.764 0.063,0.171 0.001,0.16 -0.104,-0.006 0,0"
           style="fill:#000000;fill-opacity:1;fill-rule:nonzero;stroke:none"
           id="path1186" />
      </g>
      <g
         id="g1188"
         transform="translate(232.2207,394.7661)">
        <path
           d="M 0,0 C 0.375,-0.04 0.809,0.073 1.18,0.125 1.771,0.207 2.343,0.44 2.9,0.652 2.964,0.676 3.072,0.837 2.95,0.852 2.286,0.932 1.743,1.097 1.08,0.883 0.712,0.764 0.032,0.506 -0.031,0.048 -0.034,0.022 -0.028,0.003 0,0"
           style="fill:#000000;fill-opacity:1;fill-rule:nonzero;stroke:none"
           id="path1190" />
      </g>
      <g
         id="g1192"
         transform="translate(246.7812,403.0127)">
        <path
           d="m 0,0 c 1.475,-1.117 3.639,-1.236 5.271,-2.136 1.758,-0.968 3.386,-2.47 4.848,-3.841 3.271,-3.064 4.873,-7.377 5.227,-11.782 0.326,-4.059 -0.999,-8.049 -2.761,-11.649 -0.914,-1.869 -2.025,-3.629 -3.272,-5.292 -0.576,-0.767 -1.201,-1.49 -1.861,-2.185 -0.704,-0.742 -1.498,-1.282 -1.844,-2.279 -0.198,-0.57 0.279,-0.819 0.755,-0.755 0.958,0.128 1.716,1.111 2.357,1.766 0.766,0.784 1.47,1.634 2.148,2.495 1.432,1.817 2.641,3.818 3.701,5.87 2.029,3.924 3.438,8.351 3.266,12.805 -0.18,4.635 -1.885,9.223 -5.083,12.603 -1.619,1.711 -3.433,2.71 -5.595,3.567 C 5.031,0.03 2.425,0.963 0.149,0.248 0.088,0.228 -0.1,0.076 0,0"
           style="fill:#000000;fill-opacity:1;fill-rule:nonzero;stroke:none"
           id="path1194" />
      </g>
      <g
         id="g1196"
         transform="translate(262.709,386.8569)">
        <path
           d="m 0,0 c 1.82,-0.412 3.646,-0.771 5.486,-1.084 2.08,-0.355 4.07,-1.068 6.038,-1.801 3.549,-1.323 6.837,-2.905 10.036,-4.961 5.359,-3.446 10.789,-7.729 14.067,-13.295 2.235,-3.797 3.341,-9.347 -1.349,-11.713 -3.659,-1.847 -8.384,-1.729 -12.363,-1.373 -6.592,0.591 -12.971,2.749 -18.913,5.595 -5.406,2.59 -10.66,5.866 -15.044,9.978 -3.771,3.538 -7.803,8.335 -8.529,13.639 -0.27,1.969 0.098,4.411 1.963,5.493 2.543,1.476 5.934,1.356 8.759,1.187 1.118,-0.067 2.721,2.373 1.186,2.464 -5.565,0.333 -12.093,-0.482 -14.078,-6.554 -1.727,-5.279 2.166,-11.061 5.354,-14.904 3.977,-4.794 9.158,-8.43 14.536,-11.493 6.209,-3.538 12.982,-6.171 20.038,-7.376 4.631,-0.791 9.519,-0.863 14.052,0.506 3.822,1.153 7.418,3.803 7.581,8.098 0.195,5.127 -3.879,9.719 -7.345,12.992 -5.083,4.798 -11.172,7.981 -17.225,11.34 -1.88,1.043 -3.844,1.847 -5.745,2.831 C 6.337,0.692 4.047,1.695 1.701,2.375 0.523,2.716 -1.191,0.27 0,0"
           style="fill:#000000;fill-opacity:1;fill-rule:nonzero;stroke:none"
           id="path1198" />
      </g>
      <g
         id="g1200"
         transform="translate(272.0068,336.1724)">
        <path
           d="M 0,0 C 5.752,-0.974 11.794,-1.087 17.366,0.848 22.821,2.742 27.188,6.775 29.624,11.999 34.592,22.655 27.128,33.234 19.255,39.993 11.423,46.716 1.783,51.044 -8.161,53.572 -8.769,53.726 -9.772,52.467 -9.089,52.277 2.816,48.965 14.522,43.21 22.822,33.849 26.435,29.775 29.385,24.745 29.661,19.194 29.96,13.202 26.505,7.502 21.604,4.247 15.561,0.231 7.569,0.302 0.678,1.411 0.048,1.513 -0.884,0.15 0,0"
           style="fill:#000000;fill-opacity:1;fill-rule:nonzero;stroke:none"
           id="path1202" />
      </g>
      <g
         id="g1204"
         transform="translate(253.8174,391.0742)">
        <path
           d="m 0,0 c -3.302,0.213 -6.656,0.244 -9.867,-0.666 -2.265,-0.642 -4.302,-1.925 -6.05,-3.479 -3.817,-3.391 -6.032,-8.476 -6.218,-13.542 -0.199,-5.437 1.993,-10.896 4.856,-15.41 3.248,-5.12 7.847,-9.319 12.764,-12.803 0.561,-0.398 1.601,0.752 0.973,1.144 -8.94,5.568 -16.722,14.317 -17.979,25.125 -0.619,5.327 1.375,10.704 5.044,14.563 4.313,4.535 10.303,5.231 16.254,4.604 C -0.009,-0.486 0.287,-0.019 0,0"
           style="fill:#000000;fill-opacity:1;fill-rule:nonzero;stroke:none"
           id="path1206" />
      </g>
      <g
         id="g1208"
         transform="translate(245.7065,379.8511)">
        <path
           d="m 0,0 c -1.511,-0.049 -3.417,0.136 -4.508,-1.074 -0.119,-0.132 -0.261,-0.328 -0.193,-0.518 0.215,-0.605 0.661,-0.553 1.235,-0.5 0.828,0.075 1.66,0.089 2.49,0.063 0.581,-0.018 1.144,0.515 1.378,1.003 C 0.586,-0.643 0.588,0.019 0,0"
           style="fill:#000000;fill-opacity:1;fill-rule:nonzero;stroke:none"
           id="path1210" />
      </g>
      <g
         id="g1212"
         transform="translate(292.9014,351.5723)">
        <path
           d="m 0,0 c 0.341,2.755 -1.052,5.14 -2.536,7.364 -1.845,2.765 -4.392,5.105 -6.998,7.135 -6.259,4.876 -13.509,8.347 -21.01,10.848 -1.103,0.368 -2.935,-1.951 -1.693,-2.366 7.21,-2.404 14.338,-5.701 20.597,-10.04 2.678,-1.856 5.225,-3.937 7.381,-6.39 1.777,-2.022 2.784,-4.346 4.012,-6.698 C -0.177,-0.281 -0.011,-0.082 0,0"
           style="fill:#000000;fill-opacity:1;fill-rule:nonzero;stroke:none"
           id="path1214" />
      </g>
      <g
         id="g1216"
         transform="translate(302.001,360.0859)">
        <path
           d="m 0,0 c -0.055,-1.175 0.154,-2.332 0.043,-3.512 -0.109,-1.152 -0.532,-2.263 -1.18,-3.217 -1.19,-1.753 -3.14,-2.794 -5.092,-3.482 -4.507,-1.59 -9.211,-1.062 -13.857,-1.638 -0.082,-0.01 -0.323,-0.217 -0.164,-0.275 2.392,-0.863 4.944,-0.699 7.445,-0.459 2.617,0.25 5.224,0.787 7.642,1.839 2.042,0.889 3.904,2.304 5.008,4.263 C 0.847,-4.7 1.258,-1.713 0.116,0.084 0.083,0.137 0.001,0.033 0,0"
           style="fill:#000000;fill-opacity:1;fill-rule:nonzero;stroke:none"
           id="path1218" />
      </g>
      <g
         id="g1220"
         transform="translate(255.7021,358.2832)">
        <path
           d="m 0,0 c -6.324,5.143 -13.377,11.079 -16.187,19.011 -1.05,2.963 -1.43,7.239 0.876,9.753 0.97,1.057 2.45,1.585 3.787,1.98 0.937,0.278 1.901,0.474 2.857,0.67 1.297,0.266 2.503,0.733 3.767,1.117 0.12,0.036 0.413,0.393 0.147,0.4 -1.232,0.034 -2.353,0.112 -3.569,-0.138 -1.073,-0.221 -2.126,-0.514 -3.161,-0.872 -1.506,-0.521 -2.941,-1.23 -4.117,-2.318 -2.468,-2.284 -2.78,-6.08 -2.214,-9.195 0.823,-4.533 3.781,-8.572 6.808,-11.906 1.639,-1.804 3.483,-3.39 5.417,-4.866 1.751,-1.338 3.524,-2.717 5.446,-3.803 C -0.076,-0.205 0.065,-0.053 0,0"
           style="fill:#000000;fill-opacity:1;fill-rule:nonzero;stroke:none"
           id="path1222" />
      </g>
      <g
         id="g1224"
         transform="translate(260.082,356.106)">
        <path
           d="M 0,0 C -0.62,0.746 -1.597,1.647 -2.64,1.311 -2.736,1.28 -2.866,1.175 -2.855,1.059 -2.758,-0.033 -0.961,-0.105 -0.136,-0.188 -0.062,-0.196 0.059,-0.07 0,0"
           style="fill:#000000;fill-opacity:1;fill-rule:nonzero;stroke:none"
           id="path1226" />
      </g>
      <g
         id="g1228"
         transform="translate(292.416,359.21)">
        <path
           d="M 0,0 C 0.821,-1.095 1.496,-2.273 1.977,-3.556 2.243,-4.268 2.229,-5.092 2.246,-5.842 2.258,-6.376 2.15,-6.751 2.532,-7.164 2.597,-7.233 2.725,-7.156 2.771,-7.104 4.703,-5.003 1.747,-1.321 0.174,0.174 0.1,0.245 -0.061,0.08 0,0"
           style="fill:#000000;fill-opacity:1;fill-rule:nonzero;stroke:none"
           id="path1230" />
      </g>
      <g
         id="g1232"
         transform="translate(294.2002,368.6421)">
        <path
           d="m 0,0 c 1.396,-1.895 2.868,-3.729 4.01,-5.795 0.566,-1.025 0.971,-2.191 1.272,-3.32 0.275,-1.031 -0.034,-2.32 0.487,-3.228 0.079,-0.138 0.253,-0.004 0.318,0.079 1.36,1.76 0.222,4.471 -0.863,6.116 C 3.722,-3.87 2.086,-1.778 0.158,0.157 0.092,0.223 -0.054,0.073 0,0"
           style="fill:#000000;fill-opacity:1;fill-rule:nonzero;stroke:none"
           id="path1234" />
      </g>
      <g
         id="g1236"
         transform="translate(295.8574,358.8437)">
        <path
           d="M 0,0 C 0.58,-1.203 1.293,-2.282 1.384,-3.647 1.404,-3.96 1.092,-5.579 1.815,-5.232 2.666,-4.825 2.531,-3.508 2.227,-2.817 1.753,-1.741 0.932,-0.731 0.114,0.097 0.073,0.14 -0.022,0.047 0,0"
           style="fill:#000000;fill-opacity:1;fill-rule:nonzero;stroke:none"
           id="path1238" />
      </g>
      <g
         id="g1240"
         transform="translate(294.3721,361.1401)">
        <path
           d="M 0,0 C -0.22,0.495 -0.407,0.949 -0.809,1.33 -1.267,1.763 -1.771,2.094 -2.352,2.343 -2.413,2.369 -2.544,2.255 -2.504,2.191 -2.203,1.712 -1.812,1.331 -1.394,0.96 -0.99,0.603 -0.509,0.274 -0.176,-0.15 -0.119,-0.222 0.032,-0.071 0,0"
           style="fill:#000000;fill-opacity:1;fill-rule:nonzero;stroke:none"
           id="path1242" />
      </g>
      <g
         id="g1244"
         transform="translate(248.9854,382.9805)">
        <path
           d="m 0,0 c -1.729,0.102 -3.416,0.072 -5.134,-0.155 -1.499,-0.199 -2.813,-0.408 -3.797,-1.624 -0.038,-0.046 -0.087,-0.162 -0.026,-0.212 0.855,-0.693 2.039,-0.003 2.99,0.208 1.729,0.385 3.56,0.473 5.325,0.449 C -0.055,-1.342 0.843,-0.05 0,0"
           style="fill:#000000;fill-opacity:1;fill-rule:nonzero;stroke:none"
           id="path1246" />
      </g>
      <g
         id="g1248"
         transform="translate(252.4961,387.6797)">
        <path
           d="m 0,0 c -2.418,0.236 -4.864,0.378 -7.285,0.097 -1.552,-0.18 -3.229,-0.47 -4.194,-1.798 -0.074,-0.102 -0.066,-0.241 0.086,-0.221 1.426,0.188 2.78,0.675 4.236,0.813 2.175,0.204 4.385,0.055 6.553,-0.148 C -0.037,-1.31 0.787,-0.077 0,0"
           style="fill:#000000;fill-opacity:1;fill-rule:nonzero;stroke:none"
           id="path1250" />
      </g>
      <g
         id="g1252"
         transform="translate(269.75,383.6885)">
        <path
           d="M 0,0 C -1.934,0.618 -3.911,1.061 -5.848,1.659 -6.123,1.745 -6.499,1.189 -6.159,1.138 -4.126,0.831 -2.119,0.294 -0.113,-0.158 -0.042,-0.174 0.087,-0.027 0,0"
           style="fill:#000000;fill-opacity:1;fill-rule:nonzero;stroke:none"
           id="path1254" />
      </g>
      <g
         id="g1256"
         transform="translate(250.8511,385.125)">
        <path
           d="m 0,0 c -3.16,0.492 -8.037,1.542 -10.525,-1.106 -0.085,-0.09 -0.22,-0.313 -0.047,-0.393 0.628,-0.288 0.998,-0.126 1.637,0.108 0.861,0.316 1.71,0.615 2.61,0.797 2.011,0.408 4.054,0.277 6.079,0.082 C -0.019,-0.534 0.324,-0.05 0,0"
           style="fill:#000000;fill-opacity:1;fill-rule:nonzero;stroke:none"
           id="path1258" />
      </g>
      <g
         id="g1260"
         transform="translate(250.8437,390.8242)">
        <path
           d="m 0,0 c -2.098,0.746 -4.677,0.27 -6.798,-0.161 -2.322,-0.472 -4.235,-1.718 -5.965,-3.295 -3.544,-3.23 -5.845,-7.976 -6.36,-12.715 -0.516,-4.743 0.871,-9.586 2.934,-13.813 1.076,-2.205 2.57,-4.002 4.086,-5.912 0.755,-0.951 1.564,-1.858 2.412,-2.728 0.842,-0.865 1.648,-1.264 2.681,-1.826 0.108,-0.059 0.293,0.154 0.215,0.252 -0.607,0.754 -1.052,1.518 -1.752,2.213 -0.772,0.766 -1.491,1.587 -2.182,2.426 -1.422,1.729 -2.351,3.72 -3.407,5.675 -2.054,3.804 -3.374,8.072 -3.445,12.41 -0.074,4.552 1.778,8.976 4.818,12.333 3.411,3.767 7.915,4.006 12.607,4.817 C -0.062,-0.308 0.167,-0.06 0,0"
           style="fill:#000000;fill-opacity:1;fill-rule:nonzero;stroke:none"
           id="path1262" />
      </g>
      <g
         id="g1264"
         transform="translate(257.7939,351.1948)">
        <path
           d="m 0,0 c 3.134,1.615 6.384,1.052 8.993,-1.244 2.228,-1.96 3.448,-4.93 4.239,-7.725 0.445,-1.57 0.626,-3.177 0.631,-4.805 0.005,-1.732 -0.61,-3.186 -1.269,-4.745 -0.542,-1.283 -1.093,-2.564 -1.746,-3.795 -0.608,-1.148 -0.989,-1.227 -2.289,-1.311 -2.247,-0.146 -4.608,0.083 -6.696,0.934 -1.717,0.7 -3.402,1.478 -5.127,2.164 -1.72,0.684 -3.382,1.085 -4.789,2.35 -2.669,2.4 -2.592,5.488 -1.281,8.542 1.185,2.761 2.94,5.388 5.433,7.107 0.945,0.652 1.911,1.271 2.844,1.94 0.107,0.077 0.146,0.337 -0.041,0.232 -1.205,-0.675 -2.506,-1.139 -3.692,-1.852 -1.208,-0.727 -2.158,-1.794 -3.008,-2.9 -1.611,-2.095 -2.916,-4.643 -3.55,-7.21 -0.677,-2.745 0.456,-5.323 2.474,-7.196 1.094,-1.015 2.426,-1.465 3.776,-2.029 1.846,-0.77 3.645,-1.649 5.486,-2.433 2.123,-0.904 4.29,-1.183 6.593,-1.2 2.061,-0.015 3.669,0.301 4.795,2.133 0.686,1.116 1.204,2.331 1.719,3.531 0.557,1.296 1.188,2.6 1.549,3.966 0.752,2.845 0.017,6.025 -1.042,8.693 -1.15,2.899 -2.833,5.441 -5.532,7.098 C 5.794,1.888 2.64,1.689 -0.002,0.124 -0.061,0.089 -0.104,-0.053 0,0"
           style="fill:#000000;fill-opacity:1;fill-rule:nonzero;stroke:none"
           id="path1266" />
      </g>
      <g
         id="g1268"
         transform="translate(250.1934,345.2305)">
        <path
           d="M 0,0 C 0.471,0.563 1.629,2.707 2.418,2.157 3.464,1.428 3.78,0.071 4.636,-0.804 5.2,-1.381 6.054,-1.718 6.795,-2.001 c 1.229,-0.47 2.41,-1.067 3.64,-1.543 1.217,-0.472 2.455,-0.896 3.704,-1.274 0.745,-0.225 1.54,-0.562 2.329,-0.526 1.072,0.049 2.12,0.344 3.192,0.409 0.511,0.032 1.088,0.018 1.521,-0.29 0.311,-0.22 0.424,-0.657 0.647,-0.949 0.066,-0.086 0.201,0.062 0.23,0.112 1.467,2.613 -3.031,1.949 -4.221,1.757 -2.581,-0.416 -5.089,0.749 -7.454,1.688 C 9.012,-2.073 7.76,-1.467 6.54,-0.642 5.634,-0.029 5.25,1.278 4.604,2.131 3.821,3.164 3.015,3.551 1.961,2.781 1.058,2.122 0.38,1.006 -0.108,0.019 -0.154,-0.074 -0.036,-0.044 0,0"
           style="fill:#000000;fill-opacity:1;fill-rule:nonzero;stroke:none"
           id="path1270" />
      </g>
      <g
         id="g1272"
         transform="translate(265.9746,340.3789)">
        <path
           d="m 0,0 c -0.617,-2.231 -1.205,-4.46 -1.962,-6.65 -0.367,-1.065 -0.794,-2.111 -1.239,-3.145 -0.463,-1.074 -1.243,-1.947 -1.723,-3.002 -0.533,-1.173 0.996,-0.669 1.369,-0.018 0.535,0.931 0.716,2.027 1.152,3.009 0.429,0.97 0.813,1.958 1.171,2.955 0.789,2.202 1.404,4.558 1.397,6.912 C 0.164,0.169 0.014,0.051 0,0"
           style="fill:#000000;fill-opacity:1;fill-rule:nonzero;stroke:none"
           id="path1274" />
      </g>
      <g
         id="g1276"
         transform="translate(255.6025,344.7964)">
        <path
           d="m 0,0 c -1.613,-1.901 -2.731,-4.155 -3.752,-6.415 -0.563,-1.25 -1.06,-2.53 -1.495,-3.831 -0.253,-0.756 -0.853,-1.938 -0.335,-2.676 0.056,-0.08 0.197,0.041 0.229,0.085 0.545,0.758 0.672,1.622 0.938,2.504 0.402,1.334 0.932,2.629 1.481,3.908 0.935,2.172 2.021,4.29 3.094,6.397 C 0.229,0.109 0.054,0.063 0,0"
           style="fill:#000000;fill-opacity:1;fill-rule:nonzero;stroke:none"
           id="path1278" />
      </g>
      <g
         id="g1280"
         transform="translate(259.7383,350.1895)">
        <path
           d="m 0,0 c -1.885,-1.358 -3.466,-3.479 -4.726,-5.406 -0.495,-0.76 0.414,-0.874 0.812,-0.301 1.287,1.857 3.09,3.566 4.061,5.612 C 0.204,0.025 0.088,0.063 0,0"
           style="fill:#000000;fill-opacity:1;fill-rule:nonzero;stroke:none"
           id="path1282" />
      </g>
      <g
         id="g1284"
         transform="translate(265.0283,348.6968)">
        <path
           d="m 0,0 c 0.038,-1.629 0.227,-3.262 0.328,-4.89 0.051,-0.809 0.122,-1.614 0.189,-2.422 0.053,-0.652 -0.15,-0.995 0.39,-1.379 0.14,-0.099 0.32,0.063 0.38,0.186 0.538,1.096 0.07,2.421 -0.144,3.59 C 0.837,-3.25 0.53,-1.562 0.14,0.083 0.122,0.157 -0.001,0.049 0,0"
           style="fill:#000000;fill-opacity:1;fill-rule:nonzero;stroke:none"
           id="path1286" />
      </g>
      <g
         id="g1288"
         transform="translate(251.5615,347.3657)">
        <path
           d="m 0,0 c -1.21,-2.147 -1.624,-4.638 -1.878,-7.057 -0.275,-2.614 -0.224,-5.306 -0.32,-7.939 -0.023,-0.643 0.915,0.052 1,0.367 0.303,1.13 0.152,2.331 0.2,3.49 0.054,1.319 0.338,2.593 0.459,3.897 0.226,2.415 0.698,4.862 0.721,7.287 C 0.183,0.167 0.023,0.041 0,0"
           style="fill:#000000;fill-opacity:1;fill-rule:nonzero;stroke:none"
           id="path1290" />
      </g>
      <g
         id="g1292"
         transform="translate(249.5645,331.999)">
        <path
           d="m 0,0 c 1.361,0.147 2.677,0.959 3.905,1.52 1.598,0.729 3.168,1.518 4.745,2.29 1.58,0.773 3.158,1.552 4.735,2.333 1.112,0.55 2.934,1.122 3.612,2.222 0.026,0.044 0.067,0.134 -0.005,0.161 C 16.129,8.861 14.569,7.534 13.803,7.156 12.225,6.379 10.648,5.597 9.071,4.817 7.492,4.037 5.908,3.267 4.326,2.491 2.882,1.782 1.265,1.143 0.015,0.117 -0.005,0.101 -0.076,-0.008 0,0"
           style="fill:#000000;fill-opacity:1;fill-rule:nonzero;stroke:none"
           id="path1294" />
      </g>
      <g
         id="g1296"
         transform="translate(265.9355,340.6597)">
        <path
           d="m 0,0 c -0.445,-2.196 0.319,-4.806 0.573,-7.009 0.13,-1.126 0.297,-2.248 0.493,-3.365 0.197,-1.114 0.277,-2.502 0.858,-3.484 0.067,-0.114 0.21,0.052 0.219,0.129 0.106,0.944 -0.241,1.864 -0.404,2.792 C 1.495,-9.548 1.28,-8.157 1.094,-6.759 0.928,-5.526 0.776,-4.295 0.587,-3.065 0.429,-2.04 0.4,-0.944 0.103,0.049 0.087,0.104 0.006,0.028 0,0"
           style="fill:#000000;fill-opacity:1;fill-rule:nonzero;stroke:none"
           id="path1298" />
      </g>
      <g
         id="g1300"
         transform="translate(264.3398,342.4106)">
        <path
           d="m 0,0 c -0.015,-0.315 -0.03,-0.629 -0.05,-0.944 -0.017,-0.273 -0.119,-0.56 0.111,-0.743 0.112,-0.09 0.259,0.06 0.31,0.151 C 0.65,-1.031 0.324,-0.418 0.151,0.09 0.123,0.175 0.002,0.049 0,0"
           style="fill:#000000;fill-opacity:1;fill-rule:nonzero;stroke:none"
           id="path1302" />
      </g>
      <g
         id="g1304"
         transform="translate(267.3398,342.0669)">
        <path
           d="m 0,0 c -0.02,-0.615 -0.086,-1.244 -0.036,-1.858 0.034,-0.416 0.638,0.036 0.643,0.309 C 0.619,-0.968 0.435,-0.41 0.161,0.096 0.116,0.179 0.002,0.059 0,0"
           style="fill:#000000;fill-opacity:1;fill-rule:nonzero;stroke:none"
           id="path1306" />
      </g>
      <g
         id="g1308"
         transform="translate(260.248,348.5532)">
        <path
           d="m 0,0 c -0.753,-0.944 -1.572,-1.815 -2.377,-2.713 -0.44,-0.493 -1.504,-1.315 -1.386,-2.027 0.027,-0.156 0.158,-0.175 0.288,-0.113 0.777,0.363 1.236,1.426 1.761,2.083 0.687,0.859 1.402,1.744 1.876,2.742 C 0.229,0.111 0.055,0.069 0,0"
           style="fill:#000000;fill-opacity:1;fill-rule:nonzero;stroke:none"
           id="path1310" />
      </g>
      <g
         id="g1312"
         transform="translate(255.9883,347.6504)">
        <path
           d="m 0,0 c -0.496,-0.341 -1.018,-0.739 -1.273,-1.3 -0.153,-0.335 0.213,-0.302 0.389,-0.147 0.417,0.368 0.689,0.877 0.993,1.337 C 0.178,-0.008 0.103,0.071 0,0"
           style="fill:#000000;fill-opacity:1;fill-rule:nonzero;stroke:none"
           id="path1314" />
      </g>
      <g
         id="g1316"
         transform="translate(263.8633,329.542)">
        <path
           d="m 0,0 c -0.373,-0.827 -0.921,-1.614 -1.144,-2.5 -0.112,-0.445 0.51,-0.155 0.608,0.076 0.33,0.775 0.545,1.617 0.696,2.444 C 0.183,0.141 0.027,0.06 0,0"
           style="fill:#000000;fill-opacity:1;fill-rule:nonzero;stroke:none"
           id="path1318" />
      </g>
      <g
         id="g1320"
         transform="translate(266.2666,328.4531)">
        <path
           d="M 0,0 C -0.045,-0.517 -0.141,-1.167 0.314,-1.531 0.39,-1.591 0.486,-1.478 0.509,-1.414 0.716,-0.813 0.503,-0.398 0.257,0.152 0.193,0.294 0.008,0.083 0,0"
           style="fill:#000000;fill-opacity:1;fill-rule:nonzero;stroke:none"
           id="path1322" />
      </g>
      <g
         id="g1324"
         transform="translate(255.1289,333.5015)">
        <path
           d="m 0,0 c -1.248,-0.722 -2.843,-1.021 -3.884,-2.065 -0.289,-0.29 -0.303,-0.938 0.252,-0.667 0.684,0.335 1.319,0.815 1.967,1.215 0.643,0.397 1.211,0.837 1.706,1.409 C 0.079,-0.063 0.091,0.052 0,0"
           style="fill:#000000;fill-opacity:1;fill-rule:nonzero;stroke:none"
           id="path1326" />
      </g>
      <g
         id="g1328"
         transform="translate(262.3711,333.2529)">
        <path
           d="m 0,0 c -0.697,-1.011 -1.354,-2.052 -2.038,-3.072 -0.386,-0.576 -1.385,-1.595 -1.141,-2.335 0.024,-0.072 0.122,-0.063 0.174,-0.033 0.726,0.406 0.991,1.207 1.392,1.91 0.644,1.129 1.273,2.3 1.759,3.505 C 0.197,0.099 0.049,0.072 0,0"
           style="fill:#000000;fill-opacity:1;fill-rule:nonzero;stroke:none"
           id="path1330" />
      </g>
      <g
         id="g1332"
         transform="translate(259.1123,329.8608)">
        <path
           d="m 0,0 c -0.281,-0.316 -1.213,-0.984 -1.017,-1.49 0.018,-0.045 0.074,-0.038 0.109,-0.021 0.527,0.258 0.784,0.968 1.035,1.463 C 0.18,0.055 0.054,0.061 0,0"
           style="fill:#000000;fill-opacity:1;fill-rule:nonzero;stroke:none"
           id="path1334" />
      </g>
      <g
         id="g1336"
         transform="translate(248.2124,337.3516)">
        <path
           d="m 0,0 c -0.081,-0.755 -0.127,-1.51 -0.137,-2.27 -0.006,-0.563 -0.155,-1.377 0.266,-1.812 0.062,-0.063 0.168,0.044 0.193,0.094 0.579,1.167 0.018,2.84 -0.148,4.072 C 0.158,0.202 0.007,0.067 0,0"
           style="fill:#000000;fill-opacity:1;fill-rule:nonzero;stroke:none"
           id="path1338" />
      </g>
      <g
         id="g1340"
         transform="translate(269.6182,342.6938)">
        <path
           d="M 0,0 C 0.003,-0.568 0.081,-1.135 0.132,-1.701 0.136,-1.745 0.154,-1.81 0.208,-1.819 0.25,-1.827 0.292,-1.834 0.334,-1.842 0.388,-1.851 0.44,-1.819 0.471,-1.774 0.813,-1.268 0.362,-0.422 0.113,0.068 0.084,0.126 -0.001,0.042 0,0"
           style="fill:#000000;fill-opacity:1;fill-rule:nonzero;stroke:none"
           id="path1342" />
      </g>
      <g
         id="g1344"
         transform="translate(268.1836,332.7227)">
        <path
           d="m 0,0 c 0.097,-0.707 0.247,-1.399 0.396,-2.097 0.112,-0.528 0.085,-1.511 0.644,-1.717 0.111,-0.04 0.241,0.096 0.265,0.192 0.14,0.565 -0.227,1.043 -0.402,1.589 -0.229,0.72 -0.398,1.449 -0.79,2.101 C 0.082,0.121 -0.007,0.046 0,0"
           style="fill:#000000;fill-opacity:1;fill-rule:nonzero;stroke:none"
           id="path1346" />
      </g>
    </g>
    <g
       id="g1352"
       transform="matrix(1.8716348,0,0,-1.8716348,-411.99136,976.17034)">
      <g
         id="g1354"
         clip-path="url(#clipPath1358)">
        <g
           id="g1360"
           transform="translate(284.7588,404.999)">
          <path
             d="M 0,0 C 0.411,0.676 0.753,1.297 1.028,1.864 L 2.033,1.253 C 2.179,1.164 2.341,1.135 2.518,1.167 2.694,1.2 2.819,1.276 2.894,1.397 3.06,1.672 2.88,1.97 2.351,2.292 L 0.017,3.711 C -0.628,4.104 -1.041,4.149 -1.223,3.85 -1.347,3.645 -1.378,3.474 -1.313,3.335 -1.25,3.195 -1.122,3.067 -0.932,2.951 L -0.47,2.697 -0.097,2.47 C -0.433,1.774 -0.827,1.053 -1.281,0.307 L -4.04,-3.99 -6.437,-8.231 -6.632,-8.467 -7.187,-8.129 c -0.08,0.04 -0.192,0.029 -0.334,-0.033 -0.142,-0.062 -0.25,-0.153 -0.324,-0.275 -0.178,-0.293 -0.035,-0.582 0.431,-0.865 0.057,-0.034 0.141,-0.076 0.25,-0.125 0.15,-0.127 0.522,-0.371 1.114,-0.731 l 0.862,-0.524 c 0.171,-0.104 0.359,-0.138 0.562,-0.099 0.202,0.039 0.354,0.14 0.454,0.306 0.198,0.326 0.029,0.651 -0.506,0.977 l -0.577,0.324 -0.258,0.157 0.342,0.539 0.355,0.583 2.435,4.219 z"
             style="fill:none;stroke:#000000;stroke-width:0.5;stroke-linecap:butt;stroke-linejoin:miter;stroke-miterlimit:10;stroke-dasharray:none;stroke-opacity:1"
             id="path1362" />
        </g>
        <g
           id="g1364"
           transform="translate(287.7246,388.9897)">
          <path
             d="m 0,0 1.416,-0.861 c 0.824,-0.065 1.604,0.038 2.337,0.308 0.318,0.121 0.629,0.289 0.935,0.505 0.306,0.215 0.652,0.507 1.037,0.877 0.386,0.367 0.978,1.209 1.777,2.522 L 8.159,4.432 8.798,5.394 C 9.406,6.395 9.742,7.492 9.805,8.686 9.921,10.773 9.307,12.226 7.961,13.043 7.795,13.145 7.6,13.174 7.373,13.133 7.146,13.091 6.963,12.953 6.819,12.716 6.676,12.481 6.379,11.908 5.93,10.997 5.48,10.086 5.129,9.42 4.873,9 L 1.062,2.866 C 0.022,1.157 -0.332,0.202 0,0 Z m 4.242,5.347 c 1.069,1.98 1.878,3.42 2.427,4.322 0.549,0.903 1.027,1.583 1.437,2.041 C 9.517,10.608 9.021,8.088 6.624,4.147 6.325,3.656 5.989,3.162 5.616,2.664 3.991,0.507 2.61,-0.225 1.476,0.465 l 0.285,0.469 c 0.585,0.963 1.412,2.434 2.481,4.413 z"
             style="fill:none;stroke:#000000;stroke-width:0.5;stroke-linecap:butt;stroke-linejoin:miter;stroke-miterlimit:10;stroke-dasharray:none;stroke-opacity:1"
             id="path1366" />
        </g>
        <g
           id="g1368"
           transform="translate(296.96,387.7617)">
          <path
             d="m 0,0 c -0.367,-0.791 -0.602,-1.679 -0.703,-2.665 -0.103,-1.029 0.206,-1.763 0.927,-2.202 1.74,-1.059 3.754,0.289 6.039,4.045 L 7.574,1.42 7.661,1.563 C 8.444,2.852 8.938,4.036 9.142,5.118 9.499,6.998 8.918,8.399 7.401,9.322 7.223,9.43 6.988,9.455 6.698,9.396 6.409,9.336 5.942,8.999 5.299,8.387 4.536,7.662 3.528,6.274 2.279,4.222 L 2.064,3.867 C 2.084,3.855 2.074,3.817 2.035,3.754 L 1.562,3.02 C 1.066,2.203 0.545,1.197 0,0 Z M 5.034,6.162 C 5.41,6.781 5.786,7.264 6.164,7.611 6.616,8.026 7.066,8.097 7.513,7.826 7.979,7.542 8.247,7.123 8.32,6.568 8.394,6.012 8.29,5.492 8.013,5.006 L 7.803,4.662 C 7.5,4.164 7.083,3.382 6.553,2.316 6.021,1.25 5.608,0.471 5.31,-0.02 5.011,-0.511 4.616,-1.084 4.131,-1.74 3.849,-2.119 3.564,-2.462 3.282,-2.77 2.987,-3.08 2.687,-3.363 2.38,-3.617 2.071,-3.871 1.766,-4.036 1.456,-4.11 1.149,-4.185 0.878,-4.151 0.642,-4.008 0.437,-3.683 0.423,-3.01 0.598,-1.989 c 0.551,1.595 1.403,3.34 2.555,5.233 l 1.197,1.75 z"
             style="fill:none;stroke:#000000;stroke-width:0.5;stroke-linecap:butt;stroke-linejoin:miter;stroke-miterlimit:10;stroke-dasharray:none;stroke-opacity:1"
             id="path1370" />
        </g>
      </g>
    </g>
  </g>
</svg>
