<?xml version="1.0" encoding="UTF-8" standalone="no"?>
<!-- Created with Inkscape (http://www.inkscape.org/) -->

<svg
   width="800"
   height="800"
   viewBox="0 0 211.66666 211.66667"
   version="1.1"
   id="svg6556"
   inkscape:version="1.1.2 (b8e25be833, 2022-02-05)"
   sodipodi:docname="iglesia.svg"
   inkscape:export-filename="C:\Users\alejandro.gonzalez\OneDrive - University of Luxembourg\test\alejandrogonzalezUnilu.github.io\images\iglesia.png"
   inkscape:export-xdpi="96"
   inkscape:export-ydpi="96"
   xmlns:inkscape="http://www.inkscape.org/namespaces/inkscape"
   xmlns:sodipodi="http://sodipodi.sourceforge.net/DTD/sodipodi-0.dtd"
   xmlns="http://www.w3.org/2000/svg"
   xmlns:svg="http://www.w3.org/2000/svg">
  <sodipodi:namedview
     id="namedview6558"
     pagecolor="#505050"
     bordercolor="#ffffff"
     borderopacity="1"
     inkscape:pageshadow="0"
     inkscape:pageopacity="0"
     inkscape:pagecheckerboard="1"
     inkscape:document-units="mm"
     showgrid="false"
     units="px"
     fit-margin-top="0"
     fit-margin-left="0"
     fit-margin-right="0"
     fit-margin-bottom="0"
     inkscape:zoom="0.83654462"
     inkscape:cx="322.15855"
     inkscape:cy="411.21536"
     inkscape:window-width="1839"
     inkscape:window-height="1051"
     inkscape:window-x="72"
     inkscape:window-y="-9"
     inkscape:window-maximized="1"
     inkscape:current-layer="layer1" />
  <defs
     id="defs6553">
    <clipPath
       clipPathUnits="userSpaceOnUse"
       id="clipPath838">
      <path
         d="M 0,500 H 500 V 0 H 0 Z"
         id="path836" />
    </clipPath>
    <clipPath
       clipPathUnits="userSpaceOnUse"
       id="clipPath1082">
      <path
         d="M 0,500 H 500 V 0 H 0 Z"
         id="path1080" />
    </clipPath>
  </defs>
  <g
     inkscape:label="Capa 1"
     inkscape:groupmode="layer"
     id="layer1"
     transform="translate(-2.8712151,-3.0343102)">
    <rect
       style="fill:none;stroke:none;stroke-width:0.97558;stroke-linecap:round;stroke-opacity:1"
       id="rect7328"
       width="210.69109"
       height="210.69109"
       x="3.3590081"
       y="3.5221031" />
    <g
       id="g832"
       transform="matrix(1.4276753,0,0,-1.4276753,-48.756221,570.14622)">
      <g
         id="g834"
         clip-path="url(#clipPath838)">
        <g
           id="g840"
           transform="translate(73.6299,311.9893)">
          <path
             d="m 0,0 c -0.071,-4.443 0.445,-8.864 0.771,-13.289 0.292,-3.95 0.429,-7.913 0.373,-11.874 -0.057,-4.004 -0.359,-8 -0.798,-11.98 -0.236,-2.136 -0.536,-4.265 -0.866,-6.389 -0.169,-1.089 -0.353,-2.176 -0.541,-3.261 -0.147,-0.849 -0.415,-1.782 0.227,-2.473 0.169,-0.182 0.464,0.088 0.565,0.211 1.334,1.62 1.376,4.009 1.695,6.01 0.341,2.141 0.632,4.289 0.886,6.442 0.485,4.109 0.735,8.242 0.784,12.379 0.047,3.947 -0.135,7.89 -0.483,11.821 C 2.239,-8.162 1.724,-3.842 0.351,0.209 0.286,0.402 0.002,0.118 0,0"
             style="fill:#000000;fill-opacity:1;fill-rule:nonzero;stroke:none"
             id="path842" />
        </g>
        <g
           id="g844"
           transform="translate(145.8657,310.2339)">
          <path
             d="m 0,0 c -2.227,-7.756 -2.594,-16.146 -2.475,-24.175 0.058,-3.884 0.325,-7.762 0.768,-11.621 0.239,-2.076 0.534,-4.145 0.857,-6.209 0.158,-1.002 0.326,-2.003 0.501,-3.002 0.183,-1.047 0.24,-2.002 1.239,-2.541 0.197,-0.107 0.495,0.181 0.56,0.34 0.802,1.972 0.027,4.141 -0.293,6.167 -0.326,2.065 -0.606,4.137 -0.847,6.214 -0.449,3.849 -0.738,7.716 -0.833,11.59 -0.094,3.8 0.027,7.604 0.266,11.396 0.252,3.985 0.725,7.971 0.609,11.97 C 0.345,0.362 0.031,0.108 0,0"
             style="fill:#000000;fill-opacity:1;fill-rule:nonzero;stroke:none"
             id="path846" />
        </g>
        <g
           id="g848"
           transform="translate(56.7407,257.5674)">
          <path
             d="M 0,0 C 9.845,3.618 20.183,5.42 30.593,6.424 42.31,7.553 54.14,7.555 65.878,6.792 73.461,6.3 81.046,5.428 88.511,3.996 c 3.19,-0.611 6.358,-1.343 9.483,-2.227 1.435,-0.405 2.817,-0.869 4.295,-1.088 1.499,-0.224 3.065,-0.418 4.532,-0.782 0.161,-0.039 0.554,0.295 0.359,0.423 -1.539,1.006 -2.982,2.342 -4.744,2.972 -2.109,0.754 -4.305,1.301 -6.478,1.831 -4.957,1.211 -10,2.076 -15.054,2.755 C 69.346,9.432 57.62,9.811 45.975,9.361 37.648,9.041 29.3,8.186 21.114,6.621 13.898,5.241 6.644,3.442 -0.003,0.246 -0.131,0.184 -0.213,-0.078 0,0"
             style="fill:#000000;fill-opacity:1;fill-rule:nonzero;stroke:none"
             id="path850" />
        </g>
        <g
           id="g852"
           transform="translate(88.4414,252.6543)">
          <path
             d="m 0,0 c 6.911,1.665 14.264,1.638 21.326,1.354 7.382,-0.296 14.857,-1.017 22.041,-2.798 0.667,-0.166 1.444,0.58 1.447,1.236 0.011,2.01 0.033,4.02 0.033,6.03 0,0.169 -0.093,0.383 -0.276,0.429 C 37.251,8.086 29.651,8.808 22.124,9.026 14.916,9.235 7.2,9.121 0.247,7.002 -0.269,6.845 -0.944,6.281 -0.892,5.673 c 0.079,-0.926 0.114,-1.852 0.231,-2.775 0.118,-0.921 0.477,-1.979 0.477,-2.899 0,-0.256 0.416,0.012 0.416,0.199 0,0.993 0.324,2.111 0.446,3.1 0.133,1.083 0.177,2.169 0.263,3.256 -0.379,-0.443 -0.759,-0.887 -1.139,-1.33 6.975,1.64 14.213,1.917 21.35,1.782 7.414,-0.14 14.957,-0.784 22.192,-2.468 -0.092,0.143 -0.184,0.286 -0.276,0.429 0,-1.999 0.022,-3.999 0.033,-5.998 0.482,0.412 0.965,0.825 1.447,1.237 C 37.175,1.941 29.511,2.59 21.949,2.65 14.658,2.708 7.075,2.3 0.049,0.197 -0.036,0.172 -0.146,-0.035 0,0"
             style="fill:#000000;fill-opacity:1;fill-rule:nonzero;stroke:none"
             id="path854" />
        </g>
        <g
           id="g856"
           transform="translate(95.6621,266.0073)">
          <path
             d="M 0,0 C -0.602,-1.847 -0.194,-3.802 -0.509,-5.683 -0.552,-5.938 -0.48,-6.148 -0.193,-6.172 0.33,-6.214 0.855,-5.605 0.74,-5.08 0.369,-3.396 0.814,-1.534 0.237,0.114 0.191,0.244 0.019,0.058 0,0"
             style="fill:#000000;fill-opacity:1;fill-rule:nonzero;stroke:none"
             id="path858" />
        </g>
        <g
           id="g860"
           transform="translate(124.1343,266.0073)">
          <path
             d="M 0,0 C -0.602,-1.847 -0.194,-3.802 -0.509,-5.683 -0.552,-5.938 -0.48,-6.148 -0.193,-6.172 0.33,-6.214 0.855,-5.605 0.74,-5.08 0.369,-3.396 0.815,-1.533 0.237,0.114 0.191,0.244 0.019,0.058 0,0"
             style="fill:#000000;fill-opacity:1;fill-rule:nonzero;stroke:none"
             id="path862" />
        </g>
        <g
           id="g864"
           transform="translate(120.5503,266.0664)">
          <path
             d="m 0,0 c 0.6,2.909 1.091,5.78 1.262,8.748 0.171,2.984 0.043,5.991 -0.212,8.967 -0.429,5.015 -1.298,10.278 -3.635,14.793 -1.606,3.103 -4.348,5.864 -8.106,5.444 -3.911,-0.436 -6.485,-3.951 -8.031,-7.253 -2.121,-4.532 -2.93,-9.649 -3.383,-14.59 -0.495,-5.392 -0.789,-11.087 1.122,-16.228 0.054,-0.145 0.25,0.071 0.256,0.152 0.457,6.022 0.067,12.055 0.696,18.071 0.51,4.888 1.433,10.316 4.084,14.553 1.822,2.911 5.089,4.539 8.244,2.463 3.55,-2.335 4.934,-7.316 5.83,-11.198 0.91,-3.941 1.29,-7.988 1.448,-12.023 C -0.269,7.926 -0.113,3.886 -0.238,-0.087 -0.243,-0.236 -0.017,-0.082 0,0"
             style="fill:#000000;fill-opacity:1;fill-rule:nonzero;stroke:none"
             id="path866" />
        </g>
        <g
           id="g868"
           transform="translate(109.5322,303.1035)">
          <path
             d="m 0,0 c -0.927,-2.916 -0.566,-6.261 -0.563,-9.287 0.003,-3.299 0.007,-6.598 0.01,-9.897 0.003,-3.093 0.003,-6.186 0.004,-9.278 0.001,-1.639 0.001,-3.278 0.002,-4.917 0,-0.836 -0.043,-1.67 -0.078,-2.505 -0.021,-0.526 0.366,-0.871 0.642,-1.259 0.087,-0.124 0.303,0.088 0.335,0.164 0.246,0.575 0.484,1.067 0.613,1.679 0.138,0.65 -0.031,1.465 -0.053,2.129 -0.052,1.637 0.002,3.284 0.002,4.922 0.001,3.257 0.001,6.515 0.004,9.772 0.003,3.136 0.007,6.272 0.01,9.408 0.001,1.659 0.017,3.318 -0.02,4.977 -0.032,1.449 0.069,2.92 -0.544,4.268 C 0.278,0.366 0.032,0.101 0,0"
             style="fill:#000000;fill-opacity:1;fill-rule:nonzero;stroke:none"
             id="path870" />
        </g>
        <g
           id="g872"
           transform="translate(94.2632,332.7871)">
          <path
             d="m 0,0 c -10.999,-6.9 -20.564,-15.982 -30.499,-24.276 -0.452,-0.377 -1.306,-1.31 -0.719,-1.932 0.69,-0.729 1.38,-1.46 2.069,-2.19 0.482,-0.51 1.306,0.097 1.678,0.419 l 11.965,10.38 c 3.035,2.632 6.065,5.269 9.097,7.904 2.029,1.763 4.096,3.51 5.661,5.628 0.305,0.413 -0.234,-0.269 0.091,0.121 0.043,0.052 0.087,0.105 0.131,0.157 0.066,0.08 0.132,0.159 0.198,0.238 0.067,0.08 0.135,0.157 0.161,0.262 0.07,0.28 -0.238,-0.305 -0.092,-0.178 0.337,0.293 0.021,0.594 -0.309,0.308 0.283,0.245 0.167,0.119 -0.105,-0.047 -0.41,-0.249 -0.322,-0.198 -0.592,-0.34 -0.931,-0.489 -1.858,-1.058 -2.713,-1.743 -2.841,-2.272 -5.535,-4.745 -8.282,-7.128 -5.188,-4.499 -10.37,-9.004 -15.553,-13.507 -0.306,-0.265 -0.611,-0.531 -0.916,-0.796 0.559,0.139 1.118,0.279 1.678,0.419 -0.691,0.729 -1.382,1.459 -2.073,2.188 -0.24,-0.644 -0.48,-1.287 -0.719,-1.931 5.326,4.453 10.509,9.056 15.676,13.691 4.662,4.182 9.541,8.105 14.231,12.251 C 0.139,-0.036 0.093,0.059 0,0"
             style="fill:#000000;fill-opacity:1;fill-rule:nonzero;stroke:none"
             id="path874" />
        </g>
        <g
           id="g876"
           transform="translate(94.8638,361.0073)">
          <path
             d="m 0,0 c 0.466,-5.427 0.294,-10.81 -0.023,-16.24 -0.304,-5.194 -0.847,-10.365 -1.769,-15.488 -0.206,-1.143 1.422,-0.344 1.556,0.389 1.898,10.416 2.327,20.97 0.36,31.413 C 0.112,0.136 -0.004,0.048 0,0"
             style="fill:#000000;fill-opacity:1;fill-rule:nonzero;stroke:none"
             id="path878" />
        </g>
        <g
           id="g880"
           transform="translate(123.665,361.0225)">
          <path
             d="m 0,0 c -1.562,-10.49 -1.05,-21.338 0.654,-31.781 0.239,0.239 0.477,0.477 0.716,0.716 l -0.152,0.003 c -0.306,0.004 -0.998,-0.588 -0.65,-0.903 8.853,-7.996 17.778,-15.911 26.781,-23.738 0.214,-0.187 0.429,-0.374 0.644,-0.56 0.327,-0.285 0.842,0.014 1.085,0.271 0.691,0.729 1.381,1.459 2.071,2.189 0.205,0.216 0.612,0.803 0.272,1.087 -9.815,8.213 -19.196,16.87 -29.446,24.553 -0.658,0.493 -1.987,-0.916 -1.375,-1.375 10.241,-7.691 19.636,-16.34 29.462,-24.537 0.09,0.362 0.181,0.725 0.271,1.087 -0.689,-0.73 -1.379,-1.46 -2.068,-2.19 0.361,0.091 0.723,0.181 1.085,0.271 -9.027,7.826 -18.12,15.574 -27.292,23.227 -0.22,0.183 -0.438,0.366 -0.657,0.548 -0.217,-0.301 -0.433,-0.601 -0.65,-0.902 0.051,10e-4 0.103,0.002 0.154,0.003 0.384,0.006 0.774,0.435 0.698,0.816 C -0.435,-20.98 -1.152,-10.333 0.124,0.045 0.133,0.116 0.007,0.049 0,0"
             style="fill:#000000;fill-opacity:1;fill-rule:nonzero;stroke:none"
             id="path882" />
        </g>
        <g
           id="g884"
           transform="translate(129.8833,361.8423)">
          <path
             d="m 0,0 c -6.213,5.557 -12.205,11.345 -18.685,16.605 -0.26,0.211 -0.647,0.086 -0.883,-0.104 -6.85,-5.508 -13.413,-11.377 -20.414,-16.696 -0.274,-0.207 -0.818,-0.788 -0.586,-1.191 0.491,-0.854 0.983,-1.708 1.475,-2.562 0.232,-0.405 0.726,-0.271 1.045,-0.029 6.344,4.823 12.287,10.147 18.496,15.14 -0.356,-0.042 -0.712,-0.084 -1.068,-0.126 5.972,-4.853 11.452,-10.466 17.749,-14.9 0.507,-0.357 1.218,0.107 1.503,0.56 0.351,0.556 0.769,1.122 0.993,1.741 0.127,0.35 0.253,0.698 0.38,1.047 0.044,0.123 0.229,0.531 0.111,0.353 0.25,0.376 -0.212,0.442 -0.406,0.15 -0.184,-0.277 -0.847,-0.818 -1.186,-1.151 -0.492,-0.481 -0.874,-1.068 -1.268,-1.63 0.501,0.186 1.002,0.373 1.503,0.56 -5.95,4.92 -11.733,10.06 -17.753,14.896 -0.314,0.253 -0.78,0.106 -1.067,-0.127 -6.206,-5.025 -12.099,-10.431 -18.442,-15.285 0.348,-0.009 0.696,-0.019 1.045,-0.028 -0.496,0.851 -0.992,1.702 -1.487,2.553 l -0.586,-1.191 c 6.992,5.347 13.543,11.244 20.384,16.779 -0.295,-0.034 -0.589,-0.07 -0.884,-0.104 C -13.485,10.003 -7.232,4.403 -0.174,-0.174 -0.092,-0.227 0.078,-0.069 0,0"
             style="fill:#000000;fill-opacity:1;fill-rule:nonzero;stroke:none"
             id="path886" />
        </g>
        <g
           id="g888"
           transform="translate(90.1538,361.3682)">
          <path
             d="m 0,0 c 7.052,4.854 13.507,10.479 20.172,15.837 -0.295,-0.035 -0.59,-0.069 -0.885,-0.105 6.632,-5.383 12.852,-11.27 19.633,-16.471 -0.005,0.244 -0.01,0.488 -0.016,0.732 -0.495,-0.852 -0.99,-1.705 -1.486,-2.557 0.491,0.239 0.981,0.478 1.472,0.717 C 32.759,2.858 27.217,8.265 21.222,13.136 20.91,13.39 20.442,13.239 20.157,13.009 13.941,8.01 7.914,2.786 1.687,-2.201 c 0.356,0.043 0.713,0.085 1.07,0.127 -0.336,0.466 -0.66,0.999 -1.125,1.342 -0.389,0.286 -1.15,0.64 -1.419,1.045 -0.144,0.217 -0.64,-0.24 -0.481,-0.48 0.275,-0.413 0.335,-1.298 0.467,-1.784 0.155,-0.574 0.518,-1.088 0.827,-1.593 0.275,-0.451 0.799,-0.302 1.171,-0.033 6.447,4.678 12.281,10.206 18.468,15.215 -0.356,-0.042 -0.711,-0.084 -1.066,-0.126 6.025,-4.84 11.677,-10.139 17.836,-14.814 0.548,-0.416 1.218,0.279 1.471,0.718 0.492,0.853 0.983,1.705 1.475,2.558 0.103,0.179 0.187,0.577 -0.016,0.732 C 33.553,5.874 27.299,11.729 20.636,17.081 20.375,17.291 19.988,17.168 19.75,16.976 13.013,11.524 6.583,5.714 -0.055,0.146 -0.147,0.069 -0.139,-0.096 0,0"
             style="fill:#000000;fill-opacity:1;fill-rule:nonzero;stroke:none"
             id="path890" />
        </g>
        <g
           id="g892"
           transform="translate(115.4751,338.0146)">
          <path
             d="m 0,0 c 0.802,1.63 0.816,3.866 0.892,5.652 0.094,2.212 0.034,4.42 -0.287,6.613 -0.532,3.632 -2.145,8.45 -6.591,8.294 -4.367,-0.153 -6.667,-4.785 -7.482,-8.486 -0.472,-2.144 -0.569,-4.373 -0.557,-6.561 0.006,-1.154 0.065,-2.306 0.134,-3.456 0.064,-1.043 0.452,-1.404 1.008,-2.224 0.103,-0.151 0.337,0.132 0.362,0.217 0.262,0.875 0.706,1.7 0.642,2.633 -0.062,0.908 -0.107,1.817 -0.138,2.727 -0.064,1.925 -0.028,3.869 0.232,5.78 0.436,3.195 2.002,8.328 6.238,7.188 3.419,-0.919 4.202,-6.184 4.502,-9.077 0.187,-1.809 0.22,-3.623 0.296,-5.438 C -0.701,2.73 -0.908,0.858 -0.185,-0.09 -0.133,-0.157 -0.021,-0.042 0,0"
             style="fill:#000000;fill-opacity:1;fill-rule:nonzero;stroke:none"
             id="path894" />
        </g>
        <g
           id="g896"
           transform="translate(98.7456,337.5645)">
          <path
             d="m 0,0 c 1.077,-0.779 3.095,-0.37 4.37,-0.37 1.801,-0.001 3.603,-0.001 5.405,-0.002 l 5.395,-0.002 c 1.695,0 3.33,-0.137 4.926,0.508 0.06,0.024 0.239,0.209 0.134,0.276 -1.156,0.748 -2.625,0.511 -3.949,0.51 -1.798,0 -3.596,-0.001 -5.394,-0.001 C 9.084,0.918 7.282,0.918 5.479,0.917 3.805,0.917 1.834,1.229 0.27,0.553 0.144,0.499 -0.203,0.147 0,0"
             style="fill:#000000;fill-opacity:1;fill-rule:nonzero;stroke:none"
             id="path898" />
        </g>
        <g
           id="g900"
           transform="translate(109.0249,357.4629)">
          <path
             d="m 0,0 c -0.308,-1.634 -0.192,-3.388 -0.199,-5.046 l -0.02,-5.426 c -0.007,-1.808 -0.013,-3.616 -0.019,-5.424 -0.002,-0.75 -0.001,-1.5 -0.023,-2.249 -0.019,-0.664 -0.243,-1.198 0.26,-1.683 0.154,-0.149 0.394,0.129 0.432,0.261 0.185,0.628 0.068,1.121 0.033,1.77 -0.04,0.74 0.011,1.5 0.008,2.242 -0.005,1.802 -0.012,3.605 -0.018,5.407 -0.007,1.802 -0.014,3.604 -0.021,5.406 -0.006,1.575 0.153,3.313 -0.2,4.855 C 0.205,0.237 0.012,0.062 0,0"
             style="fill:#000000;fill-opacity:1;fill-rule:nonzero;stroke:none"
             id="path902" />
        </g>
        <g
           id="g904"
           transform="translate(91.8564,281.7612)">
          <path
             d="m 0,0 c 0.667,1.014 0.708,2.479 0.822,3.657 0.165,1.697 0.14,3.42 -0.051,5.112 -0.313,2.748 -1.388,6.84 -4.753,6.984 -3.478,0.149 -5.81,-3.833 -6.665,-6.663 -0.5,-1.654 -0.647,-3.427 -0.698,-5.146 -0.025,-0.814 -0.002,-1.63 0.032,-2.443 0.039,-0.948 0.319,-1.045 0.952,-1.643 0.11,-0.104 0.302,0.069 0.343,0.168 0.209,0.507 0.536,0.983 0.669,1.517 0.151,0.602 0.006,1.332 -0.009,1.946 -0.038,1.46 0.024,2.928 0.251,4.371 0.37,2.366 2.031,7.09 5.288,5.553 2.176,-1.027 2.644,-4.859 2.836,-6.899 C -0.86,5.207 -0.82,3.896 -0.745,2.585 -0.706,1.906 -0.793,0.383 -0.168,-0.063 -0.111,-0.104 -0.033,-0.05 0,0"
             style="fill:#000000;fill-opacity:1;fill-rule:nonzero;stroke:none"
             id="path906" />
        </g>
        <g
           id="g908"
           transform="translate(79.5996,281.3804)">
          <path
             d="M 0,0 C 0.694,-0.674 2.011,-0.37 2.915,-0.37 4.23,-0.371 5.547,-0.372 6.863,-0.372 l 3.939,-0.002 c 1.078,-0.001 2.051,-0.058 2.983,0.532 0.079,0.05 0.151,0.165 0.094,0.252 C 13.398,1.155 12.192,0.921 11.424,0.92 10.11,0.92 8.797,0.919 7.483,0.919 6.167,0.918 4.85,0.917 3.533,0.917 2.406,0.917 1.293,1.072 0.27,0.553 0.125,0.48 -0.183,0.177 0,0"
             style="fill:#000000;fill-opacity:1;fill-rule:nonzero;stroke:none"
             id="path910" />
        </g>
        <g
           id="g912"
           transform="translate(86.6611,296.5552)">
          <path
             d="m 0,0 c -0.533,-2.499 -0.206,-5.342 -0.219,-7.89 -0.007,-1.457 -0.014,-2.915 -0.02,-4.373 -0.003,-0.761 -0.41,-2.326 0.221,-2.841 0.167,-0.137 0.385,0.119 0.433,0.26 0.292,0.864 0.062,2.003 0.058,2.923 -0.006,1.452 -0.013,2.903 -0.02,4.355 C 0.447,-6.277 0.44,-4.987 0.434,-3.697 0.428,-2.459 0.554,-1.09 0.233,0.113 0.2,0.238 0.013,0.061 0,0"
             style="fill:#000000;fill-opacity:1;fill-rule:nonzero;stroke:none"
             id="path914" />
        </g>
        <g
           id="g916"
           transform="translate(127.3203,281.7881)">
          <path
             d="M 0,0 C 0.493,0.845 0.499,2.009 0.559,2.967 0.644,4.328 0.673,5.688 0.786,7.048 0.95,9.032 1.344,13.844 4.161,13.671 7.051,13.493 8.419,9.565 8.882,7.258 9.171,5.819 9.203,4.318 9.194,2.856 9.189,2.178 9.12,1.497 9.149,0.82 c 0.02,-0.445 0.46,-0.67 0.702,-0.988 0.098,-0.13 0.302,0.094 0.344,0.167 0.399,0.701 0.89,1.252 0.931,2.095 0.04,0.808 0.061,1.614 0.056,2.423 C 11.171,6.248 10.977,7.973 10.563,9.654 9.808,12.716 7.434,16.228 3.857,15.623 0.797,15.105 -0.482,10.954 -0.868,8.383 -1.112,6.761 -1.119,5.135 -1.047,3.5 -1.009,2.638 -0.998,0.433 -0.185,-0.09 -0.112,-0.136 -0.035,-0.06 0,0"
             style="fill:#000000;fill-opacity:1;fill-rule:nonzero;stroke:none"
             id="path918" />
        </g>
        <g
           id="g920"
           transform="translate(138.9648,281.9272)">
          <path
             d="m 0,0 c -0.645,0.685 -1.976,0.37 -2.847,0.37 -1.285,0.001 -2.571,0.002 -3.857,0.002 -1.281,0.001 -2.563,0.002 -3.845,0.002 -0.879,0.001 -1.618,-0.026 -2.352,-0.532 -0.056,-0.038 -0.151,-0.149 -0.111,-0.225 0.343,-0.665 1.187,-0.535 1.841,-0.538 1.282,-0.005 2.565,0.002 3.847,0.002 1.286,0.001 2.573,0.002 3.859,0.002 1.104,0 2.2,-0.164 3.195,0.364 C -0.12,-0.473 0.175,-0.186 0,0"
             style="fill:#000000;fill-opacity:1;fill-rule:nonzero;stroke:none"
             id="path922" />
        </g>
        <g
           id="g924"
           transform="translate(132.1113,296.5552)">
          <path
             d="m 0,0 c -0.533,-2.499 -0.206,-5.342 -0.219,-7.89 -0.006,-1.296 -0.012,-2.591 -0.018,-3.887 -0.002,-0.6 -0.009,-1.2 -0.001,-1.8 0.008,-0.543 -0.232,-1.018 0.059,-1.488 0.101,-0.163 0.322,-0.017 0.4,0.1 0.523,0.79 0.258,1.639 0.254,2.56 -0.006,1.452 -0.012,2.904 -0.019,4.355 -0.008,1.451 -0.015,2.902 -0.022,4.353 -0.006,1.238 0.12,2.607 -0.201,3.81 C 0.2,0.238 0.013,0.061 0,0"
             style="fill:#000000;fill-opacity:1;fill-rule:nonzero;stroke:none"
             id="path926" />
        </g>
        <g
           id="g928"
           transform="translate(108.8086,328.126)">
          <path
             d="m 0,0 c -1.074,0.004 -1.844,0.039 -2.883,-0.301 -0.973,-0.318 -1.799,-0.893 -2.568,-1.555 -1.561,-1.343 -2.569,-3.284 -3.111,-5.243 -1.219,-4.404 0.659,-8.805 4.81,-10.725 5.304,-2.454 11.917,0.426 13.779,5.907 1.848,5.438 -1.921,10.739 -7.256,11.88 C 1.851,0.161 0.931,-0.038 0,0 -0.167,0.007 -0.355,-0.352 -0.162,-0.338 0.959,-0.26 2.106,-0.673 3.192,-0.995 4.287,-1.32 5.302,-1.871 6.21,-2.556 8.166,-4.03 9.212,-6.358 9.403,-8.757 c 0.217,-2.714 -1.18,-5.255 -3.3,-6.867 -2.189,-1.663 -5.2,-1.863 -7.764,-1.114 -3.99,1.165 -5.986,4.712 -5.652,8.699 0.32,3.827 3.186,7.319 7.151,7.701 C -0.025,-0.325 0.219,0 0,0"
             style="fill:#000000;fill-opacity:1;fill-rule:nonzero;stroke:none"
             id="path930" />
        </g>
        <g
           id="g932"
           transform="translate(109.2969,327.7432)">
          <path
             d="m 0,0 c 0,0.007 0.001,0.014 0.002,0.021 0.007,0.065 -0.106,-0.004 -0.11,-0.054 -0.079,-0.758 -0.085,-1.571 -0.32,-2.298 -0.452,-1.397 -0.151,-3.266 -0.149,-4.722 0.005,-3.546 -0.007,-7.092 0.043,-10.637 0.008,-0.594 0.968,0.027 0.962,0.462 -0.043,3.049 -0.044,6.098 -0.046,9.147 l -0.003,4.533 c -0.001,0.9 0.386,2.711 -0.312,3.373 -0.082,0.077 -0.209,-0.053 -0.243,-0.118 -0.567,-1.074 -0.308,-2.486 -0.309,-3.671 l -0.003,-4.535 c -0.003,-3.064 -0.004,-6.127 -0.046,-9.191 -0.008,-0.589 0.956,0.028 0.962,0.462 0.049,3.56 0.038,7.119 0.042,10.679 0.002,1.368 0.298,3.164 -0.106,4.481 -0.209,0.684 -0.28,1.374 -0.362,2.089 -0.008,0.069 -0.116,-0.003 -0.11,-0.054 0,-0.006 0.001,-0.012 0.002,-0.018 C -0.098,-0.123 -0.004,-0.041 0,0"
             style="fill:#000000;fill-opacity:1;fill-rule:nonzero;stroke:none"
             id="path934" />
        </g>
        <g
           id="g936"
           transform="translate(110.6211,310.0381)">
          <path
             d="M 0,0 C 1.074,-0.004 1.844,-0.039 2.882,0.301 3.855,0.619 4.681,1.193 5.45,1.855 7.011,3.199 8.018,5.14 8.561,7.099 9.779,11.504 7.902,15.904 3.751,17.824 -1.553,20.278 -8.167,17.397 -10.029,11.917 -11.876,6.478 -8.107,1.178 -2.771,0.037 -1.851,-0.161 -0.932,0.038 0,0 0.167,-0.007 0.355,0.352 0.162,0.338 -0.959,0.26 -2.107,0.673 -3.193,0.996 c -1.095,0.324 -2.111,0.875 -3.019,1.56 -1.955,1.474 -3.002,3.801 -3.193,6.2 -0.216,2.715 1.181,5.256 3.302,6.868 2.188,1.663 5.198,1.863 7.763,1.114 C 5.65,15.573 7.646,12.026 7.312,8.039 6.992,4.213 4.127,0.72 0.162,0.338 0.025,0.325 -0.219,0.001 0,0"
             style="fill:#000000;fill-opacity:1;fill-rule:nonzero;stroke:none"
             id="path938" />
        </g>
        <g
           id="g940"
           transform="translate(118.7236,318.9585)">
          <path
             d="m 0,0 c 0.006,0 0.013,-0.001 0.02,-0.002 0.05,-0.005 0.122,0.103 0.053,0.11 -0.679,0.075 -1.482,0.049 -2.11,0.325 -0.501,0.22 -1.15,0.128 -1.682,0.136 -0.974,0.016 -1.948,0.009 -2.922,0.008 -3.778,-0.005 -7.557,0.007 -11.336,-0.043 -0.434,-0.006 -1.052,-0.97 -0.462,-0.962 3.122,0.042 6.242,0.044 9.364,0.046 1.544,0.001 3.088,0.002 4.633,0.003 1.321,0.001 2.985,-0.309 4.187,0.309 0.065,0.033 0.198,0.164 0.119,0.243 -0.699,0.7 -2.51,0.311 -3.438,0.312 l -4.613,0.003 c -3.264,0.003 -6.526,0.003 -9.79,0.046 -0.435,0.006 -1.056,-0.954 -0.462,-0.962 3.765,-0.051 7.53,-0.038 11.295,-0.043 1.467,-0.002 3.328,-0.296 4.74,0.142 0.772,0.24 1.622,0.247 2.424,0.327 0.049,0.005 0.119,0.117 0.053,0.11 C 0.065,0.108 0.058,0.107 0.051,0.106 0.01,0.102 -0.072,0.008 0,0"
             style="fill:#000000;fill-opacity:1;fill-rule:nonzero;stroke:none"
             id="path942" />
        </g>
        <g
           id="g944"
           transform="translate(76.916,310.2075)">
          <path
             d="m 0,0 c 0.388,-2.062 0.718,-4.135 0.993,-6.214 0.231,-1.739 0.277,-3.475 0.726,-5.175 0.026,-0.098 0.178,0.038 0.187,0.091 C 2.505,-7.565 1.478,-3.36 0.214,0.153 0.171,0.274 -0.018,0.092 0,0"
             style="fill:#000000;fill-opacity:1;fill-rule:nonzero;stroke:none"
             id="path946" />
        </g>
        <g
           id="g948"
           transform="translate(78.2158,311.4702)">
          <path
             d="M 0,0 C 0.642,0.448 1.242,1.09 1.659,1.75 1.718,1.842 1.655,1.902 1.563,1.845 0.913,1.443 0.083,0.828 -0.12,0.046 -0.142,-0.039 -0.048,-0.034 0,0"
             style="fill:#000000;fill-opacity:1;fill-rule:nonzero;stroke:none"
             id="path950" />
        </g>
        <g
           id="g952"
           transform="translate(87.1006,318.8296)">
          <path
             d="M 0,0 C 1.483,1.173 2.839,2.582 4.19,3.906 5.262,4.958 6.847,6.224 7.257,7.725 7.283,7.818 7.178,7.813 7.126,7.776 5.738,6.768 4.764,5.14 3.585,3.897 2.378,2.625 1,1.465 -0.096,0.096 -0.163,0.012 -0.083,-0.066 0,0"
             style="fill:#000000;fill-opacity:1;fill-rule:nonzero;stroke:none"
             id="path954" />
        </g>
        <g
           id="g956"
           transform="translate(123.6265,326.1934)">
          <path
             d="m 0,0 c 2.069,-3.236 4.895,-6.021 7.564,-8.764 2.517,-2.587 5.272,-5.269 8.66,-6.638 0.093,-0.037 0.291,0.157 0.195,0.229 -2.931,2.171 -5.788,4.302 -8.394,6.871 C 5.284,-5.601 2.638,-2.789 0.133,0.133 0.082,0.192 -0.04,0.063 0,0"
             style="fill:#000000;fill-opacity:1;fill-rule:nonzero;stroke:none"
             id="path958" />
        </g>
        <g
           id="g960"
           transform="translate(141.8364,307.5923)">
          <path
             d="m 0,0 c -0.524,-1.094 -0.705,-2.286 -0.897,-3.475 -0.182,-1.12 -0.406,-2.191 -0.244,-3.324 0.023,-0.164 0.226,-0.014 0.263,0.066 0.474,1.013 0.67,2.003 0.808,3.107 0.148,1.184 0.421,2.479 0.233,3.667 C 0.147,0.142 0.024,0.05 0,0"
             style="fill:#000000;fill-opacity:1;fill-rule:nonzero;stroke:none"
             id="path962" />
        </g>
        <g
           id="g964"
           transform="translate(140.0449,308.8481)">
          <path
             d="m 0,0 c -0.416,-0.828 -0.598,-1.723 -0.543,-2.64 0.005,-0.1 0.139,0.007 0.152,0.056 0.221,0.835 0.631,1.739 0.545,2.623 C 0.145,0.137 0.021,0.042 0,0"
             style="fill:#000000;fill-opacity:1;fill-rule:nonzero;stroke:none"
             id="path966" />
        </g>
        <g
           id="g968"
           transform="translate(74.4126,271.3467)">
          <path
             d="m 0,0 c 3.953,0.966 7.814,1.743 11.867,2.233 2.337,0.283 4.684,0.486 7.034,0.629 1.035,0.064 2.072,0.113 3.108,0.153 0.912,0.034 1.882,-0.084 2.703,0.376 0.053,0.029 0.146,0.119 0.091,0.184 -0.455,0.531 -1.442,0.313 -2.06,0.296 C 21.594,3.839 20.447,3.776 19.301,3.694 16.905,3.524 14.515,3.269 12.133,2.958 9.857,2.661 7.592,2.239 5.35,1.75 3.57,1.362 1.655,0.967 0.018,0.143 -0.032,0.118 -0.108,-0.026 0,0"
             style="fill:#000000;fill-opacity:1;fill-rule:nonzero;stroke:none"
             id="path970" />
        </g>
        <g
           id="g972"
           transform="translate(121.0415,275.0898)">
          <path
             d="m 0,0 c 1.895,-0.283 3.888,-0.208 5.802,-0.348 2.245,-0.164 4.484,-0.407 6.715,-0.704 2.233,-0.296 4.452,-0.725 6.648,-1.221 1.719,-0.39 3.444,-1.146 5.224,-1.007 0.098,0.008 0.302,0.169 0.2,0.279 -1.13,1.219 -3.261,1.301 -4.81,1.584 -2.179,0.399 -4.375,0.667 -6.573,0.925 -2.254,0.264 -4.515,0.466 -6.78,0.605 C 4.351,0.241 2.143,0.461 0.073,0.2 -0.002,0.19 -0.123,0.019 0,0"
             style="fill:#000000;fill-opacity:1;fill-rule:nonzero;stroke:none"
             id="path974" />
        </g>
        <g
           id="g976"
           transform="translate(140.064,275.3857)">
          <path
             d="m 0,0 c 0.798,-0.269 1.635,-0.388 2.452,-0.587 0.791,-0.194 1.606,-0.554 2.423,-0.424 0.065,0.01 0.167,0.12 0.112,0.185 C 4.466,-0.201 3.257,-0.135 2.496,0.009 1.681,0.163 0.897,0.259 0.072,0.15 0.028,0.144 -0.077,0.026 0,0"
             style="fill:#000000;fill-opacity:1;fill-rule:nonzero;stroke:none"
             id="path978" />
        </g>
        <g
           id="g980"
           transform="translate(79.3232,274.8584)">
          <path
             d="m 0,0 c -1.504,-0.174 -3.393,-0.441 -4.582,-1.45 -0.063,-0.054 -0.178,-0.217 -0.03,-0.242 0.588,-0.098 1.104,0.163 1.641,0.375 0.956,0.377 1.921,0.739 2.887,1.089 C -0.021,-0.206 0.148,0.018 0,0"
             style="fill:#000000;fill-opacity:1;fill-rule:nonzero;stroke:none"
             id="path982" />
        </g>
        <g
           id="g984"
           transform="translate(77.4053,270.793)">
          <path
             d="m 0,0 c -1.208,-0.284 -2.579,-0.518 -3.638,-1.189 -0.035,-0.023 -0.118,-0.167 -0.019,-0.159 1.202,0.109 2.56,0.636 3.636,1.179 C 0.037,-0.14 0.128,0.03 0,0"
             style="fill:#000000;fill-opacity:1;fill-rule:nonzero;stroke:none"
             id="path986" />
        </g>
        <g
           id="g988"
           transform="translate(102.4976,286.7881)">
          <path
             d="M 0,0 C 0.555,4.349 1.904,8.223 3.942,12.097 3.996,12.199 3.859,12.173 3.818,12.118 2.543,10.409 1.732,8.414 1.026,6.413 0.321,4.413 -0.392,2.09 -0.152,-0.056 -0.142,-0.15 -0.007,-0.057 0,0"
             style="fill:#000000;fill-opacity:1;fill-rule:nonzero;stroke:none"
             id="path990" />
        </g>
        <g
           id="g992"
           transform="translate(102.3193,284.9487)">
          <path
             d="m 0,0 c -0.087,-0.518 -0.248,-1.04 -0.062,-1.553 0.03,-0.081 0.139,0.033 0.15,0.072 C 0.25,-0.95 0.296,-0.475 0.209,0.077 0.188,0.208 0.013,0.078 0,0"
             style="fill:#000000;fill-opacity:1;fill-rule:nonzero;stroke:none"
             id="path994" />
        </g>
        <g
           id="g996"
           transform="translate(118.1216,279.9907)">
          <path
             d="m 0,0 c 0.148,-1.77 0.205,-3.552 0.223,-5.328 0.017,-1.561 -0.182,-3.244 0.088,-4.781 0.027,-0.151 0.277,0.06 0.29,0.14 0.242,1.574 0.111,3.268 0.074,4.858 C 0.633,-3.358 0.493,-1.636 0.193,0.093 0.172,0.215 -0.007,0.085 0,0"
             style="fill:#000000;fill-opacity:1;fill-rule:nonzero;stroke:none"
             id="path998" />
        </g>
        <g
           id="g1000"
           transform="translate(117.9497,283.5151)">
          <path
             d="m 0,0 c -0.085,-0.53 -0.15,-1.242 0.114,-1.729 0.035,-0.065 0.118,0.024 0.131,0.063 0.192,0.568 0.062,1.182 -0.068,1.752 C 0.156,0.179 0.008,0.049 0,0"
             style="fill:#000000;fill-opacity:1;fill-rule:nonzero;stroke:none"
             id="path1002" />
        </g>
        <g
           id="g1004"
           transform="translate(143.2119,266.1514)">
          <path
             d="M 0,0 C 0.36,-0.139 0.678,-0.288 1.058,-0.386 1.459,-0.49 1.829,-0.49 2.24,-0.491 c 0.068,0 0.218,0.127 0.142,0.198 C 1.717,0.332 0.927,0.2 0.08,0.133 0.037,0.13 -0.074,0.029 0,0"
             style="fill:#000000;fill-opacity:1;fill-rule:nonzero;stroke:none"
             id="path1006" />
        </g>
        <g
           id="g1008"
           transform="translate(141.5767,266.3027)">
          <path
             d="m 0,0 c 0.332,-0.105 0.584,-0.165 0.934,-0.149 0.038,0.002 0.13,0.075 0.084,0.117 C 0.734,0.228 0.462,0.247 0.09,0.187 0.037,0.179 -0.097,0.031 0,0"
             style="fill:#000000;fill-opacity:1;fill-rule:nonzero;stroke:none"
             id="path1010" />
        </g>
        <g
           id="g1012"
           transform="translate(88.5771,256.0713)">
          <path
             d="M 0,0 C 1.777,0.415 3.613,0.459 5.385,0.897 5.448,0.913 5.579,1.079 5.455,1.087 3.619,1.211 1.729,0.848 0.022,0.179 -0.048,0.151 -0.13,-0.03 0,0"
             style="fill:#000000;fill-opacity:1;fill-rule:nonzero;stroke:none"
             id="path1014" />
        </g>
        <g
           id="g1016"
           transform="translate(129.3623,256.1797)">
          <path
             d="M 0,0 C 0.381,-0.333 0.693,-0.567 1.186,-0.725 1.793,-0.92 2.3,-0.87 2.919,-0.755 c 0.06,0.01 0.206,0.147 0.128,0.212 C 2.626,-0.201 2.309,-0.025 1.769,0.088 1.203,0.207 0.687,0.19 0.117,0.162 0.064,0.159 -0.065,0.057 0,0"
             style="fill:#000000;fill-opacity:1;fill-rule:nonzero;stroke:none"
             id="path1018" />
        </g>
        <g
           id="g1020"
           transform="translate(126.957,256.4448)">
          <path
             d="m 0,0 c 0.383,-0.243 0.82,-0.317 1.269,-0.282 0.049,0.004 0.198,0.115 0.123,0.17 C 1.014,0.167 0.55,0.204 0.096,0.161 0.036,0.156 -0.081,0.051 0,0"
             style="fill:#000000;fill-opacity:1;fill-rule:nonzero;stroke:none"
             id="path1022" />
        </g>
        <g
           id="g1024"
           transform="translate(97.4697,359.1323)">
          <path
             d="M 0,0 C 1.902,0.684 3.525,2.109 5.09,3.346 6.8,4.697 8.395,6 9.8,7.661 9.869,7.741 9.819,7.866 9.708,7.805 7.891,6.801 6.386,5.514 4.771,4.211 3.145,2.899 1.364,1.678 -0.018,0.1 -0.042,0.074 -0.076,-0.027 0,0"
             style="fill:#000000;fill-opacity:1;fill-rule:nonzero;stroke:none"
             id="path1026" />
        </g>
        <g
           id="g1028"
           transform="translate(108.4541,367.8545)">
          <path
             d="M 0,0 C 0.209,0.165 0.495,0.246 0.717,0.413 0.997,0.622 1.167,0.916 1.336,1.214 1.37,1.275 1.337,1.338 1.265,1.323 0.858,1.238 0.577,1.117 0.272,0.824 0.011,0.573 -0.022,0.355 -0.083,0.032 -0.095,-0.025 -0.036,-0.028 0,0"
             style="fill:#000000;fill-opacity:1;fill-rule:nonzero;stroke:none"
             id="path1030" />
        </g>
        <g
           id="g1032"
           transform="translate(112.688,366.248)">
          <path
             d="m 0,0 c 0.48,-1.52 2.005,-2.51 3.127,-3.559 0.764,-0.714 1.551,-1.391 2.36,-2.054 0.716,-0.585 1.378,-1.409 2.27,-1.677 0.118,-0.035 0.304,0.133 0.256,0.256 -0.298,0.766 -1.004,1.156 -1.631,1.665 -0.838,0.68 -1.676,1.354 -2.475,2.08 C 2.661,-2.158 1.453,-0.916 0.105,0.09 0.06,0.124 -0.015,0.048 0,0"
             style="fill:#000000;fill-opacity:1;fill-rule:nonzero;stroke:none"
             id="path1034" />
        </g>
        <g
           id="g1036"
           transform="translate(58.356,254.0376)">
          <path
             d="m 0,0 c 3.042,1.165 6.179,2.152 9.348,2.906 3.131,0.745 6.358,1.061 9.467,1.877 C 18.897,4.804 19.078,5.03 18.91,5.04 15.789,5.209 12.546,4.382 9.535,3.656 6.215,2.855 3.031,1.687 -0.002,0.127 -0.066,0.094 -0.111,-0.042 0,0"
             style="fill:#000000;fill-opacity:1;fill-rule:nonzero;stroke:none"
             id="path1038" />
        </g>
        <g
           id="g1040"
           transform="translate(71.9458,255.7891)">
          <path
             d="M 0,0 C 1.898,0.177 3.668,0.586 5.437,1.287 5.5,1.312 5.576,1.47 5.457,1.448 3.639,1.109 1.852,0.743 0.077,0.209 0.013,0.19 -0.133,-0.012 0,0"
             style="fill:#000000;fill-opacity:1;fill-rule:nonzero;stroke:none"
             id="path1042" />
        </g>
        <g
           id="g1044"
           transform="translate(144.1143,258.3662)">
          <path
             d="m 0,0 c 2.71,-0.44 5.383,-1.115 8.031,-1.835 2.769,-0.753 5.412,-1.794 8.216,-2.39 0.135,-0.029 0.435,0.205 0.291,0.343 -2.084,1.993 -4.983,2.568 -7.747,3.108 C 5.917,-0.213 3.002,0 0.084,0.174 0.007,0.178 -0.11,0.018 0,0"
             style="fill:#000000;fill-opacity:1;fill-rule:nonzero;stroke:none"
             id="path1046" />
        </g>
        <g
           id="g1048"
           transform="translate(143.7109,255.6396)">
          <path
             d="M 0,0 C 1.787,-0.436 3.603,-0.714 5.408,-1.045 5.483,-1.059 5.635,-0.91 5.535,-0.868 3.801,-0.145 2.04,0.269 0.147,0.247 0.063,0.246 -0.135,0.033 0,0"
             style="fill:#000000;fill-opacity:1;fill-rule:nonzero;stroke:none"
             id="path1050" />
        </g>
        <g
           id="g1052"
           transform="translate(109.353,376.9761)">
          <path
             d="m 0,0 c 0.134,3.917 -0.076,7.837 -0.047,11.755 0.001,0.095 -0.068,0.159 -0.161,0.161 -0.766,0.017 -1.529,0.065 -2.293,0.115 -0.413,0.026 -1.146,-0.197 -1.143,0.138 0.006,0.653 0.012,1.306 0.019,1.958 l -0.542,-0.542 c 1.208,-0.027 2.411,-0.142 3.618,-0.169 0.287,-0.006 0.589,0.314 0.594,0.594 0.024,1.263 0.124,2.523 0.148,3.787 C -0.022,17.581 -0.239,17.365 -0.455,17.149 0.194,17.135 0.843,17.145 1.492,17.143 1.568,17.142 1.644,17.142 1.72,17.142 1.356,17.143 1.552,16.198 1.56,16.04 1.583,15.496 1.873,14.299 1.632,13.822 1.543,13.646 1.553,13.358 1.813,13.36 2.582,13.368 3.347,13.406 4.114,13.445 4.412,13.46 4.71,13.472 5.008,13.479 5.246,13.486 5.2,13.885 5.199,13.465 5.196,12.814 5.194,12.164 5.192,11.514 5.427,11.748 5.661,11.982 5.895,12.216 4.684,12.204 3.477,12.104 2.266,12.093 1.922,12.089 1.548,11.719 1.547,11.374 1.542,9.392 1.594,7.407 1.547,5.426 1.504,3.635 0.981,1.373 1.752,-0.302 1.92,-0.665 2.388,-0.159 2.45,0.035 3.02,1.816 2.682,3.661 2.604,5.494 2.515,7.607 2.526,9.726 2.519,11.84 l -0.72,-0.719 c 1.215,0.019 2.425,0.126 3.64,0.146 0.335,0.005 0.704,0.363 0.703,0.703 -0.003,0.735 -0.005,1.47 -0.007,2.206 -10e-4,0.139 -0.102,0.245 -0.243,0.243 -1.215,-0.02 -2.425,-0.127 -3.64,-0.146 0.061,-0.153 0.121,-0.308 0.181,-0.461 0.201,0.403 0.115,0.839 0.099,1.28 C 2.5,15.996 2.425,16.896 2.411,17.8 2.408,17.934 2.315,18.032 2.18,18.031 1.442,18.029 0.704,18.039 -0.034,18.024 -0.343,18.018 -0.682,17.69 -0.682,17.376 c 0,-1.251 -0.075,-2.501 -0.075,-3.752 0.198,0.198 0.396,0.396 0.594,0.594 -1.219,0.003 -2.434,0.095 -3.652,0.099 -0.257,10e-4 -0.544,-0.284 -0.542,-0.542 0.007,-0.733 0.014,-1.466 0.022,-2.199 0.001,-0.104 0.074,-0.179 0.178,-0.179 0.46,-10e-4 3.49,0.153 3.497,-0.416 C -0.645,9.761 -0.605,8.54 -0.553,7.32 -0.447,4.845 -0.318,2.37 -0.219,-0.105 -0.213,-0.246 -0.003,-0.093 0,0"
             style="fill:#000000;fill-opacity:1;fill-rule:nonzero;stroke:none"
             id="path1054" />
        </g>
        <g
           id="g1056"
           transform="translate(111.627,312.4902)">
          <path
             d="M 0,0 C 0.973,-0.067 2.155,0.879 2.837,1.488 3.387,1.979 4.686,3.091 4.469,3.938 4.447,4.027 4.316,3.95 4.284,3.917 4.03,3.659 3.897,3.375 3.711,3.065 3.38,2.518 2.907,2.055 2.422,1.645 1.686,1.021 0.793,0.69 0.018,0.142 -0.019,0.116 -0.087,0.006 0,0"
             style="fill:#000000;fill-opacity:1;fill-rule:nonzero;stroke:none"
             id="path1058" />
        </g>
        <g
           id="g1060"
           transform="translate(103.5898,322.2476)">
          <path
             d="M 0,0 C 0.829,0.49 1.504,1.194 2.277,1.764 2.896,2.22 3.579,2.539 4.311,2.76 4.888,2.934 5.334,2.89 5.857,3.186 5.924,3.223 6.07,3.359 5.984,3.445 5.274,4.152 3.477,3.149 2.772,2.752 1.673,2.133 0.525,1.206 -0.086,0.086 -0.121,0.021 -0.066,-0.039 0,0"
             style="fill:#000000;fill-opacity:1;fill-rule:nonzero;stroke:none"
             id="path1062" />
        </g>
        <g
           id="g1064"
           transform="translate(105.0244,348.001)">
          <path
             d="M 0,0 C 0.32,0.92 0.485,1.896 0.766,2.831 1.102,3.949 1.714,4.887 2.308,5.878 2.37,5.98 2.276,6.017 2.2,5.946 0.668,4.513 -0.105,1.985 -0.181,-0.066 -0.185,-0.187 -0.017,-0.05 0,0"
             style="fill:#000000;fill-opacity:1;fill-rule:nonzero;stroke:none"
             id="path1066" />
        </g>
        <g
           id="g1068"
           transform="translate(113.0186,342.0337)">
          <path
             d="M 0,0 C -0.079,-0.571 -0.111,-1.135 -0.115,-1.711 -0.122,-2.531 -0.266,-3.319 -0.291,-4.13 -0.31,-4.77 0.87,-4.146 0.81,-3.602 0.313,-4.262 0.225,-4.444 0.543,-4.149 c 0.082,0.081 0.148,0.173 0.199,0.276 0.152,0.317 0.035,0.657 -0.116,0.943 -0.171,0.328 -0.187,0.817 -0.255,1.177 -0.114,0.597 -0.163,1.21 -0.2,1.816 C 0.165,0.169 0.009,0.062 0,0"
             style="fill:#000000;fill-opacity:1;fill-rule:nonzero;stroke:none"
             id="path1070" />
        </g>
      </g>
    </g>
    <g
       id="g1076"
       transform="matrix(1.4276753,0,0,-1.4276753,-39.221322,555.70808)">
      <g
         id="g1078"
         clip-path="url(#clipPath1082)">
        <g
           id="g1084"
           transform="translate(46.8135,300.6138)">
          <path
             d="M 0,0 C 0.22,0.022 0.509,0.112 0.867,0.267 1.225,0.423 1.538,0.608 1.807,0.822 2.467,1.346 2.609,1.845 2.233,2.317 2.127,2.452 1.993,2.507 1.83,2.484 1.668,2.46 1.518,2.392 1.377,2.28 1.344,2.082 1.256,1.928 1.116,1.817 0.695,1.482 0.249,1.337 -0.225,1.381 -0.429,1.398 -0.644,1.461 -0.864,1.565 -1.086,1.67 -1.348,1.833 -1.649,2.05 -1.951,2.268 -2.392,2.742 -2.973,3.473 l -2.67,3.526 -0.07,0.087 c -0.456,0.563 -0.952,1.337 -1.487,2.322 -0.279,0.521 -0.458,1.009 -0.532,1.464 -0.07,0.46 0.018,0.786 0.264,0.981 l 0.842,0.668 c 0.105,0.095 0.156,0.219 0.153,0.373 -0.003,0.155 -0.053,0.293 -0.151,0.416 -0.097,0.122 -0.227,0.192 -0.387,0.209 -0.16,0.015 -0.334,-0.052 -0.521,-0.2 -0.777,-0.617 -1.239,-1.356 -1.385,-2.216 -0.114,-0.624 0.063,-1.446 0.529,-2.467 0.372,-0.829 1.26,-2.126 2.661,-3.89 l 0.341,-0.43 0.844,-1.045 C -2.717,0.973 -1.204,-0.117 0,0 Z"
             style="fill:none;stroke:#000000;stroke-width:0.5;stroke-linecap:butt;stroke-linejoin:miter;stroke-miterlimit:10;stroke-dasharray:none;stroke-opacity:1"
             id="path1086" />
        </g>
        <g
           id="g1088"
           transform="translate(43.2007,316.9155)">
          <path
             d="m 0,0 c -0.14,-0.111 -0.217,-0.26 -0.231,-0.448 -0.014,-0.187 0.035,-0.35 0.147,-0.491 L 3.255,-4.891 C 3.315,-4.967 3.57,-5.336 4.021,-6 L 4.09,-6.086 c 0.064,-0.045 0.321,-0.351 0.771,-0.918 l 2.12,-2.777 c 0.599,-0.754 1.116,-1.313 1.553,-1.677 0.435,-0.363 0.774,-0.45 1.014,-0.259 0.163,0.129 0.237,0.296 0.22,0.496 -0.017,0.201 -0.093,0.387 -0.227,0.556 l -2.452,2.871 -1.636,2.061 1.29,0.752 c 0.117,0.092 0.215,0.19 0.297,0.293 l 0.013,-0.018 0.238,-0.083 0.384,-0.538 0.056,-0.07 c 0.07,-0.088 0.319,-0.414 0.748,-0.978 0.245,-0.321 0.464,-0.603 0.659,-0.849 0.139,-0.185 0.266,-0.346 0.383,-0.483 0.272,-0.317 0.601,-0.687 0.989,-1.108 0.387,-0.423 0.718,-0.71 0.992,-0.863 0.275,-0.155 0.49,-0.169 0.644,-0.046 0.155,0.123 0.257,0.282 0.307,0.478 0.048,0.196 0.034,0.345 -0.045,0.443 -0.079,0.1 -1.363,1.599 -3.851,4.498 C 6.069,-1.406 4.208,0.821 2.974,2.376 2.923,2.355 2.851,2.332 2.758,2.305 2.665,2.279 2.582,2.251 2.51,2.222 2.437,2.193 2.354,2.141 2.261,2.066 2.167,1.992 2.104,1.869 2.071,1.695 2.038,1.521 2.074,1.367 2.181,1.232 2.636,0.659 3.352,-0.162 4.329,-1.23 5.305,-2.298 5.927,-2.999 6.191,-3.332 6.456,-3.665 6.594,-3.87 6.606,-3.946 L 5.958,-4.461 C 5.52,-4.809 5.169,-5.04 4.906,-5.153 L 1.418,-0.617 C 0.853,0.096 0.38,0.302 0,0 Z"
             style="fill:none;stroke:#000000;stroke-width:0.5;stroke-linecap:butt;stroke-linejoin:miter;stroke-miterlimit:10;stroke-dasharray:none;stroke-opacity:1"
             id="path1090" />
        </g>
        <g
           id="g1092"
           transform="translate(55.7725,323.0249)">
          <path
             d="M 0,0 -1.312,1.903 C -1.508,2.139 -1.687,2.311 -1.85,2.419 -1.959,2.485 -2.071,2.511 -2.184,2.498 -2.308,2.486 -2.45,2.415 -2.61,2.287 -2.771,2.16 -2.855,2.035 -2.864,1.915 -2.873,1.793 -2.821,1.663 -2.71,1.522 l 0.246,-0.291 0.8,-1.008 c 5.11,-6.435 7.239,-9.992 6.386,-10.67 -0.76,-0.603 -1.488,-0.466 -2.185,0.411 -0.339,0.427 -0.885,1.028 -1.638,1.801 -0.753,0.775 -1.298,1.375 -1.637,1.801 l -3.878,4.884 c -0.195,0.245 -0.435,0.434 -0.72,0.565 -0.286,0.131 -0.5,0.14 -0.643,0.027 -0.144,-0.114 -0.17,-0.342 -0.082,-0.681 l 2.119,-2.506 c 1.485,-1.871 2.628,-3.295 3.43,-4.274 0.801,-0.979 1.555,-1.812 2.263,-2.499 0.458,-0.446 1.037,-0.802 1.733,-1.068 0.677,-0.263 1.311,-0.156 1.902,0.325 1.543,1.225 0.206,4.493 -4.013,9.807 l -0.261,0.292 z"
             style="fill:none;stroke:#000000;stroke-width:0.5;stroke-linecap:butt;stroke-linejoin:miter;stroke-miterlimit:10;stroke-dasharray:none;stroke-opacity:1"
             id="path1094" />
        </g>
        <g
           id="g1096"
           transform="translate(59.5845,327.9961)">
          <path
             d="m 0,0 c 0.207,-0.141 0.38,-0.281 0.521,-0.422 0.14,-0.14 0.341,-0.376 0.601,-0.703 0.26,-0.327 0.548,-0.867 0.865,-1.621 0.317,-0.754 0.394,-1.315 0.23,-1.683 -0.334,0.421 -0.882,1.085 -1.64,1.992 -0.76,0.908 -1.334,1.607 -1.723,2.099 l -0.141,0.303 C -0.853,0.282 -0.423,0.293 0,0 Z m 3.06,-5.204 c 0.265,-0.142 1.463,-1.116 3.593,-2.922 0.697,-0.59 1.389,-1.082 2.077,-1.473 0.689,-0.393 1.158,-0.488 1.41,-0.289 0.123,0.097 0.184,0.22 0.186,0.368 0,0.149 -0.051,0.289 -0.156,0.421 -0.104,0.131 -0.31,0.266 -0.619,0.402 C 8.475,-8.219 7.021,-7.186 5.19,-5.6 4.349,-4.876 3.78,-4.394 3.483,-4.153 3.473,-4.104 3.429,-3.855 3.35,-3.408 3.271,-2.961 3.183,-2.544 3.086,-2.159 2.99,-1.773 2.805,-1.408 2.531,-1.063 L 1.528,0.2 C 1.045,0.807 0.461,1.105 -0.225,1.094 -0.912,1.082 -1.568,0.828 -2.193,0.332 c -0.398,-0.316 -0.371,-0.758 0.079,-1.324 0.859,-1.081 2.209,-2.677 4.052,-4.789 1.843,-2.11 3.03,-3.499 3.561,-4.169 0.531,-0.669 1.005,-1.277 1.42,-1.823 l 0.446,-0.076 0.5,0.397 -0.182,0.642 c -0.951,0.73 -2.057,1.888 -3.314,3.472 l -1.528,1.96 z"
             style="fill:none;stroke:#000000;stroke-width:0.5;stroke-linecap:butt;stroke-linejoin:miter;stroke-miterlimit:10;stroke-dasharray:none;stroke-opacity:1"
             id="path1098" />
        </g>
        <g
           id="g1100"
           transform="translate(73.4673,321.7798)">
          <path
             d="M 0,0 C 0.22,0.022 0.509,0.111 0.867,0.267 1.225,0.423 1.538,0.608 1.807,0.821 2.467,1.346 2.609,1.844 2.233,2.317 2.127,2.452 1.992,2.507 1.83,2.484 1.668,2.46 1.517,2.391 1.376,2.28 1.343,2.082 1.256,1.928 1.116,1.816 0.695,1.482 0.248,1.337 -0.225,1.38 -0.43,1.398 -0.644,1.46 -0.865,1.565 -1.086,1.67 -1.349,1.833 -1.649,2.05 -1.951,2.268 -2.392,2.742 -2.973,3.473 l -2.671,3.525 -0.069,0.088 c -0.456,0.563 -0.952,1.336 -1.487,2.322 -0.28,0.521 -0.458,1.009 -0.533,1.463 -0.069,0.461 0.019,0.787 0.265,0.982 l 0.841,0.668 c 0.106,0.094 0.157,0.219 0.154,0.373 -0.004,0.154 -0.054,0.293 -0.152,0.416 -0.097,0.122 -0.226,0.191 -0.386,0.209 -0.16,0.015 -0.334,-0.052 -0.521,-0.2 -0.778,-0.617 -1.239,-1.356 -1.385,-2.216 -0.114,-0.624 0.062,-1.447 0.529,-2.467 0.372,-0.829 1.26,-2.126 2.661,-3.89 l 0.341,-0.43 0.844,-1.045 C -2.717,0.973 -1.204,-0.117 0,0 Z"
             style="fill:none;stroke:#000000;stroke-width:0.5;stroke-linecap:butt;stroke-linejoin:miter;stroke-miterlimit:10;stroke-dasharray:none;stroke-opacity:1"
             id="path1102" />
        </g>
        <g
           id="g1104"
           transform="translate(69.854,338.0811)">
          <path
             d="m 0,0 c -0.14,-0.111 -0.217,-0.26 -0.231,-0.447 -0.013,-0.188 0.035,-0.351 0.147,-0.492 L 3.255,-4.891 C 3.315,-4.967 3.57,-5.336 4.021,-6 L 4.09,-6.086 c 0.064,-0.045 0.321,-0.351 0.771,-0.918 l 2.12,-2.777 c 0.599,-0.754 1.116,-1.313 1.553,-1.677 0.436,-0.363 0.774,-0.45 1.014,-0.259 0.163,0.13 0.237,0.296 0.22,0.496 -0.017,0.201 -0.093,0.387 -0.227,0.557 l -2.452,2.871 -1.635,2.06 1.289,0.752 c 0.117,0.093 0.215,0.19 0.297,0.293 l 0.013,-0.018 0.238,-0.083 0.384,-0.538 0.056,-0.07 c 0.07,-0.088 0.319,-0.414 0.748,-0.978 0.246,-0.321 0.465,-0.603 0.66,-0.849 0.138,-0.185 0.265,-0.346 0.383,-0.482 0.271,-0.318 0.601,-0.688 0.988,-1.109 0.387,-0.423 0.718,-0.71 0.992,-0.863 0.275,-0.155 0.49,-0.169 0.645,-0.046 0.154,0.123 0.256,0.282 0.306,0.479 0.049,0.195 0.034,0.344 -0.045,0.442 -0.079,0.1 -1.363,1.6 -3.851,4.498 C 6.069,-1.406 4.208,0.821 2.974,2.376 2.923,2.355 2.852,2.332 2.758,2.305 2.665,2.279 2.582,2.251 2.51,2.223 2.437,2.193 2.354,2.141 2.261,2.067 2.167,1.993 2.104,1.869 2.071,1.695 2.038,1.521 2.074,1.367 2.181,1.232 2.636,0.659 3.352,-0.161 4.329,-1.229 5.305,-2.298 5.927,-2.999 6.191,-3.332 6.456,-3.665 6.594,-3.87 6.607,-3.946 L 5.958,-4.461 C 5.52,-4.809 5.169,-5.04 4.906,-5.153 L 1.419,-0.617 C 0.853,0.096 0.38,0.302 0,0 Z"
             style="fill:none;stroke:#000000;stroke-width:0.5;stroke-linecap:butt;stroke-linejoin:miter;stroke-miterlimit:10;stroke-dasharray:none;stroke-opacity:1"
             id="path1106" />
        </g>
      </g>
    </g>
  </g>
</svg>
