<?xml version="1.0" encoding="UTF-8" standalone="no"?>
<!-- Created with Inkscape (http://www.inkscape.org/) -->

<svg
   width="800"
   height="800"
   viewBox="-400 -400 800 800"
   version="1.1"
   id="svg19173"
   inkscape:version="1.1.2 (b8e25be833, 2022-02-05)"
   sodipodi:docname="juegos.svg"
   xmlns:inkscape="http://www.inkscape.org/namespaces/inkscape"
   xmlns:sodipodi="http://sodipodi.sourceforge.net/DTD/sodipodi-0.dtd"
   xmlns="http://www.w3.org/2000/svg"
   xmlns:svg="http://www.w3.org/2000/svg">
  <sodipodi:namedview
     id="namedview19175"
     pagecolor="#505050"
     bordercolor="#ffffff"
     borderopacity="1"
     inkscape:pageshadow="0"
     inkscape:pageopacity="0"
     inkscape:pagecheckerboard="1"
     inkscape:document-units="mm"
     showgrid="false"
     units="px"
     viewbox-y="-400"
     viewbox-x="-400"
     inkscape:zoom="1.1830527"
     inkscape:cx="295.42216"
     inkscape:cy="335.57253"
     inkscape:window-width="2323"
     inkscape:window-height="1321"
     inkscape:window-x="2469"
     inkscape:window-y="-692"
     inkscape:window-maximized="1"
     inkscape:current-layer="layer1" />
  <defs
     id="defs19170" />
  <g
     inkscape:label="Capa 1"
     inkscape:groupmode="layer"
     id="layer1">
    <g
       id="g18397"
       transform="matrix(0.03209069,0,0,-0.03209069,-395.4647,385.53486)">
      <path
         d="m 21743.1,13596.7 c -0.2,0 -0.3,0 -0.5,0 l -18315.56,371.6 c -12.3,0.2 -22.09,10.4 -21.84,22.7 0.25,12.3 10.83,21.4 22.75,21.9 l 18315.55,-371.6 c 12.3,-0.2 22.1,-10.4 21.9,-22.7 -0.3,-12.2 -10.2,-21.9 -22.3,-21.9"
         style="fill:#000000;fill-opacity:1;fill-rule:nonzero;stroke:none"
         id="path18401" />
      <path
         d="m 9450.2,8127.7 11134.4,-126.3 c 273.8,560.9 476.7,1115.2 589.3,1660.7 l -11717.82,140.8 -10.95,0.1 -10.94,-0.2 C 8643.5,9789.2 7976.2,9563.3 7504.45,9149.5 7029.37,8732.8 6770.47,8151.3 6775.48,7512.2 c 5.1,-652.9 292.79,-1297 789.31,-1767.1 507.45,-480.5 1199.94,-747.2 1952.12,-752.2 l 7804.89,-416.8 c 128.7,-6.8 237,95.1 238.6,224.3 6,479.7 5.2,957.7 30.4,1438.7 l -8011.44,427.8 -40.7,1.1 c -789.72,0 -1161.64,512 -1164.35,858 -3.33,427.1 551.61,590.7 1075.89,601.7"
         style="fill:#ffffff;fill-opacity:1;fill-rule:nonzero;stroke:none"
         id="path18403" />
      <path
         d="m 11715.1,8105.4 2372.1,-31.1 c -37,562.3 -34.1,1114.5 -55.4,1675.9 l -2273.7,26.2 c -1.6,-555.9 -57.8,-1136 -43,-1671"
         style="fill:#ffffff;fill-opacity:1;fill-rule:nonzero;stroke:none"
         id="path18405" />
      <path
         d="m 11736.8,8127.4 2326.6,-30.5 c -21.9,342.7 -29.4,687 -36.7,1020.3 -4.3,199.8 -8.8,406.2 -16.4,610.9 l -2230,25.7 c -1.3,-236.1 -12.2,-479.3 -22.8,-714.7 -13.7,-303.6 -27.8,-617.3 -20.7,-911.7 z m 2350.4,-75.4 c -0.1,0 -0.2,0 -0.3,0 l -2372.1,31.1 c -12,0.2 -21.7,9.7 -22,21.7 -8.4,302.2 6.1,624.6 20.1,936.3 11,242.4 22.2,493.1 22.9,735.3 0.1,6 2.4,11.7 6.7,15.8 4.2,4.2 10.3,6 15.9,6.5 l 2273.6,-26.2 c 11.9,-0.2 21.6,-9.6 22.1,-21.5 8,-212 12.7,-425.9 17.2,-632.9 7.5,-340.5 15.1,-692.7 38.1,-1042.4 0.4,-6.2 -1.8,-12.2 -6.1,-16.8 -4.2,-4.4 -10,-6.9 -16.1,-6.9"
         style="fill:#000000;fill-opacity:1;fill-rule:nonzero;stroke:none"
         id="path18407" />
      <path
         d="m 9450.2,8127.7 128.55,-1.5 c -45.42,556.7 -46.41,1119.9 -55.09,1675.9 l -67.58,0.8 -10.95,0.1 -10.94,-0.2 c -790.69,-13.6 -1457.98,-239.5 -1929.74,-653.3 -200.56,-175.9 -362.41,-381.3 -482.32,-607.8 568.71,-197.9 1164.05,-332 1734.94,-540 198.01,82.6 448.87,120.9 693.13,126"
         style="fill:#ffffff;fill-opacity:1;fill-rule:nonzero;stroke:none"
         id="path18409" />
      <path
         d="m 7054.16,8554.2 c 258.44,-89 526.58,-166.5 786.18,-241.5 302.26,-87.4 614.71,-177.7 916.22,-287.1 233.99,95.6 505.58,120.4 693.17,124.4 0.27,0 0.49,0 0.73,0 l 104.12,-1.2 c -36.98,466.7 -43.43,943 -49.66,1403.9 -1.04,75.9 -2.06,151.7 -3.22,227.3 l -56.81,0.7 -10.32,-0.2 C 8649.22,9767 7986.88,9543 7519.15,9132.8 7328.95,8965.9 7172.62,8771.4 7054.16,8554.2 Z m 1702.91,-574.8 c -2.58,0 -5.16,0.5 -7.63,1.4 -302.58,110.2 -617.21,201.1 -921.49,289.1 -268.43,77.6 -546,157.8 -813.14,250.7 -6.14,2.2 -11.04,6.9 -13.42,12.9 -2.39,6.1 -2.01,12.8 1.04,18.6 122.4,231.3 286.36,437.9 487.33,614.2 475.77,417.3 1148.01,645.1 1944.04,658.8 l 10.96,0.2 79.15,-0.9 c 12.08,-0.2 21.85,-9.9 22.04,-22 1.3,-82.9 2.42,-165.9 3.54,-249.1 6.34,-468.2 12.89,-952.3 51.48,-1425.3 0.51,-6.2 -1.63,-12.4 -5.91,-17 -4.27,-4.6 -9.72,-7.3 -16.56,-7.1 l -128.2,1.5 c -262.66,-5.6 -505.78,-49.7 -684.66,-124.3 -2.74,-1.1 -5.65,-1.7 -8.57,-1.7"
         style="fill:#000000;fill-opacity:1;fill-rule:nonzero;stroke:none"
         id="path18411" />
      <path
         d="m 11956.2,6540 c -18.7,-604.4 -36.1,-1105.7 -18.7,-1674.4 L 14191,4746.7 c -29.7,535 -21.1,1106.7 -51.1,1676.7 L 11956.2,6540"
         style="fill:#ffffff;fill-opacity:1;fill-rule:nonzero;stroke:none"
         id="path18413" />
      <path
         d="m 11959.1,4886.8 2208.3,-116.5 c -13.9,260.9 -18.9,525.3 -24.2,804.7 -5.1,270.7 -10.4,550.3 -24.5,827.2 l -2140.9,114.3 -1.9,-62.2 c -17.3,-554.7 -32.3,-1034.6 -16.8,-1567.5 z M 14191,4724.4 c -0.4,0 -0.8,0 -1.2,0 l -2253.5,118.9 c -11.6,0.7 -20.8,10 -21.1,21.6 -16.6,542.5 -1.4,1028.3 16.1,1590.7 l 2.6,85.1 c 0.2,6 2.8,11.6 7.2,15.7 4.5,4 10.3,6.2 16.3,5.8 l 2183.7,-116.6 c 11.4,-0.6 20.5,-9.7 21,-21.1 15,-284.1 20.4,-571.1 25.7,-848.6 5.4,-287.9 10.6,-559.7 25.4,-828 0.4,-6.3 -2,-12.5 -6.4,-16.9 -4.2,-4.2 -9.9,-6.6 -15.8,-6.6"
         style="fill:#000000;fill-opacity:1;fill-rule:nonzero;stroke:none"
         id="path18415" />
      <path
         d="m 19394.8,6188.3 -2846.5,118.9 c 34.6,-563.4 -14.1,-1127.2 10.4,-1690.3 l 813.2,-46.1 2022.9,1617.5"
         style="fill:#ffffff;fill-opacity:1;fill-rule:nonzero;stroke:none"
         id="path18417" />
      <path
         d="m 17371.9,4548.5 c -0.4,0 -0.8,0.1 -1.3,0.1 l -813.2,46 c -11.4,0.7 -20.5,9.9 -21,21.3 -11.5,263.9 -6.8,532 -2.3,791.3 5.1,294.7 10.3,599.4 -8.1,898.6 -0.4,6.3 1.9,12.5 6.4,17 4.4,4.5 10.4,7 16.8,6.6 l 2846.6,-118.9 c 12.3,-0.5 21.8,-10.9 21.3,-23.2 -0.5,-12.3 -11,-21.7 -23.2,-21.3 L 16572,6283.9 c 16.8,-293 11.6,-590 6.6,-877.5 -4.3,-252 -8.8,-512.4 1.5,-768.4 l 793,-44.9 c 12.3,-0.7 21.7,-11.2 21,-23.5 -0.6,-11.9 -10.5,-21.1 -22.2,-21.1"
         style="fill:#000000;fill-opacity:1;fill-rule:nonzero;stroke:none"
         id="path18419" />
      <path
         d="m 9579.36,6666.9 -40.7,1.1 c -327.27,0 -582.58,88 -769.8,215.7 -486.05,-286.3 -970.46,-569.9 -1469.95,-845 80.35,-103.6 169.09,-202 265.87,-293.6 497.99,-471.5 1174.24,-736.9 1910.19,-751.4 111.7,550.9 235,1099.2 334.04,1660.9 l -229.65,12.3"
         style="fill:#ffffff;fill-opacity:1;fill-rule:nonzero;stroke:none"
         id="path18421" />
      <path
         d="m 7332.62,6031.8 c 76.04,-96 159.2,-186.9 247.49,-270.5 488.26,-462.3 1154.11,-726.5 1876.72,-744.9 33.47,164.7 68.46,331.6 102.34,493.2 76.78,366.4 156.11,744.9 223.5,1124.1 l -244.61,12 c -294.94,0 -560.98,73.1 -769.99,211.6 -476.91,-280.8 -945.98,-555.4 -1435.45,-825.5 z M 9474.97,4971.4 c -0.15,0 -0.3,0 -0.44,0 -740.89,14.6 -1424.55,283.6 -1925.08,757.5 -96.2,91.1 -186.42,190.7 -268.16,296.1 -3.99,5.2 -5.54,11.8 -4.22,18.2 1.33,6.4 5.37,11.9 11.08,15 501.4,276.2 981.17,557.2 1469.4,844.7 7.42,4.3 16.72,4 23.86,-0.8 203.3,-138.6 465.15,-211.8 757.25,-211.8 l 41.3,-1.1 c 0.19,0 0.39,0 0.58,0 l 229.65,-12.3 c 6.38,-0.3 12.3,-3.4 16.27,-8.4 3.97,-5 5.61,-11.4 4.5,-17.7 -68.45,-388.2 -149.63,-775.6 -228.16,-1150.3 -35.11,-167.5 -71.42,-340.8 -105.99,-511.3 -2.12,-10.4 -11.27,-17.8 -21.84,-17.8"
         style="fill:#000000;fill-opacity:1;fill-rule:nonzero;stroke:none"
         id="path18423" />
      <path
         d="m 19615.1,9685.9 -2998.1,34.5 c -9.4,-559.8 -9.4,-1139.4 0.9,-1675.3 l 3014.1,-43.7 c 0,445.8 -59.1,1078.8 -16.9,1684.5"
         style="fill:#ffffff;fill-opacity:1;fill-rule:nonzero;stroke:none"
         id="path18425" />
      <path
         d="m 16639.8,8067.1 2969.9,-43.1 c -0.6,146 -7.2,312.6 -14.2,488.4 -14.1,355.8 -30,758.2 -4.2,1151.5 l -2952.4,34 c -9,-553.9 -8.7,-1116.7 0.9,-1630.8 z m 2992.2,-88 c -0.1,0 -0.2,0 -0.3,0 l -3014.1,43.8 c -12,0.1 -21.8,9.8 -22,21.8 -10.1,527.3 -10.5,1106.8 -0.9,1676.1 0.2,12.2 9.8,22.5 22.5,21.9 l 2998.1,-34.5 c 6.2,-0.1 12,-2.7 16.2,-7.2 4.1,-4.5 6.2,-10.5 5.8,-16.7 -27.7,-398.3 -11.5,-808.3 2.8,-1170.1 7.3,-185.5 14.2,-360.6 14.2,-512.8 0,-6 -2.4,-11.7 -6.6,-15.9 -4.2,-4.1 -9.8,-6.4 -15.7,-6.4"
         style="fill:#000000;fill-opacity:1;fill-rule:nonzero;stroke:none"
         id="path18427" />
      <path
         d="m 19394.8,6166 c -0.3,0 -0.7,0 -1.1,0 l -9815.43,478.6 -40.21,1.1 c -804.2,0 -1183.26,525.2 -1186.04,880.1 -3.45,443.2 564.77,613 1097.71,624.2 L 20540.4,8012.5 c 12.3,-0.1 22.2,-10.2 22,-22.5 -0.1,-12.3 -10.1,-22.1 -22.3,-22.1 -0.1,0 -0.2,0 -0.3,0 L 9449.92,8105.4 C 8939,8094.7 8393.4,7936.9 8396.6,7526.1 c 2.65,-337 367.43,-835.8 1142.06,-835.8 l 41.3,-1.1 9815.94,-478.7 c 12.3,-0.6 21.8,-11 21.2,-23.3 -0.6,-11.9 -10.4,-21.2 -22.3,-21.2"
         style="fill:#000000;fill-opacity:1;fill-rule:nonzero;stroke:none"
         id="path18429" />
      <path
         d="m 17321.8,4553.8 c -0.4,0 -0.8,0 -1.2,0.1 l -7804.88,416.8 c -756.53,5 -1455.19,274.3 -1966.26,758.2 -500.9,474.3 -791.13,1124.2 -796.27,1783.2 -5.06,645.6 256.53,1233.1 736.57,1654.2 475.74,417.3 1147.98,645.1 1944.04,658.8 l 10.96,0.2 11.55,-0.2 11684.49,-140.7 c 12.3,-0.1 22.2,-10.2 22.1,-22.5 -0.2,-12.3 -9.8,-22.5 -22.6,-22 l -11695.41,140.8 -10.32,-0.2 C 8649.2,9767 7986.87,9543 7519.15,9132.8 7049.01,8720.4 6792.82,8144.9 6797.77,7512.4 c 5.06,-646.9 290.21,-1285.1 782.35,-1751.1 502.82,-476.1 1190.71,-741.1 1936.94,-746.1 L 17323,4598.4 c 12.3,-0.7 21.7,-11.2 21,-23.5 -0.6,-11.8 -10.4,-21.1 -22.2,-21.1"
         style="fill:#000000;fill-opacity:1;fill-rule:nonzero;stroke:none"
         id="path18431" />
      <path
         d="m 21507.5,12348.4 -17685.29,426 c -3.15,-560.8 3.93,-1118.2 8.51,-1676.4 l 17409.88,-421.5 266.9,1671.9"
         style="fill:#ffffff;fill-opacity:1;fill-rule:nonzero;stroke:none"
         id="path18433" />
      <path
         d="m 9860.8,12628.5 -2334.17,56.3 c -40.59,-603.9 -49.61,-1108.7 -85.07,-1674 l 2301.7,-55.7 c 44.47,501.6 44.47,1025.4 117.54,1673.4"
         style="fill:#ffffff;fill-opacity:1;fill-rule:nonzero;stroke:none"
         id="path18435" />
      <path
         d="m 7465.25,11032.6 2257.63,-54.7 c 16.94,196.7 27.28,396.6 38.2,607.8 16.42,317.6 33.39,645.9 74.87,1021.1 l -2288.5,55.2 c -20.8,-314 -33.29,-604.2 -45.4,-885.1 -10.37,-240.4 -21.06,-488.8 -36.8,-744.3 z m 2278.02,-99.8 c -0.18,0 -0.37,0 -0.56,0 l -2301.69,55.8 c -6.05,0.1 -11.79,2.7 -15.89,7.2 -4.09,4.4 -6.2,10.4 -5.81,16.4 16.51,263.3 27.03,507.8 38.19,766.6 12.39,287.5 25.19,584.8 46.88,907.5 0.8,11.9 11.1,21.7 22.77,20.8 l 2334.17,-56.3 c 6.26,-0.2 12.16,-2.9 16.26,-7.6 4.11,-4.8 6.05,-11 5.36,-17.2 -43.29,-383.9 -60.61,-718.8 -77.35,-1042.6 -11.32,-219.1 -22.02,-426 -40.14,-630.3 -1.02,-11.5 -10.68,-20.3 -22.19,-20.3"
         style="fill:#000000;fill-opacity:1;fill-rule:nonzero;stroke:none"
         id="path18437" />
      <path
         d="m 5080.97,12743.8 -1775.79,39.3 c -40.65,-626 -5.96,-1195.3 122.31,-1694.2 l 1681.49,-21.3 c 8.48,560.1 -26.45,1114.4 -28.01,1676.2"
         style="fill:#ffffff;fill-opacity:1;fill-rule:nonzero;stroke:none"
         id="path18439" />
      <path
         d="m 5108.99,11045.3 c -0.09,0 -0.19,0 -0.29,0 l -1681.49,21.3 c -12.31,0.1 -22.16,10.2 -22.01,22.5 0.16,12.3 11.39,22.3 22.58,22.1 l 1659.23,-21 c 4.03,308.6 -4.95,620.6 -13.65,922.6 -6.69,232 -13.58,471.5 -14.61,709.2 l -1754.06,38.8 c -12.31,0.2 -22.06,10.4 -21.79,22.8 0.26,12.3 11.47,21.5 22.77,21.8 l 1775.78,-39.3 c 12.1,-0.3 21.77,-10.1 21.81,-22.2 0.69,-244.2 7.79,-491.1 14.66,-729.8 8.93,-309.7 18.14,-630 13.35,-946.9 -0.18,-12.2 -10.13,-21.9 -22.28,-21.9"
         style="fill:#000000;fill-opacity:1;fill-rule:nonzero;stroke:none"
         id="path18441" />
      <path
         d="m 14328.5,12520.7 -2295.4,55.4 c -40.5,-553.5 -99.3,-1141.7 -133,-1672.4 l 2292.7,-55.3 c 14.3,559.7 109.4,1111.3 135.7,1672.3"
         style="fill:#ffffff;fill-opacity:1;fill-rule:nonzero;stroke:none"
         id="path18443" />
      <path
         d="m 11923.9,10925.4 2247.3,-54.2 c 8.6,295.5 39.6,593 69.6,880.9 25.5,244.3 51.8,496.6 64.4,746.9 l -2251.4,54.3 c -17.1,-232 -37.7,-472.9 -57.5,-706.2 -26.3,-308 -53.4,-626.3 -72.4,-921.7 z m 2269,-99.3 c -0.2,0 -0.4,0 -0.6,0 l -2292.7,55.3 c -6.1,0.2 -11.8,2.8 -15.9,7.3 -4.1,4.4 -6.2,10.4 -5.8,16.4 19.1,302.4 47,629.5 74,945.8 20.4,240.2 41.6,488.6 59,726.8 0.9,11.9 11.7,21.5 22.8,20.7 l 2295.4,-55.4 c 6,-0.2 11.7,-2.7 15.7,-7.1 4.1,-4.4 6.3,-10.2 6,-16.2 -12.1,-259 -39.3,-519.9 -65.6,-772.2 -30.7,-294.3 -62.4,-598.6 -70.1,-899.7 -0.3,-12.1 -10.2,-21.7 -22.2,-21.7"
         style="fill:#000000;fill-opacity:1;fill-rule:nonzero;stroke:none"
         id="path18445" />
      <path
         d="m 18415.4,12422.1 -1958.2,47.2 c -9,-689.4 24.4,-1168.7 35.5,-1692.5 l 1888.5,-29.5 c 28.8,558.3 26.9,1116.5 34.2,1674.8"
         style="fill:#ffffff;fill-opacity:1;fill-rule:nonzero;stroke:none"
         id="path18447" />
      <path
         d="M 16514.5,10798.7 18360,10770 c 21.2,421.4 25.2,849.7 29,1264.1 1.1,122.1 2.3,244.2 3.8,366.2 l -1913.6,46.2 c -5.4,-455.4 7.6,-816.8 20.2,-1166.4 5.9,-164.2 11.5,-319.7 15.1,-481.4 z m 1866.7,-73.7 c -0.1,0 -0.2,0 -0.3,0 l -1888.6,29.5 c -12,0.2 -21.6,9.8 -21.9,21.8 -3.6,169.1 -9.4,330.9 -15.6,502.2 -12.8,355.9 -26,724 -19.9,1191.1 0.1,6 2.6,11.6 6.8,15.8 4.3,4.1 10.2,6.5 16,6.2 l 1958.2,-47.2 c 12.2,-0.3 21.9,-10.4 21.8,-22.6 -1.7,-129.4 -2.9,-258.8 -4.1,-388.1 -3.9,-421.9 -7.9,-858.2 -30.1,-1287.5 -0.6,-11.9 -10.4,-21.2 -22.3,-21.2"
         style="fill:#000000;fill-opacity:1;fill-rule:nonzero;stroke:none"
         id="path18449" />
      <path
         d="m 21640.9,12348.4 -1111.3,22.7 c -30.5,-557.9 -63.9,-1115.9 -74.1,-1673.8 l 1000.1,-35.7 185.3,1686.8"
         style="fill:#ffffff;fill-opacity:1;fill-rule:nonzero;stroke:none"
         id="path18451" />
      <path
         d="m 21455.6,10639.3 c -0.3,0 -0.5,0 -0.8,0 l -1000.1,35.7 c -12.2,0.4 -21.8,10.5 -21.5,22.7 9,495 36.8,998.1 63.7,1484.7 l 10.5,189.9 c 0.6,12 10.7,21.2 22.7,21.1 l 1111.3,-22.7 c 12.3,-0.3 22.1,-10.5 21.8,-22.8 -0.3,-12.3 -10.4,-21.8 -22.7,-21.8 l -1089.8,22.2 -9.3,-168.3 c -26.4,-479 -53.8,-974.1 -63.2,-1461.2 l 978.2,-34.9 c 12.3,-0.5 21.9,-10.8 21.5,-23.1 -0.5,-12 -10.3,-21.5 -22.3,-21.5"
         style="fill:#000000;fill-opacity:1;fill-rule:nonzero;stroke:none"
         id="path18453" />
      <path
         d="m 21607.9,12326.8 c -0.2,0 -0.4,0 -0.6,0 l -18302.65,434 c -12.3,0.3 -22.04,10.5 -21.75,22.8 0.29,12.3 10.78,22.1 22.81,21.8 l 18302.69,-434 c 12.3,-0.3 22,-10.5 21.7,-22.8 -0.3,-12.2 -10.2,-21.8 -22.2,-21.8"
         style="fill:#000000;fill-opacity:1;fill-rule:nonzero;stroke:none"
         id="path18455" />
      <path
         d="m 21396.3,10609.6 c -0.2,0 -0.4,0 -0.6,0 l -17968.77,457 c -12.31,0.3 -22.03,10.5 -21.72,22.8 0.31,12.3 10.42,22.5 22.85,21.7 l 17968.84,-456.9 c 12.3,-0.4 22,-10.6 21.7,-22.9 -0.3,-12.1 -10.2,-21.7 -22.3,-21.7"
         style="fill:#000000;fill-opacity:1;fill-rule:nonzero;stroke:none"
         id="path18457" />
      <path
         d="m 15673.1,11827 c -459.4,-154.1 -1124.8,-143.8 -1522.4,-23.6 -184.8,55.9 -298,241.9 -264.4,432 l 776.8,4393.1 535.1,-37.3 734.7,-4324.3 c 32.4,-190.4 -76.7,-378.4 -259.8,-439.9"
         style="fill:#ffffff;fill-opacity:1;fill-rule:nonzero;stroke:none"
         id="path18459" />
      <path
         d="m 14681.6,16604.9 -773.3,-4373.3 c -31.7,-179.5 75.2,-354.4 248.8,-406.8 372.2,-112.5 1038.4,-134.6 1508.9,23.4 170.2,57.1 275.5,235.5 245,415 l -731.9,4307 z m 191,-4914.1 c -276,0 -539.4,34.2 -728.4,91.3 -195.2,59 -315.5,255.6 -279.8,457.2 l 776.8,4393.1 c 2,11.2 12.1,19 23.5,18.3 l 535,-37.3 c 10.3,-0.7 18.7,-8.3 20.4,-18.5 l 734.8,-4324.3 c 34.2,-200.9 -84,-400.7 -274.7,-464.7 -240.1,-80.6 -530.2,-115.1 -807.6,-115.1"
         style="fill:#000000;fill-opacity:1;fill-rule:nonzero;stroke:none"
         id="path18461" />
      <path
         d="m 15443.4,16818 c 0,-285.2 -231.2,-516.4 -516.4,-516.4 -285.2,0 -516.4,231.2 -516.4,516.4 0,285.2 231.2,516.4 516.4,516.4 285.2,0 516.4,-231.2 516.4,-516.4"
         style="fill:#ffffff;fill-opacity:1;fill-rule:nonzero;stroke:none"
         id="path18463" />
      <path
         d="m 14927,17312.1 c -272.5,0 -494.1,-221.7 -494.1,-494.1 0,-272.5 221.6,-494.2 494.1,-494.2 272.4,0 494.1,221.7 494.1,494.2 0,272.4 -221.7,494.1 -494.1,494.1 z m 0,-1032.8 c -297.1,0 -538.7,241.6 -538.7,538.7 0,297 241.6,538.7 538.7,538.7 297,0 538.7,-241.7 538.7,-538.7 0,-297.1 -241.7,-538.7 -538.7,-538.7"
         style="fill:#000000;fill-opacity:1;fill-rule:nonzero;stroke:none"
         id="path18465" />
      <path
         d="m 15621.7,12058.6 c -11,0 -20.6,8.1 -22.1,19.3 l -542.4,4005.2 c -1.7,12.2 6.9,23.4 19.1,25 12.1,1.7 23.4,-6.9 25,-19.1 l 542.5,-4005.1 c 1.6,-12.2 -6.9,-23.5 -19.1,-25.1 -1,-0.2 -2,-0.2 -3,-0.2"
         style="fill:#000000;fill-opacity:1;fill-rule:nonzero;stroke:none"
         id="path18467" />
      <path
         d="m 14866.8,16446.7 c -65.7,0 -133.7,12.5 -200.5,38.4 -11.5,4.4 -17.2,17.3 -12.8,28.8 4.4,11.5 17.4,17.2 28.8,12.8 195,-75.4 399.9,-27.6 509.9,119 105.4,140.5 88.6,329 -45.2,504.3 -7.5,9.8 -5.6,23.8 4.2,31.2 9.8,7.5 23.8,5.6 31.2,-4.2 146.6,-192 163.6,-400.7 45.5,-558.1 -84,-111.8 -216.8,-172.2 -361.1,-172.2"
         style="fill:#000000;fill-opacity:1;fill-rule:nonzero;stroke:none"
         id="path18469" />
      <path
         d="m 10803.1,5316.8 c 474.3,-206.6 1263.3,-197.5 1685.7,-51.4 157.7,54.5 250.4,217.9 221.4,382.1 l -782.8,4427.1 -535.1,-37.4 -750.7,-4418.3 c -21.4,-125.8 44.6,-251.1 161.5,-302.1"
         style="fill:#000000;fill-opacity:1;fill-rule:nonzero;stroke:none"
         id="path18471" />
      <path
         d="m 10812,5337.3 c 473.7,-206.4 1260.1,-192.5 1669.5,-50.9 145,50.2 233.9,203.7 206.7,357.3 l -779.3,4407.2 -497.5,-34.7 -747.9,-4401.1 c -19.8,-116.8 41.2,-231.1 148.5,-277.8 z m 908.5,-200.4 c -328.7,0 -671.7,48.6 -926.3,159.5 -126.1,54.9 -197.9,189.1 -174.6,326.2 l 750.8,4418.4 c 1.7,10.1 10.1,17.8 20.4,18.5 l 535,37.3 c 11.4,0.7 21.5,-7.1 23.5,-18.4 l 782.8,-4427 c 31.5,-177.7 -67.8,-349 -236,-407.1 -197.3,-68.3 -480.7,-107.4 -775.6,-107.4"
         style="fill:#ffffff;fill-opacity:1;fill-rule:nonzero;stroke:none"
         id="path18473" />
      <path
         d="m 11147.1,10264 c 0,-285.2 231.2,-516.4 516.4,-516.4 285.2,0 516.4,231.2 516.4,516.4 0,285.2 -231.2,516.4 -516.4,516.4 -285.2,0 -516.4,-231.2 -516.4,-516.4"
         style="fill:#000000;fill-opacity:1;fill-rule:nonzero;stroke:none"
         id="path18475" />
      <path
         d="m 11663.5,10758.2 c -272.4,0 -494.1,-221.7 -494.1,-494.2 0,-272.4 221.7,-494.1 494.1,-494.1 272.5,0 494.1,221.7 494.1,494.1 0,272.5 -221.6,494.2 -494.1,494.2 z m 0,-1032.9 c -297,0 -538.7,241.7 -538.7,538.7 0,297.1 241.7,538.7 538.7,538.7 297.1,0 538.7,-241.6 538.7,-538.7 0,-297 -241.6,-538.7 -538.7,-538.7"
         style="fill:#ffffff;fill-opacity:1;fill-rule:nonzero;stroke:none"
         id="path18477" />
      <path
         d="m 10968.8,5504.6 c -1,0 -2,0.1 -3,0.3 -12.2,1.6 -20.7,12.8 -19.1,25 l 542.5,4005.2 c 1.6,12.2 12.9,20.8 25,19.1 12.2,-1.7 20.8,-12.9 19.1,-25.1 l -542.4,-4005.2 c -1.5,-11.1 -11.1,-19.3 -22.1,-19.3"
         style="fill:#ffffff;fill-opacity:1;fill-rule:nonzero;stroke:none"
         id="path18479" />
      <path
         d="m 11723.7,9892.8 c -144.3,0 -277.1,60.4 -361.1,172.2 -118.1,157.4 -101.1,366 45.5,558.1 7.4,9.8 21.4,11.7 31.2,4.2 9.8,-7.5 11.7,-21.5 4.2,-31.2 -133.7,-175.3 -150.7,-363.8 -45.2,-504.3 110,-146.6 314.9,-194.4 509.9,-119.1 11.4,4.5 24.4,-1.2 28.8,-12.7 4.4,-11.5 -1.3,-24.4 -12.8,-28.8 -66.8,-25.9 -134.8,-38.4 -200.5,-38.4"
         style="fill:#ffffff;fill-opacity:1;fill-rule:nonzero;stroke:none"
         id="path18481" />
      <path
         d="m 18845.9,21054 c -34,13.9 -157.1,51.5 -232.8,166.2 -53.4,81.1 -93.7,216.9 -33.2,299.2 15.1,20.6 64.7,76.2 299.2,66.5 297.2,-12.2 506.2,-110.5 506.2,-110.5 484.3,-227.8 586.5,-509.6 981.6,-728.9 505.8,-280.9 752.6,-41.5 972.4,-282.6 357.2,-391.8 220.8,-1465.4 -482.1,-1903.3 -474.7,-295.8 -1217.9,-304.3 -1554.2,66.5 -549.1,605.3 -47.4,2259.3 -457.1,2426.9"
         style="fill:#000000;fill-opacity:1;fill-rule:nonzero;stroke:none"
         id="path18483" />
      <path
         d="m 18650.4,12796.3 17.2,-640.6 226.3,-24.5 111.9,689.4 -355.4,-24.3"
         style="fill:#ffffff;fill-opacity:1;fill-rule:nonzero;stroke:none"
         id="path18485" />
      <path
         d="m 18689.4,12175.8 185.9,-20.1 104,640.8 -306,-21 z m 204.5,-66.8 c -0.8,0 -1.6,0 -2.4,0.1 l -226.3,24.4 c -11.1,1.2 -19.6,10.4 -19.9,21.6 l -17.2,640.6 c -0.3,11.9 8.9,22 20.8,22.8 l 355.4,24.4 c 6.9,0.4 13.4,-2.2 18,-7.3 4.6,-5 6.6,-11.8 5.5,-18.6 l -111.9,-689.3 c -1.8,-10.9 -11.2,-18.7 -22,-18.7"
         style="fill:#000000;fill-opacity:1;fill-rule:nonzero;stroke:none"
         id="path18487" />
      <path
         d="m 17366.6,12586 -36.1,-510.3 299,-24.4 106.7,534.7 h -369.6"
         style="fill:#ffffff;fill-opacity:1;fill-rule:nonzero;stroke:none"
         id="path18489" />
      <path
         d="m 17354.3,12096.2 257.2,-21.1 97.5,488.6 h -321.7 z m 275.2,-67.2 c -0.6,0 -1.2,0 -1.9,0.1 l -298.9,24.4 c -12.2,1 -21.3,11.6 -20.5,23.8 l 36.1,510.3 c 0.9,11.6 10.6,20.7 22.3,20.7 h 369.6 c 6.7,0 13,-3 17.2,-8.2 4.3,-5.2 6,-11.9 4.6,-18.5 l -106.7,-534.7 c -2.1,-10.5 -11.3,-17.9 -21.8,-17.9"
         style="fill:#000000;fill-opacity:1;fill-rule:nonzero;stroke:none"
         id="path18491" />
      <path
         d="m 17709.4,11831.5 c 20.7,13.8 33.3,37.1 34,62 1.9,74.8 2.2,234.3 -28,294.2 -40.1,79.5 -205.4,-31.3 -205.4,-31.3 0,0 -96.7,134.1 -153.4,162.3 -29.3,14.6 -200.9,-99.6 -373.8,-255.3 -189.5,-170.6 -275.1,-225.1 -316,-372.2 -19.1,-69 31.6,-138.4 103,-143.5 174.1,-12.5 525.4,8.3 939.6,283.8"
         style="fill:#ffffff;fill-opacity:1;fill-rule:nonzero;stroke:none"
         id="path18493" />
      <path
         d="m 17348.8,12297.6 c -28.3,-2 -169.5,-87.3 -351.1,-250.8 -30,-27 -57.4,-51.1 -82.4,-73.1 -133.5,-117.4 -194.4,-171 -227,-288.4 -7.2,-25.9 -2.2,-53.6 13.5,-75.9 16.3,-23.1 41.7,-37.5 69.6,-39.5 170.1,-12.2 516.5,8 925.6,280.2 14.6,9.7 23.6,26.1 24.1,44 3.6,138.6 -6,244.6 -25.6,283.6 -4,7.9 -9.7,12.5 -18.5,14.8 -38.1,10 -115,-28.2 -154.6,-54.6 -10,-6.7 -23.4,-4.3 -30.5,5.5 -25.6,35.4 -100.3,131 -143.1,154.2 z m -502.4,-774.9 c -29,0 -55.1,1.1 -78.2,2.7 -41.3,3 -78.8,24.2 -102.8,58.3 -23.5,33.3 -30.8,74.7 -20,113.5 36.1,130.3 104.4,190.3 240.4,310 24.9,21.9 52.2,45.9 82.1,72.8 90.9,81.8 339.7,288.2 398.7,258.7 49.2,-24.6 119.9,-113.7 149,-152.4 36.4,21.8 116.9,64 172.7,49.3 21,-5.5 37.3,-18.6 47,-37.8 31.7,-62.9 32.6,-218 30.4,-304.9 -0.9,-32.3 -17.3,-62.2 -44,-79.9 -365.1,-242.9 -682.9,-290.3 -875.3,-290.3"
         style="fill:#000000;fill-opacity:1;fill-rule:nonzero;stroke:none"
         id="path18495" />
      <path
         d="m 16927.5,11660.8 c -108,0 -175.8,15.1 -177.6,15.5 -11.9,2.9 -19.4,14.8 -16.6,26.8 2.8,12 14.8,19.5 26.8,16.7 4.6,-1.1 466.3,-102.9 906.4,248.3 9.6,7.7 23.6,6.1 31.3,-3.5 7.7,-9.6 6.1,-23.7 -3.5,-31.4 -287.4,-229.3 -584.5,-272.4 -766.8,-272.4"
         style="fill:#000000;fill-opacity:1;fill-rule:nonzero;stroke:none"
         id="path18497" />
      <path
         d="m 18561,11999.9 3.3,350.8 c 0,0 70.4,106.3 166.8,19.9 0,0 89.1,125 254.6,-30.9 0,0 232.8,-434 335.9,-692.1 27.6,-69.1 -21.7,-144.8 -96.1,-146.6 -106.9,-2.5 -245.1,3.3 -305.3,44 -94,63.6 -255.1,264.1 -325.3,354.5 -22.3,28.7 -34.2,64 -33.9,100.4"
         style="fill:#ffffff;fill-opacity:1;fill-rule:nonzero;stroke:none"
         id="path18499" />
      <path
         d="m 18583.3,11999.7 c -0.3,-31.2 10.1,-62 29.2,-86.6 65.6,-84.4 228,-287.3 320.2,-349.7 43.3,-29.2 147,-43.4 292.3,-40.1 27.8,0.7 52.5,14.4 67.9,37.6 15.6,23.6 18.5,52.2 8,78.4 -96.8,242.4 -311.6,646.4 -333.1,686.7 -53.9,50 -103.5,73.3 -147.9,69.3 -45.6,-4.2 -69.7,-36.4 -70.8,-37.8 -3.7,-5.1 -9.4,-8.4 -15.7,-9 -6.3,-0.7 -12.5,1.3 -17.2,5.5 -23.6,21.1 -46.8,30.5 -68.9,27.7 -29.8,-3.8 -52.3,-28 -60.7,-38.6 z m 599.4,-521.5 c -135.1,0 -227.5,16.2 -274.9,48.3 -94,63.5 -247.4,252.4 -330.5,359.3 -25.2,32.5 -38.9,73.1 -38.6,114.3 l 3.4,350.7 c 0,4.4 1.3,8.6 3.6,12.1 1.5,2.3 37.3,55.4 95.7,62.9 29.7,3.8 59.1,-4.5 87.5,-24.9 16.4,14.9 45.2,34.7 85.9,38.7 58.5,5.8 121.2,-22.4 186.2,-83.6 1.7,-1.7 3.2,-3.6 4.3,-5.7 2.4,-4.4 234.6,-438.1 337,-694.5 15.7,-39.4 11.2,-84.1 -12.2,-119.5 -23.5,-35.6 -61.5,-56.6 -104.1,-57.6 -14.9,-0.3 -29.3,-0.5 -43.3,-0.5"
         style="fill:#000000;fill-opacity:1;fill-rule:nonzero;stroke:none"
         id="path18501" />
      <path
         d="m 18731,12159.2 c -12.3,0 -22.3,10 -22.3,22.3 l 0.1,189.1 c 0,12.3 10,22.3 22.3,22.3 12.3,0 22.3,-10 22.3,-22.3 l -0.1,-189.1 c 0,-12.3 -10,-22.3 -22.3,-22.3"
         style="fill:#000000;fill-opacity:1;fill-rule:nonzero;stroke:none"
         id="path18503" />
      <path
         d="m 17275.8,12557 c 0,0 -85.3,1288 54.7,2446.4 140,1158.5 660.6,2812.8 660.6,2812.8 0,0 560.2,25.4 968,-29.4 407.8,-54.8 569.2,1.6 569.2,1.6 0,0 304.4,-348.5 279.6,-1003.8 -24.9,-655.3 -735.2,-3419.5 -708.3,-4068.3 0,0 -238.9,-120 -548.3,-60.4 l 128.2,3725.4 c 0,0 -265.3,-766.9 -389.9,-1292.3 -101.5,-428.3 -277.7,-705.4 -277.7,-705.4 0,0 7.5,-995.6 -221,-1822 0,0 -270,-84.4 -515.1,-4.6"
         style="fill:#000000;fill-opacity:1;fill-rule:nonzero;stroke:none"
         id="path18505" />
      <path
         d="m 17723.7,13933.9 c -4.3,0 -8.7,1.3 -12.6,4 -10.1,6.9 -12.7,20.8 -5.7,31 l 195.6,284.6 c 7,10.2 20.8,12.7 31,5.8 10.1,-7 12.7,-20.9 5.7,-31 l -195.6,-284.7 c -4.3,-6.3 -11.3,-9.7 -18.4,-9.7"
         style="fill:#ffffff;fill-opacity:1;fill-rule:nonzero;stroke:none"
         id="path18507" />
      <path
         d="m 19039.2,14626.1 c -64.9,0 -113.2,11.9 -117.3,13 -11.9,3 -19.1,15.1 -16.1,27 3.1,12 15.2,19.2 27.1,16.2 1.9,-0.5 184.5,-45.2 309,47.1 9.9,7.4 23.8,5.3 31.2,-4.6 7.3,-9.9 5.2,-23.8 -4.7,-31.2 -72.9,-54.1 -160.3,-67.5 -229.2,-67.5"
         style="fill:#ffffff;fill-opacity:1;fill-rule:nonzero;stroke:none"
         id="path18509" />
      <path
         d="m 16231.9,20611.6 c 0,0 -253.2,234.7 -325.3,294.6 -82,68 105.6,90.4 345.9,-129.7 l -20.6,-164.9"
         style="fill:#ffffff;fill-opacity:1;fill-rule:nonzero;stroke:none"
         id="path18511" />
      <path
         d="m 15913,20930.8 c 1.8,-2 4.3,-4.5 7.9,-7.5 57.1,-47.4 223.6,-200.7 294.2,-265.9 l 13.8,110.4 c -155.1,139 -281.6,169.7 -315.9,163 z m 318.8,-341.5 c -5.5,0 -10.9,2 -15.1,5.9 -2.5,2.4 -253.5,235.1 -324.3,293.8 -21.2,17.6 -30.3,35.3 -27,52.6 1.5,8.1 7.3,22.7 28.8,29.9 50.7,16.9 196.7,-16.7 373.3,-178.6 5.4,-4.8 8,-12 7.1,-19.2 l -20.6,-164.9 c -1.1,-8.3 -6.7,-15.3 -14.5,-18.2 -2.5,-0.9 -5.1,-1.3 -7.7,-1.3"
         style="fill:#000000;fill-opacity:1;fill-rule:nonzero;stroke:none"
         id="path18513" />
      <path
         d="m 16210.7,20659.1 c -1.5,-13 -3.1,-25.9 -5.4,-38.8 -3.9,-21.8 -9.2,-74.4 22.3,-107.9 30.7,-32.6 179.6,-113.6 249.9,-150.9 24.1,-12.7 45.2,-30.2 62.2,-51.4 23.4,-29.3 -40.3,-340.5 -40.3,-340.5 l 255.6,91.4 c 0,0 -30.7,424.6 -86.8,597.1 -56.1,172.6 -204.3,254.4 -242.6,249.1 -38.3,-5.4 -50,-78.9 -50,-78.9 0,0 -83,64.1 -133.4,29.8 -26.4,-17.9 -13.6,-48.4 -17.7,-77.8 l -13.8,-121.2"
         style="fill:#ffffff;fill-opacity:1;fill-rule:nonzero;stroke:none"
         id="path18515" />
      <path
         d="m 16520.8,20298.4 z m 1.4,-2.2 h 0.3 z m -289.4,360.4 c -1.5,-13.5 -3.2,-26.9 -5.6,-40.3 -3.2,-17.9 -8,-62.4 16.6,-88.6 20,-21.2 111.3,-76 244.2,-146.5 26.9,-14.3 50.2,-33.5 69.1,-57.2 18.6,-23.3 9.2,-130.9 -28,-320.1 l 202.4,72.3 c -6.4,80.4 -36.1,426.4 -84.5,575 -54.5,167.8 -195.7,237 -218.3,233.9 -13.6,-1.9 -27.3,-36.4 -31.1,-60.3 -1.2,-7.7 -6.4,-14.2 -13.7,-17.2 -7.3,-2.9 -15.6,-1.7 -21.9,3.1 -18.3,14 -77.2,49.4 -107.2,29 -7.3,-4.9 -8.1,-10.9 -7.4,-32 0.4,-9.2 0.7,-19.7 -0.8,-30.5 z m 266.6,-709.3 c -5.2,0 -10.5,1.9 -14.6,5.5 -6.1,5.3 -8.8,13.4 -7.2,21.3 27.7,135.5 52,296.3 43.5,323.5 -14.8,18.2 -33,33.1 -54,44.2 -99.8,53 -225.2,122.9 -255.7,155.3 -38.6,41 -32.5,102.6 -28.1,127.1 2.3,12.4 3.8,24.9 5.2,37.5 l 13.9,121.1 c 1,7.6 0.8,15.3 0.5,23.4 -0.8,21.5 -1.8,50.9 26.8,70.4 43.2,29.3 99,6.5 132.1,-12.5 9.2,26.6 27.3,60.4 60.7,65.1 52.7,7.6 208.5,-84.7 266.9,-264.2 56.3,-173.1 86.6,-585 87.8,-602.4 0.7,-10 -5.3,-19.2 -14.7,-22.6 l -255.6,-91.4 c -2.4,-0.8 -4.9,-1.3 -7.5,-1.3"
         style="fill:#000000;fill-opacity:1;fill-rule:nonzero;stroke:none"
         id="path18517" />
      <path
         d="m 16440.9,20484.3 c -23.4,0 -45.5,12.6 -60.4,35.4 -37.9,58 -29.5,116.4 -29.1,118.9 1.8,12.2 13.2,20.5 25.4,18.6 12.2,-1.8 20.5,-13.2 18.6,-25.4 0,-0.3 -5.8,-44.5 22.4,-87.7 4.7,-7.1 14.6,-18.3 29,-14.4 18.6,5.2 38.3,34 40.3,86.6 3.7,95.4 -129,197.3 -130.3,198.3 -9.8,7.5 -11.7,21.5 -4.3,31.3 7.4,9.8 21.4,11.7 31.2,4.3 6.2,-4.8 152.5,-117 148,-235.6 -3.1,-80.2 -39.7,-118.6 -73,-127.8 -6,-1.7 -12,-2.5 -17.8,-2.5"
         style="fill:#000000;fill-opacity:1;fill-rule:nonzero;stroke:none"
         id="path18519" />
      <path
         d="m 20018.5,19932.5 c -156.7,63.1 -338.6,127.3 -550.6,180.5 -86.7,21.8 -298.6,71.7 -578.6,101.1 -214.6,22.4 -497.9,35.8 -830.9,6.8 -117.6,-40 -222.5,-110.7 -303.8,-204.6 l -142.3,-164.4 c -127.7,-230.5 -299,-388.8 -430.5,-359.8 -107.4,23.7 -166.2,177.3 -283.7,484.6 -60.6,158.5 -37.5,84.7 -63.5,183.1 -132.4,-29.4 -279.2,-75.1 -388.5,-135.8 -32.5,-161.7 -22.8,-447.1 109.2,-803.8 54.8,-148 119.3,-322.2 262.8,-414.9 231.4,-149.4 624.1,-58.7 1011.6,224.2 -35.7,-176.8 -71.7,-352.7 -108.3,-526.7 -154.8,-630.4 -68.7,-834.6 35.7,-906.4 171.5,-117.9 368.5,138.7 847.7,91.5 268.9,-26.5 340.3,-120.4 756.4,-166.3 266.3,-29.3 400.9,-42.5 467.3,31.9 123.5,138.3 -45.8,1427.4 -48.7,1602.9 159.1,231.1 79.5,545 238.7,776.1"
         style="fill:#ffffff;fill-opacity:1;fill-rule:nonzero;stroke:none"
         id="path18521" />
      <path
         d="m 18488.3,17716 c 37.7,0 77.2,-1.8 118.7,-5.9 124,-12.3 208.7,-39.2 298.5,-67.6 109,-34.6 232.5,-73.8 458.1,-98.7 269.2,-29.7 390.6,-40.1 448.3,24.6 86.9,97.3 8.5,904.5 -29.2,1292.3 -14.2,146.2 -24.5,251.7 -25.2,295.4 -0.1,4.6 1.3,9.1 3.9,13 76.6,111.2 95.6,241.1 115.7,378.6 18.6,127.7 37.9,259.6 107.9,374.2 -178.4,70.6 -349.5,126.1 -522.5,169.5 -179.9,45.1 -378.9,79.9 -575.5,100.5 -271.5,28.4 -548.7,30.8 -823.9,7 -112.8,-38.8 -213.6,-107 -291.6,-197.2 l -140.8,-162.6 c -141.1,-253.8 -319.1,-398.5 -453.7,-368.8 -119.1,26.3 -179.5,184 -299.7,498.4 -19.8,51.7 -30.6,78.6 -37.1,94.8 -10.4,25.7 -10.7,26.7 -17.4,52.8 -1.2,4.7 -2.6,10.2 -4.3,17 -139.2,-32.4 -263.2,-75.9 -352.4,-123.8 -16.1,-88.6 -44.2,-364.6 110.1,-781.6 54.7,-147.7 116.7,-315.2 254,-403.9 219.3,-141.6 606.4,-53.9 986.3,223.5 7.4,5.4 17.4,5.7 25.2,0.7 7.8,-4.9 11.7,-14.1 9.8,-23.1 -40.6,-201.6 -75.1,-369 -108.3,-526.9 -120.7,-491.4 -111.7,-788.4 26.5,-883.4 73,-50.2 152.4,-23.6 272.5,16.5 109.6,36.7 253.1,84.7 446.1,84.7 z m 1158.8,-240 c -75.2,0 -169.9,10.4 -288.4,23.5 -230,25.3 -355.8,65.3 -466.7,100.5 -91.2,28.9 -170,53.9 -289.4,65.7 -244.9,24.1 -412,-31.8 -546.3,-76.6 -123.2,-41.2 -220.6,-73.8 -311.9,-11 -157.2,108.1 -171.8,412.3 -44.7,930 30,142.4 61.1,293.4 97,470.6 -385.1,-266.3 -761.3,-340.3 -990.7,-192.1 -149.8,96.7 -217.3,279.2 -271.6,425.8 -164.9,445.4 -126,737.2 -110.1,816 1.3,6.4 5.3,11.9 11,15.1 131.9,73.2 303.8,117.9 394.4,138 11.8,2.6 23.4,-4.5 26.4,-16 4.6,-17.3 7.7,-29.3 9.9,-38.2 6.1,-23.7 6.1,-23.7 15.5,-47.1 6.6,-16.4 17.5,-43.5 37.4,-95.5 114.6,-299.5 172,-449.8 267.7,-470.9 113.6,-25 276.7,115.2 406.2,348.9 0.8,1.4 1.7,2.6 2.7,3.8 l 142.2,164.4 c 83.9,96.8 192.3,169.8 313.5,211.1 1.7,0.6 3.5,0.9 5.3,1.1 279,24.3 560,21.9 835.2,-6.9 198.6,-20.8 399.7,-55.9 581.6,-101.6 183.1,-45.9 364.2,-105.2 553.5,-181.4 6.3,-2.5 11.1,-7.8 13,-14.2 2,-6.5 0.9,-13.5 -3,-19.1 -76.6,-111.3 -95.5,-241.2 -115.6,-378.6 -19.6,-134.2 -39.9,-273 -118.9,-391.4 1.6,-46.3 11.9,-152.4 24.7,-284.8 59.8,-614.6 110.4,-1223.1 18.2,-1326.4 -41.8,-46.8 -105.1,-62.7 -198.1,-62.7"
         style="fill:#000000;fill-opacity:1;fill-rule:nonzero;stroke:none"
         id="path18523" />
      <path
         d="m 18602.2,20194.8 c 105.4,17.2 181.1,111.1 175.5,217.8 l -8.7,165.8 c -100,7.8 -183.3,55.5 -183.1,87.2 0.1,15.4 36.9,166.1 59.8,228.3 -19.4,15.8 -42.9,59.3 -1.2,85.9 41.8,26.6 135.6,196.1 135.6,196.1 115.8,134.6 149.3,-55.1 235.7,-70.9 59.9,-10.9 92.4,-47.4 69.8,-125.6 -22.6,-78.3 20.4,-39 64.4,-16.7 44.1,22.3 74,4.9 49.9,-66.2 -24.2,-71.2 -112.3,-113.9 -112.3,-113.9 l -41.7,-82 88,-403 c 16.6,-76.2 71.4,-138.4 144.8,-164.7 l 121.3,-43.2 -637.3,-333.7 -307.7,414.7 147.2,24.1"
         style="fill:#ffffff;fill-opacity:1;fill-rule:nonzero;stroke:none"
         id="path18525" />
      <path
         d="m 18494.7,20154.6 274.6,-370 575.2,301.2 -73.3,26.1 c -81.2,29 -140.7,96.6 -159.1,180.9 l -88,403.1 c -1.1,5 -0.4,10.2 1.9,14.8 l 41.7,82 c 2.2,4.3 5.8,7.8 10.1,9.9 0.9,0.4 80.1,39.8 101,101.1 10.6,31.2 7.1,43.9 5.6,45.6 -1.1,0.5 -8.8,1.3 -24.3,-6.5 -7.6,-3.9 -15.1,-8.2 -22.3,-12.4 -26.4,-15.2 -49.1,-28.4 -68.2,-13.4 -19,14.8 -12.8,43.1 -5.4,68.6 8.8,30.6 8.4,54.1 -1.2,69.6 -8.6,13.9 -25.8,23.3 -51.2,27.9 -38.8,7.1 -66.9,39.8 -91.8,68.7 -22.1,25.6 -42.9,49.8 -64.1,49.8 -15.7,0 -35.1,-13 -57.4,-38.5 -18.5,-33.4 -98.6,-174.5 -142,-202.1 -11,-7 -12.6,-13.6 -12.9,-18 -0.6,-11 7.9,-25.1 16.2,-31.8 7.4,-6 10.1,-16 6.9,-25 -22.9,-61.9 -57.4,-205.3 -58.5,-221.2 3.3,-14.9 69.9,-57.1 162.6,-64.3 11.1,-0.9 19.9,-9.9 20.5,-21.1 l 8.6,-165.8 c 6.2,-118.3 -77.3,-221.9 -194.1,-241 z m 268,-420.9 c -6.8,0 -13.6,3.2 -17.9,9 l -307.7,414.7 c -4.7,6.2 -5.7,14.4 -2.8,21.6 2.9,7.2 9.4,12.4 17,13.7 l 147.3,24.1 c 94.4,15.4 161.8,99.1 156.8,194.7 l -7.6,146.8 c -91,12 -184.6,57.5 -184.2,107.5 0.2,19.8 34.4,156.5 56.5,222.3 -12.5,15 -22.2,35.9 -21,57.5 0.9,15 7.4,36.4 33.5,53 26.9,17.2 92.8,124.5 128,188.1 0.8,1.3 1.7,2.6 2.7,3.8 32.2,37.4 62.5,55.7 92.6,55.7 v 0 c 41.6,0 70.2,-33.2 97.9,-65.4 21,-24.3 42.7,-49.6 66.1,-53.8 38.2,-7 65.5,-23.3 81,-48.3 16.5,-26.7 18.6,-62.3 6.1,-105.5 -1.2,-4.1 -2.1,-7.6 -2.8,-10.6 3.9,2.2 7.9,4.5 11.3,6.4 7.8,4.6 16.1,9.3 24.5,13.6 40.7,20.6 63.6,9 73.7,0.3 20,-17.4 22.5,-48.9 7.3,-93.6 -23,-67.5 -94.1,-110.8 -116.8,-123.2 l -34.8,-68.5 86.3,-395.3 c 15,-69.1 63.8,-124.6 130.5,-148.4 l 121.2,-43.2 c 8.4,-3 14.2,-10.6 14.8,-19.4 0.6,-8.9 -4.1,-17.2 -11.9,-21.3 l -637.2,-333.7 c -3.3,-1.7 -6.9,-2.6 -10.4,-2.6"
         style="fill:#000000;fill-opacity:1;fill-rule:nonzero;stroke:none"
         id="path18527" />
      <path
         d="m 18805,20551.7 c -12.9,0 -26.6,1.6 -41.1,5 -12,2.9 -19.4,14.9 -16.6,26.9 2.9,12 14.9,19.4 26.9,16.5 92.9,-22 131.4,58.3 133,61.7 5.2,11.2 18.5,16 29.7,10.9 11.1,-5.2 16,-18.5 10.8,-29.7 -16.2,-34.7 -64.6,-91.3 -142.7,-91.3"
         style="fill:#000000;fill-opacity:1;fill-rule:nonzero;stroke:none"
         id="path18529" />
      <path
         d="m 20173.1,17868.4 -358.4,-325.5 -140.2,226 -403.3,99.5 c 0,0 15.6,-109.9 222.5,-136.7 l -334,7.4 c 0,0 49.8,-94.1 258.2,-83 l -214.4,-36.5 c 0,0 138.9,-31.3 206,-60.1 67.1,-28.8 67.1,-28.8 67.1,-28.8 0,0 68.2,-42.1 113,-93.4 44.8,-51.2 116.8,-108.1 213.7,-125 96.9,-17 558.6,220.7 558.6,220.7 l -188.8,335.4"
         style="fill:#ffffff;fill-opacity:1;fill-rule:nonzero;stroke:none"
         id="path18531" />
      <path
         d="m 19311.3,17615.3 c 37.9,-10.5 78.4,-23 107,-35.3 l 67.1,-28.8 c 1,-0.5 2,-1 2.9,-1.6 2.9,-1.7 71.6,-44.4 118.1,-97.6 31.9,-36.4 100.4,-100.2 200.7,-117.8 62.7,-10.8 345.9,117.7 524,208.1 l -163.7,290.8 -337.7,-306.7 c -4.9,-4.5 -11.5,-6.5 -18.1,-5.6 -6.5,0.9 -12.3,4.7 -15.8,10.3 l -135.5,218.3 -348.4,86 c 23,-29.1 73.8,-67.2 184.7,-81.6 11.7,-1.5 20.2,-11.9 19.3,-23.7 -0.9,-11.8 -11.1,-20.8 -22.7,-20.7 l -275.6,6.1 c 34.2,-20.9 95.5,-42.7 199.1,-37.1 11.9,0.6 22.1,-8.1 23.4,-19.8 1.3,-11.7 -6.8,-22.5 -18.4,-24.5 z m 501.5,-326 c -4.9,0 -9.4,0.3 -13.4,1 -113.8,19.9 -190.8,91.5 -226.5,132.4 -38.8,44.3 -97.2,82.2 -106.7,88.2 l -65.5,28.1 c -64.5,27.7 -200.7,58.5 -202.1,58.8 -10.4,2.4 -17.7,11.7 -17.4,22.4 0.3,10.6 8.1,19.6 18.6,21.4 l 54.1,9.2 c -85.7,26.9 -112.3,74.9 -113.9,77.9 -3.7,6.9 -3.4,15.4 0.8,22.1 4.1,6.7 11.6,10.9 19.4,10.6 l 176.5,-3.9 c -77.6,45.6 -87.1,104.2 -87.6,107.7 -1.1,7.4 1.6,14.7 7.1,19.7 5.5,5 13.1,6.9 20.3,5.1 l 403.3,-99.5 c 5.6,-1.4 10.5,-4.9 13.6,-9.9 l 126.1,-203.2 338.6,307.5 c 5.1,4.5 11.9,6.5 18.6,5.5 6.7,-1.1 12.5,-5.2 15.9,-11.1 l 188.7,-335.4 c 3,-5.2 3.7,-11.5 2,-17.3 -1.8,-5.8 -5.8,-10.7 -11.2,-13.4 -46.1,-23.7 -438.6,-223.9 -559.3,-223.9"
         style="fill:#000000;fill-opacity:1;fill-rule:nonzero;stroke:none"
         id="path18533" />
      <path
         d="m 20352.4,17458.6 -297.7,409.8 c 0,0 644.6,704 -477.2,1288 l 381.7,776.1 c 0,0 956.2,-522.4 939.6,-1360.1 -16.6,-837.6 -546.4,-1113.8 -546.4,-1113.8"
         style="fill:#ffffff;fill-opacity:1;fill-rule:nonzero;stroke:none"
         id="path18535" />
      <path
         d="m 20352.4,17436.3 c -6.9,0 -13.7,3.3 -18,9.2 l -297.7,409.8 c -6.3,8.5 -5.6,20.3 1.5,28.1 2.3,2.5 225.3,251.2 169.4,566.5 -45.8,258.3 -261.2,489.4 -640.3,686.8 -11,5.6 -15.2,19.1 -9.5,30 5.6,10.9 19.1,15.2 30,9.5 392.3,-204.2 615.7,-446.2 663.8,-719.1 52.5,-297.1 -120.1,-531.2 -168.5,-589.9 l 275.5,-379.1 c 88.4,55.5 503.4,354.5 517.9,1084.8 16.2,815.1 -860.4,1335.2 -869.2,1340.4 -10.7,6.2 -14.3,19.8 -8.1,30.5 6.2,10.6 19.9,14.2 30.5,8 9.1,-5.3 908.1,-538.8 891.4,-1379.8 -16.7,-841.2 -552.9,-1130.3 -558.4,-1133.1 -3.2,-1.7 -6.8,-2.6 -10.3,-2.6"
         style="fill:#000000;fill-opacity:1;fill-rule:nonzero;stroke:none"
         id="path18537" />
      <path
         d="m 11542.8,17955.8 c 7.2,-121.9 477.2,-185 958.7,-156.8 481.6,28.2 875.5,130.7 868.4,252.6 -7.1,121.9 -412.6,217.1 -894.2,188.9 -481.6,-28.2 -940,-162.8 -932.9,-284.7"
         style="fill:#ffffff;fill-opacity:1;fill-rule:nonzero;stroke:none"
         id="path18539" />
      <path
         d="m 11565.1,17957.1 c 5.1,-87.8 414.7,-166.3 935.1,-135.8 529.9,31 852.5,143 847.4,229 -5,86.8 -354.9,198.2 -870.6,167.9 -497.6,-29.1 -917.4,-167.9 -911.9,-261.1 z m 718.3,-186.6 c -362.9,0 -755,50.2 -762.8,184 -8.8,150.5 486.1,280.9 953.8,308.3 435.8,25.4 908.6,-52.8 917.8,-209.9 9,-154.3 -440.2,-249.9 -889.4,-276.2 -69.3,-4 -143.8,-6.2 -219.4,-6.2"
         style="fill:#000000;fill-opacity:1;fill-rule:nonzero;stroke:none"
         id="path18541" />
      <path
         d="m 10816,14851.8 -235.9,-309.3 c -39.5,-65.4 -23,-147.2 36,-178.6 l 68.1,-36.4 c 55.3,-29.5 127.3,-3.5 162.8,58.6 l 250.2,323.4 -281.2,142.3"
         style="fill:#ffffff;fill-opacity:1;fill-rule:nonzero;stroke:none"
         id="path18543" />
      <path
         d="m 10598.6,14529.9 c -17,-28.7 -22.1,-62.2 -13.9,-92.1 6.6,-24.1 21.5,-43.4 41.9,-54.3 l 68.1,-36.3 c 44.9,-23.9 103.3,-2 132.9,50 0.5,0.9 1.1,1.7 1.7,2.6 l 233.7,302 -240.5,121.8 z m 135.1,-237 c -20.5,0 -41,4.8 -59.9,14.9 l -68.2,36.4 c -31.3,16.7 -54,45.7 -63.9,81.8 -11.5,41.9 -4.5,88.6 19.3,128 0.4,0.7 0.9,1.4 1.4,2 l 235.9,309.4 c 6.5,8.5 18.2,11.2 27.8,6.3 l 281.1,-142.3 c 6,-3 10.2,-8.5 11.7,-15 1.5,-6.5 0,-13.3 -4.1,-18.5 l -249.3,-322.2 c -29.9,-51.3 -81,-80.8 -131.8,-80.8"
         style="fill:#000000;fill-opacity:1;fill-rule:nonzero;stroke:none"
         id="path18545" />
      <path
         d="m 10218.8,14372.5 c -39.5,-32 -50.9,-87.5 -28,-132.8 80.2,-158.9 261.8,-516.3 320.5,-612.4 76.2,-124.7 224.1,-232.7 338,-237.1 113.9,-4.3 110.1,315 91.2,452.3 -28.2,203.8 29.9,470.7 -7.8,530.9 -21.9,35.1 -112.9,39.5 -184.9,37 -56,-1.9 -106,34.5 -122.5,88 l -26.3,85.4 c -6.6,21.7 -31.7,31.5 -51.2,19.9 -60.4,-35.9 -185.5,-114.7 -329,-231.2"
         style="fill:#ffffff;fill-opacity:1;fill-rule:nonzero;stroke:none"
         id="path18547" />
      <path
         d="m 10218.8,14372.5 h 0.2 z m 346.7,213.8 c -1.9,0 -4.1,-0.4 -6.4,-1.8 -61,-36.2 -184.4,-114.2 -326.3,-229.3 -30.9,-25.2 -40.3,-69.5 -22.1,-105.5 76.6,-151.7 261.1,-514.9 319.6,-610.8 73.9,-120.9 217.3,-222.4 319.9,-226.4 10.9,-0.2 20.1,3.9 28.9,13.7 54.5,60.2 57.9,278.7 39.3,413.2 -14.4,103.9 -7,220.3 -0.5,323 5.4,86.1 11,175.1 -4.1,199.2 -3.3,5.2 -26.6,31.3 -165.3,26.5 -65.6,-2.3 -125,40.4 -144.5,103.7 l -26.3,85.5 c -1.6,5.2 -5.4,7.3 -7.6,8.2 -1,0.4 -2.6,0.8 -4.6,0.8 z m 286.1,-1218.4 c -1.1,0 -2.1,0 -3.2,0.1 -117.6,4.5 -274.1,113.3 -356.1,247.7 -59.4,97.2 -244.6,461.7 -321.4,613.9 -27.5,54.6 -13.3,121.9 33.9,160.2 143.9,116.9 269.5,196.2 331.6,233.1 15.2,9 33.3,10.5 49.8,4.2 16.5,-6.4 28.9,-19.8 34.1,-36.7 l 26.3,-85.5 c 13.6,-44 54.2,-74.2 100.4,-72.2 115.3,3.9 182.2,-11.6 204.6,-47.5 21.7,-34.5 18.4,-104.6 10.8,-225.6 -6.4,-100.6 -13.6,-214.7 0.2,-314.1 12.2,-88.6 29.2,-361.3 -50.5,-449.3 -16.8,-18.5 -37.7,-28.3 -60.5,-28.3"
         style="fill:#000000;fill-opacity:1;fill-rule:nonzero;stroke:none"
         id="path18549" />
      <path
         d="m 10831.2,14058.4 c -0.8,0 -1.6,0.1 -2.4,0.2 l -164.3,17.6 c -12.2,1.3 -21.1,12.3 -19.8,24.5 1.3,12.2 12.2,21.2 24.6,19.8 l 164.2,-17.6 c 12.3,-1.3 21.1,-12.3 19.8,-24.5 -1.2,-11.5 -10.9,-20 -22.1,-20"
         style="fill:#000000;fill-opacity:1;fill-rule:nonzero;stroke:none"
         id="path18551" />
      <path
         d="m 12496.8,14137.7 -21.9,-253.1 c -1.9,-71.2 52,-129.7 117.8,-127.8 l 75.9,2.3 c 61.6,1.8 110.5,56.2 110.6,122.9 l 19.7,320.9 -302.1,-65.2"
         style="fill:#ffffff;fill-opacity:1;fill-rule:nonzero;stroke:none"
         id="path18553" />
      <path
         d="m 12517.6,14119.4 -20.5,-236.7 c -0.7,-28.5 10.4,-57.2 30.5,-77.3 17.8,-17.7 40.6,-26.8 64.4,-26.3 l 76,2.2 c 49.8,1.5 88.8,45.7 88.9,100.7 l 17.9,292.9 z m 71.9,-384.9 c -34.8,0 -67.8,13.9 -93.3,39.4 -28.9,28.7 -44.7,69.3 -43.6,111.3 l 22,254.4 c 0.8,9.7 7.9,17.8 17.5,19.9 l 302.1,65.2 c 6.8,1.4 13.9,-0.4 19.2,-4.9 5.3,-4.6 8.2,-11.3 7.7,-18.3 l -19.7,-320.9 c 0,-77.9 -58,-141.6 -132.1,-143.8 l -76,-2.3 c -1.2,0 -2.5,0 -3.8,0"
         style="fill:#000000;fill-opacity:1;fill-rule:nonzero;stroke:none"
         id="path18555" />
      <path
         d="m 12463.1,13913.8 c -17.2,20.2 -48.2,20.3 -65.7,0.3 -34.4,-39.4 -84.5,-106.8 -101.1,-180.5 -26.2,-116.3 -70.4,-360.7 10,-387.4 59.5,-19.8 689.5,0.8 1001.3,12.2 98.2,3.6 149.9,120.2 84.6,193.7 -49.5,55.7 -144.9,113.8 -256.7,162.5 -167.8,73.1 -247.5,137.7 -285.4,181.5 -25.8,30 -68.9,37.9 -102.7,17.2 l -101,-62.1 c -49.1,-30.1 -112.8,-20 -150.2,23.8 l -33.1,38.8"
         style="fill:#ffffff;fill-opacity:1;fill-rule:nonzero;stroke:none"
         id="path18557" />
      <path
         d="m 12430.1,13906.7 c -6.1,0 -11.8,-2.5 -15.9,-7.2 -29,-33.3 -80.2,-99.8 -96.2,-170.8 -52.5,-233.3 -40.2,-349.5 -4.7,-361.4 14.6,-4.8 129.3,-18.2 993.5,13.4 37.3,1.4 69.6,23.7 84.4,58.2 14.6,34.1 8.7,70.9 -15.6,98.4 -45.2,50.9 -133.7,106.6 -249,156.9 -174.3,75.9 -255.7,143.8 -293.3,187.4 -19.1,22 -50.3,27.4 -74.2,12.7 l -101.1,-62 c -58.8,-36.2 -133.9,-24.3 -178.7,28.2 l -33.1,38.8 c -4.1,4.8 -9.7,7.4 -15.9,7.4 -0.1,0 -0.1,0 -0.2,0 z m 67.2,-591 c -113.2,0 -179.4,3.1 -198.1,9.3 -72.7,24.2 -81,163.3 -24.7,413.4 17.3,76.7 67.2,145.9 106.2,190.4 12.5,14.4 30.8,21.8 49.8,22.5 19.1,-0.1 37.2,-8.5 49.6,-23.1 l 33.1,-38.7 c 30.4,-35.7 81.5,-43.8 121.5,-19.3 l 101.1,62.1 c 42.6,26.2 97.8,17.1 131.2,-21.6 34.6,-40 110.8,-103 277.4,-175.7 121.2,-52.8 215.1,-112.5 264.5,-168.1 35.6,-40.1 44.5,-95.9 23.3,-145.5 -21.6,-50.6 -69.1,-83.3 -123.8,-85.3 -372.2,-13.6 -643.2,-20.4 -811.1,-20.4"
         style="fill:#000000;fill-opacity:1;fill-rule:nonzero;stroke:none"
         id="path18559" />
      <path
         d="m 12796.5,13577.1 c -7.1,0 -14,3.4 -18.4,9.6 -7,10.1 -4.4,24 5.7,31 l 153.3,106.1 c 10.1,7 24,4.5 31,-5.7 7,-10.1 4.5,-24 -5.6,-31 l -153.4,-106 c -3.8,-2.7 -8.2,-4 -12.6,-4"
         style="fill:#000000;fill-opacity:1;fill-rule:nonzero;stroke:none"
         id="path18561" />
      <path
         d="m 13220.9,17060.1 c 0,0 -65.7,-625.7 -162.4,-1113.8 -77.2,-389.7 -28.3,-898.6 -145.9,-1467.5 -35.4,-171.5 -91.8,-433.2 -91.8,-433.4 l -357,-10.3 c -25.3,45.1 -171,854.9 -24.3,1537.5 86.8,403.3 -154.4,966.2 -94.6,1332.7 47.4,289.9 240.1,1540 240.1,1540 l 601.9,-178.4 c 0,0 41.7,-705.7 34,-1206.8"
         style="fill:#000000;fill-opacity:1;fill-rule:nonzero;stroke:none"
         id="path18563" />
      <path
         d="m 12763.3,18266.9 c -114,517.7 -945.9,83.1 -1127.9,-833.1 -71.3,-358.9 -211.4,-959.4 -201.6,-1223.5 3.6,-99.6 -33.1,-196.6 -99,-271.4 -466.2,-529.1 -443.8,-589.5 -620.5,-1136.9 -2.8,-8.6 139.7,-237.3 239.9,-269.5 403.6,307.8 792.8,1002 1007.5,1247 214.9,245.2 639.6,1745.3 639.6,1745.3 0,0 231.9,424.8 162,742.1"
         style="fill:#000000;fill-opacity:1;fill-rule:nonzero;stroke:none"
         id="path18565" />
      <path
         d="m 12346.7,16675.2 c -2.3,0 -4.6,0.4 -7,1.2 -11.7,3.8 -18,16.5 -14.1,28.1 15.3,46.2 30.2,92.1 44.8,137.3 l 2.9,9.4 c 16.8,54.5 61.5,199.2 196.6,257.3 11.2,4.9 24.4,-0.3 29.3,-11.6 4.8,-11.3 -0.4,-24.4 -11.7,-29.3 -116.2,-50 -156.4,-180.4 -171.6,-229.5 l -3.1,-10 c -14.6,-45.3 -29.6,-91.3 -44.9,-137.6 -3.1,-9.3 -11.8,-15.3 -21.2,-15.3"
         style="fill:#ffffff;fill-opacity:1;fill-rule:nonzero;stroke:none"
         id="path18567" />
      <path
         d="m 12102.1,19338.8 c -73.6,-5.3 -227.1,-5.7 -381.8,82 -154.6,87.8 -336,278 -298,435.2 33.4,138.1 201.9,108.8 351.2,268.5 235.9,252.4 15.7,539.8 221.4,828.7 181.6,255.1 600.5,379.8 816.2,233.9 361.5,-244.5 63.5,-650 63.5,-650 -257.5,-399.4 -515,-798.9 -772.5,-1198.3"
         style="fill:#000000;fill-opacity:1;fill-rule:nonzero;stroke:none"
         id="path18569" />
      <path
         d="m 11987.5,21109 c -62.9,101.7 -31.4,235.1 70.3,297.9 101.7,62.9 235.1,31.4 298,-70.3 62.8,-101.7 31.3,-235.1 -70.4,-297.9 -101.6,-62.9 -235,-31.4 -297.9,70.3"
         style="fill:#000000;fill-opacity:1;fill-rule:nonzero;stroke:none"
         id="path18571" />
      <path
         d="m 10065.7,17504.5 -377.28,40.7 -280.81,-163.2 c 0,0 22.52,-37.8 55.03,-51.2 32.42,-13.3 73.32,-2.3 103.4,2.9 30.08,5.2 161.28,52.5 161.28,52.5 0,0 47.34,-31.6 111.88,-59.6 -55.8,-43 -65.82,-149.4 -65.82,-149.4 l 291.32,114 c 26.1,7.1 46.5,18.7 62.4,32.9 66.6,59.5 27.5,170.8 -61.4,180.4"
         style="fill:#ffffff;fill-opacity:1;fill-rule:nonzero;stroke:none"
         id="path18573" />
      <path
         d="m 9727.31,17408.5 c 4.36,0 8.67,-1.3 12.38,-3.7 0.46,-0.4 46.62,-30.9 108.38,-57.7 7.24,-3.2 12.28,-9.9 13.25,-17.7 0.98,-7.8 -2.27,-15.6 -8.51,-20.4 -27.03,-20.9 -42.68,-63.3 -50.68,-96.6 l 254.37,99.5 c 0.8,0.3 1.5,0.5 2.3,0.8 21,5.7 39,15.2 53.4,28 23.7,21.2 31.9,52.3 22,83.3 -8.2,25.4 -31,54 -70.9,58.3 l -370,40 -252.86,-147 c 8.22,-9.3 19.06,-19.1 30.68,-23.8 21.75,-9 51.38,-3.3 77.55,1.7 4.7,0.8 9.25,1.7 13.57,2.5 20.66,3.5 105.52,32.7 157.52,51.5 2.46,0.9 5.02,1.3 7.55,1.3 z m 46.07,-253.6 c -4.77,0 -9.49,1.6 -13.42,4.5 -6.17,4.7 -9.51,12.2 -8.77,19.9 0.38,4.1 8.6,86.2 50.05,140.2 -35.41,17.1 -62.94,33.5 -76.69,42 -33.15,-11.8 -127.66,-45.1 -154.71,-49.8 l -12.84,-2.3 c -30.68,-5.9 -68.82,-13.1 -102.81,0.8 -38.29,15.7 -63.03,55.8 -65.73,60.3 -3.05,5.2 -3.93,11.3 -2.44,17 1.49,5.8 5.23,10.7 10.38,13.7 l 280.82,163.3 c 4.09,2.4 8.87,3.4 13.6,2.9 l 377.28,-40.8 c 51.1,-5.5 92.7,-39.6 108.5,-89 15.3,-47.5 2,-97.4 -34.7,-130.1 -19.3,-17.3 -42.9,-29.9 -70.2,-37.5 l -290.2,-113.5 c -2.62,-1.1 -5.38,-1.6 -8.12,-1.6"
         style="fill:#000000;fill-opacity:1;fill-rule:nonzero;stroke:none"
         id="path18575" />
      <path
         d="m 14560.5,21009.4 c -35.6,-8.6 -66,-12.6 -87.5,-14.7 l -7.5,-0.7 c 0,0 20.2,-132.4 9.8,-306.4 l -272.3,27.9 c 52.5,129.4 82.2,273.4 68.5,417.7 0,0 -8.4,99.7 13,158.1 22.7,61.8 38.1,70.7 58.8,123.8 43.7,111.8 -18.6,179.8 19.8,207 19.8,13.9 49.2,-0.6 63.4,-17.1 30.5,-35.7 29.3,-115.2 26.4,-136.5 -3.3,-24.4 -9.4,-63 -14.1,-88.8 8,6.7 150,88.3 191.4,-33.2 12.2,-35.8 19.8,-67.8 37.6,-153.5 11.9,-57.3 8.8,-103.9 -14.2,-131.8 -19.9,-24.2 -32.5,-37.1 -93.1,-51.8"
         style="fill:#ffffff;fill-opacity:1;fill-rule:nonzero;stroke:none"
         id="path18577" />
      <path
         d="m 14560.5,21009.4 h 0.2 z m -326.1,-274.7 219.9,-22.6 c 7.2,158.3 -10.6,277.3 -10.8,278.5 -0.9,6 0.7,12.2 4.4,17 3.8,4.9 9.3,7.9 15.4,8.6 l 7.5,0.7 c 28.4,2.8 56.8,7.5 84.5,14.2 55.7,13.5 64.2,23.8 81.1,44.3 17.3,20.9 20.6,60 9.6,113.1 -18.1,87.3 -25.4,116.9 -36.9,150.9 -8.7,25.6 -22.7,41.2 -42.7,47.6 -44.5,14.2 -106.1,-19.3 -113.9,-24.9 -7.4,-5.3 -17.6,-5.8 -25.2,-1 -7.7,4.8 -12,13.6 -10.4,22.5 4.5,25.5 10.7,64.1 13.9,88 3.3,23.9 1.7,92.1 -21.2,118.8 -8.8,10.3 -26.4,18.6 -33.6,13.5 -5.6,-4 -4.3,-15.5 -0.2,-40.9 5.7,-35.6 14.3,-89.3 -11.7,-156 -10.2,-26.1 -19.3,-42.3 -28,-58 -9.9,-17.5 -19.1,-34 -30.7,-65.4 -19.5,-53.2 -11.7,-147.6 -11.6,-148.6 12,-126.5 -8.6,-264.4 -59.4,-400.3 z m 240.9,-69.4 c -0.7,0 -1.5,0 -2.3,0.1 l -272.3,28 c -7,0.7 -13.2,4.6 -16.8,10.6 -3.6,6 -4.2,13.4 -1.6,19.9 56,138.1 79.2,278.9 67,407.2 -0.3,4.4 -8.6,105.5 14.3,167.8 12.7,34.8 23.3,53.7 33.6,72 8.4,14.9 16.3,29.1 25.4,52.3 21.6,55.4 14.7,98.2 9.1,132.7 -5,31.5 -10.3,64 18.6,84.4 29.4,20.7 70.4,5.7 93.1,-20.8 37.6,-43.9 34.5,-132.6 31.6,-153.9 -1.8,-13 -4.3,-29.7 -6.9,-46.4 30,11.8 71,21.8 108,11.4 24.7,-6.9 57.8,-25.9 75.2,-76.9 13.1,-38.4 21,-72.6 38.3,-156.2 14.1,-67.7 7.7,-118.3 -18.8,-150.5 -24.2,-29.4 -41.5,-43.9 -105.1,-59.2 -24.7,-6 -49.9,-10.5 -75.1,-13.6 5.3,-45.6 15,-154.1 7,-288 -0.4,-6 -3.2,-11.7 -7.9,-15.6 -4,-3.5 -9.1,-5.3 -14.4,-5.3"
         style="fill:#000000;fill-opacity:1;fill-rule:nonzero;stroke:none"
         id="path18579" />
      <path
         d="m 14575.4,21021.2 c -1.3,0 -2.6,0.2 -4,0.4 -65.1,11.9 -104.4,50.5 -105.2,103.2 -0.5,36.2 -1.2,81.3 -31.3,160.2 -21.1,55.3 18.5,98.3 42.4,113.3 10.5,6.6 24.2,3.4 30.8,-7 6.5,-10.4 3.4,-24.1 -6.9,-30.7 -3.9,-2.5 -37.7,-25.5 -24.6,-59.7 32.9,-86.2 33.7,-137.8 34.2,-175.5 0.6,-42.9 48.2,-56.2 68.7,-60 12.1,-2.2 20.1,-13.8 17.9,-25.9 -2,-10.7 -11.4,-18.3 -22,-18.3"
         style="fill:#000000;fill-opacity:1;fill-rule:nonzero;stroke:none"
         id="path18581" />
      <path
         d="m 14543.7,20904.4 -327.1,37.2 c -170.4,-282.5 -477.4,-979 -1300,-994.2 -15,-0.2 -30.1,-0.5 -45.2,-0.8 -357.8,5.8 -675.9,-28.1 -939.8,-116.5 -7.7,-2.6 -14.9,-6.2 -21.8,-10.1 0,0 0,0.2 0,0.2 -412.6,-162.3 -1110.9,-1562 -1880.3,-2313.1 l 134.1,-149.5 c 0,0 1082.8,392.4 1417.9,1072.3 48.6,98.7 89.8,197.9 125.1,295.5 -46,-247 -99.4,-493.5 -160.4,-739.3 648.9,46.8 1543.1,219.2 1813.8,77.6 38.4,404.9 13.3,772.4 -36.5,1113.2 1156.9,329 1220.2,1727.5 1220.2,1727.5"
         style="fill:#ffffff;fill-opacity:1;fill-rule:nonzero;stroke:none"
         id="path18583" />
      <path
         d="m 10060.3,17506.1 109.7,-122.3 c 127.5,48.9 1084.7,433.6 1391.5,1056 45.2,91.8 87,190.5 124.1,293.2 3.9,10.9 15.7,17 26.8,13.9 11.2,-3 18.2,-14.1 16.1,-25.6 -44.2,-237.6 -95.7,-476.5 -153.3,-710.7 177.7,13.7 375.1,36.5 566.4,58.5 504.8,58.1 983,113.2 1199.1,27.9 30.1,344.7 17.6,687.8 -39.3,1076.6 -1.6,11.1 5.2,21.6 16,24.7 1052,299.2 1188.4,1512.3 1202.5,1686.4 l -291.5,33.1 c -14.6,-24.7 -30.3,-52.2 -47.2,-81.9 -178.2,-313.4 -510.1,-896.9 -1264.2,-910.8 l -45.2,-0.8 c -378.1,6.2 -683.1,-31.6 -933.1,-115.4 -5.5,-1.8 -11.1,-4.5 -17.8,-8.3 -1.9,-1 -3.8,-1.8 -5.8,-2.3 -209.6,-85.2 -501.6,-506 -839.5,-993 -306.3,-441.4 -652.8,-940.9 -1015.3,-1299.2 z m 103.3,-170.8 c -6.2,0 -12.3,2.6 -16.6,7.4 l -134.1,149.5 c -8,8.9 -7.6,22.5 1,30.8 364.9,356.3 715.7,861.8 1025.1,1307.7 343.5,495.2 640.2,922.8 862.6,1010.2 8.1,4.5 15.5,7.8 22.9,10.3 254.9,85.4 564.7,123.7 947.2,117.7 l 44.5,0.8 c 728.7,13.4 1040.2,561.1 1226.3,888.3 19.9,35 38.2,67.1 55,95.1 4.6,7.5 13.1,11.7 21.7,10.6 l 327,-37.1 c 11.6,-1.3 20.3,-11.5 19.7,-23.2 -0.1,-3.5 -17.8,-358 -177.9,-747.8 -146.7,-357.4 -445.9,-818.1 -1039.7,-994.7 56.7,-396.3 67.4,-746.1 33.9,-1099.3 -0.7,-7.4 -5,-13.9 -11.5,-17.5 -6.6,-3.5 -14.4,-3.6 -21,-0.1 -187.1,97.8 -703.6,38.3 -1203,-19.2 -202.8,-23.4 -412.4,-47.5 -598.9,-61 -7.2,-0.3 -14.1,2.4 -18.7,7.9 -4.5,5.5 -6.3,12.8 -4.5,19.7 41.8,168.4 80.5,339.5 115.6,510.8 -12.6,-27.9 -25.5,-55.3 -38.7,-82.1 -335.2,-680.2 -1385.8,-1067.4 -1430.3,-1083.5 -2.5,-0.9 -5.1,-1.3 -7.6,-1.3"
         style="fill:#000000;fill-opacity:1;fill-rule:nonzero;stroke:none"
         id="path18585" />
      <path
         d="m 12315.3,20327.4 23.3,-300.6 c 11.5,-147.9 109.2,-277 250.3,-322.9 24,-7.8 49.2,-14.3 75.4,-18.7 67.2,-11.6 125.1,48.4 113.7,115.6 l -63.9,375.9 -398.8,150.7"
         style="fill:#ffffff;fill-opacity:1;fill-rule:nonzero;stroke:none"
         id="path18587" />
      <path
         d="m 12340.2,20294.1 20.6,-265.6 c 11,-141.4 103.2,-260.5 234.9,-303.3 24.3,-7.9 48.6,-14 72.3,-18.1 24.3,-4.1 48.3,3.6 65.9,21.2 18.1,18.1 26.3,43.8 22.1,68.8 l -61.7,363.3 z m 340.9,-632.7 c -6.8,0 -13.7,0.6 -20.6,1.8 -25.8,4.4 -52.2,11 -78.5,19.5 -149,48.5 -253.2,182.9 -265.6,342.4 l -23.4,300.6 c -0.5,7.6 2.8,15 8.9,19.5 6.1,4.6 14.1,5.7 21.3,3.1 l 398.8,-150.7 c 7.4,-2.8 12.8,-9.3 14.1,-17.1 l 63.8,-375.9 c 6.7,-39.3 -6.2,-79.6 -34.5,-107.8 -23,-23 -52.9,-35.4 -84.3,-35.4"
         style="fill:#000000;fill-opacity:1;fill-rule:nonzero;stroke:none"
         id="path18589" />
      <path
         d="m 12839.5,20959.5 c 40.8,13.3 240.2,-648 76,-782.6 -164.2,-134.5 -495.1,-128.9 -609.7,71.2 0,0 -132.9,-43.1 -176.2,139.4 -36.4,153.1 129.9,106.6 181.6,88.8 10.2,-3.5 21.2,-3.5 31.4,-0.2 126.6,58.7 -83.9,221.9 220.3,454 0,0 123.9,-20.1 276.6,29.4"
         style="fill:#ffffff;fill-opacity:1;fill-rule:nonzero;stroke:none"
         id="path18591" />
      <path
         d="m 12839.5,20959.5 h 0.2 z m 6.8,-21.2 c 0,0 0,0 0,0 0,0 0,0 0,0 z m -540.5,-667.9 c 7.8,0 15.3,-4.2 19.4,-11.2 42.4,-74.2 121.7,-125.3 223.1,-144 127.4,-23.4 265.9,7.6 353,79 34.3,28 53.5,90.3 55.6,180.1 4.9,213.8 -87.1,511.6 -121,560.7 -128.4,-39.4 -234.6,-31.9 -266.8,-28.3 -168.6,-131.7 -163.3,-237.5 -159.4,-315.1 2.7,-54.7 5.3,-106.5 -57.8,-135.7 -0.8,-0.4 -1.6,-0.7 -2.5,-1 -14.7,-4.8 -30.9,-4.7 -45.4,0.3 -53.4,18.4 -119.6,29.8 -145.1,6.7 -13.1,-11.9 -15.7,-35.2 -7.6,-69.3 13.5,-56.9 37.2,-95.2 70.4,-113.8 37.9,-21.3 76.9,-9.7 77.2,-9.5 2.3,0.7 4.6,1.1 6.9,1.1 z m 327.5,-207.4 c -31.2,0 -62.5,2.8 -93.1,8.4 -108.2,19.9 -194.6,73.5 -245.2,151.6 -21.1,-3.1 -58.1,-3.9 -95.2,16.9 -44.5,25 -75.4,72.9 -91.9,142.4 -12.1,51.1 -5,89 21.1,112.6 47.1,42.7 138.9,19.9 189.5,2.5 5.1,-1.8 10.7,-2 16,-0.5 33.1,16 33.3,38.8 30.6,92.5 -4.2,83.5 -10.5,209.8 184.2,358.4 4.9,3.7 11.1,5.2 17.1,4.3 1.2,-0.2 121,-18.5 266.2,28.6 24.8,8.1 40.3,-20.3 46.9,-32.4 62.6,-114.7 211.2,-656.6 50.1,-788.6 -75.6,-62 -185.3,-96.7 -296.3,-96.7"
         style="fill:#000000;fill-opacity:1;fill-rule:nonzero;stroke:none"
         id="path18593" />
      <path
         d="m 7352.46,10452.1 c -169.08,-19.1 14.07,422.3 14.07,422.3 l 671.51,34.3 508.27,140.2 c 52.22,14.4 106.36,-15.8 121.62,-67.8 15.59,-53.2 -15.25,-108.8 -68.54,-123.7 l -226.99,-63.2 c -31.5,-8.8 -42.86,-47.6 -21.08,-72.1 33.73,-37.8 73.92,-69.2 118.9,-92.5 81.73,-42.4 225.04,-112 375.09,-163.2 70.41,-24 83.45,-113.1 13.2,-137.5 l -482.79,20.7 c -122.35,5.2 -275.21,95.7 -357.01,186.9 0,0 -375.36,-51.6 -666.25,-84.4"
         style="fill:#ffffff;fill-opacity:1;fill-rule:nonzero;stroke:none"
         id="path18595" />
      <path
         d="m 8018.7,10558.8 c 6.3,0 12.34,-2.6 16.6,-7.4 75.57,-84.3 223.92,-174.5 341.37,-179.6 l 478.24,-20.4 c 18.09,7.5 27.97,21.1 27.91,38.7 -0.05,19.9 -13.9,44.7 -44.7,55.2 -146.95,50.1 -286.74,117.1 -378.14,164.5 -47.35,24.5 -89.51,57.3 -125.3,97.5 -15.39,17.3 -20.69,40.8 -14.18,63 6.51,22.2 23.67,39.1 45.91,45.3 l 226.99,63.3 c 19.96,5.6 36.5,18.6 46.57,36.7 10.09,18.2 12.43,39.2 6.57,59.2 -11.77,40.1 -54.12,63.7 -94.29,52.6 l -508.28,-140.2 c -1.56,-0.4 -3.17,-0.7 -4.79,-0.8 l -657.35,-33.6 c -48.17,-120.1 -105.15,-315.4 -65.92,-367.5 4.81,-6.4 13.06,-13.5 34.05,-11.1 287.3,32.5 661.95,83.9 665.7,84.4 1.01,0.2 2.04,0.2 3.04,0.2 z m 839.82,-252.2 c -0.32,0 -0.63,0 -0.96,0 l -482.8,20.7 c -129.7,5.6 -281.81,98.1 -364.57,185.6 -65.46,-9 -395.82,-53.7 -655.23,-83 -40.49,-4.5 -63,13 -74.69,28.6 -69.19,91.9 51.66,390.7 65.67,424.4 3.3,7.9 10.87,13.3 19.45,13.7 l 669.07,34.2 505.92,139.6 c 63.61,17.5 130.37,-19.7 148.94,-83.1 9.24,-31.5 5.55,-64.6 -10.37,-93.3 -15.91,-28.6 -42.03,-49.3 -73.57,-58.1 l -227,-63.2 c -10.54,-3 -14.07,-11.4 -15.09,-14.9 -1.04,-3.5 -2.65,-12.6 4.67,-20.8 32.16,-36.1 70.02,-65.6 112.52,-87.6 73.72,-38.2 220.09,-110 372.03,-161.9 44.68,-15.3 74.78,-54.4 74.9,-97.3 0.1,-37.6 -23.49,-69.1 -61.58,-82.4 -2.35,-0.8 -4.82,-1.2 -7.31,-1.2"
         style="fill:#000000;fill-opacity:1;fill-rule:nonzero;stroke:none"
         id="path18597" />
      <path
         d="m 5698.33,13530.9 c -380.65,-87.3 -649.92,-275.4 -649.92,-275.4 0,0 -582.28,-371.3 -568.44,-1079.8 10.73,-549.8 419.63,-1204.2 416.42,-1251.1 -35.95,-524.7 -76.16,-506.8 -21.89,-693.7 131.76,-453.8 1997.51,-266.6 2030.67,-58.7 30.08,188.7 -56.61,504.3 -13.08,928.6 38.48,375.1 174.61,836.6 174.61,836.6 606.58,-347 1236.56,-302.5 1809.75,104 675.79,479.2 1188.65,1545.1 1188.65,1545.1 l -373.01,216 c 0,0 -804.63,-926.5 -1480.31,-998.9 -402.49,-43.1 -750.95,192.3 -954.2,373.1 -205.04,182.3 -453.82,309.6 -723.48,360.4 -237.23,44.6 -531.44,63.6 -835.77,-6.2"
         style="fill:#ffffff;fill-opacity:1;fill-rule:nonzero;stroke:none"
         id="path18599" />
      <path
         d="m 5698.33,13530.9 4.99,-21.7 c -371.66,-85.3 -639.49,-270.1 -642.15,-271.9 -6.48,-4.2 -572.33,-373.9 -558.91,-1061.1 8.04,-412.3 242.99,-884.7 355.9,-1111.8 47.87,-96.2 61.61,-124.7 60.47,-141.3 -12.93,-188.7 -26.19,-305.5 -35.87,-390.7 -16.89,-148.8 -20.41,-179.7 13.15,-295.3 68.92,-237.4 666.53,-286 1157.28,-255.4 475.61,29.7 819.12,126.1 829.96,194.1 12.59,78.9 3.64,185.5 -6.7,309 -14.02,167.3 -31.45,375.4 -6.53,618.3 38.24,372.8 174.03,836 175.4,840.6 1.93,6.6 6.74,11.9 13.06,14.4 6.3,2.5 13.45,2.1 19.39,-1.3 594.13,-339.9 1211.63,-304.4 1785.78,102.8 614.67,435.8 1100.43,1374.5 1172.35,1518.1 l -339.16,196.3 c -107.12,-120.5 -843.26,-924 -1482.59,-992.5 -402.53,-43.2 -750.41,182 -971.39,378.5 -206.25,183.4 -452.73,306.2 -712.78,355.2 -291.74,54.9 -569.89,52.8 -826.66,-6 z m 92.38,-3602.1 c -448.3,0 -873.97,76.6 -937.62,295.9 -36.04,124.1 -31.51,164.1 -14.63,312.7 9.64,84.9 22.82,201 35.69,388.8 -1.72,9.4 -28.04,62.3 -55.9,118.4 -114.37,229.9 -352.33,708.5 -360.57,1130.7 -13.92,712.8 572.81,1095.3 578.75,1099 1.94,1.4 276.44,191.1 656.92,278.3 262.84,60.3 547.1,62.4 844.87,6.4 268.02,-50.4 521.88,-176.9 734.17,-365.7 214.25,-190.5 550.59,-408.9 937.01,-367.5 659.35,70.7 1457.88,982.1 1465.86,991.3 7.02,8.1 18.73,10 28,4.7 l 373.04,-216 c 10.1,-5.8 14,-18.5 8.9,-29 -5.1,-10.7 -523.15,-1076.6 -1195.85,-1553.6 -581.38,-412.3 -1206.29,-453.2 -1808.99,-119.1 -29.31,-103.9 -133.55,-488.3 -166.1,-805.6 -24.48,-238.8 -7.24,-444.6 6.61,-609.9 11.04,-131.6 19.75,-235.6 6.3,-319.9 -20.92,-131.3 -532.47,-210.4 -871.21,-231.5 -87.53,-5.4 -176.87,-8.4 -265.25,-8.4"
         style="fill:#000000;fill-opacity:1;fill-rule:nonzero;stroke:none"
         id="path18601" />
      <path
         d="m 5327.28,13204.1 c 0,0 -414.6,-176 -633.52,-892.5 -120.82,-395.4 -98.68,-959.3 497.16,-1708.9 119.18,-150 286.56,-299.1 475.54,-320.6 l 1810.91,85.3 -8.05,584.9 c 0,0 -1404.37,81 -1615.45,161.1 -186.95,70.9 -457.71,994.5 -485.89,1447.7 l -40.7,643"
         style="fill:#ffffff;fill-opacity:1;fill-rule:nonzero;stroke:none"
         id="path18603" />
      <path
         d="m 5666.46,10259.8 c -0.85,0 -1.69,0 -2.52,0.1 -208.17,23.8 -381.62,192 -490.46,328.9 -64.29,80.9 -126.25,162.8 -184.16,243.4 -7.19,10 -4.91,24 5.09,31.1 10.02,7.2 23.93,4.9 31.11,-5.1 57.5,-80 119.03,-161.4 182.85,-241.7 103.29,-129.9 266.63,-289.3 458.86,-312.1 l 1787.56,84.2 -7.48,542.6 c -181.62,10.8 -1401.13,85.4 -1601.34,161.4 -170.05,64.5 -370.05,707.5 -451.67,1121.8 -2.39,12.1 5.47,23.8 17.55,26.2 12.1,2.4 23.8,-5.5 26.18,-17.6 93.48,-474.4 290.5,-1038.2 423.74,-1088.7 205.49,-78 1594.82,-158.9 1608.83,-159.8 11.69,-0.6 20.85,-10.2 21.01,-21.9 l 8.06,-584.9 c 0.16,-12 -9.24,-22 -21.25,-22.6 l -1810.91,-85.3 c -0.35,0 -0.7,0 -1.05,0"
         style="fill:#000000;fill-opacity:1;fill-rule:nonzero;stroke:none"
         id="path18605" />
      <path
         d="m 5491.89,4701.7 -131.98,-639.3 345.54,-98.7 191.09,622.4 -404.65,115.6"
         style="fill:#ffffff;fill-opacity:1;fill-rule:nonzero;stroke:none"
         id="path18607" />
      <path
         d="m 5385.93,4078.1 304.63,-87 177.99,579.8 -359.69,102.7 z m 319.53,-136.7 c -2.02,0 -4.09,0.3 -6.13,0.8 l -345.55,98.7 c -11.21,3.3 -18.05,14.6 -15.7,26 l 131.98,639.3 c 1.25,6 4.98,11.3 10.28,14.5 5.31,3.2 11.72,4.1 17.68,2.4 l 404.65,-115.6 c 5.75,-1.6 10.6,-5.5 13.46,-10.8 2.85,-5.3 3.47,-11.4 1.72,-17.2 l -191.08,-622.4 c -2.94,-9.6 -11.76,-15.7 -21.31,-15.7"
         style="fill:#000000;fill-opacity:1;fill-rule:nonzero;stroke:none"
         id="path18609" />
      <path
         d="m 5245.62,3523.6 c 3.9,-61.5 78.46,-110.8 138.71,-120 209.57,-32 702.16,-18.5 835.95,-27.8 173.64,-12.1 499.75,0.9 512.38,112.7 15.41,136.4 -130.18,335.2 -478.58,444.1 -180.18,56.3 -370.76,335.5 -455.1,340.5 -84.33,4.9 -233.6,-215.5 -233.6,-215.5 l -240.11,82.4 c 0,0 -99.46,-304.4 -79.65,-616.4"
         style="fill:#ffffff;fill-opacity:1;fill-rule:nonzero;stroke:none"
         id="path18611" />
      <path
         d="m 5339.92,4111.4 c -21.62,-74.5 -88.36,-329.5 -72.05,-586.4 v 0 c 2.97,-46.9 65.71,-91.1 119.82,-99.4 135.54,-20.7 388.6,-22.1 591.94,-23.2 104.77,-0.6 195.25,-1.1 242.2,-4.4 229.12,-16 480.17,17.6 488.68,93 14.93,132.3 -139.34,319.1 -463.09,420.3 -104.81,32.8 -211.87,136.3 -297.9,219.4 -60.21,58.2 -122.46,118.4 -151.86,120.1 -48.77,2.4 -154.78,-118.5 -213.81,-205.7 -5.65,-8.4 -16.19,-11.9 -25.7,-8.6 z M 6335.45,3350 c -63.68,0 -110.55,3.1 -116.73,3.5 -45.52,3.2 -135.33,3.7 -239.34,4.3 -204.79,1.1 -459.65,2.6 -598.42,23.7 -72.2,11.1 -152.98,68 -157.59,140.7 -19.84,312.7 76.6,612.1 80.71,624.7 1.87,5.7 5.91,10.4 11.26,13.1 5.32,2.6 11.51,3 17.17,1.1 l 224.13,-76.9 c 40.6,57.8 159.46,216.5 243.65,211.1 45.88,-2.7 102.22,-57.1 180.21,-132.5 82.64,-79.9 185.51,-179.3 280.22,-208.9 362.97,-113.5 510.56,-322.1 494.09,-467.9 -13.31,-117.9 -265.45,-136 -419.36,-136"
         style="fill:#000000;fill-opacity:1;fill-rule:nonzero;stroke:none"
         id="path18613" />
      <path
         d="m 6420.02,3516.7 c -46.02,0 -96.4,2.6 -149.76,5.5 -78.88,4.1 -160.43,8.4 -240.63,4.7 -182.79,-8.4 -339.18,-1.1 -438.2,6.5 -185.8,14.2 -193.01,25.6 -197.32,32.5 -4.28,6.7 -4.6,15.4 -0.83,22.5 5.75,10.8 19.04,14.9 29.88,9.3 31.78,-8 283.05,-41 604.42,-26.3 82.37,3.8 165.05,-0.5 245.02,-4.7 120.32,-6.4 233.95,-12.3 298.78,15.6 11.3,4.8 24.43,-0.4 29.28,-11.7 4.87,-11.3 -0.36,-24.4 -11.67,-29.3 -44.12,-19 -101.91,-24.6 -168.97,-24.6"
         style="fill:#000000;fill-opacity:1;fill-rule:nonzero;stroke:none"
         id="path18615" />
      <path
         d="m 5972.86,3736 c -5.58,0 -11.18,2 -15.51,6.2 -8.83,8.6 -9.06,22.7 -0.5,31.6 l 126.48,130.6 c 8.54,8.8 22.67,9 31.51,0.5 8.84,-8.6 9.07,-22.7 0.51,-31.6 l -126.47,-130.6 c -4.37,-4.5 -10.19,-6.7 -16.02,-6.7"
         style="fill:#000000;fill-opacity:1;fill-rule:nonzero;stroke:none"
         id="path18617" />
      <path
         d="m 3617.7,4732.1 -17.59,-445.9 308.46,-75.2 54.96,517.9 -345.83,3.2"
         style="fill:#ffffff;fill-opacity:1;fill-rule:nonzero;stroke:none"
         id="path18619" />
      <path
         d="m 3623.1,4303.5 265.99,-64.8 49.68,468.2 -299.65,2.7 z m 285.47,-114.8 c -1.76,0 -3.53,0.2 -5.27,0.7 l -308.47,75.1 c -10.31,2.5 -17.42,12 -16.99,22.6 l 17.58,445.9 c 0.47,11.9 10.32,21.4 22.28,21.4 0.06,0 0.13,0 0.2,0 l 345.84,-3.2 c 6.28,0 12.26,-2.8 16.44,-7.4 4.18,-4.7 6.19,-11 5.52,-17.2 l -54.95,-517.9 c -0.69,-6.4 -4.1,-12.2 -9.35,-15.9 -3.79,-2.7 -8.28,-4.1 -12.83,-4.1"
         style="fill:#000000;fill-opacity:1;fill-rule:nonzero;stroke:none"
         id="path18621" />
      <path
         d="m 3955.64,3400.3 c -123.61,-17.6 -325.38,-25.1 -564.31,0.2 -107.12,11.4 -148.89,161.6 -130.08,239 52.4,215.5 143.48,562.9 298.43,752.3 l 56.91,-115.7 53.72,112.8 c 7.28,13.3 20.36,22.2 35.23,24.1 l 115.89,-1.1 c 24.32,3.1 46.94,-13.2 51.99,-37.4 l 18.53,-89.2 98.88,115.1 77.18,-849.9 c 9.49,-72.8 -40.52,-140 -112.37,-150.2"
         style="fill:#ffffff;fill-opacity:1;fill-rule:nonzero;stroke:none"
         id="path18623" />
      <path
         d="m 3555.48,4349.8 c -148,-203.3 -234.6,-559.4 -272.57,-715.6 -10.06,-41.3 0.21,-113.4 34.79,-162.5 20.65,-29.4 46.21,-45.9 75.99,-49 201.47,-21.3 410.4,-21.5 558.8,-0.3 0,0 0,0 0.01,0 59.4,8.4 101.31,64.6 93.41,125.2 l -72.52,798.3 -64.53,-75.1 c -5.52,-6.4 -14.24,-9.2 -22.47,-7 -8.23,2.1 -14.53,8.7 -16.26,17 l -18.54,89.1 c -2.64,12.8 -14.53,21.5 -27.33,19.9 -1.01,-0.1 -2.07,-0.2 -3.05,-0.2 l -114.11,1.1 c -7.24,-1.3 -13.63,-5.9 -17.26,-12.5 l -53.13,-111.6 c -3.68,-7.8 -11.44,-12.7 -19.98,-12.8 -8.99,0.6 -16.37,4.8 -20.15,12.5 z m 136.37,-988 c -85.01,0 -186.68,4.3 -302.87,16.6 -42.51,4.5 -79.77,27.8 -107.74,67.6 -43.92,62.3 -54.19,147.2 -41.65,198.8 62.99,259 154.34,579.6 302.84,761.1 4.79,5.9 12.19,8.9 19.79,8 7.54,-0.8 14.11,-5.5 17.47,-12.3 l 36.57,-74.3 33.92,71.2 c 11.25,20.6 30.67,33.8 52.53,36.6 0.99,0.2 1.76,0.3 3.05,0.2 l 114.5,-1.1 c 35.1,3.5 67.75,-20.3 74.98,-55.2 l 9.32,-44.8 69.37,80.7 c 5.83,6.8 15.19,9.4 23.69,6.7 8.54,-2.7 14.6,-10.3 15.42,-19.2 l 77.18,-849.9 c 10.94,-83.8 -47.98,-162.4 -131.45,-174.3 -44.22,-6.3 -135.77,-16.4 -266.92,-16.4"
         style="fill:#000000;fill-opacity:1;fill-rule:nonzero;stroke:none"
         id="path18625" />
      <path
         d="m 3611.98,3501.4 c -79.46,0 -165.45,7.1 -251.16,26.8 -11.99,2.8 -19.48,14.8 -16.71,26.8 2.77,12 14.75,19.4 26.73,16.7 289.07,-66.6 592.19,19.1 595.23,19.9 11.84,3.4 24.18,-3.4 27.59,-15.2 3.42,-11.8 -3.4,-24.2 -15.21,-27.6 -9.16,-2.7 -167.24,-47.4 -366.47,-47.4"
         style="fill:#000000;fill-opacity:1;fill-rule:nonzero;stroke:none"
         id="path18627" />
      <path
         d="m 3541.2,3831.4 c -11.98,0 -21.87,9.4 -22.27,21.5 -0.41,12.3 9.23,22.6 21.54,23 l 278.04,9.3 c 12.37,0.4 22.62,-9.2 23.02,-21.5 0.42,-12.3 -9.23,-22.6 -21.54,-23 l -278.04,-9.3 c -0.25,0 -0.5,0 -0.75,0"
         style="fill:#000000;fill-opacity:1;fill-rule:nonzero;stroke:none"
         id="path18629" />
      <path
         d="m 6874.96,10072.6 c 117,-691 329.71,-2389.1 -129.54,-3659.3 -395.23,-1093.2 -677.34,-1637.6 -785.78,-1835.2 -29.64,-54.1 -88.8,-84.2 -149.39,-76.4 l -281.71,36.7 c -83.51,10.8 -141.62,89.2 -128.33,173.3 C 5503,5362.2 5911.25,8528 5802.5,8820.6 L 4052.9,4670.9 c -18.89,-44.1 -62.02,-72.3 -109.46,-71.8 l -295.55,3.3 c -65.84,0.8 -118.32,56 -116.6,122.6 87.28,3358.8 1061.86,3899.3 1347.42,5505.1 0.67,3.8 93.5,-109.1 96.99,-111.1 285.9,-167.2 428.98,-154.1 867.64,-178.3 474.46,-26.2 915.2,154.5 1019.08,149.6 7.93,-0.4 11.19,-9.7 12.54,-17.7"
         style="fill:#000000;fill-opacity:1;fill-rule:nonzero;stroke:none"
         id="path18631" />
      <path
         d="m 6352.26,13290 80.86,418.4 c 5.77,28.2 28.76,49.4 57,52.7 l 162.6,18.7 c 34.67,3.9 62.46,30.8 67.95,65.7 l 36.79,233.3 c 0.05,0.4 0.27,0.7 0.59,0.9 l 77.25,42.2 c 15.37,8.4 21.29,27.7 13.32,43.4 l -81.37,160.7 c -15.83,31.3 -37.6,207.8 -72.29,206.1 0,0 -585.14,205.6 -757.25,-39.5 -45.59,-64.9 -50.64,-150.6 -19.78,-223.8 l 39.38,-93.5 c 40.93,-97.2 50.06,-206.4 18.77,-307.2 -11.15,-35.9 -26.8,-70.6 -46.8,-103.1 l -219.89,-346 c 159.75,-80.9 335.48,-124.4 514.12,-127 l 128.75,-2"
         style="fill:#ffffff;fill-opacity:1;fill-rule:nonzero;stroke:none"
         id="path18633" />
      <path
         d="m 5741.54,13428 c 150.09,-72 316.29,-111.3 482.31,-113.7 l 110.07,-1.7 77.3,400.1 c 7.78,37.9 38.44,66.1 76.33,70.5 l 162.63,18.7 c 24.62,2.8 44.56,22.2 48.48,47.1 l 36.77,233.3 c 1.1,6.9 5.96,13.8 12.13,17.1 l 77.06,42.1 c 4.79,2.6 6.63,8.8 4.11,13.7 l -81.36,160.7 c -6.26,12.4 -11.42,34.8 -20.02,73.3 -7.78,34.9 -23.71,106.2 -36.49,121 -1.12,0.2 -2.22,0.5 -3.29,0.9 -5.69,2 -571.19,197.2 -731.62,-31.3 -39.6,-56.4 -46.31,-134 -17.48,-202.4 l 39.39,-93.5 c 44.41,-105.4 51.33,-219.9 19.52,-322.4 -11.79,-38 -28.32,-74.4 -49.1,-108.2 z m 610.72,-160.3 c -0.11,0 -0.22,0 -0.34,0 l -128.75,2 c -180.91,2.7 -362.06,47.4 -523.85,129.4 -5.61,2.8 -9.76,7.9 -11.43,14 -1.66,6.1 -0.68,12.5 2.7,17.9 l 219.88,345.9 c 18.66,30.4 33.64,63.4 44.32,97.8 28.72,92.5 22.32,196.2 -18.01,291.9 l -39.39,93.5 c -34.73,82.5 -26.28,176.5 22.07,245.3 174.84,249 726.94,67 779.63,48.9 36,-3.4 50.96,-62.1 71.78,-155.4 5.73,-25.7 12.23,-54.9 16.27,-62.9 l 81.37,-160.6 c 13.52,-26.7 3.63,-58.8 -22.51,-73 l -68.14,-37.3 -35.16,-223.1 c -7.04,-44.6 -42.99,-79.3 -87.43,-84.4 l -162.61,-18.7 c -18.7,-2.1 -33.86,-16.2 -37.71,-34.9 l -80.8,-418.2 c -2.04,-10.5 -11.23,-18.1 -21.89,-18.1"
         style="fill:#000000;fill-opacity:1;fill-rule:nonzero;stroke:none"
         id="path18635" />
      <path
         d="m 6238.64,14271.8 c -30.04,75.3 -76.98,103.6 -68.19,146.4 5.3,25.8 27.46,42 40.06,51.2 62.59,45.8 144.91,17.9 310.21,-13.6 205.23,-39 228.66,-45.1 267.38,-29.7 98.44,39.2 154.4,161.5 158.72,262 1.22,28.2 3.67,178 -122.28,255.2 -90.96,55.8 -212.7,51.6 -311.07,-10.2 -8.61,29 -26.49,70 -65.56,90.1 -92.71,47.8 -230.99,-59.4 -279.38,-96.9 -44.75,-34.7 -124.5,-107.1 -181.63,-234.5 -18.25,10.3 -86.76,46.1 -161.44,22.1 -111.04,-35.8 -138.31,-172.8 -140.7,-185.7 -27.78,-151.3 95.46,-283.3 188.52,-383 51.28,-55 78.22,-75.9 108.35,-96.2 17.82,-12 40.8,-12.9 59.55,-2.5 0.34,0.2 0.68,0.4 1.02,0.6 24.62,13.7 32.84,45.5 18.03,69.7 l -4.72,7.7 c -17.74,28.9 -29.87,61.2 -33.58,95.1 -2.96,27 -0.84,55.3 16.36,69.9 27.74,23.5 74.96,8 81.73,5.8 34.6,-11.4 56.32,-37.3 69.67,-61.9 14.32,-26.4 62.27,5 48.95,38.4"
         style="fill:#000000;fill-opacity:1;fill-rule:nonzero;stroke:none"
         id="path18637" />
      <path
         d="m 10558.8,13132.7 -1518.52,-851.5 c -38.14,-21.4 -84.65,-21.5 -122.84,-0.1 l -1560.36,871 1489.59,930.5 c 93.1,54.2 208.28,53.6 300.83,-1.6 l 1412.5,-907.5 c 15.1,-9.7 14.5,-32 -1.2,-40.8"
         style="fill:#ffffff;fill-opacity:1;fill-rule:nonzero;stroke:none"
         id="path18639" />
      <path
         d="m 7400.88,13153.2 1527.43,-852.7 c 31.18,-17.4 69.92,-17.4 101.07,0.1 l 1518.52,851.5 c 0.3,0.2 0.7,0.4 0.8,1.3 l -1413.25,908.9 c -84.91,50.6 -191.5,51.1 -277.55,1 z m 1577.88,-910.3 c -24.96,0 -49.91,6.3 -72.19,18.7 l -1560.35,871 c -6.89,3.9 -11.23,11.1 -11.42,18.9 -0.19,7.9 3.79,15.3 10.47,19.5 l 1489.59,930.5 c 100.65,58.6 224.6,58 324.05,-1.3 l 1413.19,-907.9 c 13.7,-8.8 21.6,-23.9 21.1,-40.2 -0.5,-16.3 -9.3,-30.9 -23.5,-38.9 l -1518.51,-851.5 c -22.33,-12.5 -47.38,-18.8 -72.43,-18.8"
         style="fill:#000000;fill-opacity:1;fill-rule:nonzero;stroke:none"
         id="path18641" />
      <path
         d="m 8979.21,10420.9 v 1778.5 c 0,34.2 18.26,65.8 47.88,82.9 l 1458.31,840.6 c 63.7,36.8 143.4,-9.2 143.4,-82.9 v -1700.1 c 0,-33.9 -17.9,-65.2 -47.1,-82.4 l -1508.84,-890.1 c -41.4,-24.4 -93.65,5.4 -93.65,53.5"
         style="fill:#ffffff;fill-opacity:1;fill-rule:nonzero;stroke:none"
         id="path18643" />
      <path
         d="m 10533.1,13113.5 c -12.6,0 -25.1,-3.3 -36.6,-9.9 L 9038.24,12263 c -22.67,-13 -36.74,-37.4 -36.74,-63.6 v -1778.5 c 0,-14.5 7.5,-27.4 20.06,-34.6 12.58,-7.2 27.51,-7.1 39.98,0.3 l 1508.86,890.1 c 22.3,13.1 36.1,37.3 36.1,63.2 v 1700.2 c 0,26.5 -13.7,50.2 -36.7,63.5 -11.5,6.6 -24.1,9.9 -36.7,9.9 z M 9041.33,10336.3 c -14.37,0 -28.74,3.8 -41.88,11.3 -26.63,15.2 -42.54,42.6 -42.54,73.3 v 1778.5 c 0,42.1 22.64,81.2 59.06,102.2 l 1458.23,840.6 c 37,21.3 81.1,21.3 117.9,0 36.9,-21.4 59,-59.5 59,-102.1 v -1700.2 c 0,-41.6 -22.3,-80.5 -58.1,-101.6 l -1508.81,-890.1 c -13.39,-7.9 -28.13,-11.9 -42.86,-11.9"
         style="fill:#000000;fill-opacity:1;fill-rule:nonzero;stroke:none"
         id="path18645" />
      <path
         d="m 8979.21,10431.2 v 1780.9 c 0,26.4 -14.03,50.8 -36.85,64.1 l -1486.92,865.7 c -49.45,28.8 -111.49,-6.9 -111.49,-64.1 v -1689 c 0,-67.1 35.4,-129.2 93.13,-163.4 l 1439.66,-852.6 c 45.25,-26.8 102.47,5.8 102.47,58.4"
         style="fill:#ffffff;fill-opacity:1;fill-rule:nonzero;stroke:none"
         id="path18647" />
      <path
         d="m 7418.12,13129.8 c -8.88,0 -17.76,-2.4 -25.85,-7 -16.3,-9.4 -26.03,-26.2 -26.03,-45 v -1689 c 0,-58.9 31.5,-114.2 82.21,-144.2 L 8888.1,10392 c 14.27,-8.4 31.4,-8.6 45.81,-0.4 14.41,8.2 23,23 23,39.6 v 1780.9 c 0,18.4 -9.87,35.6 -25.76,44.8 l -1486.92,865.7 c -8.17,4.8 -17.14,7.2 -26.11,7.2 z m 1493.2,-2788.9 c -15.81,0 -31.6,4.3 -45.94,12.8 l -1439.66,852.5 c -64.18,38 -104.06,108 -104.06,182.6 v 1689 c 0,34.9 18.09,66.2 48.38,83.6 30.28,17.4 66.42,17.3 96.61,-0.2 l 1486.92,-865.8 c 29.56,-17.2 47.93,-49.1 47.93,-83.3 v -1780.9 c 0,-32.8 -17.01,-62.1 -45.51,-78.3 -14.03,-8 -29.36,-12 -44.67,-12"
         style="fill:#000000;fill-opacity:1;fill-rule:nonzero;stroke:none"
         id="path18649" />
      <path
         d="m 9959.86,11833.6 c 0,-97.3 -75.94,-218.3 -169.62,-270.2 -93.67,-51.8 -169.61,-15 -169.61,82.4 0,97.3 75.94,218.3 169.61,270.1 93.68,51.9 169.62,15 169.62,-82.3"
         style="fill:#000000;fill-opacity:1;fill-rule:nonzero;stroke:none"
         id="path18651" />
      <path
         d="m 9549.87,11165 c 0,-97.4 -75.94,-218.3 -169.61,-270.2 -93.68,-51.9 -169.62,-15 -169.62,82.3 0,97.4 75.94,218.3 169.62,270.2 93.67,51.9 169.61,15 169.61,-82.3"
         style="fill:#000000;fill-opacity:1;fill-rule:nonzero;stroke:none"
         id="path18653" />
      <path
         d="m 9557.3,12044.5 c 0,-97.3 -75.94,-218.3 -169.61,-270.2 -93.68,-51.8 -169.62,-15 -169.62,82.4 0,97.3 75.94,218.3 169.62,270.1 93.67,51.9 169.61,15 169.61,-82.3"
         style="fill:#000000;fill-opacity:1;fill-rule:nonzero;stroke:none"
         id="path18655" />
      <path
         d="m 10399.8,11651 c 0,-97.3 -75.9,-218.3 -169.6,-270.1 -93.7,-51.9 -169.6,-15 -169.6,82.3 0,97.3 75.9,218.3 169.6,270.2 93.7,51.8 169.6,15 169.6,-82.4"
         style="fill:#000000;fill-opacity:1;fill-rule:nonzero;stroke:none"
         id="path18657" />
      <path
         d="m 10392.3,12522.3 c 0,-97.3 -75.9,-218.3 -169.6,-270.1 -93.7,-51.9 -169.6,-15.1 -169.6,82.3 0,97.3 75.9,218.3 169.6,270.1 93.7,51.9 169.6,15.1 169.6,-82.3"
         style="fill:#000000;fill-opacity:1;fill-rule:nonzero;stroke:none"
         id="path18659" />
      <path
         d="m 7877.87,11439.7 c 0,-97.3 -74.95,-137.1 -167.41,-88.9 -92.45,48.2 -167.4,166.2 -167.4,263.5 0,97.4 74.95,137.2 167.4,89 92.46,-48.2 167.41,-166.2 167.41,-263.6"
         style="fill:#000000;fill-opacity:1;fill-rule:nonzero;stroke:none"
         id="path18661" />
      <path
         d="m 7885.2,12311.3 c 0,-97.3 -74.95,-137.1 -167.41,-88.9 -92.45,48.2 -167.4,166.2 -167.4,263.5 0,97.3 74.95,137.2 167.4,89 92.46,-48.3 167.41,-166.2 167.41,-263.6"
         style="fill:#000000;fill-opacity:1;fill-rule:nonzero;stroke:none"
         id="path18663" />
      <path
         d="m 8716.73,11017.7 c 0,-97.3 -74.95,-137.1 -167.41,-88.9 -92.45,48.2 -167.4,166.2 -167.4,263.5 0,97.3 74.95,137.2 167.4,89 92.46,-48.2 167.41,-166.2 167.41,-263.6"
         style="fill:#000000;fill-opacity:1;fill-rule:nonzero;stroke:none"
         id="path18665" />
      <path
         d="m 8709.34,11897 c 0,-97.3 -74.95,-137.2 -167.4,-88.9 -92.46,48.2 -167.41,166.2 -167.41,263.5 0,97.3 74.95,137.1 167.41,88.9 92.45,-48.2 167.4,-166.2 167.4,-263.5"
         style="fill:#000000;fill-opacity:1;fill-rule:nonzero;stroke:none"
         id="path18667" />
      <path
         d="m 9191.17,13186.9 c 0,-97.3 -78.9,-176.2 -176.24,-176.2 -97.34,0 -176.25,78.9 -176.25,176.2 0,97.4 78.91,176.3 176.25,176.3 97.34,0 176.24,-78.9 176.24,-176.3"
         style="fill:#000000;fill-opacity:1;fill-rule:nonzero;stroke:none"
         id="path18669" />
      <path
         d="m 7862.45,10899.3 142.27,7.4 167.17,35 385.14,106.2 c 52.22,14.4 106.35,-15.8 121.62,-67.8 15.59,-53.2 -15.25,-108.8 -68.54,-123.6 l -226.99,-63.3 c -31.5,-8.8 -42.86,-47.6 -21.08,-72 33.73,-37.9 73.93,-69.3 118.91,-92.6 81.72,-42.3 225.03,-112 375.08,-163.2 70.41,-24 83.45,-113.1 13.2,-137.5 l -482.79,20.7 c -95.51,4.1 -186.42,38.4 -260.89,96.3 -177.04,137.8 -263.1,454.4 -263.1,454.4"
         style="fill:#ffffff;fill-opacity:1;fill-rule:nonzero;stroke:none"
         id="path18671" />
      <path
         d="m 8869.22,10305.6 c -0.31,0 -0.63,0.1 -0.95,0.1 l -482.79,20.6 c -111.6,4.8 -218.55,48.9 -301.13,124.3 l -62.82,61.5 -430.93,-54.6 c -12.23,-1.6 -23.38,7.1 -24.93,19.3 -1.54,12.2 7.1,23.3 19.31,24.9 l 441.64,56 c 6.8,0.8 13.54,-1.4 18.4,-6.2 l 69.95,-68.5 c 74.3,-67.8 171.25,-107.8 272.42,-112.1 l 478.24,-20.5 c 18.08,7.5 27.95,21.1 27.91,38.7 -0.05,19.9 -13.9,44.7 -44.71,55.2 -146.95,50.2 -286.75,117.2 -378.15,164.5 -47.36,24.6 -89.51,57.4 -125.28,97.5 -15.39,17.3 -20.69,40.9 -14.17,63.1 6.49,22.1 23.66,39.1 45.91,45.3 l 226.99,63.2 c 19.96,5.6 36.49,18.6 46.56,36.8 10.09,18.1 12.43,39.2 6.58,59.1 -11.78,40.1 -54.12,63.7 -94.3,52.6 l -464.15,-128 c -0.88,-0.2 -1.77,-0.4 -2.67,-0.5 -1.98,-0.3 -203.02,-29.6 -593.38,-43.9 -12.17,-0.5 -22.64,9.1 -23.1,21.4 -0.45,12.3 9.15,22.7 21.46,23.1 371.51,13.7 569.37,40.7 587.19,43.3 l 462.78,127.6 c 63.52,17.6 130.36,-19.7 148.94,-83 9.24,-31.5 5.55,-64.7 -10.37,-93.4 -15.91,-28.6 -42.04,-49.2 -73.57,-58 l -227,-63.3 c -10.55,-2.9 -14.07,-11.4 -15.1,-14.9 -1.03,-3.5 -2.65,-12.6 4.69,-20.8 32.14,-36.1 69.99,-65.5 112.52,-87.6 73.71,-38.2 220.06,-110 372.03,-161.9 44.68,-15.2 74.78,-54.3 74.89,-97.3 0.09,-37.5 -23.5,-69.1 -61.59,-82.3 -2.35,-0.8 -4.82,-1.3 -7.32,-1.3"
         style="fill:#000000;fill-opacity:1;fill-rule:nonzero;stroke:none"
         id="path18673" />
      <path
         d="m 10210.2,13403.3 c -11.2,-58.6 -55,-209.1 -167.3,-257.2 -47.12,-20.2 -101.54,-11.3 -143.98,17.5 -119.15,80.9 -91.6,162.1 -44.81,331.8 13.14,47.7 12.87,86.4 9.01,123.4 -2.55,24.5 -15.8,46.6 -36.68,59.6 l -183.02,114.2 c 0,0 67.9,91 139.08,87 62.28,-3.6 170.24,-99 188.52,-90.5 204.48,95.1 284.18,-151.5 239.18,-385.8"
         style="fill:#ffffff;fill-opacity:1;fill-rule:nonzero;stroke:none"
         id="path18675" />
      <path
         d="m 10210.3,13403.3 h 0.2 z m -533.23,394.6 161.17,-100.5 c 26.58,-16.7 43.74,-44.4 47.06,-76.2 3.6,-34.7 5.27,-77.4 -9.71,-131.7 l -4.81,-17.5 c -43.23,-156.2 -61.11,-220.8 40.67,-289.9 38.45,-26.2 84.31,-31.9 122.75,-15.5 114.3,49 150.4,221.4 154.2,240.9 30,156.3 2.2,303.4 -67.5,357.8 -36.7,28.7 -84,29.9 -140.49,3.6 -18.8,-8.7 -40.44,4.9 -83.41,32.2 -36.26,23 -85.91,54.5 -115.76,56.2 -37.59,2.1 -79.7,-33.1 -104.17,-59.4 z m 311.4,-685.1 c -34.95,0 -70.55,11 -102.07,32.4 -128.23,87 -102.02,181.8 -58.6,338.7 l 4.82,17.4 c 13.01,47.2 11.51,84.7 8.33,115.2 -1.88,18.1 -11.48,33.8 -26.32,43 l -183.01,114.2 c -5.3,3.3 -8.96,8.7 -10.12,14.8 -1.15,6.1 0.32,12.5 4.05,17.5 3.07,4.1 75.84,100.5 158.21,95.8 41.43,-2.3 94.5,-36 137.13,-63.1 15.71,-9.9 36.61,-23.2 45.96,-27 87.85,38.9 147.15,15.6 181.55,-11.3 96.6,-75.4 111.7,-255.8 83.7,-401.3 -6.8,-35.7 -47.7,-216.7 -180.4,-273.5 -20.1,-8.6 -41.5,-12.8 -63.23,-12.8"
         style="fill:#000000;fill-opacity:1;fill-rule:nonzero;stroke:none"
         id="path18677" />
      <path
         d="m 5289.24,17489 c -4.41,0 -8.87,1.3 -12.76,4.1 -10.09,7 -12.54,20.9 -5.48,31 506.21,723.6 1120.15,1337.9 1824.74,1825.9 10.12,7 24,4.5 31.02,-5.6 7.01,-10.2 4.49,-24 -5.64,-31.1 -700.24,-484.9 -1310.42,-1095.5 -1813.6,-1814.7 -4.33,-6.2 -11.25,-9.6 -18.28,-9.6"
         style="fill:#000000;fill-opacity:1;fill-rule:nonzero;stroke:none"
         id="path18679" />
      <path
         d="m 4887.51,16851.2 c -3.72,0 -7.48,0.9 -10.94,2.9 -10.73,6 -14.5,19.7 -8.45,30.4 58.2,103 119.32,205.7 181.66,305.4 6.52,10.4 20.29,13.6 30.72,7 10.44,-6.5 13.6,-20.2 7.07,-30.7 -61.97,-99 -122.76,-201.2 -180.63,-303.7 -4.09,-7.2 -11.65,-11.3 -19.43,-11.3"
         style="fill:#000000;fill-opacity:1;fill-rule:nonzero;stroke:none"
         id="path18681" />
      <path
         d="m 5047.21,16106.6 c -3.04,0 -6.13,0.7 -9.08,2 -11.24,5 -16.28,18.2 -11.27,29.4 445.68,998.4 1078.6,1843.5 1881.19,2511.8 9.44,7.9 23.5,6.6 31.39,-2.9 7.88,-9.5 6.6,-23.5 -2.87,-31.4 -797.3,-663.9 -1426.12,-1503.5 -1868.99,-2495.6 -3.7,-8.3 -11.85,-13.3 -20.37,-13.3"
         style="fill:#000000;fill-opacity:1;fill-rule:nonzero;stroke:none"
         id="path18683" />
      <path
         d="m 21309,13825.7 c -1.8,0 -3.6,0.3 -5.5,0.7 -11.9,3.1 -19.1,15.3 -16.1,27.2 231.8,902.9 141.1,2016.3 66.4,2599.7 -1.6,12.2 7.1,23.3 19.3,24.9 12.1,1.7 23.3,-7 24.9,-19.3 75.1,-586.5 166.3,-1706.3 -67.4,-2616.4 -2.6,-10.1 -11.6,-16.8 -21.6,-16.8"
         style="fill:#000000;fill-opacity:1;fill-rule:nonzero;stroke:none"
         id="path18685" />
      <path
         d="m 21008.1,14260.4 c -1.7,0 -3.4,0.2 -5.1,0.6 -12,2.8 -19.4,14.8 -16.6,26.8 207.7,885.6 80.8,1814.9 -31.1,2634.9 l -16.7,122.7 c -1.7,12.2 6.8,23.4 19,25.1 12.2,1.7 23.5,-6.9 25.1,-19.1 l 16.7,-122.7 c 112.5,-823.8 240,-1757.4 30.4,-2651.1 -2.4,-10.3 -11.6,-17.2 -21.7,-17.2"
         style="fill:#000000;fill-opacity:1;fill-rule:nonzero;stroke:none"
         id="path18687" />
      <path
         d="m 7934.16,19986 c -5.5,0 -11,2.1 -15.31,6.1 -8.94,8.5 -9.36,22.6 -0.9,31.5 l 118.69,125.8 c 8.44,9 22.56,9.4 31.51,0.9 8.95,-8.4 9.36,-22.6 0.9,-31.5 L 7950.37,19993 c -4.38,-4.6 -10.29,-7 -16.21,-7"
         style="fill:#000000;fill-opacity:1;fill-rule:nonzero;stroke:none"
         id="path18689" />
      <path
         d="m 7657.65,19693 c -5.5,0 -10.99,2.1 -15.31,6.1 -8.94,8.5 -9.36,22.6 -0.9,31.5 l 118.7,125.8 c 8.44,9 22.56,9.4 31.52,0.9 8.94,-8.4 9.36,-22.5 0.9,-31.5 l -118.7,-125.8 c -4.38,-4.6 -10.29,-7 -16.21,-7"
         style="fill:#000000;fill-opacity:1;fill-rule:nonzero;stroke:none"
         id="path18691" />
      <path
         d="m 7771.65,19981.3 c -5.5,0 -11,2 -15.31,6.1 l -125.77,118.7 c -8.95,8.5 -9.36,22.6 -0.92,31.5 8.46,9 22.58,9.3 31.53,0.9 l 125.77,-118.7 c 8.95,-8.4 9.36,-22.5 0.92,-31.5 -4.39,-4.6 -10.3,-7 -16.22,-7"
         style="fill:#000000;fill-opacity:1;fill-rule:nonzero;stroke:none"
         id="path18693" />
      <path
         d="m 8064.62,19704.8 c -5.49,0 -10.99,2 -15.3,6.1 l -125.77,118.7 c -8.94,8.5 -9.36,22.6 -0.9,31.5 8.44,9 22.57,9.4 31.52,0.9 l 125.76,-118.7 c 8.95,-8.4 9.36,-22.5 0.9,-31.5 -4.37,-4.6 -10.28,-7 -16.21,-7"
         style="fill:#000000;fill-opacity:1;fill-rule:nonzero;stroke:none"
         id="path18695" />
      <path
         d="m 8718.26,20164.3 c 0,480.5 389.52,870 870.02,870 480.52,0 870.02,-389.5 870.02,-870 0,-480.5 -389.5,-870 -870.02,-870 -480.5,0 -870.02,389.5 -870.02,870"
         style="fill:#ffffff;fill-opacity:1;fill-rule:nonzero;stroke:none"
         id="path18697" />
      <path
         d="m 9588.28,21012 c -467.44,0 -847.72,-380.3 -847.72,-847.7 0,-467.5 380.28,-847.7 847.72,-847.7 467.42,0 847.72,380.2 847.72,847.7 0,467.4 -380.3,847.7 -847.72,847.7 z m 0,-1740 c -492.02,0 -892.31,400.3 -892.31,892.3 0,492 400.29,892.3 892.31,892.3 492.02,0 892.32,-400.3 892.32,-892.3 0,-492 -400.3,-892.3 -892.32,-892.3"
         style="fill:#000000;fill-opacity:1;fill-rule:nonzero;stroke:none"
         id="path18699" />
      <path
         d="m 9593.1,19726.6 c -8.59,-5.3 -19.44,-5.5 -28.26,-0.6 -76.67,42.8 -432.37,257.2 -418.46,537.5 14.71,296.3 336.22,244.9 415.61,99.1 3.01,-5.6 8.92,-8.9 15.21,-8.5 6.28,0.3 11.82,4.2 14.24,10 38.91,93.6 164.7,161.5 283.17,117 141.29,-53 284.79,-403.5 -281.51,-754.5"
         style="fill:#000000;fill-opacity:1;fill-rule:nonzero;stroke:none"
         id="path18701" />
    </g>
  </g>
</svg>
