<?xml version="1.0" encoding="UTF-8" standalone="no"?>
<!-- Created with Inkscape (http://www.inkscape.org/) -->

<svg
   width="800"
   height="800"
   viewBox="0 0 211.66666 211.66667"
   version="1.1"
   id="svg16972"
   inkscape:version="1.1.2 (b8e25be833, 2022-02-05)"
   sodipodi:docname="musica.svg"
   xmlns:inkscape="http://www.inkscape.org/namespaces/inkscape"
   xmlns:sodipodi="http://sodipodi.sourceforge.net/DTD/sodipodi-0.dtd"
   xmlns="http://www.w3.org/2000/svg"
   xmlns:svg="http://www.w3.org/2000/svg">
  <sodipodi:namedview
     id="namedview16974"
     pagecolor="#505050"
     bordercolor="#ffffff"
     borderopacity="1"
     inkscape:pageshadow="0"
     inkscape:pageopacity="0"
     inkscape:pagecheckerboard="1"
     inkscape:document-units="mm"
     showgrid="false"
     units="px"
     inkscape:zoom="1.1830527"
     inkscape:cx="378.2587"
     inkscape:cy="383.75296"
     inkscape:window-width="2323"
     inkscape:window-height="1321"
     inkscape:window-x="2469"
     inkscape:window-y="-692"
     inkscape:window-maximized="1"
     inkscape:current-layer="layer1" />
  <defs
     id="defs16969">
    <clipPath
       clipPathUnits="userSpaceOnUse"
       id="clipPath2758">
      <path
         d="M 0,500 H 500 V 0 H 0 Z"
         id="path2756" />
    </clipPath>
    <clipPath
       clipPathUnits="userSpaceOnUse"
       id="clipPath3162">
      <path
         d="M 0,500 H 500 V 0 H 0 Z"
         id="path3160" />
    </clipPath>
  </defs>
  <g
     inkscape:label="Capa 1"
     inkscape:groupmode="layer"
     id="layer1">
    <g
       id="g2752"
       transform="matrix(1.8360695,0,0,-1.8360695,-423.7409,262.12685)">
      <g
         id="g2754"
         clip-path="url(#clipPath2758)">
        <g
           id="g2760"
           transform="translate(66.5435,123.8945)" />
        <g
           id="g2764"
           transform="translate(56.5576,126.3525)" />
        <g
           id="g2768"
           transform="translate(64.4209,133.9385)" />
        <g
           id="g2772"
           transform="translate(55.4092,137.1797)" />
        <g
           id="g2776"
           transform="translate(54.7529,143.3711)" />
        <g
           id="g2780"
           transform="translate(299.1924,76.0684)">
          <path
             d="m 0,0 c -2.323,-0.262 -4.288,-0.761 -6.087,-2.373 -2.186,-1.961 -3.568,-4.637 -3.599,-7.603 -0.024,-2.5 1.761,-4.257 4.083,-4.815 2.335,-0.561 5.184,0.43 7.305,1.429 3.22,1.516 6.109,4.969 5.906,8.7 -0.082,1.503 -0.8,2.964 -1.988,3.891 C 4.983,-0.274 4.2,0.101 3.437,0.347 2.166,0.756 1.204,0.526 -0.004,0.097 -0.102,0.062 -0.461,-0.266 -0.214,-0.34 c 0.748,-0.222 1.318,-0.431 2.123,-0.508 0.723,-0.068 1.487,-0.213 2.146,-0.529 1.138,-0.546 1.958,-1.751 2.147,-2.978 0.421,-2.734 -1.3,-5.426 -3.614,-6.751 -1.456,-0.833 -3.182,-1.242 -4.808,-0.707 -0.799,0.264 -1.607,0.255 -2.4,0.61 -0.755,0.337 -1.29,0.972 -1.596,1.723 -0.666,1.634 0.187,4.142 0.983,5.616 0.967,1.789 3.271,3.056 5.145,3.623 C -0.014,-0.219 0.151,0.018 0,0"
             style="fill:#000000;fill-opacity:1;fill-rule:nonzero;stroke:none"
             id="path2782" />
        </g>
        <g
           id="g2784"
           transform="translate(291.5293,69.5293)">
          <path
             d="M 0,0 C 0.889,1.076 1.564,2.726 2.813,3.447 3.886,4.068 5.028,4.484 6.233,4.756 8.772,5.326 11.92,4.652 12.682,1.889 13.618,-1.513 10.567,-4.384 7.64,-5.347 6.581,-5.695 4.988,-5.619 4.421,-6.801 3.666,-8.373 7.144,-7.312 7.519,-7.187 c 2.913,0.958 5.585,2.983 6.978,5.732 1.276,2.52 1.607,5.993 -0.844,7.905 C 11.738,7.945 8.607,7.95 6.365,7.331 3.808,6.624 1.631,4.666 0.328,2.392 -0.083,1.675 -0.435,0.774 -0.174,-0.044 -0.146,-0.131 -0.026,-0.032 0,0"
             style="fill:#000000;fill-opacity:1;fill-rule:nonzero;stroke:none"
             id="path2786" />
        </g>
        <g
           id="g2788"
           transform="translate(306.001,104.6016)">
          <path
             d="m 0,0 c -0.948,-2.793 -0.692,-5.858 -0.749,-8.77 -0.063,-3.188 -0.15,-6.376 -0.237,-9.564 -0.082,-3.001 -0.164,-6.001 -0.229,-9.002 -0.031,-1.445 -0.056,-2.89 -0.074,-4.335 -0.01,-0.701 -0.019,-1.402 -0.017,-2.103 0.001,-0.696 0.35,-1.203 0.688,-1.783 0.125,-0.214 0.438,0.026 0.498,0.184 0.501,1.328 0.726,2.352 0.742,3.777 0.016,1.436 0.041,2.871 0.07,4.307 0.064,3.143 0.154,6.285 0.243,9.428 0.089,3.191 0.179,6.382 0.249,9.574 0.032,1.491 0.069,2.983 0.074,4.475 C 1.262,-2.4 1.278,-0.985 0.635,0.307 0.473,0.634 0.061,0.181 0,0"
             style="fill:#000000;fill-opacity:1;fill-rule:nonzero;stroke:none"
             id="path2790" />
        </g>
        <g
           id="g2792"
           transform="translate(306.3018,102.9023)">
          <path
             d="M 0,0 C 0.296,0.682 0.329,1.76 0.985,2.203 1.364,2.459 2.543,2.037 2.931,1.916 4.498,1.424 5.983,0.687 7.549,0.188 10.414,-0.727 14.045,0.184 15.312,3.14 L 12.323,2.393 c 0.248,-3.012 0.424,-6.034 0.595,-9.051 0.125,0.339 0.25,0.678 0.374,1.016 -1.506,-2.355 -6.013,0.076 -7.975,0.521 -1.361,0.309 -2.697,0.344 -3.993,-0.227 -0.723,-0.317 -1.368,-0.933 -1.739,-1.628 -0.332,-0.62 -0.036,-0.965 -0.141,-1.53 -0.103,-0.555 0.597,-0.164 0.726,0.091 0.416,0.825 1.782,1.04 2.622,0.975 1.367,-0.107 2.719,-0.673 4.015,-1.087 3.08,-0.986 6.04,-0.76 8.252,1.863 0.61,0.723 0.572,1.39 0.553,2.24 -0.023,1.07 -0.037,2.14 -0.042,3.21 -0.009,1.712 -0.067,3.425 -0.063,5.138 0.002,0.68 -0.623,0.924 -1.206,0.778 C 13.521,4.508 12.875,3.876 12.519,3.177 12.579,3.294 12.913,3.413 12.597,3.3 12.351,3.212 12.081,3.158 11.821,3.132 11.133,3.063 10.465,3.155 9.803,3.336 8.186,3.775 6.737,4.641 5.057,4.855 2.187,5.222 -0.785,2.971 -0.374,-0.094 -0.344,-0.326 -0.05,-0.116 0,0"
             style="fill:#000000;fill-opacity:1;fill-rule:nonzero;stroke:none"
             id="path2794" />
        </g>
        <g
           id="g2796"
           transform="translate(307.749,106.4063)">
          <path
             d="m 0,0 c -0.349,-1.605 -0.264,-3.32 -0.273,-4.956 -0.006,-0.966 -0.026,-1.931 -0.027,-2.896 -0.001,-0.664 -0.217,-1.361 0.353,-1.791 0.08,-0.06 0.2,0.02 0.245,0.092 0.79,1.278 0.4,3.106 0.345,4.553 C 0.578,-3.339 0.671,-1.499 0.224,0.108 0.19,0.229 0.013,0.059 0,0"
             style="fill:#000000;fill-opacity:1;fill-rule:nonzero;stroke:none"
             id="path2798" />
        </g>
        <g
           id="g2800"
           transform="translate(308.958,106.4014)">
          <path
             d="m 0,0 c -0.328,-1.62 -0.315,-3.321 -0.377,-4.97 -0.036,-0.97 -0.062,-1.939 -0.063,-2.912 -0.001,-0.701 -0.084,-1.31 0.439,-1.827 0.135,-0.134 0.356,0.091 0.413,0.201 0.716,1.386 0.421,3.087 0.327,4.596 C 0.637,-3.258 0.667,-1.484 0.261,0.127 0.226,0.267 0.014,0.069 0,0"
             style="fill:#000000;fill-opacity:1;fill-rule:nonzero;stroke:none"
             id="path2802" />
        </g>
        <g
           id="g2804"
           transform="translate(310.4678,106.5518)">
          <path
             d="m 0,0 c -0.278,-1.588 -0.463,-3.239 -0.612,-4.845 -0.138,-1.479 -0.475,-3.301 0.077,-4.72 0.052,-0.133 0.169,-0.19 0.305,-0.196 1.428,-0.068 0.925,2.459 0.898,3.262 C 0.594,-4.35 0.9,-1.95 0.274,0.132 0.231,0.276 0.014,0.076 0,0"
             style="fill:#000000;fill-opacity:1;fill-rule:nonzero;stroke:none"
             id="path2806" />
        </g>
        <g
           id="g2808"
           transform="translate(311.999,106.1025)">
          <path
             d="m 0,0 c -0.256,-1.097 -0.247,-2.232 -0.319,-3.353 -0.075,-1.134 -0.341,-2.485 0.17,-3.543 0.064,-0.136 0.236,0.053 0.26,0.126 0.374,1.097 0.343,2.21 0.381,3.359 C 0.53,-2.269 0.648,-0.968 0.249,0.12 0.201,0.251 0.016,0.068 0,0"
             style="fill:#000000;fill-opacity:1;fill-rule:nonzero;stroke:none"
             id="path2810" />
        </g>
        <g
           id="g2812"
           transform="translate(313.584,105.2002)">
          <path
             d="m 0,0 c -0.201,-0.782 -0.262,-1.568 -0.298,-2.375 -0.04,-0.882 -0.139,-1.674 0.215,-2.5 0.064,-0.151 0.263,0.061 0.286,0.139 0.448,1.446 0.535,3.409 0.059,4.863 C 0.215,0.268 0.018,0.068 0,0"
             style="fill:#000000;fill-opacity:1;fill-rule:nonzero;stroke:none"
             id="path2814" />
        </g>
        <g
           id="g2816"
           transform="translate(315.0801,104.5195)">
          <path
             d="m 0,0 c -0.181,-0.526 -0.168,-1.088 -0.187,-1.64 -0.021,-0.565 -0.015,-0.894 0.232,-1.4 0.054,-0.11 0.191,0.042 0.212,0.102 0.2,0.587 0.287,1.032 0.287,1.65 C 0.543,-0.806 0.588,-0.232 0.283,0.17 0.195,0.285 0.023,0.068 0,0"
             style="fill:#000000;fill-opacity:1;fill-rule:nonzero;stroke:none"
             id="path2818" />
        </g>
        <g
           id="g2820"
           transform="translate(316.8477,104.9795)">
          <path
             d="m 0,0 c -0.377,-1.782 -0.523,-3.62 -0.7,-5.431 -0.095,-0.961 -0.129,-1.933 -0.173,-2.897 -0.035,-0.753 -0.29,-1.833 0.408,-2.304 0.139,-0.094 0.329,0.027 0.407,0.152 0.826,1.325 0.479,3.145 0.471,4.652 C 0.403,-3.87 0.455,-1.859 0.241,0.088 0.225,0.242 0.018,0.083 0,0"
             style="fill:#000000;fill-opacity:1;fill-rule:nonzero;stroke:none"
             id="path2822" />
        </g>
        <g
           id="g2824"
           transform="translate(317.9775,104.8213)">
          <path
             d="m 0,0 c -0.223,-1.127 -0.332,-2.275 -0.374,-3.423 -0.033,-0.925 -0.213,-1.84 0.38,-2.612 0.078,-0.103 0.247,0.072 0.279,0.136 0.885,1.783 0.468,4.164 0.001,6.038 C 0.248,0.292 0.015,0.076 0,0"
             style="fill:#000000;fill-opacity:1;fill-rule:nonzero;stroke:none"
             id="path2826" />
        </g>
        <g
           id="g2828"
           transform="translate(293.2842,72.2988)">
          <path
             d="M 0,0 C -0.64,-1.816 -0.835,-3.939 -0.976,-5.855 -1.019,-6.425 -1.258,-9.65 0.165,-8.968 1.371,-8.389 0.79,-6.007 0.75,-5.025 0.687,-3.444 1.043,-1.303 0.323,0.156 0.241,0.324 0.031,0.091 0,0"
             style="fill:#000000;fill-opacity:1;fill-rule:nonzero;stroke:none"
             id="path2830" />
        </g>
        <g
           id="g2832"
           transform="translate(294.9434,74.4297)">
          <path
             d="m 0,0 c -0.396,-1.842 -0.351,-3.806 -0.501,-5.682 -0.155,-1.931 -0.476,-4.148 -0.099,-6.057 0.036,-0.092 0.099,-0.156 0.191,-0.19 l 0.313,-0.064 c 0.151,-0.03 0.265,0.066 0.356,0.175 0.631,0.75 0.583,1.452 0.584,2.406 C 0.845,-8.278 0.837,-7.145 0.835,-6.01 0.831,-4.069 0.988,-1.694 0.312,0.15 0.252,0.312 0.019,0.088 0,0"
             style="fill:#000000;fill-opacity:1;fill-rule:nonzero;stroke:none"
             id="path2834" />
        </g>
        <g
           id="g2836"
           transform="translate(296.1406,74.9727)">
          <path
             d="m 0,0 c -0.258,-2.148 -0.193,-4.359 -0.262,-6.521 -0.037,-1.152 -0.049,-2.303 -0.061,-3.456 -0.009,-0.786 -0.21,-1.766 0.462,-2.312 0.117,-0.096 0.27,0.064 0.324,0.158 0.953,1.68 0.422,4.247 0.307,6.106 C 0.643,-3.979 0.644,-1.854 0.278,0.166 0.249,0.325 0.01,0.082 0,0"
             style="fill:#000000;fill-opacity:1;fill-rule:nonzero;stroke:none"
             id="path2838" />
        </g>
        <g
           id="g2840"
           transform="translate(297.4932,74.9795)">
          <path
             d="m 0,0 c -0.008,-1.879 -0.157,-3.657 -0.382,-5.528 -0.135,-1.124 -0.097,-2.263 -0.092,-3.394 0.003,-0.841 -0.336,-2.363 0.562,-2.807 0.085,-0.042 0.203,0.059 0.246,0.121 0.616,0.89 0.526,1.753 0.485,2.812 -0.048,1.263 -0.132,2.532 -0.1,3.797 C 0.755,-3.562 1.336,-1 0.239,0.172 0.153,0.264 0,0.081 0,0"
             style="fill:#000000;fill-opacity:1;fill-rule:nonzero;stroke:none"
             id="path2842" />
        </g>
        <g
           id="g2844"
           transform="translate(299.0059,75.3691)">
          <path
             d="m 0,0 0.047,0.073 c -0.088,0.016 -0.177,0.032 -0.266,0.049 -0.507,-2.059 -0.407,-4.416 -0.47,-6.53 -0.035,-1.137 -0.071,-2.273 -0.078,-3.41 -0.005,-0.84 -0.368,-2.317 0.435,-2.831 0.184,-0.119 0.425,0.031 0.529,0.197 0.505,0.794 0.492,1.415 0.486,2.367 -0.008,1.274 -0.03,2.547 -0.069,3.821 C 0.58,-5.163 0.523,-4.064 0.46,-2.965 0.398,-1.898 0.456,-0.735 0.127,0.288 0.072,0.462 -0.164,0.235 -0.202,0.167 -0.242,0.094 -0.248,0.057 -0.262,-0.032 -0.293,-0.235 -0.049,-0.09 0,0"
             style="fill:#000000;fill-opacity:1;fill-rule:nonzero;stroke:none"
             id="path2846" />
        </g>
        <g
           id="g2848"
           transform="translate(300.2285,76.2803)">
          <path
             d="m 0,0 c -0.153,-2.323 -0.366,-4.609 -0.616,-6.927 -0.132,-1.218 -0.136,-2.443 -0.136,-3.667 -0.001,-0.791 -0.207,-1.816 0.536,-2.286 0.083,-0.053 0.226,0.068 0.265,0.13 0.563,0.892 0.504,1.729 0.475,2.771 -0.032,1.201 -0.027,2.401 0.003,3.602 0.052,2.061 0.599,4.592 -0.236,6.551 C 0.223,0.334 0.007,0.096 0,0"
             style="fill:#000000;fill-opacity:1;fill-rule:nonzero;stroke:none"
             id="path2850" />
        </g>
        <g
           id="g2852"
           transform="translate(301.2217,75.4072)">
          <path
             d="m 0,0 c -0.367,-2.041 -0.344,-4.171 -0.431,-6.238 -0.046,-1.113 -0.084,-2.223 -0.101,-3.335 -0.014,-0.806 -0.119,-1.583 0.404,-2.24 0.086,-0.107 0.269,0.076 0.302,0.148 0.807,1.757 0.453,4.041 0.45,5.934 C 0.62,-3.792 0.767,-1.733 0.361,0.174 0.321,0.366 0.018,0.097 0,0"
             style="fill:#000000;fill-opacity:1;fill-rule:nonzero;stroke:none"
             id="path2854" />
        </g>
        <g
           id="g2856"
           transform="translate(302.248,74.8516)">
          <path
             d="m 0,0 c -0.316,-1.621 -0.234,-3.345 -0.258,-4.992 -0.014,-0.977 -0.038,-1.954 -0.042,-2.932 -0.003,-0.781 -0.155,-1.609 0.269,-2.296 0.066,-0.106 0.216,0.013 0.25,0.092 0.646,1.517 0.349,3.413 0.307,5.026 C 0.482,-3.409 0.598,-1.556 0.199,0.097 0.173,0.203 0.01,0.053 0,0"
             style="fill:#000000;fill-opacity:1;fill-rule:nonzero;stroke:none"
             id="path2858" />
        </g>
        <g
           id="g2860"
           transform="translate(303.4648,72.9736)">
          <path
             d="m 0,0 c 0.335,-0.714 0.021,-2.194 -0.026,-2.952 -0.061,-0.96 -0.337,-2.091 0.032,-3.02 0.058,-0.147 0.252,0.061 0.274,0.132 0.359,1.143 0.392,2.323 0.443,3.512 0.03,0.694 0.276,2.165 -0.478,2.573 C 0.141,0.302 -0.049,0.103 0,0"
             style="fill:#000000;fill-opacity:1;fill-rule:nonzero;stroke:none"
             id="path2862" />
        </g>
        <g
           id="g2864"
           transform="translate(249.8994,94.4785)">
          <path
             d="m 0,0 c -2.315,-0.927 -4.178,-2.075 -5.566,-4.227 -1.493,-2.314 -2.176,-5.235 -1.129,-7.871 0.806,-2.029 2.946,-2.788 4.977,-2.709 2.378,0.092 4.813,1.643 6.629,3.1 2.691,2.156 4.772,5.994 3.554,9.482 C 7.979,-0.831 6.841,0.286 5.466,0.789 3.489,1.512 1.645,1.187 -0.059,0.056 -0.153,-0.006 -0.35,-0.333 -0.107,-0.333 c 2.576,0.005 5.738,0.943 7.031,-2.092 1.088,-2.554 -0.12,-5.5 -2.005,-7.313 -0.565,-0.544 -1.242,-0.975 -1.958,-1.289 -0.806,-0.354 -1.544,-0.278 -2.383,-0.414 -1.496,-0.245 -2.911,-0.052 -3.894,1.189 -0.559,0.707 -0.622,1.761 -0.642,2.615 -0.022,0.911 -0.043,1.932 0.162,2.823 0.447,1.944 2.184,3.618 3.83,4.618 C 0.136,-0.134 0.163,0.065 0,0"
             style="fill:#000000;fill-opacity:1;fill-rule:nonzero;stroke:none"
             id="path2866" />
        </g>
        <g
           id="g2868"
           transform="translate(244.3047,86.5713)">
          <path
             d="M 0,0 C 0.557,1.086 0.916,2.249 1.476,3.336 1.995,4.343 3.073,5.03 3.99,5.641 5.622,6.727 8.08,7.28 9.914,6.488 12.084,5.552 12.256,2.417 11.489,0.547 10.982,-0.688 10.275,-1.646 9.228,-2.48 8.262,-3.251 6.992,-3.572 6.134,-4.451 5.908,-4.682 5.458,-5.431 5.996,-5.614 c 1.26,-0.429 3.15,1.172 4.073,1.906 1.286,1.025 2.671,2.447 3.402,3.939 1.307,2.671 1.735,7.121 -1.344,8.786 C 9.403,10.49 5.626,9.278 3.259,7.616 1.885,6.651 1.126,5.39 0.303,3.981 -0.348,2.869 -0.993,1.074 -0.179,-0.087 -0.131,-0.155 -0.02,-0.038 0,0"
             style="fill:#000000;fill-opacity:1;fill-rule:nonzero;stroke:none"
             id="path2870" />
        </g>
        <g
           id="g2872"
           transform="translate(275.3613,101.4131)">
          <path
             d="m 0,0 c -2.316,-0.926 -4.179,-2.074 -5.567,-4.226 -1.495,-2.314 -2.178,-5.235 -1.13,-7.872 0.805,-2.028 2.946,-2.789 4.976,-2.71 2.378,0.094 4.815,1.646 6.63,3.102 C 7.6,-9.549 9.68,-5.712 8.463,-2.225 7.977,-0.831 6.84,0.286 5.465,0.789 3.488,1.513 1.644,1.187 -0.06,0.056 -0.153,-0.007 -0.35,-0.333 -0.107,-0.333 2.468,-0.328 5.63,0.61 6.922,-2.425 8.01,-4.979 6.801,-7.924 4.916,-9.737 c -0.564,-0.544 -1.242,-0.975 -1.957,-1.288 -0.806,-0.354 -1.544,-0.281 -2.383,-0.416 -1.498,-0.244 -2.911,-0.053 -3.894,1.19 -0.56,0.706 -0.623,1.761 -0.643,2.615 -0.021,0.911 -0.043,1.932 0.163,2.822 0.448,1.945 2.185,3.619 3.832,4.618 C 0.136,-0.134 0.163,0.065 0,0"
             style="fill:#000000;fill-opacity:1;fill-rule:nonzero;stroke:none"
             id="path2874" />
        </g>
        <g
           id="g2876"
           transform="translate(269.7646,93.5078)">
          <path
             d="M 0,0 C 0.557,1.086 0.915,2.248 1.476,3.335 1.995,4.341 3.072,5.028 3.989,5.639 5.62,6.724 8.08,7.276 9.913,6.486 12.085,5.55 12.255,2.414 11.488,0.544 10.981,-0.69 10.274,-1.648 9.228,-2.482 8.262,-3.252 6.992,-3.573 6.134,-4.451 5.908,-4.682 5.459,-5.431 5.996,-5.614 c 1.259,-0.43 3.15,1.171 4.072,1.905 1.286,1.024 2.672,2.446 3.402,3.938 1.306,2.67 1.737,7.121 -1.344,8.786 C 9.403,10.486 5.626,9.274 3.258,7.613 1.885,6.649 1.126,5.388 0.303,3.98 -0.349,2.868 -0.993,1.074 -0.179,-0.088 -0.132,-0.155 -0.02,-0.038 0,0"
             style="fill:#000000;fill-opacity:1;fill-rule:nonzero;stroke:none"
             id="path2878" />
        </g>
        <g
           id="g2880"
           transform="translate(249.2451,122.248)">
          <path
             d="m 0,0 c -0.338,-2.757 0.713,-5.508 1.376,-8.152 0.734,-2.928 1.444,-5.863 2.155,-8.797 0.667,-2.755 1.335,-5.51 2.019,-8.26 0.346,-1.393 0.7,-2.784 1.059,-4.174 0.173,-0.669 0.33,-1.345 0.555,-1.999 0.166,-0.485 0.725,-0.837 1.091,-1.163 0.172,-0.151 0.468,0.131 0.495,0.298 0.209,1.27 0.249,2.124 -0.078,3.377 -0.36,1.378 -0.71,2.76 -1.056,4.141 -0.721,2.887 -1.418,5.781 -2.115,8.673 -0.708,2.938 -1.417,5.875 -2.145,8.809 C 2.747,-4.791 2.458,-1.437 0.61,0.439 0.374,0.681 0.024,0.199 0,0"
             style="fill:#000000;fill-opacity:1;fill-rule:nonzero;stroke:none"
             id="path2882" />
        </g>
        <g
           id="g2884"
           transform="translate(274.8359,129.2168)">
          <path
             d="m 0,0 c -0.337,-2.757 0.715,-5.508 1.378,-8.151 0.734,-2.929 1.444,-5.864 2.155,-8.798 0.667,-2.754 1.334,-5.508 2.018,-8.258 0.346,-1.393 0.699,-2.784 1.058,-4.174 0.173,-0.669 0.329,-1.345 0.554,-1.999 0.166,-0.484 0.726,-0.837 1.091,-1.162 0.172,-0.151 0.468,0.131 0.495,0.298 0.209,1.27 0.249,2.124 -0.077,3.376 -0.36,1.378 -0.709,2.76 -1.055,4.141 -0.721,2.887 -1.417,5.78 -2.114,8.671 -0.708,2.939 -1.417,5.876 -2.145,8.809 -0.61,2.456 -0.899,5.81 -2.747,7.686 C 0.374,0.681 0.025,0.199 0,0"
             style="fill:#000000;fill-opacity:1;fill-rule:nonzero;stroke:none"
             id="path2886" />
        </g>
        <g
           id="g2888"
           transform="translate(251.459,114.6064)">
          <path
             d="m 0,0 c 0.49,-0.451 1.17,-0.307 1.778,-0.206 1.187,0.197 2.35,0.515 3.517,0.805 2.455,0.609 4.929,1.154 7.394,1.717 2.297,0.526 4.582,1.108 6.857,1.718 1.127,0.303 2.247,0.625 3.364,0.962 1.16,0.35 2.469,0.61 3.22,1.658 0.213,0.298 0.436,0.71 0.432,1.089 -0.013,1.074 -1.539,0.719 -2.181,0.52 C 23.281,7.922 22.175,7.604 21.072,7.272 18.646,6.542 16.204,5.863 13.78,5.124 11.266,4.357 8.752,3.58 6.232,2.831 4.216,2.231 1.524,1.79 0.044,0.177 0.01,0.139 -0.054,0.049 0,0"
             style="fill:#000000;fill-opacity:1;fill-rule:nonzero;stroke:none"
             id="path2890" />
        </g>
        <g
           id="g2892"
           transform="translate(249.3975,122.1807)">
          <path
             d="m 0,0 c 0.49,-0.452 1.169,-0.307 1.777,-0.206 1.188,0.197 2.35,0.515 3.517,0.805 2.455,0.608 4.93,1.154 7.395,1.717 2.297,0.526 4.581,1.108 6.857,1.718 1.127,0.303 2.246,0.625 3.363,0.962 1.16,0.35 2.469,0.61 3.22,1.658 0.213,0.297 0.436,0.71 0.433,1.089 -0.014,1.074 -1.54,0.719 -2.181,0.52 C 23.281,7.921 22.174,7.604 21.071,7.272 18.646,6.542 16.203,5.863 13.779,5.124 11.265,4.356 8.751,3.58 6.231,2.831 4.215,2.231 1.524,1.79 0.044,0.177 0.01,0.139 -0.054,0.049 0,0"
             style="fill:#000000;fill-opacity:1;fill-rule:nonzero;stroke:none"
             id="path2894" />
        </g>
        <g
           id="g2896"
           transform="translate(249.2241,121.0596)">
          <path
             d="m 0,0 c 0.346,-1.479 5.844,0.663 6.645,0.891 2.151,0.613 4.307,1.21 6.454,1.838 2.167,0.632 4.331,1.273 6.503,1.891 2.149,0.613 4.407,1.083 6.388,2.151 0.433,0.235 1.588,1.444 0.673,1.827 C 25.718,8.993 24.52,8.733 23.571,8.458 22.339,8.101 21.101,7.77 19.869,7.42 17.237,6.675 14.616,5.894 11.988,5.137 9.542,4.433 7.086,3.768 4.637,3.08 3.294,2.704 -0.473,2.022 0,0"
             style="fill:#000000;fill-opacity:1;fill-rule:nonzero;stroke:none"
             id="path2898" />
        </g>
        <g
           id="g2900"
           transform="translate(251.3887,114.5771)">
          <path
             d="m 0,0 c 0.562,-0.043 1.146,0.206 1.695,0.312 1.085,0.206 2.15,0.429 3.217,0.721 2.236,0.612 4.455,1.28 6.695,1.874 2.285,0.607 4.58,1.173 6.867,1.771 2.232,0.584 4.387,1.4 6.603,2.032 0.613,0.174 1.18,0.708 1.336,1.336 C 26.55,8.592 26.172,9.003 25.612,8.847 23.557,8.272 21.56,7.546 19.485,7.033 17.196,6.467 14.913,5.872 12.631,5.281 10.377,4.697 8.141,4.052 5.9,3.419 4.194,2.938 2.069,2.859 0.501,2.002 -0.01,1.723 -1.31,0.1 0,0"
             style="fill:#000000;fill-opacity:1;fill-rule:nonzero;stroke:none"
             id="path2902" />
        </g>
        <g
           id="g2904"
           transform="translate(250.5557,121.8643)">
          <path
             d="M 0,0 C -0.113,-1.23 0.147,-2.498 0.381,-3.704 0.541,-4.53 0.683,-6.597 1.618,-6.848 1.771,-6.889 1.923,-6.733 1.961,-6.6 2.234,-5.644 1.548,-4.446 1.3,-3.501 0.988,-2.31 0.865,-0.93 0.253,0.15 0.178,0.282 0.008,0.089 0,0"
             style="fill:#000000;fill-opacity:1;fill-rule:nonzero;stroke:none"
             id="path2906" />
        </g>
        <g
           id="g2908"
           transform="translate(251.3447,121.4893)">
          <path
             d="m 0,0 c -0.03,-0.856 0.266,-1.773 0.44,-2.606 0.252,-1.204 0.387,-3.189 1.35,-4.028 0.094,-0.082 0.256,0.071 0.271,0.163 0.213,1.343 -0.503,2.856 -0.848,4.15 C 1.06,-1.746 0.954,0.038 0.218,0.186 0.114,0.206 0.004,0.102 0,0"
             style="fill:#000000;fill-opacity:1;fill-rule:nonzero;stroke:none"
             id="path2910" />
        </g>
        <g
           id="g2912"
           transform="translate(252.0967,122.4678)">
          <path
             d="M 0,0 C 0.164,-1.091 0.562,-2.157 0.806,-3.237 1.041,-4.28 1.016,-6.077 1.925,-6.759 2,-6.815 2.108,-6.71 2.125,-6.639 2.391,-5.476 1.908,-4.26 1.636,-3.126 1.368,-2.009 1.13,-0.634 0.335,0.241 0.226,0.362 -0.018,0.12 0,0"
             style="fill:#000000;fill-opacity:1;fill-rule:nonzero;stroke:none"
             id="path2914" />
        </g>
        <g
           id="g2916"
           transform="translate(253.3174,122.252)">
          <path
             d="m 0,0 c -0.146,-0.938 0.304,-1.975 0.535,-2.878 0.283,-1.104 0.458,-2.274 1.097,-3.237 0.076,-0.116 0.263,0.11 0.263,0.189 10e-4,1.09 -0.335,2.074 -0.636,3.113 C 1.015,-1.966 0.88,-0.484 0.212,0.128 0.14,0.194 0.011,0.071 0,0"
             style="fill:#000000;fill-opacity:1;fill-rule:nonzero;stroke:none"
             id="path2918" />
        </g>
        <g
           id="g2920"
           transform="translate(254.4385,122.2979)">
          <path
             d="m 0,0 c 0.267,-0.979 0.684,-1.878 0.885,-2.898 0.204,-1.033 0.231,-2.347 0.896,-3.202 0.08,-0.103 0.235,0.101 0.24,0.172 0.085,1.174 -0.24,2.341 -0.509,3.478 C 1.356,-1.797 1.067,0.072 0.234,0.234 0.118,0.257 -0.033,0.122 0,0"
             style="fill:#000000;fill-opacity:1;fill-rule:nonzero;stroke:none"
             id="path2922" />
        </g>
        <g
           id="g2924"
           transform="translate(255.2637,122.3682)">
          <path
             d="M 0,0 C -0.099,-0.947 0.281,-1.911 0.526,-2.818 0.805,-3.853 0.97,-4.927 1.645,-5.779 1.717,-5.87 1.856,-5.69 1.86,-5.624 1.915,-4.59 1.617,-3.722 1.3,-2.742 1.008,-1.841 0.83,-0.582 0.167,0.12 0.104,0.187 0.005,0.054 0,0"
             style="fill:#000000;fill-opacity:1;fill-rule:nonzero;stroke:none"
             id="path2926" />
        </g>
        <g
           id="g2928"
           transform="translate(256.4053,122.3047)">
          <path
             d="M 0,0 C 0.033,0.14 0.069,0.278 0.107,0.417 -0.06,0.355 -0.226,0.295 -0.393,0.233 -0.312,-0.888 0.069,-1.979 0.359,-3.062 0.669,-4.218 0.913,-5.436 1.646,-6.4 1.73,-6.514 1.905,-6.291 1.908,-6.211 1.955,-5.038 1.62,-4.044 1.291,-2.927 0.956,-1.789 0.666,-0.514 0.105,0.53 -0.028,0.779 -0.491,0.389 -0.383,0.181 -0.316,0.088 -0.276,-0.015 -0.261,-0.127 -0.228,-0.27 -0.016,-0.064 0,0"
             style="fill:#000000;fill-opacity:1;fill-rule:nonzero;stroke:none"
             id="path2930" />
        </g>
        <g
           id="g2932"
           transform="translate(257.2754,123.1904)">
          <path
             d="M 0,0 C 0.112,-1.007 0.349,-2.001 0.539,-2.995 0.725,-3.966 0.87,-4.977 1.641,-5.659 1.716,-5.726 1.851,-5.591 1.844,-5.513 1.765,-4.609 1.48,-3.772 1.266,-2.896 1.009,-1.852 0.907,-0.725 0.38,0.227 0.278,0.409 -0.017,0.149 0,0"
             style="fill:#000000;fill-opacity:1;fill-rule:nonzero;stroke:none"
             id="path2934" />
        </g>
        <g
           id="g2936"
           transform="translate(258.3174,123.4121)">
          <path
             d="M 0,0 C 0.028,0.071 0.058,0.144 0.086,0.215 -0.044,0.199 -0.173,0.183 -0.303,0.167 -0.223,-0.865 0.09,-1.894 0.335,-2.898 0.576,-3.884 0.76,-4.826 1.329,-5.68 1.389,-5.77 1.532,-5.594 1.532,-5.533 1.538,-4.579 1.347,-3.756 1.115,-2.837 0.844,-1.761 0.648,-0.56 0.14,0.431 0.018,0.669 -0.443,0.261 -0.271,0.082 -0.242,0.024 -0.215,-0.033 -0.187,-0.09 -0.162,-0.194 -0.013,-0.044 0,0"
             style="fill:#000000;fill-opacity:1;fill-rule:nonzero;stroke:none"
             id="path2938" />
        </g>
        <g
           id="g2940"
           transform="translate(258.8213,123.7813)">
          <path
             d="m 0,0 c 0.794,-1.984 0.319,-4.67 1.802,-6.369 0.068,-0.079 0.185,0.077 0.191,0.138 0.126,1.497 -0.58,2.942 -0.921,4.378 C 0.932,-1.258 0.857,-0.072 0.256,0.256 0.144,0.316 -0.043,0.107 0,0"
             style="fill:#000000;fill-opacity:1;fill-rule:nonzero;stroke:none"
             id="path2942" />
        </g>
        <g
           id="g2944"
           transform="translate(259.4863,124.001)">
          <path
             d="m 0,0 c 0.059,-0.899 0.323,-1.767 0.521,-2.644 0.249,-1.108 0.4,-2.25 0.982,-3.244 0.069,-0.117 0.243,0.051 0.24,0.144 -0.029,1.063 -0.286,2.063 -0.546,3.09 C 0.955,-1.698 0.772,-0.672 0.227,0.163 0.164,0.261 -0.005,0.071 0,0"
             style="fill:#000000;fill-opacity:1;fill-rule:nonzero;stroke:none"
             id="path2946" />
        </g>
        <g
           id="g2948"
           transform="translate(260.3779,124.2061)">
          <path
             d="m 0,0 c 0.42,-1.937 0.465,-4.253 1.562,-5.956 0.059,-0.093 0.237,0.09 0.226,0.164 C 1.501,-3.774 0.894,-1.738 0.285,0.205 0.236,0.361 -0.028,0.129 0,0"
             style="fill:#000000;fill-opacity:1;fill-rule:nonzero;stroke:none"
             id="path2950" />
        </g>
        <g
           id="g2952"
           transform="translate(261.1846,124.7236)">
          <path
             d="M 0,0 C 1.151,-1.786 0.377,-4.405 1.557,-6.156 1.621,-6.252 1.77,-6.063 1.772,-6.001 1.816,-4.818 1.581,-3.662 1.348,-2.506 1.162,-1.585 1.04,-0.306 0.149,0.176 0.07,0.22 -0.045,0.07 0,0"
             style="fill:#000000;fill-opacity:1;fill-rule:nonzero;stroke:none"
             id="path2954" />
        </g>
        <g
           id="g2956"
           transform="translate(261.9668,124.9707)">
          <path
             d="M 0,0 C 0.11,-1.104 0.396,-2.198 0.628,-3.282 0.885,-4.481 0.981,-5.816 1.655,-6.863 1.729,-6.98 1.918,-6.752 1.918,-6.674 1.924,-5.523 1.577,-4.429 1.324,-3.313 1.062,-2.153 0.834,-0.896 0.24,0.143 0.174,0.258 -0.01,0.095 0,0"
             style="fill:#000000;fill-opacity:1;fill-rule:nonzero;stroke:none"
             id="path2958" />
        </g>
        <g
           id="g2960"
           transform="translate(262.9687,125.0381)">
          <path
             d="m 0,0 c 0.034,-0.862 0.235,-1.792 0.398,-2.642 0.246,-1.28 0.399,-2.672 1.19,-3.737 0.081,-0.108 0.249,0.106 0.252,0.182 0.053,1.382 -0.396,2.73 -0.729,4.066 C 0.972,-1.575 0.945,0.035 0.294,0.252 0.164,0.295 -0.005,0.126 0,0"
             style="fill:#000000;fill-opacity:1;fill-rule:nonzero;stroke:none"
             id="path2962" />
        </g>
        <g
           id="g2964"
           transform="translate(264.5371,125.0059)">
          <path
             d="M 0,0 C 0.031,0.084 0.062,0.169 0.093,0.254 -0.086,0.231 -0.266,0.209 -0.444,0.187 c -0.155,-1.205 0.055,-2.414 0.263,-3.599 0.212,-1.207 0.417,-2.634 1.493,-3.365 0.102,-0.069 0.256,0.075 0.252,0.181 -0.046,1.196 -0.5,2.269 -0.791,3.42 C 0.472,-1.98 0.444,-0.728 0.118,0.458 0.041,0.739 -0.577,0.322 -0.442,0.056 -0.4,-0.015 -0.369,-0.089 -0.349,-0.168 -0.283,-0.361 -0.027,-0.085 0,0"
             style="fill:#000000;fill-opacity:1;fill-rule:nonzero;stroke:none"
             id="path2966" />
        </g>
        <g
           id="g2968"
           transform="translate(265.4727,125.2363)">
          <path
             d="M 0,0 0.094,0.182 C -0.061,0.143 -0.215,0.104 -0.369,0.065 0.278,-1.564 -0.376,-4.213 1.03,-5.463 1.138,-5.559 1.282,-5.366 1.293,-5.273 1.418,-4.229 1.142,-3.298 0.949,-2.275 0.821,-1.597 0.743,0.054 0.131,0.49 -0.095,0.65 -0.506,0.245 -0.34,0.02 -0.309,-0.033 -0.267,-0.074 -0.213,-0.104 -0.137,-0.162 -0.031,-0.067 0,0"
             style="fill:#000000;fill-opacity:1;fill-rule:nonzero;stroke:none"
             id="path2970" />
        </g>
        <g
           id="g2972"
           transform="translate(266.4014,126.0801)">
          <path
             d="M 0,0 C 0.061,0.089 0.121,0.177 0.182,0.266 0.055,0.268 -0.072,0.27 -0.2,0.271 -0.408,-0.852 -0.176,-1.957 0.048,-3.063 0.308,-4.357 0.56,-5.796 1.412,-6.834 1.507,-6.949 1.682,-6.721 1.687,-6.636 1.76,-5.459 1.415,-4.477 1.105,-3.35 0.76,-2.09 0.646,-0.75 0.235,0.481 0.16,0.706 -0.232,0.387 -0.206,0.218 -0.184,0.13 -0.18,0.041 -0.194,-0.049 -0.2,-0.179 -0.023,-0.039 0,0"
             style="fill:#000000;fill-opacity:1;fill-rule:nonzero;stroke:none"
             id="path2974" />
        </g>
        <g
           id="g2976"
           transform="translate(267.7197,126.4023)">
          <path
             d="M 0,0 C 0.088,-0.179 0.055,-0.739 0.082,-0.944 0.143,-1.396 0.21,-1.852 0.247,-2.306 0.36,-3.69 0.743,-5.443 1.603,-6.547 1.689,-6.66 1.861,-6.437 1.865,-6.357 1.956,-4.623 1.253,-2.973 0.954,-1.273 0.9,-0.969 0.749,0.546 0.141,0.232 0.075,0.198 -0.044,0.088 0,0"
             style="fill:#000000;fill-opacity:1;fill-rule:nonzero;stroke:none"
             id="path2978" />
        </g>
        <g
           id="g2980"
           transform="translate(268.8623,126.8398)">
          <path
             d="M 0,0 C 0.057,-1.136 0.292,-2.275 0.453,-3.4 0.606,-4.477 0.677,-5.514 1.268,-6.448 1.36,-6.596 1.57,-6.386 1.571,-6.268 1.587,-5.029 1.336,-3.859 1.135,-2.641 0.976,-1.673 0.85,-0.615 0.299,0.215 0.215,0.343 -0.005,0.093 0,0"
             style="fill:#000000;fill-opacity:1;fill-rule:nonzero;stroke:none"
             id="path2982" />
        </g>
        <g
           id="g2984"
           transform="translate(269.6133,127.5498)">
          <path
             d="M 0,0 C -0.153,-1.224 0.289,-2.603 0.506,-3.81 0.732,-5.07 0.89,-6.276 1.604,-7.357 1.668,-7.452 1.819,-7.266 1.82,-7.202 1.839,-5.834 1.54,-4.599 1.268,-3.265 1.059,-2.242 0.937,-0.638 0.191,0.138 0.118,0.215 0.008,0.062 0,0"
             style="fill:#000000;fill-opacity:1;fill-rule:nonzero;stroke:none"
             id="path2986" />
        </g>
        <g
           id="g2988"
           transform="translate(270.5332,127.2324)">
          <path
             d="M 0,0 C 0.193,-0.253 0.222,-0.806 0.295,-1.106 0.461,-1.796 0.561,-2.503 0.689,-3.2 0.871,-4.183 0.876,-5.423 1.518,-6.24 1.605,-6.354 1.774,-6.13 1.78,-6.051 1.873,-4.826 1.559,-3.625 1.323,-2.428 1.191,-1.755 1.034,0.01 0.239,0.282 0.113,0.325 -0.09,0.119 0,0"
             style="fill:#000000;fill-opacity:1;fill-rule:nonzero;stroke:none"
             id="path2990" />
        </g>
        <g
           id="g2992"
           transform="translate(271.5576,127.4814)">
          <path
             d="M 0,0 C 0.075,-0.855 0.288,-1.703 0.457,-2.545 0.675,-3.631 0.754,-4.791 1.331,-5.756 1.427,-5.917 1.661,-5.687 1.66,-5.56 1.646,-4.653 1.432,-3.817 1.233,-2.937 1.001,-1.901 0.825,-0.757 0.267,0.159 0.189,0.283 -0.009,0.106 0,0"
             style="fill:#000000;fill-opacity:1;fill-rule:nonzero;stroke:none"
             id="path2994" />
        </g>
        <g
           id="g2996"
           transform="translate(272.5352,128.3457)">
          <path
             d="M 0,0 C 0.086,-0.929 0.214,-1.926 0.412,-2.838 0.726,-4.276 0.955,-5.836 1.723,-7.106 1.789,-7.217 1.951,-7.059 1.95,-6.971 1.927,-5.477 1.532,-4.094 1.137,-2.66 0.896,-1.785 1.012,-0.427 0.191,0.139 0.117,0.189 -0.007,0.082 0,0"
             style="fill:#000000;fill-opacity:1;fill-rule:nonzero;stroke:none"
             id="path2998" />
        </g>
        <g
           id="g3000"
           transform="translate(273.4473,128.3857)">
          <path
             d="m 0,0 c -0.003,-0.987 0.263,-1.954 0.465,-2.915 0.266,-1.267 0.465,-2.528 1.06,-3.689 0.111,-0.215 0.442,0.093 0.43,0.256 C 1.868,-5.136 1.576,-4.003 1.281,-2.827 1.026,-1.811 0.864,-0.685 0.287,0.207 0.205,0.334 0,0.085 0,0"
             style="fill:#000000;fill-opacity:1;fill-rule:nonzero;stroke:none"
             id="path3002" />
        </g>
        <g
           id="g3004"
           transform="translate(273.9824,128.6328)">
          <path
             d="M 0,0 C -0.198,-2.211 0.468,-4.949 1.749,-6.733 1.827,-6.842 1.999,-6.628 2,-6.552 2.023,-5.292 1.815,-4.386 1.438,-3.186 1.091,-2.077 0.789,-0.877 0.278,0.166 0.204,0.317 0.008,0.094 0,0"
             style="fill:#000000;fill-opacity:1;fill-rule:nonzero;stroke:none"
             id="path3006" />
        </g>
        <g
           id="g3008"
           transform="translate(245.5454,89.416)">
          <path
             d="m 0,0 c 0.01,0.038 0.019,0.077 0.029,0.115 0.06,0.246 -0.265,0.066 -0.322,-0.04 -0.409,-0.757 0.251,-2.327 0.409,-3.066 0.192,-0.902 0.372,-1.804 0.585,-2.7 0.19,-0.799 0.206,-1.677 0.946,-2.116 0.123,-0.072 0.287,0.133 0.313,0.228 0.223,0.796 0.025,1.308 -0.196,2.112 C 1.483,-4.442 1.248,-3.406 0.965,-2.383 0.834,-1.907 0.624,0.167 -0.057,0.248 -0.134,0.14 -0.212,0.032 -0.29,-0.076 -0.264,-0.094 -0.238,-0.11 -0.212,-0.128 -0.128,-0.183 -0.02,-0.08 0,0"
             style="fill:#000000;fill-opacity:1;fill-rule:nonzero;stroke:none"
             id="path3010" />
        </g>
        <g
           id="g3012"
           transform="translate(245.9868,91.8633)">
          <path
             d="m 0,0 c 0.199,-1.842 0.581,-3.632 0.991,-5.436 0.216,-0.947 0.466,-1.893 0.739,-2.825 0.235,-0.802 0.281,-1.757 1.17,-2.006 0.112,-0.032 0.239,0.073 0.28,0.17 0.625,1.465 -0.301,3.125 -0.808,4.529 C 1.682,-3.663 0.917,-1.783 0.161,0.096 0.128,0.179 -0.007,0.06 0,0"
             style="fill:#000000;fill-opacity:1;fill-rule:nonzero;stroke:none"
             id="path3014" />
        </g>
        <g
           id="g3016"
           transform="translate(247.3535,93.4248)">
          <path
             d="m 0,0 c -0.081,-1.978 0.615,-4.112 1.036,-6.032 0.246,-1.125 0.525,-2.241 0.804,-3.359 0.208,-0.833 0.253,-1.804 1.126,-2.131 0.17,-0.064 0.399,0.126 0.455,0.276 0.332,0.882 0.174,1.472 -0.061,2.383 -0.281,1.092 -0.602,2.184 -0.938,3.26 C 1.846,-3.762 1.441,-1.365 0.27,0.193 0.182,0.31 0.003,0.081 0,0"
             style="fill:#000000;fill-opacity:1;fill-rule:nonzero;stroke:none"
             id="path3018" />
        </g>
        <g
           id="g3020"
           transform="translate(248.7715,94.2969)">
          <path
             d="m 0,0 c 0.172,-2.14 0.605,-4.273 1.012,-6.379 0.214,-1.105 0.462,-2.197 0.73,-3.29 0.228,-0.927 0.349,-2.099 1.378,-2.401 0.114,-0.034 0.255,0.077 0.295,0.179 0.67,1.72 -0.351,3.849 -0.868,5.524 C 1.873,-4.188 1.268,-1.903 0.228,0.136 0.169,0.249 -0.007,0.087 0,0"
             style="fill:#000000;fill-opacity:1;fill-rule:nonzero;stroke:none"
             id="path3022" />
        </g>
        <g
           id="g3024"
           transform="translate(249.9434,94.4531)">
          <path
             d="m 0,0 c 0.207,-0.812 0.163,-1.684 0.332,-2.51 0.22,-1.077 0.471,-2.15 0.737,-3.217 0.272,-1.085 0.529,-2.175 0.827,-3.254 0.223,-0.809 0.27,-1.806 1.175,-2.027 0.112,-0.026 0.229,0.07 0.273,0.166 0.384,0.849 0.223,1.426 -0.041,2.313 -0.358,1.204 -0.746,2.4 -1.122,3.598 C 1.862,-3.916 1.504,-2.914 1.183,-1.9 0.949,-1.166 0.878,-0.297 0.281,0.239 0.164,0.345 -0.03,0.118 0,0"
             style="fill:#000000;fill-opacity:1;fill-rule:nonzero;stroke:none"
             id="path3026" />
        </g>
        <g
           id="g3028"
           transform="translate(251.21,95.4326)">
          <path
             d="m 0,0 c 0.492,-1.815 0.782,-3.686 1.308,-5.502 0.271,-0.937 0.566,-1.869 0.853,-2.802 0.281,-0.917 0.465,-1.927 1.197,-2.59 0.067,-0.06 0.184,0.051 0.195,0.117 0.294,1.947 -0.818,4.051 -1.409,5.874 -0.34,1.047 -0.683,2.095 -1.055,3.131 C 0.85,-1.108 0.731,-0.318 0.141,0.12 0.079,0.166 -0.018,0.063 0,0"
             style="fill:#000000;fill-opacity:1;fill-rule:nonzero;stroke:none"
             id="path3030" />
        </g>
        <g
           id="g3032"
           transform="translate(252.7705,95.2012)">
          <path
             d="m 0,0 c 0.223,-1.646 0.54,-3.284 0.845,-4.917 0.17,-0.909 0.421,-1.802 0.7,-2.682 0.226,-0.714 0.352,-1.483 1.001,-1.913 0.092,-0.061 0.205,0.053 0.229,0.138 C 3.171,-7.98 2.296,-6.579 1.921,-5.246 1.411,-3.439 1.08,-1.544 0.267,0.159 0.203,0.291 -0.014,0.103 0,0"
             style="fill:#000000;fill-opacity:1;fill-rule:nonzero;stroke:none"
             id="path3034" />
        </g>
        <g
           id="g3036"
           transform="translate(253.8359,94.5605)">
          <path
             d="M 0,0 C 0.297,-1.126 0.475,-2.256 0.646,-3.408 0.849,-4.783 1.123,-6.709 2.23,-7.641 2.309,-7.707 2.438,-7.584 2.451,-7.508 2.762,-5.789 2.023,-4.236 1.597,-2.593 1.404,-1.854 1.192,0.064 0.231,0.231 0.116,0.252 -0.032,0.123 0,0"
             style="fill:#000000;fill-opacity:1;fill-rule:nonzero;stroke:none"
             id="path3038" />
        </g>
        <g
           id="g3040"
           transform="translate(270.6123,96.7871)">
          <path
             d="m 0,0 c -0.117,-0.362 -0.001,-0.807 0.038,-1.172 0.083,-0.795 0.15,-1.592 0.238,-2.388 0.072,-0.644 0.171,-1.264 0.303,-1.902 0.191,-0.919 0.313,-2.6 1.355,-2.873 0.119,-0.031 0.25,0.075 0.295,0.18 0.526,1.198 -0.083,2.371 -0.43,3.566 C 1.542,-3.707 1.392,-2.815 1.164,-1.927 1.012,-1.33 0.904,-0.311 0.36,0.076 0.253,0.152 0.048,0.146 0,0"
             style="fill:#000000;fill-opacity:1;fill-rule:nonzero;stroke:none"
             id="path3042" />
        </g>
        <g
           id="g3044"
           transform="translate(271.2539,98.5518)">
          <path
             d="m 0,0 c -0.025,-1.684 0.314,-3.379 0.606,-5.032 0.25,-1.419 0.299,-3.497 1.476,-4.481 0.079,-0.066 0.206,0.057 0.221,0.133 0.292,1.546 -0.276,3.064 -0.637,4.563 C 1.269,-3.165 1.011,-1.377 0.284,0.169 0.213,0.32 0.001,0.101 0,0"
             style="fill:#000000;fill-opacity:1;fill-rule:nonzero;stroke:none"
             id="path3046" />
        </g>
        <g
           id="g3048"
           transform="translate(272.3672,99.3369)">
          <path
             d="m 0,0 c 0.045,-1.849 0.359,-3.754 0.692,-5.571 0.2,-1.088 0.491,-2.157 0.787,-3.221 0.233,-0.834 0.363,-1.597 1.137,-2.055 0.094,-0.055 0.22,0.102 0.24,0.175 0.483,1.757 -0.522,3.749 -0.981,5.445 C 1.396,-3.455 1.291,-1.374 0.26,0.187 0.186,0.301 -0.002,0.079 0,0"
             style="fill:#000000;fill-opacity:1;fill-rule:nonzero;stroke:none"
             id="path3050" />
        </g>
        <g
           id="g3052"
           transform="translate(273.3965,100.1553)">
          <path
             d="m 0,0 c 0.084,-1.874 0.451,-3.784 0.788,-5.629 0.285,-1.566 0.624,-3.91 1.852,-5.024 0.108,-0.098 0.302,0.084 0.318,0.191 0.251,1.757 -0.651,3.417 -1.096,5.09 C 1.376,-3.539 1.22,-1.51 0.294,0.176 0.214,0.321 -0.006,0.112 0,0"
             style="fill:#000000;fill-opacity:1;fill-rule:nonzero;stroke:none"
             id="path3054" />
        </g>
        <g
           id="g3056"
           transform="translate(274.4023,100.9756)">
          <path
             d="m 0,0 c 0.134,-2.011 0.542,-4.049 0.862,-6.04 0.28,-1.74 0.66,-4.17 1.935,-5.472 0.117,-0.12 0.294,0.12 0.305,0.22 C 3.328,-9.286 2.36,-7.348 1.889,-5.428 1.439,-3.597 1.206,-1.501 0.247,0.147 0.178,0.267 -0.006,0.097 0,0"
             style="fill:#000000;fill-opacity:1;fill-rule:nonzero;stroke:none"
             id="path3058" />
        </g>
        <g
           id="g3060"
           transform="translate(275.8379,101.0078)">
          <path
             d="m 0,0 c 0.078,-1.941 0.43,-3.854 0.749,-5.769 0.282,-1.685 0.556,-4.152 1.827,-5.383 0.1,-0.097 0.287,0.082 0.3,0.18 0.27,1.984 -0.583,3.924 -1.086,5.824 C 1.518,-4.119 1.3,-3.07 1.04,-2.038 0.852,-1.291 0.726,-0.443 0.225,0.162 0.15,0.252 -0.003,0.075 0,0"
             style="fill:#000000;fill-opacity:1;fill-rule:nonzero;stroke:none"
             id="path3062" />
        </g>
        <g
           id="g3064"
           transform="translate(277.0449,101.8467)">
          <path
             d="m 0,0 c -0.28,-1.879 0.104,-3.803 0.445,-5.651 0.319,-1.717 0.563,-4.136 1.662,-5.541 0.097,-0.123 0.286,0.107 0.31,0.185 C 2.958,-9.27 2.06,-7.476 1.642,-5.79 1.154,-3.83 0.812,-1.811 0.271,0.131 0.231,0.272 0.012,0.077 0,0"
             style="fill:#000000;fill-opacity:1;fill-rule:nonzero;stroke:none"
             id="path3066" />
        </g>
        <g
           id="g3068"
           transform="translate(278.1309,101.3271)">
          <path
             d="m 0,0 c -0.034,-1.72 0.481,-3.512 0.788,-5.196 0.259,-1.417 0.304,-3.684 1.524,-4.635 0.104,-0.081 0.261,0.07 0.283,0.17 0.338,1.598 -0.264,3.246 -0.613,4.804 C 1.619,-3.229 1.338,-1.14 0.269,0.193 0.18,0.306 0.001,0.085 0,0"
             style="fill:#000000;fill-opacity:1;fill-rule:nonzero;stroke:none"
             id="path3070" />
        </g>
        <g
           id="g3072"
           transform="translate(279.4004,100.8633)">
          <path
             d="m 0,0 c -0.278,-1.436 0.102,-3.093 0.312,-4.527 0.182,-1.244 0.141,-3.462 1.315,-4.215 0.131,-0.084 0.293,0.073 0.327,0.196 0.38,1.409 -0.161,2.86 -0.437,4.253 -0.26,1.314 -0.362,3.407 -1.34,4.399 C 0.117,0.166 0.011,0.055 0,0"
             style="fill:#000000;fill-opacity:1;fill-rule:nonzero;stroke:none"
             id="path3074" />
        </g>
        <g
           id="g3076"
           transform="translate(280.2256,99.999)">
          <path
             d="M 0,0 C 0.272,-0.786 0.133,-1.735 0.297,-2.551 0.628,-4.19 1.081,-5.58 1.871,-7.056 1.945,-7.195 2.147,-6.994 2.146,-6.892 2.138,-6.079 2.164,-5.221 2.013,-4.42 1.834,-3.483 1.488,-2.581 1.322,-1.646 1.206,-0.99 1.04,0.207 0.217,0.253 0.108,0.26 -0.038,0.11 0,0"
             style="fill:#000000;fill-opacity:1;fill-rule:nonzero;stroke:none"
             id="path3078" />
        </g>
        <g
           id="g3080"
           transform="translate(317.6299,126.2598)">
          <path
             d="m 0,0 c -2.586,0.25 -4.24,-2.921 -4.105,-5.138 0.127,-2.1 1.843,-3.555 3.9,-3.536 2.245,0.022 4.013,1.84 4.53,3.914 0.35,1.401 0.081,2.766 -0.733,3.94 C 3.233,-0.305 2.768,0.004 2.155,0.07 1.514,0.14 0.632,0.047 -0.033,-0.037 -0.083,-0.043 -0.164,-0.17 -0.082,-0.17 0.3,-0.17 1.11,-0.124 1.277,-0.61 1.393,-0.945 1.522,-1.151 1.786,-1.383 2.663,-2.151 3.071,-2.96 3.081,-4.141 3.094,-5.623 2.073,-6.938 0.583,-7.033 c -1.209,-0.077 -2.31,0.644 -2.815,1.719 -0.952,2.015 0.185,4.37 2.183,5.121 C 0.012,-0.17 0.119,-0.011 0,0"
             style="fill:#000000;fill-opacity:1;fill-rule:nonzero;stroke:none"
             id="path3082" />
        </g>
        <g
           id="g3084"
           transform="translate(318.0898,118.3223)">
          <path
             d="M 0,0 C 2.588,-0.253 4.242,2.916 4.108,5.134 3.98,7.234 2.265,8.689 0.208,8.67 -2.037,8.649 -3.804,6.831 -4.321,4.756 -4.67,3.355 -4.403,1.991 -3.589,0.816 c 0.358,-0.514 0.823,-0.822 1.436,-0.888 0.64,-0.07 1.522,0.024 2.186,0.109 C 0.083,0.043 0.164,0.17 0.082,0.17 -0.299,0.169 -1.109,0.123 -1.277,0.607 -1.393,0.942 -1.521,1.147 -1.784,1.38 -2.659,2.151 -3.068,2.955 -3.078,4.138 -3.09,5.619 -2.07,6.936 -0.58,7.03 0.629,7.107 1.729,6.386 2.235,5.312 3.187,3.293 2.048,0.943 0.049,0.193 -0.012,0.17 -0.119,0.011 0,0"
             style="fill:#000000;fill-opacity:1;fill-rule:nonzero;stroke:none"
             id="path3086" />
        </g>
        <g
           id="g3088"
           transform="translate(316.8457,123.8057)">
          <path
             d="m 0,0 c -0.424,-0.593 -0.801,-1.209 -1.247,-1.788 -0.409,-0.531 -0.823,-1.067 -1.088,-1.689 -0.029,-0.069 -0.068,-0.192 0.006,-0.252 0.022,-0.018 0.045,-0.037 0.067,-0.054 0.026,-0.021 0.06,-0.017 0.088,-0.002 0.568,0.293 0.835,1.139 1.177,1.655 0.425,0.641 1.024,1.35 1.152,2.128 C 0.175,0.114 0.037,0.053 0,0"
             style="fill:#000000;fill-opacity:1;fill-rule:nonzero;stroke:none"
             id="path3090" />
        </g>
        <g
           id="g3092"
           transform="translate(317.1221,121.9863)">
          <path
             d="m 0,0 c -0.53,-0.834 -1.276,-1.637 -1.661,-2.549 -0.158,-0.377 0.285,-0.266 0.435,-0.076 0.587,0.747 1.016,1.721 1.358,2.603 C 0.175,0.088 0.043,0.068 0,0"
             style="fill:#000000;fill-opacity:1;fill-rule:nonzero;stroke:none"
             id="path3094" />
        </g>
        <g
           id="g3096"
           transform="translate(318.8672,121.2861)">
          <path
             d="M 0,0 C 0.622,0.395 1.09,1.034 1.512,1.628 1.917,2.198 2.459,2.881 2.508,3.598 2.539,4.069 1.889,3.778 1.735,3.614 1.244,3.089 0.98,2.404 0.629,1.782 0.327,1.249 -0.069,0.645 -0.104,0.021 -0.108,-0.044 -0.029,-0.019 0,0"
             style="fill:#000000;fill-opacity:1;fill-rule:nonzero;stroke:none"
             id="path3098" />
        </g>
        <g
           id="g3100"
           transform="translate(251.2812,63.3965)">
          <path
             d="m 0,0 c -2.585,0.252 -4.241,-2.92 -4.106,-5.136 0.127,-2.1 1.844,-3.554 3.901,-3.535 2.245,0.021 4.013,1.838 4.53,3.913 0.35,1.4 0.081,2.765 -0.733,3.939 C 3.234,-0.305 2.768,0.005 2.156,0.07 1.514,0.14 0.632,0.046 -0.033,-0.038 c -0.05,-0.006 -0.131,-0.133 -0.049,-0.133 0.382,0 1.192,0.046 1.359,-0.44 C 1.393,-0.945 1.522,-1.152 1.786,-1.383 2.664,-2.15 3.071,-2.96 3.081,-4.14 3.094,-5.622 2.072,-6.937 0.583,-7.031 c -1.209,-0.076 -2.31,0.644 -2.816,1.719 -0.951,2.015 0.186,4.369 2.184,5.118 C 0.012,-0.171 0.119,-0.012 0,0"
             style="fill:#000000;fill-opacity:1;fill-rule:nonzero;stroke:none"
             id="path3102" />
        </g>
        <g
           id="g3104"
           transform="translate(251.7422,55.459)">
          <path
             d="M 0,0 C 2.587,-0.255 4.242,2.92 4.107,5.137 3.979,7.237 2.264,8.692 0.207,8.672 -2.039,8.65 -3.806,6.832 -4.323,4.758 -4.671,3.357 -4.404,1.993 -3.59,0.819 -3.232,0.304 -2.766,-0.004 -2.154,-0.07 -1.513,-0.141 -0.631,-0.047 0.033,0.037 0.083,0.043 0.164,0.17 0.082,0.17 -0.299,0.17 -1.11,0.124 -1.277,0.609 -1.393,0.944 -1.521,1.15 -1.785,1.382 -2.66,2.152 -3.069,2.958 -3.079,4.14 -3.091,5.621 -2.071,6.937 -0.581,7.032 0.627,7.109 1.728,6.389 2.234,5.313 3.186,3.298 2.049,0.941 0.049,0.193 -0.012,0.17 -0.119,0.011 0,0"
             style="fill:#000000;fill-opacity:1;fill-rule:nonzero;stroke:none"
             id="path3106" />
        </g>
        <g
           id="g3108"
           transform="translate(250.4976,60.9424)">
          <path
             d="m 0,0 c -0.424,-0.592 -0.801,-1.208 -1.247,-1.788 -0.409,-0.53 -0.824,-1.066 -1.089,-1.687 -0.029,-0.069 -0.068,-0.192 0.006,-0.253 0.022,-0.017 0.044,-0.036 0.067,-0.053 0.026,-0.021 0.06,-0.017 0.088,-0.002 0.568,0.292 0.837,1.139 1.178,1.654 0.425,0.641 1.024,1.349 1.152,2.127 C 0.175,0.114 0.038,0.053 0,0"
             style="fill:#000000;fill-opacity:1;fill-rule:nonzero;stroke:none"
             id="path3110" />
        </g>
        <g
           id="g3112"
           transform="translate(250.7739,59.125)">
          <path
             d="m 0,0 c -0.531,-0.836 -1.275,-1.639 -1.662,-2.552 -0.159,-0.377 0.286,-0.267 0.435,-0.076 0.588,0.749 1.017,1.722 1.358,2.606 C 0.174,0.088 0.043,0.068 0,0"
             style="fill:#000000;fill-opacity:1;fill-rule:nonzero;stroke:none"
             id="path3114" />
        </g>
        <g
           id="g3116"
           transform="translate(252.5166,58.4248)">
          <path
             d="M 0,0 C 0.623,0.394 1.092,1.033 1.514,1.627 1.919,2.197 2.461,2.88 2.511,3.597 2.543,4.068 1.892,3.777 1.738,3.613 1.247,3.088 0.983,2.403 0.631,1.781 0.328,1.248 -0.068,0.646 -0.104,0.021 -0.108,-0.044 -0.029,-0.019 0,0"
             style="fill:#000000;fill-opacity:1;fill-rule:nonzero;stroke:none"
             id="path3118" />
        </g>
        <g
           id="g3120"
           transform="translate(301.6992,119.8271)">
          <path
             d="M 0,0 C 0.994,0.468 1.646,1.472 2.308,2.311 3.225,3.476 4.176,4.64 5.316,5.595 5.612,5.842 6.172,6.521 5.622,6.815 3.021,8.206 0.521,9.956 -1.799,11.782 -2.752,12.532 -3.798,10.481 -4.283,9.847 -5.362,8.433 -6.48,7.028 -7.474,5.552 -7.572,5.404 -7.76,5.036 -7.553,4.884 c 1.142,-0.835 2.283,-1.67 3.424,-2.506 1.233,-0.902 2.779,-1.405 3.985,-2.29 0.136,-0.1 0.408,0.189 0.282,0.281 -1.094,0.803 -1.986,2.009 -3.06,2.871 -1.163,0.934 -2.411,1.778 -3.613,2.661 L -6.614,5.233 c 1.397,2.075 2.962,4.082 4.535,6.026 -0.239,-0.146 -0.478,-0.29 -0.717,-0.436 -0.268,0 -0.066,-0.027 0.144,-0.189 C -2.4,10.44 -2.143,10.255 -1.885,10.068 -1.048,9.461 -0.199,8.867 0.649,8.276 1.966,7.358 3.22,6.188 4.624,5.421 4.726,5.828 4.827,6.235 4.93,6.642 3.859,5.756 2.941,4.755 2.063,3.683 1.259,2.7 -0.022,1.461 -0.256,0.165 -0.288,-0.011 -0.147,-0.07 0,0"
             style="fill:#000000;fill-opacity:1;fill-rule:nonzero;stroke:none"
             id="path3122" />
        </g>
        <g
           id="g3124"
           transform="translate(298.9004,127.7539)">
          <path
             d="m 0,0 c -0.879,-1.067 -2.135,-1.973 -2.794,-3.199 -0.21,-0.392 0.288,-0.419 0.491,-0.186 0.449,0.516 0.866,1.071 1.289,1.609 0.432,0.547 0.891,1.1 1.154,1.752 C 0.189,0.098 0.05,0.06 0,0"
             style="fill:#000000;fill-opacity:1;fill-rule:nonzero;stroke:none"
             id="path3126" />
        </g>
        <g
           id="g3128"
           transform="translate(298.6152,125.7383)">
          <path
             d="m 0,0 c -0.445,-0.263 -0.803,-0.637 -1.146,-1.02 -0.327,-0.365 -0.7,-0.776 -0.761,-1.274 -0.035,-0.279 0.354,-0.185 0.472,-0.091 0.349,0.277 0.578,0.659 0.822,1.03 0.26,0.395 0.571,0.775 0.751,1.217 C 0.179,-0.036 0.115,0.068 0,0"
             style="fill:#000000;fill-opacity:1;fill-rule:nonzero;stroke:none"
             id="path3130" />
        </g>
        <g
           id="g3132"
           transform="translate(302.3271,124.041)">
          <path
             d="M 0,0 C 1.013,0.595 1.769,1.391 2.526,2.281 2.69,2.475 2.983,2.868 2.735,3.117 2.436,3.416 1.951,2.979 1.772,2.758 1.074,1.898 0.366,1.11 -0.095,0.095 -0.126,0.024 -0.077,-0.045 0,0"
             style="fill:#000000;fill-opacity:1;fill-rule:nonzero;stroke:none"
             id="path3134" />
        </g>
        <g
           id="g3136"
           transform="translate(269.1289,59.873)">
          <path
             d="m 0,0 c 0.993,0.469 1.646,1.472 2.306,2.312 0.918,1.165 1.87,2.329 3.01,3.284 0.296,0.247 0.856,0.925 0.306,1.22 C 3.021,8.209 0.521,9.958 -1.801,11.783 -2.754,12.533 -3.798,10.482 -4.283,9.847 -5.362,8.433 -6.479,7.029 -7.475,5.555 -7.573,5.407 -7.761,5.039 -7.554,4.887 -6.412,4.051 -5.271,3.215 -4.129,2.38 -2.896,1.477 -1.35,0.973 -0.144,0.088 c 0.136,-0.1 0.408,0.189 0.282,0.281 -1.094,0.803 -1.987,2.01 -3.06,2.872 -1.164,0.935 -2.412,1.779 -3.614,2.663 L -6.615,5.236 c 1.401,2.073 2.967,4.076 4.535,6.025 -0.239,-0.146 -0.478,-0.29 -0.717,-0.436 -0.269,0 -0.068,-0.027 0.143,-0.189 0.252,-0.194 0.51,-0.379 0.767,-0.566 C -1.049,9.462 -0.2,8.869 0.649,8.277 1.966,7.36 3.22,6.19 4.624,5.422 4.726,5.829 4.827,6.236 4.93,6.643 3.858,5.756 2.941,4.756 2.062,3.683 1.258,2.701 -0.024,1.461 -0.256,0.165 -0.287,-0.011 -0.147,-0.07 0,0"
             style="fill:#000000;fill-opacity:1;fill-rule:nonzero;stroke:none"
             id="path3138" />
        </g>
        <g
           id="g3140"
           transform="translate(266.3301,67.7988)">
          <path
             d="m 0,0 c -0.88,-1.065 -2.137,-1.973 -2.793,-3.199 -0.21,-0.392 0.287,-0.42 0.49,-0.186 0.449,0.516 0.866,1.072 1.288,1.61 0.431,0.547 0.89,1.1 1.154,1.751 C 0.188,0.098 0.049,0.06 0,0"
             style="fill:#000000;fill-opacity:1;fill-rule:nonzero;stroke:none"
             id="path3142" />
        </g>
        <g
           id="g3144"
           transform="translate(266.043,65.7842)">
          <path
             d="m 0,0 c -0.443,-0.264 -0.801,-0.637 -1.143,-1.02 -0.326,-0.364 -0.699,-0.774 -0.761,-1.272 -0.035,-0.279 0.355,-0.183 0.472,-0.09 0.35,0.275 0.578,0.658 0.822,1.027 0.26,0.395 0.57,0.775 0.748,1.217 C 0.178,-0.036 0.115,0.068 0,0"
             style="fill:#000000;fill-opacity:1;fill-rule:nonzero;stroke:none"
             id="path3146" />
        </g>
        <g
           id="g3148"
           transform="translate(269.7578,64.0879)">
          <path
             d="M 0,0 C 1.072,0.627 1.853,1.49 2.652,2.43 2.81,2.615 2.943,3.064 2.632,3.18 2.3,3.304 1.957,2.986 1.771,2.757 1.074,1.897 0.367,1.109 -0.094,0.095 -0.127,0.024 -0.076,-0.045 0,0"
             style="fill:#000000;fill-opacity:1;fill-rule:nonzero;stroke:none"
             id="path3150" />
        </g>
      </g>
    </g>
    <g
       id="g3156"
       transform="matrix(1.6096571,0,0,-1.6096571,-441.92238,294.46527)">
      <g
         id="g3158"
         clip-path="url(#clipPath3162)">
        <g
           id="g3164"
           transform="translate(326.9492,66.7354)">
          <path
             d="m 0,0 1.65,-0.151 c 0.77,0.302 1.426,0.737 1.964,1.302 0.234,0.249 0.44,0.536 0.619,0.865 0.181,0.328 0.364,0.742 0.547,1.243 0.187,0.5 0.348,1.515 0.489,3.047 l 0.116,1.259 0.15,1.144 C 5.643,9.876 5.463,11.01 4.995,12.109 4.183,14.035 2.992,15.07 1.424,15.215 1.23,15.232 1.042,15.173 0.857,15.037 0.671,14.899 0.567,14.694 0.542,14.419 0.517,14.145 0.502,13.499 0.498,12.484 0.495,11.469 0.471,10.716 0.426,10.226 L -0.304,3.041 C -0.487,1.049 -0.387,0.036 0,0 Z m 1.463,6.667 c 0.091,2.248 0.185,3.897 0.282,4.949 0.098,1.051 0.229,1.873 0.396,2.465 C 3.891,13.71 4.553,11.229 4.13,6.635 4.077,6.062 3.993,5.472 3.877,4.859 3.363,2.209 2.444,0.944 1.122,1.066 l 0.05,0.546 c 0.103,1.122 0.2,2.807 0.291,5.055 z"
             style="fill:none;stroke:#000000;stroke-width:0.5;stroke-linecap:butt;stroke-linejoin:miter;stroke-miterlimit:10;stroke-dasharray:none;stroke-opacity:1"
             id="path3166" />
        </g>
        <g
           id="g3168"
           transform="translate(337.6357,70.4727)">
          <path
             d="M 0,0 C 0.345,1.551 1.039,4.207 2.082,7.971 2.082,7.477 2.091,6.679 2.11,5.58 2.129,4.479 2.131,3.516 2.118,2.688 2.106,1.861 2.075,1.172 2.024,0.618 1.974,0.064 1.96,-0.326 1.983,-0.553 0.905,-0.379 0.244,-0.194 0,0 Z M 3.209,4.765 C 3.111,7.074 3.115,8.809 3.223,9.968 3.24,10.161 3.175,10.313 3.028,10.425 2.882,10.535 2.703,10.601 2.495,10.62 L 1.726,10.69 C 1.489,10.405 1.283,9.709 1.106,8.6 1.03,8.098 0.979,7.795 0.955,7.692 0.111,3.985 -1.006,0.198 -2.396,-3.668 l -0.075,-0.196 c -0.016,-0.178 0.048,-0.332 0.189,-0.461 0.141,-0.13 0.303,-0.202 0.48,-0.219 0.364,-0.033 0.639,0.226 0.825,0.778 0.091,0.27 0.204,0.702 0.333,1.296 0.13,0.596 0.289,1.139 0.476,1.631 l 2.222,-0.542 c 0.109,-1.254 0.134,-2.204 0.075,-2.85 -0.027,-0.298 0.043,-0.506 0.212,-0.627 0.168,-0.121 0.412,-0.196 0.732,-0.225 0.261,0.074 0.408,0.277 0.439,0.612 l 0.002,0.023 c 0.02,0.222 -0.008,0.701 -0.087,1.435 -0.078,0.734 -0.111,1.195 -0.093,1.38 l -0.116,1.427 c 0.093,1.004 0.091,2.66 -0.009,4.971 z"
             style="fill:none;stroke:#000000;stroke-width:0.5;stroke-linecap:butt;stroke-linejoin:miter;stroke-miterlimit:10;stroke-dasharray:none;stroke-opacity:1"
             id="path3170" />
        </g>
        <g
           id="g3172"
           transform="translate(344.7471,66.6592)">
          <path
             d="m 0,0 c -0.086,-0.929 0.119,-1.416 0.618,-1.462 0.186,-0.017 0.354,0.039 0.504,0.167 0.15,0.129 0.232,0.264 0.245,0.405 0.013,0.141 -0.02,0.297 -0.103,0.47 -0.037,0.078 -0.062,0.133 -0.074,0.165 L 2.249,11.238 C 2.634,10.056 3.233,7.901 4.048,4.776 4.862,1.65 5.243,-0.194 5.19,-0.759 L 5.17,-0.858 c 0.03,-0.079 0.061,-0.231 0.094,-0.458 0.031,-0.228 0.084,-0.4 0.16,-0.515 0.076,-0.116 0.193,-0.182 0.352,-0.196 0.161,-0.015 0.453,0.022 0.882,0.11 0.281,0.364 0.631,2.035 1.051,5.014 0.42,2.977 0.721,5.361 0.901,7.15 l 0.16,1.728 C 8.791,12.213 8.756,12.427 8.665,12.614 8.573,12.803 8.42,12.907 8.205,12.927 7.826,12.962 7.614,12.753 7.573,12.3 L 7.551,11.683 C 7.133,7.149 6.625,3.303 6.027,0.142 5.947,0.412 5.762,1.314 5.473,2.853 5.183,4.389 4.89,5.913 4.595,7.425 4.3,8.936 3.94,10.33 3.519,11.61 3.097,12.89 2.708,13.546 2.351,13.578 2.299,13.583 2.241,13.569 2.179,13.538 l 0.013,0.145 C 1.596,13.318 1.267,12.782 1.201,12.076 L 0.675,7.83 Z"
             style="fill:none;stroke:#000000;stroke-width:0.5;stroke-linecap:butt;stroke-linejoin:miter;stroke-miterlimit:10;stroke-dasharray:none;stroke-opacity:1"
             id="path3174" />
        </g>
        <g
           id="g3176"
           transform="translate(357.416,64.2227)">
          <path
             d="m 0,0 c 0.175,-0.137 0.444,-0.271 0.811,-0.406 0.365,-0.135 0.72,-0.219 1.062,-0.25 0.84,-0.077 1.287,0.185 1.343,0.787 C 3.231,0.302 3.172,0.435 3.039,0.529 2.904,0.625 2.749,0.68 2.57,0.696 2.409,0.576 2.239,0.524 2.062,0.541 1.526,0.59 1.104,0.794 0.791,1.152 0.655,1.307 0.544,1.499 0.456,1.729 0.369,1.958 0.291,2.255 0.225,2.621 0.155,2.987 0.165,3.635 0.251,4.563 l 0.506,4.395 0.01,0.111 c 0.058,0.721 0.236,1.624 0.531,2.705 0.157,0.572 0.366,1.046 0.626,1.427 0.266,0.38 0.555,0.556 0.868,0.528 L 3.861,13.63 c 0.144,-0.006 0.266,0.049 0.371,0.162 0.104,0.114 0.163,0.25 0.177,0.406 0.015,0.156 -0.03,0.295 -0.136,0.417 C 4.17,14.736 3.997,14.81 3.76,14.831 2.771,14.922 1.927,14.707 1.228,14.188 0.713,13.815 0.272,13.099 -0.096,12.038 -0.398,11.182 -0.654,9.631 -0.861,7.387 L -0.912,6.84 -1.023,5.502 C -1.292,2.581 -0.952,0.747 0,0 Z"
             style="fill:none;stroke:#000000;stroke-width:0.5;stroke-linecap:butt;stroke-linejoin:miter;stroke-miterlimit:10;stroke-dasharray:none;stroke-opacity:1"
             id="path3178" />
        </g>
        <g
           id="g3180"
           transform="translate(364.5234,68.3125)">
          <path
             d="m 0,0 -0.21,-3.871 -0.056,-0.602 c -0.009,-0.193 0.061,-0.367 0.211,-0.519 0.151,-0.153 0.326,-0.238 0.529,-0.257 l 1.927,-0.178 c 0.253,-0.023 0.485,0.009 0.694,0.094 0.211,0.086 0.327,0.243 0.348,0.474 0.035,0.372 -0.239,0.585 -0.818,0.637 L 0.937,-4.123 C 0.906,-4.12 0.931,-3.691 1.01,-2.836 L 1.491,1.29 C 1.544,1.862 1.574,2.44 1.583,3.024 L 2.163,2.971 C 2.398,2.919 2.618,2.885 2.822,2.865 3.027,2.847 3.2,2.893 3.347,3.003 3.492,3.113 3.571,3.25 3.586,3.413 3.625,3.83 3.275,4.071 2.539,4.14 L 1.724,4.181 C 1.699,4.408 1.687,4.528 1.689,4.544 L 2.092,7.812 C 2.122,8.139 2.141,8.467 2.148,8.796 2.589,8.703 3.152,8.505 3.835,8.202 4.298,8.324 4.542,8.542 4.57,8.854 4.598,9.151 4.268,9.428 3.578,9.682 2.89,9.937 2.342,10.082 1.933,10.12 1.293,10.179 0.925,9.67 0.826,8.592 L 0.771,6.652 Z"
             style="fill:none;stroke:#000000;stroke-width:0.5;stroke-linecap:butt;stroke-linejoin:miter;stroke-miterlimit:10;stroke-dasharray:none;stroke-opacity:1"
             id="path3182" />
        </g>
      </g>
    </g>
  </g>
</svg>
