<?xml version="1.0" encoding="UTF-8" standalone="no"?>
<!-- Created with Inkscape (http://www.inkscape.org/) -->

<svg
   width="800"
   height="800"
   viewBox="0 0 211.66666 211.66667"
   version="1.1"
   id="svg15340"
   inkscape:version="1.1.2 (b8e25be833, 2022-02-05)"
   sodipodi:docname="tarta.svg"
   xmlns:inkscape="http://www.inkscape.org/namespaces/inkscape"
   xmlns:sodipodi="http://sodipodi.sourceforge.net/DTD/sodipodi-0.dtd"
   xmlns="http://www.w3.org/2000/svg"
   xmlns:svg="http://www.w3.org/2000/svg">
  <sodipodi:namedview
     id="namedview15342"
     pagecolor="#505050"
     bordercolor="#ffffff"
     borderopacity="1"
     inkscape:pageshadow="0"
     inkscape:pageopacity="0"
     inkscape:pagecheckerboard="1"
     inkscape:document-units="mm"
     showgrid="false"
     units="px"
     inkscape:zoom="1.1830527"
     inkscape:cx="360.50802"
     inkscape:cy="414.18272"
     inkscape:window-width="2323"
     inkscape:window-height="1321"
     inkscape:window-x="2469"
     inkscape:window-y="-692"
     inkscape:window-maximized="1"
     inkscape:current-layer="layer1" />
  <defs
     id="defs15337">
    <clipPath
       clipPathUnits="userSpaceOnUse"
       id="clipPath2326">
      <path
         d="M 0,500 H 500 V 0 H 0 Z"
         id="path2324" />
    </clipPath>
    <clipPath
       clipPathUnits="userSpaceOnUse"
       id="clipPath2730">
      <path
         d="M 0,500 H 500 V 0 H 0 Z"
         id="path2728" />
    </clipPath>
  </defs>
  <g
     inkscape:label="Capa 1"
     inkscape:groupmode="layer"
     id="layer1">
    <g
       id="g2320"
       transform="matrix(1.3938941,0,0,-1.3938941,-76.073931,286.04274)">
      <g
         id="g2322"
         clip-path="url(#clipPath2326)">
        <g
           id="g2328"
           transform="translate(292.2344,271.9609)" />
        <g
           id="g2332"
           transform="translate(297.5273,282.4687)" />
        <g
           id="g2336"
           transform="translate(301.0352,272.2749)" />
        <g
           id="g2340"
           transform="translate(305.9229,276.5713)" />
        <g
           id="g2344"
           transform="translate(310.7979,280.1069)" />
        <g
           id="g2348"
           transform="translate(97.9326,114.9512)">
          <path
             d="m 0,0 c -2.318,-0.645 -4.039,-3.035 -5.129,-5.036 -0.866,-1.587 -0.607,-3.862 -0.031,-5.512 1.119,-3.203 4.402,-4.882 7.459,-5.756 7.084,-2.027 14.861,-1.212 22.085,-0.519 12.477,1.195 25.165,3.819 36.838,8.458 3.103,1.233 6.123,2.674 9.031,4.314 2.519,1.422 5.113,2.98 7.29,4.897 2.688,2.367 5.757,7.531 2.892,10.806 -1.751,2.001 -5.16,1.115 -7.352,0.798 -0.129,-0.018 -0.35,-0.34 -0.13,-0.352 1.385,-0.083 2.718,-0.488 4.064,-0.803 1.132,-0.266 2.286,-0.867 2.952,-1.852 1.34,-1.982 -0.454,-4.895 -1.643,-6.488 -1.643,-2.198 -4.241,-3.662 -6.539,-5.075 -2.893,-1.777 -5.958,-3.276 -9.079,-4.606 -6.34,-2.699 -13.08,-4.644 -19.87,-5.809 -5.724,-0.983 -11.503,-1.283 -17.274,-1.833 -6.53,-0.621 -13.316,-1.271 -19.807,0.015 -2.903,0.576 -6.005,1.635 -7.841,4.096 -2.298,3.081 -0.938,7.896 2.089,9.946 C 0.104,-0.244 0.229,0.064 0,0"
             style="fill:#000000;fill-opacity:1;fill-rule:nonzero;stroke:none"
             id="path2350" />
        </g>
        <g
           id="g2352"
           transform="translate(101.646,66.9258)">
          <path
             d="m 0,0 c 0.075,-1.723 0.766,-3.302 1.957,-4.533 1.347,-1.394 3.114,-2.04 4.966,-2.554 4.265,-1.184 8.837,-1.236 13.229,-1.084 3.549,0.122 7.077,0.508 10.612,0.814 6.831,0.588 13.47,2.117 20.127,3.693 7.711,1.825 15.306,4.398 22.311,8.134 3.128,1.668 6.449,3.551 9.037,6.001 2.217,2.095 4.123,4.813 3.178,7.962 -0.056,0.189 -0.354,-0.086 -0.351,-0.209 0.037,-1.548 -0.846,-3.076 -1.554,-4.419 -0.73,-1.386 -1.62,-2.639 -2.876,-3.588 C 77.969,8.201 75.098,6.472 72.133,4.936 66.028,1.772 59.463,-0.454 52.796,-2.085 46.213,-3.695 39.46,-4.203 32.731,-4.831 29.112,-5.169 25.489,-5.535 21.856,-5.691 17.611,-5.873 13.251,-5.823 9.094,-4.854 7.24,-4.421 5.645,-3.58 3.907,-2.873 2.433,-2.273 1.195,-1.057 0.341,0.245 0.245,0.392 -0.004,0.104 0,0"
             style="fill:#000000;fill-opacity:1;fill-rule:nonzero;stroke:none"
             id="path2354" />
        </g>
        <g
           id="g2356"
           transform="translate(94.5234,112.0732)">
          <path
             d="m 0,0 c -0.924,-1.885 -1.725,-3.637 -2.003,-5.748 -0.287,-2.182 -0.18,-4.335 0.122,-6.509 0.627,-4.512 1.444,-8.929 2.524,-13.357 0.903,-3.702 2.295,-7.232 3.326,-10.894 0.498,-1.766 1,-3.532 1.574,-5.276 0.25,-0.76 0.51,-1.516 0.787,-2.266 0.275,-0.745 0.735,-1.3 1.12,-1.984 0.1,-0.178 0.353,0.094 0.326,0.234 -0.292,1.535 -0.511,3.019 -0.908,4.546 -0.436,1.683 -0.878,3.365 -1.31,5.05 -0.919,3.578 -1.45,7.225 -2.323,10.812 -1.068,4.39 -2.076,8.785 -2.786,13.249 -0.324,2.043 -0.629,4.079 -0.771,6.145 -0.132,1.916 -0.181,4.196 0.483,6.019 C 0.202,0.133 0.028,0.058 0,0"
             style="fill:#000000;fill-opacity:1;fill-rule:nonzero;stroke:none"
             id="path2358" />
        </g>
        <g
           id="g2360"
           transform="translate(177.7007,126.3301)">
          <path
             d="m 0,0 c 0.097,-1.618 0.654,-3.203 1.132,-4.743 0.538,-1.733 1.01,-3.482 1.411,-5.251 0.771,-3.39 1.659,-6.729 2.35,-10.14 0.731,-3.616 1.482,-7.228 2.172,-10.853 0.326,-1.709 0.623,-3.423 1.006,-5.121 0.081,-0.36 0.365,-0.788 0.499,-1.142 0.204,-0.543 0.239,-1.135 0.299,-1.707 0.087,-0.835 -0.015,-1.602 0.22,-2.42 0.042,-0.147 0.295,0.063 0.285,0.169 -0.08,0.781 -0.365,1.51 -0.44,2.283 -0.09,0.935 -0.076,1.85 -0.073,2.788 0.004,1.82 -0.349,3.619 -0.68,5.413 -0.669,3.633 -1.45,7.245 -2.143,10.873 -0.349,1.824 -0.762,3.66 -0.88,5.515 -0.113,1.769 -0.348,3.457 -0.72,5.189 C 4.059,-7.38 3.6,-5.637 3.022,-3.924 2.51,-2.404 1.782,-0.655 0.484,0.349 0.296,0.494 -0.012,0.195 0,0"
             style="fill:#000000;fill-opacity:1;fill-rule:nonzero;stroke:none"
             id="path2362" />
        </g>
        <g
           id="g2364"
           transform="translate(98.7354,153.793)">
          <path
             d="m 0,0 c -2.446,-0.023 -4.902,-1.912 -6.265,-3.83 -1.214,-1.708 -1.461,-3.582 -0.974,-5.595 0.821,-3.392 4.424,-4.964 7.499,-5.67 3.893,-0.894 7.979,-0.863 11.946,-0.647 3.787,0.207 7.583,0.601 11.334,1.156 5.984,0.885 11.955,2.232 17.761,3.928 5.638,1.646 11.175,3.824 16.218,6.857 3.498,2.104 7.976,4.925 8.432,9.459 0.193,1.915 -0.793,3.113 -2.369,4.051 -2.155,1.281 -4.739,0.623 -7,0.13 C 56.463,9.813 56.228,9.488 56.452,9.486 57.909,9.473 59.416,9.048 60.851,8.77 61.822,8.58 62.995,8.284 63.833,7.745 66.119,6.273 64.115,2.827 62.957,1.337 61.188,-0.937 58.12,-2.479 55.649,-3.844 52.65,-5.5 49.486,-6.856 46.263,-8.011 35.959,-11.702 25.109,-12.509 14.275,-13.23 9.302,-13.563 3.75,-13.789 -0.934,-11.811 c -1.915,0.809 -3.474,2.199 -3.992,4.261 -0.777,3.091 2.27,6.058 4.84,7.205 C 0.004,-0.305 0.221,0.002 0,0"
             style="fill:#000000;fill-opacity:1;fill-rule:nonzero;stroke:none"
             id="path2366" />
        </g>
        <g
           id="g2368"
           transform="translate(99.2749,112.5098)">
          <path
             d="m 0,0 c 0.005,-1.832 0.841,-3.189 2.036,-4.503 0.556,-0.611 1.649,-0.942 2.403,-1.222 1.008,-0.372 2.063,-0.615 3.118,-0.811 4.288,-0.799 8.741,-0.616 13.067,-0.278 11.552,0.902 23.172,3.137 34.001,7.357 4.237,1.651 8.308,3.748 12.052,6.334 2.771,1.914 6.269,4.883 5.056,8.625 -0.063,0.192 -0.351,-0.09 -0.351,-0.209 -0.008,-1.486 -1.036,-3.122 -1.79,-4.376 C 68.742,9.505 67.703,8.657 66.365,7.718 63.616,5.786 60.642,4.195 57.584,2.813 51.358,-0.001 44.62,-1.952 37.844,-2.83 32.815,-3.482 27.741,-3.846 22.688,-4.283 18.404,-4.655 14.046,-4.846 9.774,-4.242 7.862,-3.972 5.95,-3.479 4.243,-2.561 3.464,-2.141 2.712,-1.927 2.013,-1.344 1.681,-1.066 1.324,-1.018 1.042,-0.65 0.811,-0.35 0.57,-0.059 0.341,0.245 0.233,0.389 0,0.106 0,0"
             style="fill:#000000;fill-opacity:1;fill-rule:nonzero;stroke:none"
             id="path2370" />
        </g>
        <g
           id="g2372"
           transform="translate(93.3169,150.4092)">
          <path
             d="m 0,0 c -0.802,-1.583 -1.539,-3.036 -1.794,-4.823 -0.246,-1.712 -0.215,-3.4 -0.007,-5.114 0.472,-3.882 1.199,-7.678 2.12,-11.48 0.776,-3.199 2.034,-6.216 2.932,-9.375 0.401,-1.41 0.802,-2.82 1.268,-4.21 0.218,-0.651 0.443,-1.299 0.687,-1.941 0.252,-0.666 0.667,-1.105 1.03,-1.703 0.093,-0.152 0.354,0.063 0.332,0.198 -0.18,1.12 -0.253,2.17 -0.539,3.283 -0.37,1.437 -0.733,2.876 -1.101,4.314 -0.78,3.04 -1.161,6.143 -1.904,9.187 -0.921,3.782 -1.798,7.565 -2.432,11.408 -0.286,1.73 -0.541,3.454 -0.698,5.2 -0.144,1.588 -0.252,3.552 0.267,5.077 C 0.2,0.136 0.028,0.056 0,0"
             style="fill:#000000;fill-opacity:1;fill-rule:nonzero;stroke:none"
             id="path2374" />
        </g>
        <g
           id="g2376"
           transform="translate(163.0806,162.3535)">
          <path
             d="m 0,0 c 0.003,-1.354 0.453,-2.6 0.8,-3.896 0.392,-1.464 0.847,-2.905 1.19,-4.383 0.683,-2.949 1.498,-5.831 2.103,-8.799 0.611,-2.993 1.229,-5.984 1.801,-8.984 0.276,-1.453 0.348,-3.26 1.039,-4.574 0.711,-1.348 0.306,-2.71 0.713,-4.078 0.044,-0.148 0.295,0.064 0.285,0.169 -0.119,1.311 -0.493,2.471 -0.42,3.82 0.081,1.513 -0.145,2.959 -0.414,4.45 -0.573,3.168 -1.248,6.316 -1.861,9.476 -0.322,1.665 -0.741,3.372 -0.757,5.073 C 4.465,-10.27 4.192,-8.851 3.886,-7.434 3.355,-4.975 2.749,-1.146 0.484,0.349 0.283,0.481 0,0.205 0,0"
             style="fill:#000000;fill-opacity:1;fill-rule:nonzero;stroke:none"
             id="path2378" />
        </g>
        <g
           id="g2380"
           transform="translate(131.7046,192.0732)">
          <path
             d="m 0,0 c 1.874,0.14 3.738,0.242 5.614,0.104 1.868,-0.136 3.848,-0.295 5.715,-0.136 0.945,0.081 2.025,0.256 2.949,-0.051 0.673,-0.223 1.392,-0.152 2.047,-0.44 1.3,-0.574 1.111,-2.461 0.575,-3.451 -0.497,-0.92 -0.917,-1.731 -1.696,-2.458 -1.115,-1.04 -2.631,-1.85 -3.947,-2.605 -2.936,-1.687 -6.074,-3.006 -9.284,-4.072 -6.318,-2.101 -12.925,-3.167 -19.541,-3.748 -3.476,-0.306 -6.916,-0.77 -10.415,-0.7 -3.532,0.072 -9.441,0.642 -9.624,5.276 -0.121,3.039 3.321,4.479 5.657,5.398 3.775,1.487 7.732,2.548 11.666,3.516 0.518,0.128 1.091,1.323 0.282,1.125 -3.459,-0.849 -6.894,-1.804 -10.255,-2.984 -1.989,-0.699 -4.26,-1.412 -5.899,-2.791 -1.739,-1.464 -2.929,-3.369 -2.629,-5.679 0.204,-1.571 1.141,-2.761 2.397,-3.658 3,-2.142 7.281,-2.281 10.824,-2.303 3.899,-0.025 7.833,0.36 11.695,0.851 10.336,1.315 21.56,4.08 29.859,10.727 1.35,1.08 2.859,2.886 3.178,4.629 0.144,0.785 0.16,1.572 -0.082,2.338 -0.278,0.881 -1.004,1.114 -1.786,1.41 -0.482,0.181 -0.862,0.273 -1.381,0.3 C 15.202,0.634 14.458,0.341 13.75,0.503 12.554,0.777 11.548,1.335 10.305,1.456 7.075,1.771 3.785,1.399 0.558,1.16 0.041,1.121 -0.694,-0.052 0,0"
             style="fill:#000000;fill-opacity:1;fill-rule:nonzero;stroke:none"
             id="path2382" />
        </g>
        <g
           id="g2384"
           transform="translate(98.8066,152.4414)">
          <path
             d="m 0,0 c -0.106,-1.738 0.743,-3.493 2.317,-4.3 1.84,-0.942 4.01,-1.244 6.044,-1.417 3.79,-0.321 7.568,0.099 11.34,0.421 6.771,0.579 13.602,2.323 20.055,4.423 3.124,1.016 6.165,2.292 9.055,3.856 2.499,1.353 5.106,2.908 6.949,5.112 1.087,1.299 1.459,2.591 0.884,4.176 -0.071,0.196 -0.345,-0.095 -0.351,-0.209 C 56.242,11.131 55.687,10.361 55.288,9.55 54.955,8.873 54.56,8.117 54.063,7.547 53.106,6.45 51.583,5.655 50.356,4.9 47.492,3.136 44.37,1.775 41.204,0.655 38.111,-0.439 34.92,-1.278 31.687,-1.826 28.513,-2.363 25.259,-2.432 22.06,-2.736 18.35,-3.089 14.628,-3.471 10.896,-3.334 8.844,-3.26 6.767,-3.018 4.824,-2.324 3.185,-1.74 1.528,-1.016 0.341,0.245 0.215,0.379 0.007,0.112 0,0"
             style="fill:#000000;fill-opacity:1;fill-rule:nonzero;stroke:none"
             id="path2386" />
        </g>
        <g
           id="g2388"
           transform="translate(94.1309,182.3506)">
          <path
             d="m 0,0 c -1.422,-2.55 -1.95,-4.923 -1.646,-7.854 0.324,-3.134 0.947,-6.201 1.688,-9.261 0.621,-2.57 1.714,-4.95 2.447,-7.483 0.341,-1.176 0.692,-2.345 1.098,-3.501 0.349,-0.989 0.756,-1.598 1.33,-2.431 0.088,-0.129 0.325,0.123 0.313,0.225 -0.106,0.945 -0.121,1.777 -0.352,2.717 -0.267,1.092 -0.534,2.183 -0.81,3.272 -0.618,2.448 -0.842,4.949 -1.432,7.397 -0.68,2.821 -1.315,5.64 -1.842,8.494 -0.256,1.389 -0.432,2.785 -0.63,4.182 -0.187,1.311 -0.358,2.971 -0.003,4.264 C 0.194,0.143 0.028,0.051 0,0"
             style="fill:#000000;fill-opacity:1;fill-rule:nonzero;stroke:none"
             id="path2390" />
        </g>
        <g
           id="g2392"
           transform="translate(149.1123,191.7422)">
          <path
             d="m 0,0 c -0.191,-2.188 0.948,-4.558 1.438,-6.669 0.52,-2.237 1.226,-4.388 1.688,-6.642 0.491,-2.394 0.985,-4.787 1.444,-7.187 0.228,-1.188 0.298,-2.613 0.885,-3.681 0.578,-1.05 0.269,-2.108 0.599,-3.195 0.045,-0.149 0.293,0.065 0.284,0.169 -0.079,1.017 -0.427,1.893 -0.328,2.934 0.116,1.219 -0.02,2.343 -0.235,3.547 -0.459,2.572 -1.011,5.124 -1.502,7.689 -0.488,2.553 -0.476,5.12 -1.038,7.653 C 2.828,-3.544 2.323,-0.542 0.441,0.377 0.24,0.475 0.014,0.163 0,0"
             style="fill:#000000;fill-opacity:1;fill-rule:nonzero;stroke:none"
             id="path2394" />
        </g>
        <g
           id="g2396"
           transform="translate(94.0972,101.7764)">
          <path
             d="m 0,0 c -0.109,-1.541 -0.473,-3.244 -0.282,-4.776 0.332,-2.664 1.696,-5.107 3.956,-6.605 2.284,-1.514 4.89,-1.107 7.036,0.434 2.269,1.63 3.035,4.614 3.799,7.134 -0.512,-0.247 -1.025,-0.494 -1.537,-0.741 1.367,-4.495 6.041,-9.02 10.96,-9.025 5.021,-0.006 9.393,5.366 8.969,10.222 -0.355,-0.212 -0.71,-0.423 -1.065,-0.635 0.878,-2.559 2.564,-4.973 4.774,-6.561 2.233,-1.604 4.81,-2.058 7.504,-1.703 2.871,0.379 5.46,1.648 7.626,3.55 1.134,0.995 2.027,2.233 2.769,3.538 1.032,1.812 1.231,4.34 1.664,6.346 L 54.752,0.322 c 1.318,-1.955 3.265,-3.516 5.353,-4.595 1.951,-1.008 4.442,-0.745 6.443,-0.027 2.33,0.835 4.277,2.428 5.69,4.447 0.731,1.047 1.232,2.151 1.482,3.401 0.346,1.726 0.691,3.512 0.736,5.276 C 73.94,8.518 73.425,8.21 72.91,7.903 74,5.44 76.552,3.481 79.192,3.017 c 2.526,-0.446 4.64,1.004 6.064,2.967 1.534,2.114 2.31,4.829 2.663,7.383 0.163,1.174 0.211,2.343 0.06,3.519 -0.1,0.773 -0.294,1.54 -0.493,2.292 -0.247,0.93 -0.532,1.363 -1.088,2.116 -0.079,0.107 -0.274,-0.075 -0.301,-0.148 -0.193,-0.506 -0.552,-1.167 -0.531,-1.71 0.024,-0.651 0.152,-1.278 0.287,-1.914 0.245,-1.153 0.445,-2.23 0.408,-3.409 C 86.194,11.949 85.618,9.739 84.704,7.783 83.797,5.843 82.478,4.563 80.228,4.752 77.813,4.954 75.366,6.791 74.427,8.989 74.068,9.829 72.9,8.593 72.881,8.068 72.73,3.843 70.539,-1.085 66.126,-2.238 c -1.77,-0.463 -3.652,-0.16 -5.415,0.164 -2.014,0.37 -3.555,2.099 -4.626,3.73 -0.382,0.583 -1.341,-0.507 -1.42,-0.855 -0.686,-3.041 -1.834,-6.1 -4.177,-8.256 -1.603,-1.476 -3.864,-2.264 -6.002,-2.461 -2.249,-0.208 -4.711,0.148 -6.795,1.01 -2.518,1.04 -4.079,3.058 -4.81,5.662 -0.159,0.569 -1.078,-0.257 -1.064,-0.635 0.144,-4.139 -4.176,-7.955 -8.228,-7.384 -3.953,0.558 -8.091,3.93 -9.085,7.807 -0.192,0.747 -1.337,-0.207 -1.463,-0.54 C 12.237,-6.115 11.759,-8.304 9.834,-9.69 7.821,-11.14 5.397,-9.893 3.905,-8.349 1.673,-6.042 1.087,-2.683 0.802,0.385 0.752,0.917 0.022,0.322 0,0"
             style="fill:#000000;fill-opacity:1;fill-rule:nonzero;stroke:none"
             id="path2398" />
        </g>
        <g
           id="g2400"
           transform="translate(93.8184,141.8535)">
          <path
             d="m 0,0 c -1.241,-1.617 -1.065,-4.195 -0.646,-6.059 0.485,-2.159 1.771,-4.146 3.663,-5.325 1.837,-1.144 3.889,-1.115 5.697,0.062 1.075,0.7 1.86,1.784 2.542,2.847 0.483,0.754 1.257,2.207 0.692,3.079 -0.042,0.065 -0.152,-0.046 -0.168,-0.082 -0.92,-2.005 -1.902,-4.059 -4.174,-4.717 -1.451,-0.42 -3.002,0.384 -4.088,1.285 -1.268,1.051 -2.296,2.531 -2.961,4.027 -0.764,1.719 -0.544,3.1 -0.32,4.879 C 0.26,0.174 0.062,0.079 0,0"
             style="fill:#000000;fill-opacity:1;fill-rule:nonzero;stroke:none"
             id="path2402" />
        </g>
        <g
           id="g2404"
           transform="translate(105.1128,138.4443)">
          <path
             d="m 0,0 c -0.857,-4.687 2.927,-7.722 7.226,-8.238 2.096,-0.252 4.222,0.259 5.97,1.432 2.348,1.577 3.239,4.735 3.573,7.394 C 16.38,0.4 15.99,0.212 15.601,0.024 16,-2.265 17.05,-4.502 19.118,-5.72 c 1.871,-1.102 3.939,-1.343 6.054,-0.924 2.28,0.455 4.372,1.716 5.979,3.372 2.019,2.078 2.806,4.53 2.837,7.377 -0.357,-0.212 -0.715,-0.426 -1.071,-0.639 1.205,-4.622 5.891,-6.384 10.208,-4.928 2.259,0.763 4.203,2.356 5.392,4.423 1.367,2.379 1.666,4.884 1.197,7.567 -0.248,-0.176 -0.496,-0.354 -0.743,-0.531 0.859,-2.447 1.473,-5.346 4.557,-5.692 2.057,-0.232 3.711,0.966 4.972,2.473 1.398,1.674 2.213,3.893 2.724,5.985 0.231,0.947 0.401,1.937 0.378,2.913 -0.041,1.613 -0.171,3.542 -1.167,4.846 -0.197,0.258 -0.662,-0.219 -0.689,-0.415 -0.322,-2.345 0.602,-4.608 0.158,-6.98 C 59.588,11.438 59.008,9.797 58.172,8.296 57.389,6.889 56.193,5.695 54.49,5.773 52.051,5.885 50.647,8.621 49.714,10.528 49.529,10.906 48.927,10.366 48.957,10.077 49.43,5.54 47.237,0.768 42.608,-0.461 38.829,-1.464 34.98,0.341 33.968,4.22 33.816,4.806 32.9,3.943 32.896,3.58 32.873,1.451 31.571,-1.037 30.083,-2.548 28.755,-3.897 26.961,-4.755 25.121,-5.125 20.9,-5.974 17.455,-3.493 16.787,0.731 16.671,1.467 15.66,0.744 15.597,0.295 15.281,-1.964 14.561,-4.442 12.561,-5.754 11.124,-6.697 9.159,-6.753 7.517,-6.53 4.133,-6.071 0.484,-3.465 0.628,0.23 0.644,0.618 0.041,0.224 0,0"
             style="fill:#000000;fill-opacity:1;fill-rule:nonzero;stroke:none"
             id="path2406" />
        </g>
        <g
           id="g2408"
           transform="translate(93.9985,174.9199)">
          <path
             d="m 0,0 c -0.172,-4.212 1.269,-9.228 6.177,-9.62 4.276,-0.343 7.607,3.972 6.95,7.98 -0.294,-0.174 -0.587,-0.35 -0.881,-0.525 0.775,-2.018 1.754,-3.977 3.325,-5.495 1.432,-1.385 3.695,-2.311 5.674,-1.969 2.117,0.365 4.015,2.378 5.192,4.038 1.187,1.674 1.839,3.598 1.389,5.616 -0.506,-0.361 -1.012,-0.724 -1.517,-1.086 1.321,-3.559 4.653,-7.097 8.764,-5.652 3.839,1.35 6.456,5.361 6.259,9.361 -0.479,-0.285 -0.958,-0.571 -1.437,-0.856 0.608,-1.451 1.463,-2.762 2.823,-3.599 1.371,-0.843 3.067,-0.502 4.441,0.117 3.82,1.719 4.363,5.577 4.19,9.317 -0.401,-0.238 -0.801,-0.478 -1.202,-0.716 0.585,-2.264 2.912,-6.628 5.848,-4.569 3.469,2.431 3.534,8.604 0.843,11.608 -0.195,0.218 -0.603,-0.216 -0.583,-0.421 0.167,-1.744 0.961,-3.306 1.194,-5.049 C 57.677,6.773 57.271,4.122 55.612,3.178 54.589,2.596 53.455,3.645 52.841,4.353 52.008,5.312 51.569,6.527 51.326,7.755 51.199,8.396 50.128,7.458 50.125,7.039 50.106,4.039 50.18,1.018 47.144,-0.542 44.293,-2.007 42.175,0.271 41.305,2.802 41.035,3.588 39.873,2.433 39.868,1.945 39.839,-1.261 37.972,-4.454 34.759,-5.4 c -3.327,-0.981 -5.975,2.796 -6.933,5.425 -0.305,0.841 -1.665,-0.419 -1.517,-1.086 0.703,-3.183 -2.74,-6.846 -5.735,-7.209 -2.069,-0.25 -3.525,0.526 -4.897,2.047 -1.196,1.325 -1.976,3.011 -2.567,4.677 -0.159,0.45 -0.927,-0.192 -0.881,-0.525 C 12.667,-5.22 9.364,-7.977 6.382,-7.205 5.012,-6.851 3.954,-5.847 3.14,-4.736 2.078,-3.289 0.954,-1.462 0.687,0.33 0.619,0.782 0.012,0.283 0,0"
             style="fill:#000000;fill-opacity:1;fill-rule:nonzero;stroke:none"
             id="path2410" />
        </g>
        <g
           id="g2412"
           transform="translate(96.8599,121.8457)">
          <path
             d="m 0,0 c 0.568,-2.252 0.969,-5.285 2.857,-6.854 2.021,-1.678 5.016,-0.692 6.723,0.877 0.822,0.756 1.288,1.889 2.024,2.73 1.432,1.633 3.184,1.604 5.103,0.93 3.031,-1.066 5.592,-3.333 8.351,-4.923 1.398,-0.805 2.723,-1.604 4.328,-1.932 1.612,-0.328 3.443,0 4.974,0.526 2.381,0.818 4.183,2.38 5.726,4.314 2.551,3.197 4.084,7.399 7.169,10.152 2.228,1.988 4.822,1.189 7.29,0.211 2.392,-0.947 4.875,-1.699 7.44,-1.976 2.611,-0.283 5.353,0.23 7.498,1.799 2.257,1.652 4.366,5.171 3.586,8.023 C 73.004,14.114 72.66,13.806 72.615,13.71 71.591,11.528 71.167,9.024 69.335,7.322 68.007,6.088 66.169,5.848 64.44,5.842 60.82,5.83 57.546,7.35 54.243,8.615 50.03,10.229 46.524,7.716 43.886,4.613 41.311,1.584 39.984,-2.676 36.83,-5.204 33.583,-7.807 28.257,-7.083 24.68,-5.618 21.257,-4.216 18.45,-0.905 14.496,-0.99 13.006,-1.022 11.735,-1.844 10.635,-2.776 9.652,-3.609 8.724,-4.994 7.44,-5.352 5.872,-5.789 4.182,-4.775 3.052,-3.787 1.8,-2.691 1.06,-1.261 0.187,0.133 0.126,0.229 -0.021,0.083 0,0"
             style="fill:#000000;fill-opacity:1;fill-rule:nonzero;stroke:none"
             id="path2414" />
        </g>
        <g
           id="g2416"
           transform="translate(98.2461,80.7188)">
          <path
             d="m 0,0 c 0.262,-2.872 0.874,-5.656 2.795,-7.883 1.975,-2.287 5.226,-2.873 8.083,-2.376 3.285,0.571 5.426,3.087 8.309,4.461 3.511,1.674 7.824,0.991 11.38,-0.134 3.546,-1.122 6.91,-2.787 10.446,-3.932 2.97,-0.962 6.003,-0.131 8.614,1.422 2.68,1.592 4.825,3.88 6.697,6.344 1.704,2.244 3.043,4.707 5.159,6.612 3.053,2.747 7.402,1.92 11.005,1.046 2.8,-0.679 5.938,-1.891 8.796,-0.771 6.397,2.508 6.013,11.238 4.256,16.586 -0.065,0.196 -0.394,-0.086 -0.38,-0.227 0.361,-3.493 1.219,-6.724 0.331,-10.233 C 84.601,7.396 81.689,4.885 77.991,5.77 74.664,6.565 71.528,7.949 68.083,8.246 64.914,8.519 62.044,7.476 59.721,5.33 57.626,3.396 56.23,0.829 54.554,-1.442 52.733,-3.91 50.5,-6.105 47.642,-7.309 40.527,-10.301 33.483,-4.704 26.551,-3.891 23.956,-3.586 21.219,-3.855 18.773,-4.799 16.428,-5.705 14.262,-7.187 11.815,-7.814 6.673,-9.137 1.844,-4.307 0.209,0.124 0.169,0.232 -0.007,0.076 0,0"
             style="fill:#000000;fill-opacity:1;fill-rule:nonzero;stroke:none"
             id="path2418" />
        </g>
        <g
           id="g2420"
           transform="translate(96.3921,160.9941)">
          <path
             d="m 0,0 c 0.421,-2.504 1.829,-4.592 3.848,-6.101 2.381,-1.78 4.778,-0.477 6.819,1.132 2.949,2.325 6.299,2.852 9.904,2.042 1.442,-0.325 2.889,-0.624 4.351,-0.848 0.685,-0.105 1.369,-0.169 2.062,-0.152 0.855,0.021 1.592,0.281 2.423,0.382 2.803,0.34 5.497,1.868 7.647,3.618 1.111,0.905 2.092,1.955 3.232,2.823 1.772,1.348 3.48,1.484 5.604,1.035 2.443,-0.517 5.029,-1.539 7.513,-0.593 1.673,0.639 2.722,1.966 3.316,3.618 0.805,2.241 0.376,4.976 0.127,7.292 -0.01,0.091 -0.151,-0.005 -0.145,-0.07 C 56.896,11.877 56.815,9.727 56.253,7.479 55.598,4.854 53.719,3.608 51.054,3.679 47.963,3.761 45.24,5.438 42.092,4.799 39.296,4.23 37.327,1.314 35.041,-0.217 33.788,-1.056 32.346,-1.695 30.833,-1.812 29.5,-1.915 28.13,-1.566 26.797,-1.403 23.564,-1.006 20.435,0.238 17.143,-0.12 13.794,-0.486 10.957,-2.306 8.483,-4.484 5.467,-7.142 2.536,-4.732 1.034,-1.782 0.719,-1.164 0.45,-0.514 0.256,0.152 0.218,0.281 -0.017,0.1 0,0"
             style="fill:#000000;fill-opacity:1;fill-rule:nonzero;stroke:none"
             id="path2422" />
        </g>
        <g
           id="g2424"
           transform="translate(128.5298,75.0977)">
          <path
             d="m 0,0 c 0.957,-0.687 2.011,-1.227 2.916,-1.989 0.903,-0.762 1.801,-1.53 2.71,-2.284 1.71,-1.421 3.871,-2.609 5.987,-3.275 3.156,-0.993 6.341,0.194 8.636,2.428 2.437,2.374 4.11,5.457 5.795,8.374 0.968,1.674 1.946,3.326 3.264,4.756 1.83,1.983 4.222,3.078 6.738,3.916 0.113,0.037 0.374,0.328 0.133,0.361 -0.905,0.124 -1.372,0.171 -2.28,-0.166 C 32.907,11.753 31.996,11.264 31.116,10.678 29.369,9.513 27.928,7.879 26.764,6.146 24.915,3.394 23.51,0.38 21.5,-2.272 19.414,-5.023 16.52,-6.93 12.973,-6.155 10.661,-5.65 8.637,-4.26 6.61,-3.116 4.581,-1.971 2.38,-0.523 0.157,0.185 0.084,0.208 -0.081,0.059 0,0"
             style="fill:#000000;fill-opacity:1;fill-rule:nonzero;stroke:none"
             id="path2426" />
        </g>
        <g
           id="g2428"
           transform="translate(135.6978,117.1338)">
          <path
             d="m 0,0 c 2.566,0.943 4.031,4.039 5.726,5.983 3.098,3.553 7.592,1.489 11.346,0.277 3.819,-1.234 8.017,-1.074 11.441,1.129 1.498,0.965 2.767,2.445 3.659,3.973 0.48,0.822 0.9,1.676 1.204,2.578 0.211,0.623 0.791,1.746 0.275,2.316 -0.072,0.079 -0.202,-0.039 -0.244,-0.091 -0.496,-0.61 -0.587,-1.337 -0.814,-2.08 C 32.239,12.933 31.67,11.847 31.002,10.848 29.697,8.892 27.785,7.488 25.535,6.824 21.14,5.528 17.122,7.596 12.976,8.705 10.066,9.483 7.444,8.91 5.372,6.714 4.46,5.748 3.733,4.587 3.015,3.476 2.161,2.156 1.201,1.131 -0.027,0.155 -0.097,0.1 -0.135,-0.05 0,0"
             style="fill:#000000;fill-opacity:1;fill-rule:nonzero;stroke:none"
             id="path2430" />
        </g>
        <g
           id="g2432"
           transform="translate(104.4736,114.6592)">
          <path
             d="m 0,0 c 1.932,1.232 3.874,2.757 6.321,2.308 0.772,-0.142 1.574,-0.964 2.13,-1.48 0.637,-0.59 1.28,-1.106 2.061,-1.493 1.718,-0.85 2.877,-0.199 4.57,0.335 1.079,0.34 2.206,0.076 3.253,-0.232 0.505,-0.15 1.002,-0.327 1.506,-0.482 0.572,-0.176 0.779,-0.034 1.432,0.023 0.113,0.009 0.333,0.207 0.181,0.303 -1.535,0.967 -3.807,1.921 -5.7,1.526 C 14.833,0.615 13.96,0.16 13.009,0.142 11.875,0.118 10.7,1.112 9.9,1.801 8.357,3.127 6.91,3.702 4.878,3.103 3.07,2.568 1.25,1.443 -0.061,0.096 -0.124,0.03 -0.09,-0.058 0,0"
             style="fill:#000000;fill-opacity:1;fill-rule:nonzero;stroke:none"
             id="path2434" />
        </g>
        <g
           id="g2436"
           transform="translate(128.5913,158.4561)">
          <path
             d="m 0,0 c 1.173,-0.453 2.487,0.486 3.434,1.089 0.867,0.551 1.696,1.086 2.757,1.108 0.88,0.02 1.604,-0.614 2.413,-0.846 1.354,-0.389 2.702,1.318 3.523,2.101 1.08,1.03 2.101,1.814 3.619,2 1.109,0.137 2.328,-0.186 3.383,0.123 0.153,0.045 0.43,0.293 0.282,0.468 C 18.887,6.662 17.764,6.467 17.022,6.446 16.15,6.421 15.239,6.327 14.431,5.991 13.612,5.651 12.908,5.056 12.244,4.483 11.428,3.78 10.205,1.959 9.013,2.242 8.388,2.391 7.863,2.765 7.208,2.851 6.381,2.958 5.686,2.846 4.921,2.521 4.236,2.231 3.627,1.751 3.027,1.321 2.071,0.638 1.196,0.315 0.054,0.112 0.021,0.106 -0.057,0.021 0,0"
             style="fill:#000000;fill-opacity:1;fill-rule:nonzero;stroke:none"
             id="path2438" />
        </g>
        <g
           id="g2440"
           transform="translate(106.8872,156.3633)">
          <path
             d="m 0,0 c 1.618,0.582 3.266,0.925 4.889,0.189 1.532,-0.692 2.807,-1.606 4.558,-1.45 1.482,0.133 2.799,0.973 4.185,1.434 1.739,0.579 3.625,0.146 5.268,0.958 0.065,0.032 0.261,0.221 0.147,0.302 C 17.906,2.244 16.019,1.851 14.715,1.601 12.854,1.242 11.231,0.037 9.3,0.042 7.637,0.046 6.169,1.479 4.493,1.688 2.816,1.897 1.318,1.121 -0.003,0.196 -0.061,0.155 -0.142,-0.052 0,0"
             style="fill:#000000;fill-opacity:1;fill-rule:nonzero;stroke:none"
             id="path2442" />
        </g>
        <g
           id="g2444"
           transform="translate(119.5762,183.9736)">
          <path
             d="m 0,0 c -2.347,1.978 -4.841,3.893 -6.93,6.153 -1.644,1.781 -3.582,4.48 -3.036,7.051 0.441,2.074 2.689,3.066 4.597,3.105 2.219,0.045 4.648,-1.483 5.7,-3.39 0.358,-0.648 1.254,0.293 1.269,0.757 0.088,2.866 1.64,5.765 4.894,5.555 2.433,-0.156 4.464,-2.022 5.663,-4.002 C 15.384,9.898 8.75,4.842 5.891,1.122 5.789,0.989 5.911,0.857 6.044,0.969 10.5,4.708 17.287,11.659 12.774,17.788 10.943,20.273 8.011,21.12 5.112,20.239 1.854,19.25 0.563,16.188 0.308,13.055 c 0.422,0.252 0.845,0.504 1.268,0.757 -0.619,1.302 -1.197,2.45 -2.433,3.255 -1.088,0.71 -2.343,1.036 -3.633,1.071 -2.644,0.073 -5.18,-1.431 -6.718,-3.512 -2.138,-2.897 -0.813,-6.31 1.074,-8.934 2.366,-3.29 6.007,-5.011 9.812,-6.07 C -0.172,-0.419 0.162,-0.136 0,0"
             style="fill:#000000;fill-opacity:1;fill-rule:nonzero;stroke:none"
             id="path2446" />
        </g>
        <g
           id="g2448"
           transform="translate(113.8076,182.4375)">
          <path
             d="m 0,0 c 3.777,-0.673 7.289,2.006 10.962,2.214 1.916,0.108 3.777,-0.547 5.696,-0.434 1.056,0.063 2.415,0.445 2.81,1.53 0.015,0.042 0.001,0.107 -0.048,0.122 C 19.015,3.555 18.66,3.367 18.292,3.195 17.523,2.835 16.573,2.895 15.749,2.932 13.99,3.011 12.155,3.604 10.393,3.199 8.601,2.786 6.86,2.131 5.095,1.614 3.422,1.125 1.7,0.811 0.069,0.187 0.029,0.172 -0.098,0.018 0,0"
             style="fill:#000000;fill-opacity:1;fill-rule:nonzero;stroke:none"
             id="path2450" />
        </g>
        <g
           id="g2452"
           transform="translate(94.6309,176.7959)">
          <path
             d="M 0,0 C -0.221,1.777 1.096,3.38 2.919,2.818 4.118,2.449 5,1.468 5.95,0.712 6.134,0.564 6.36,0.603 6.562,0.698 6.911,0.863 7.291,1.112 7.391,1.514 7.53,2.07 7.462,2.361 7.868,2.813 c 0.519,0.579 1.463,0.648 2.166,0.523 1.489,-0.266 2.437,-1.867 3.292,-2.961 0.235,-0.3 0.715,0.261 0.768,0.462 0.547,2.08 2.531,1.1 3.948,0.942 0.105,-0.011 0.256,0.148 0.216,0.253 -0.425,1.119 -1.925,1.111 -2.919,0.837 -1.067,-0.293 -1.786,-1.207 -2.06,-2.235 0.256,0.153 0.512,0.307 0.768,0.462 C 12.916,2.554 11.887,4.109 9.891,4.26 7.982,4.403 6.692,2.903 6.243,1.227 6.57,1.465 6.898,1.702 7.226,1.94 6.533,2.299 5.916,3.118 5.164,3.551 4.138,4.142 3.07,4.429 1.906,4.119 0.235,3.676 -0.974,1.421 -0.332,-0.198 -0.265,-0.367 0.016,-0.124 0,0"
             style="fill:#000000;fill-opacity:1;fill-rule:nonzero;stroke:none"
             id="path2454" />
        </g>
        <g
           id="g2456"
           transform="translate(128.5332,180.3164)">
          <path
             d="M 0,0 C 0.494,1.305 1.71,0.801 2.626,0.306 2.836,0.192 3.164,0.529 3.19,0.715 3.472,2.746 5.522,2.521 7.076,2.271 7.35,2.228 7.611,2.593 7.63,2.825 c 0.177,2.184 1.592,2.54 3.494,2.253 0.463,-0.069 0.916,0.544 0.943,0.943 0.053,0.775 0.174,1.467 0.719,2.058 0.686,0.745 1.83,0.059 2.594,-0.138 0.242,-0.062 0.553,0.244 0.487,0.488 -0.34,1.261 -0.463,3.163 1.414,2.769 0.862,-0.181 1.655,-0.716 2.557,-0.55 0.075,0.014 0.175,0.12 0.146,0.201 -0.406,1.137 -2.739,1.201 -3.679,0.783 -1.465,-0.652 -1.319,-2.28 -1.006,-3.61 0.189,0.136 0.379,0.271 0.568,0.407 C 15.279,9.59 13.87,9.806 12.799,9.116 11.546,8.31 10.887,6.866 10.793,5.409 11.108,5.723 11.422,6.037 11.736,6.352 10.468,6.536 9.25,6.455 8.194,5.667 7.159,4.895 6.968,3.668 6.882,2.466 L 7.436,3.02 C 5.251,3.348 2.839,3.075 2.521,0.47 2.713,0.633 2.904,0.797 3.095,0.96 1.841,1.604 -0.269,1.85 -0.363,-0.091 -0.374,-0.317 -0.039,-0.103 0,0"
             style="fill:#000000;fill-opacity:1;fill-rule:nonzero;stroke:none"
             id="path2458" />
        </g>
        <g
           id="g2460"
           transform="translate(94.4058,182.7568)">
          <path
             d="m 0,0 c 0.438,1.675 1.098,3.142 3.091,2.974 0.342,-0.029 0.655,0.377 0.68,0.68 0.074,0.872 0.205,1.535 1.084,1.832 0.558,0.189 1.146,0.36 1.735,0.4 0.618,0.041 1.735,-0.029 2.221,0.42 0.608,0.561 0.866,1.071 1.802,0.69 0.427,-0.174 0.795,-0.304 1.241,-0.131 0.561,0.218 1.047,0.572 1.575,0.856 0.955,0.514 1.273,-0.372 1.976,-0.77 0.085,-0.048 0.193,0.098 0.196,0.167 0.077,1.836 -1.623,1.553 -2.716,0.891 C 12.422,7.728 11.932,7.308 11.331,7.455 10.879,7.565 10.479,7.759 10.015,7.822 9.549,7.886 9.05,7.298 8.856,6.956 7.895,5.252 6.102,6.677 4.711,6.294 3.341,5.917 2.918,4.46 2.853,3.213 3.079,3.439 3.306,3.666 3.533,3.894 1.447,3.999 -0.697,2.132 -0.187,-0.09 -0.163,-0.193 -0.012,-0.045 0,0"
             style="fill:#000000;fill-opacity:1;fill-rule:nonzero;stroke:none"
             id="path2462" />
        </g>
        <g
           id="g2464"
           transform="translate(133.2388,194.2432)">
          <path
             d="M 0,0 C 0.867,1.611 1.881,0.671 2.787,-0.12 3.307,-0.574 4.028,0.19 4.262,0.6 4.546,1.097 6.166,0.961 6.657,0.93 7.541,0.874 8.364,0.591 9.153,0.209 9.354,0.111 9.62,0.347 9.724,0.489 c 0.59,0.808 1.346,1.72 2.464,1.522 0.903,-0.16 1.359,-1.156 2.046,-1.643 0.16,-0.113 0.37,0.138 0.343,0.292 C 14.352,1.925 13.176,2.929 11.865,2.772 10.696,2.634 9.799,1.58 9.14,0.706 9.33,0.8 9.52,0.893 9.71,0.986 8.661,1.525 7.187,2.611 5.979,2.616 4.572,2.622 3.376,1.902 2.77,0.619 3.214,0.889 3.659,1.159 4.103,1.429 2.785,1.995 -0.257,2.141 -0.145,-0.036 -0.14,-0.132 -0.02,-0.036 0,0"
             style="fill:#000000;fill-opacity:1;fill-rule:nonzero;stroke:none"
             id="path2466" />
        </g>
        <g
           id="g2468"
           transform="translate(92.145,145.8301)">
          <path
             d="M 0,0 C 0.766,1.443 -1.909,6.404 0.745,6.5 1.06,6.512 1.533,6.916 1.4,7.268 1.196,7.81 0.916,8.69 1.825,8.977 2.276,9.119 2.706,8.998 3.17,9.162 3.276,9.199 3.456,9.339 3.398,9.475 3.008,10.394 1.709,9.874 1.108,9.415 0.219,8.736 0.144,7.608 0.526,6.641 0.745,6.896 0.963,7.152 1.182,7.408 -0.424,7.328 -1.217,6.17 -1.27,4.646 -1.301,3.747 -1.086,2.828 -0.893,1.956 -0.773,1.419 -0.635,0.276 -0.134,-0.065 -0.083,-0.1 -0.023,-0.043 0,0"
             style="fill:#000000;fill-opacity:1;fill-rule:nonzero;stroke:none"
             id="path2470" />
        </g>
        <g
           id="g2472"
           transform="translate(93.8965,144.8613)">
          <path
             d="m 0,0 c -0.073,1.605 2.116,0.506 2.59,-0.241 0.177,-0.278 0.697,0.139 0.79,0.295 0.837,1.385 2.892,-1.036 3.48,-1.758 0.264,-0.323 0.798,0.228 0.905,0.441 0.447,0.896 2.441,-0.377 3.109,-0.475 0.507,-0.075 0.943,0.058 1.418,0.223 0.589,0.206 1.721,-0.397 2.317,-0.569 0.15,-0.043 0.361,0.176 0.27,0.317 -0.508,0.785 -0.922,1.343 -1.974,1.309 C 12.43,-0.474 12.03,-0.737 11.539,-0.745 11.16,-0.752 10.684,-0.467 10.341,-0.329 8.927,0.236 7.604,0.243 6.85,-1.251 7.151,-1.104 7.453,-0.957 7.754,-0.81 6.435,0.831 4.017,2.749 2.58,0.193 2.869,0.334 3.158,0.475 3.447,0.616 2.706,1.666 1.478,1.908 0.32,1.439 -0.241,1.213 -1.028,0.213 -0.164,-0.14 -0.093,-0.169 0.003,-0.066 0,0"
             style="fill:#000000;fill-opacity:1;fill-rule:nonzero;stroke:none"
             id="path2474" />
        </g>
        <g
           id="g2476"
           transform="translate(126.0674,141.8584)">
          <path
             d="m 0,0 c 0.343,0.826 1.496,1.687 2.3,1.935 0.902,0.278 1.633,-0.581 2.542,-0.079 0.872,0.482 1.372,1.276 2.359,1.622 1.32,0.461 2.805,0.255 4.093,-0.191 0.369,-0.127 0.737,0.261 0.894,0.543 1.095,1.983 2.975,1.908 4.966,1.592 0.348,-0.056 0.765,0.402 0.827,0.709 0.363,1.809 2.433,1.406 3.731,0.899 0.338,-0.132 0.755,0.201 0.93,0.457 0.603,0.885 1.275,1.704 2.163,2.316 1.222,0.841 1.846,-0.394 2.979,-0.429 0.241,-0.007 0.438,0.249 0.465,0.466 0.215,1.741 -1.975,1.777 -3.122,1.32 C 23.675,10.581 22.524,9.1 21.69,7.841 22,7.993 22.31,8.146 22.62,8.298 20.285,9.153 17.361,8.683 16.875,5.854 17.15,6.09 17.426,6.326 17.702,6.562 14.873,7.012 12.64,6.472 11.188,3.844 11.485,4.024 11.783,4.205 12.081,4.387 10.692,4.868 9.298,4.976 7.855,4.687 7.308,4.576 6.649,4.341 6.187,4.021 5.452,3.515 4.934,2.665 3.933,2.938 2.028,3.457 -0.129,1.839 -0.354,-0.089 -0.38,-0.309 -0.039,-0.094 0,0"
             style="fill:#000000;fill-opacity:1;fill-rule:nonzero;stroke:none"
             id="path2478" />
        </g>
        <g
           id="g2480"
           transform="translate(156.9087,153.0752)">
          <path
             d="M 0,0 C 0.738,1.2 0.371,5.86 2.856,4.164 3.181,3.942 3.779,4.415 3.719,4.786 3.52,6.03 4.194,6.921 5.481,6.918 5.975,6.917 6.413,6.656 6.634,6.22 6.802,5.888 6.673,5.509 7.044,5.325 7.12,5.288 7.235,5.362 7.283,5.415 8.463,6.714 6.794,8.04 5.452,7.831 3.75,7.566 2.506,6.072 2.79,4.339 3.077,4.546 3.365,4.754 3.653,4.961 2.293,5.883 1.119,5.437 0.319,4.073 -0.078,3.396 -1.072,0.489 -0.13,-0.064 -0.088,-0.089 -0.019,-0.031 0,0"
             style="fill:#000000;fill-opacity:1;fill-rule:nonzero;stroke:none"
             id="path2482" />
        </g>
        <g
           id="g2484"
           transform="translate(155.687,163.3164)">
          <path
             d="M 0,0 C 0.171,0.527 0.478,2.601 1.153,2.67 1.78,2.735 2.595,2.106 3.114,1.828 3.386,1.683 3.695,2.104 3.768,2.304 4.22,3.542 5.614,2.05 6.089,1.549 7.068,0.518 6.908,-0.894 7.424,-2.111 7.487,-2.261 7.68,-2.052 7.704,-1.977 8.3,-0.094 7.218,1.927 5.767,3.104 4.557,4.086 3.473,3.422 3.003,2.112 3.222,2.271 3.439,2.43 3.658,2.588 2.83,3.021 1.783,3.786 0.847,3.23 -0.171,2.626 -0.441,0.952 -0.276,-0.102 -0.248,-0.284 -0.028,-0.088 0,0"
             style="fill:#000000;fill-opacity:1;fill-rule:nonzero;stroke:none"
             id="path2486" />
        </g>
        <g
           id="g2488"
           transform="translate(93.418,107.29)">
          <path
             d="m 0,0 c -0.677,1.155 -0.782,2.479 -0.803,3.79 -0.01,0.685 0.067,1.367 0.257,2.025 0.217,0.757 0.652,0.668 1.293,0.367 C 1.101,6.015 1.597,6.634 1.396,6.945 0.198,8.811 2.972,8.338 3.929,7.885 4.053,7.826 4.252,8.054 4.168,8.167 2.733,10.091 -0.863,8.753 0.632,6.296 0.887,6.513 1.141,6.729 1.396,6.945 -0.132,8.251 -1.368,6.476 -1.613,5.006 -1.852,3.571 -1.798,0.524 -0.312,-0.312 -0.186,-0.382 0.074,-0.126 0,0"
             style="fill:#000000;fill-opacity:1;fill-rule:nonzero;stroke:none"
             id="path2490" />
        </g>
        <g
           id="g2492"
           transform="translate(94.6914,104.9229)">
          <path
             d="m 0,0 c -0.147,0.561 -0.421,1.837 0.635,1.591 0.756,-0.176 1.096,-0.955 1.317,-1.617 0.142,-0.425 0.746,0.115 0.834,0.307 0.709,1.548 2.366,-0.862 2.758,-1.614 0.139,-0.266 0.489,-0.079 0.64,0.076 0.584,0.603 1.533,-1.182 1.78,-1.639 0.083,-0.154 0.305,0.068 0.304,0.181 -0.012,1.465 -1.017,3.438 -2.53,1.903 0.214,0.026 0.427,0.051 0.64,0.077 C 5.438,1.13 3.195,3.032 1.991,0.291 2.27,0.394 2.547,0.496 2.825,0.599 2.403,1.776 1.406,2.946 0.08,2.212 -0.861,1.69 -0.976,0.525 -0.273,-0.231 -0.168,-0.345 0.028,-0.109 0,0"
             style="fill:#000000;fill-opacity:1;fill-rule:nonzero;stroke:none"
             id="path2494" />
        </g>
        <g
           id="g2496"
           transform="translate(113.2373,99.041)">
          <path
             d="M 0,0 C 0.284,0.752 0.508,1.493 1.046,2.114 2.012,3.23 2.923,1.95 3.34,1.108 3.505,0.773 3.976,1.223 4.022,1.437 c 0.621,2.894 3.451,2.258 5.58,1.514 0.278,-0.097 0.576,0.233 0.644,0.468 0.639,2.22 2.567,1.268 3.477,-0.116 0.152,-0.232 0.544,0.125 0.632,0.235 0.974,1.217 2.448,1.791 3.609,0.509 0.253,-0.28 0.665,0.246 0.738,0.443 0.401,1.1 1.843,0.288 2.244,-0.24 0.164,-0.216 0.552,0.104 0.641,0.239 0.858,1.295 3.382,1.902 4.418,0.534 0.132,-0.172 0.466,0.03 0.561,0.141 0.5,0.583 1.028,1.143 1.858,1.146 0.538,0.002 1.142,-0.472 1.631,-0.658 0.175,-0.065 0.549,0.245 0.432,0.432 -1.193,1.895 -3.213,0.818 -4.341,-0.5 l 0.561,0.141 C 25.312,7.558 22.062,6.312 21,4.706 c 0.214,0.08 0.428,0.159 0.642,0.239 -1.099,1.444 -3.144,0.943 -3.724,-0.65 0.247,0.147 0.492,0.296 0.738,0.443 -1.566,1.727 -3.676,0.53 -4.88,-0.985 0.211,0.078 0.422,0.157 0.633,0.235 C 12.88,6.291 10.24,5.858 9.493,3.231 9.708,3.387 9.923,3.543 10.137,3.699 7.349,4.659 4.027,4.8 3.337,1.266 3.565,1.376 3.792,1.485 4.02,1.595 3.492,2.573 2.553,3.706 1.359,2.934 0.396,2.31 -0.33,1.064 -0.354,-0.089 -0.358,-0.31 -0.038,-0.102 0,0"
             style="fill:#000000;fill-opacity:1;fill-rule:nonzero;stroke:none"
             id="path2498" />
        </g>
        <g
           id="g2500"
           transform="translate(152.748,105.2285)">
          <path
             d="M 0,0 C 0.382,1.564 2.388,5.372 3.995,2.707 4.143,2.91 4.291,3.114 4.439,3.318 4.324,3.304 4.825,4.358 4.872,4.396 5.177,4.643 5.596,4.73 5.97,4.809 6.642,4.95 7.401,4.889 8.029,4.618 c 0.293,-0.126 0.633,0.268 0.7,0.509 0.484,1.721 1.98,2.916 3.792,2.346 0.283,-0.089 0.667,0.239 0.706,0.513 0.256,1.783 2.254,1.754 3.488,1.024 0.277,-0.164 0.712,0.308 0.75,0.545 0.198,1.215 1.693,2.811 2.855,1.642 0.25,-0.251 0.684,0.171 0.783,0.383 0.234,0.498 0.514,0.858 1.004,1.139 0.707,0.405 1.235,-0.078 1.789,-0.446 0.272,-0.178 0.816,0.262 0.669,0.569 -1.044,2.178 -3.602,0.136 -4.254,-1.252 0.261,0.128 0.522,0.255 0.783,0.383 -1.695,1.71 -4.237,-0.879 -4.506,-2.637 0.25,0.182 0.501,0.363 0.751,0.545 -1.899,1.093 -4.621,0.231 -4.937,-2.102 0.235,0.172 0.471,0.342 0.706,0.514 C 10.676,9.054 8.547,7.192 7.912,4.922 8.145,5.092 8.378,5.261 8.611,5.431 6.8,6.205 3.051,5.257 3.852,2.674 3.888,2.559 4.027,2.542 4.125,2.567 4.17,2.579 4.215,2.592 4.261,2.604 4.509,2.668 4.848,3.013 4.666,3.277 2.742,6.084 -0.66,2.257 -0.233,-0.112 -0.21,-0.24 -0.014,-0.057 0,0"
             style="fill:#000000;fill-opacity:1;fill-rule:nonzero;stroke:none"
             id="path2502" />
        </g>
        <g
           id="g2504"
           transform="translate(171.2524,126.9873)">
          <path
             d="M 0,0 C 0.061,0.747 0.089,1.481 0.612,2.077 1.348,2.915 2.182,2.036 2.537,1.394 2.759,0.989 3.349,1.604 3.281,1.927 2.877,3.841 4.945,3.081 5.532,2.147 5.672,1.925 5.973,2.054 6.117,2.218 6.265,2.386 6.414,2.555 6.562,2.724 6.381,2.679 6.201,2.634 6.02,2.588 7.913,1.013 8.028,-1.672 7.782,-3.962 7.766,-4.112 8.001,-3.97 8.027,-3.901 8.94,-1.454 8.831,1.458 6.697,3.266 6.535,3.402 6.273,3.264 6.155,3.13 6.006,2.962 5.857,2.794 5.709,2.624 5.891,2.67 6.071,2.715 6.252,2.761 4.948,4.815 2.005,3.862 2.537,1.394 L 3.281,1.927 C 2.746,2.887 1.755,3.61 0.702,2.846 -0.184,2.202 -0.99,0.861 -0.332,-0.198 -0.228,-0.364 -0.01,-0.123 0,0"
             style="fill:#000000;fill-opacity:1;fill-rule:nonzero;stroke:none"
             id="path2506" />
        </g>
        <g
           id="g2508"
           transform="translate(100.313,84.085)">
          <path
             d="m 0,0 c 0.097,-1.678 0.563,-3.37 0.912,-5.009 0.424,-1.992 0.899,-3.97 1.383,-5.948 0.414,-1.691 0.901,-3.365 1.341,-5.051 0.25,-0.958 0.458,-1.926 0.614,-2.903 0.13,-0.818 0.127,-1.576 0.466,-2.34 0.068,-0.152 0.264,0.062 0.29,0.14 0.475,1.46 0.098,2.951 -0.218,4.415 -0.397,1.843 -0.993,3.636 -1.517,5.445 C 2.718,-9.345 2.239,-7.416 1.713,-5.503 1.207,-3.656 0.879,-1.675 0.18,0.107 0.143,0.202 -0.004,0.065 0,0"
             style="fill:#000000;fill-opacity:1;fill-rule:nonzero;stroke:none"
             id="path2510" />
        </g>
        <g
           id="g2512"
           transform="translate(105.0527,79.751)">
          <path
             d="m 0,0 c 0.195,-2.886 1.008,-5.784 1.635,-8.599 0.345,-1.551 0.701,-3.101 1.06,-4.651 0.35,-1.512 0.527,-3.113 1.333,-4.459 0.069,-0.115 0.222,0.052 0.228,0.136 0.183,2.83 -0.94,5.876 -1.635,8.599 C 1.854,-5.972 1.295,-2.782 0.199,0.119 0.16,0.224 -0.005,0.072 0,0"
             style="fill:#000000;fill-opacity:1;fill-rule:nonzero;stroke:none"
             id="path2514" />
        </g>
        <g
           id="g2516"
           transform="translate(110.7261,68.2754)">
          <path
             d="m 0,0 c 0.2,-1.388 0.485,-2.749 0.78,-4.12 0.316,-1.472 0.505,-3.13 1.193,-4.473 0.056,-0.108 0.208,0.049 0.209,0.124 0.025,1.456 -0.434,2.86 -0.791,4.262 C 1.022,-2.755 0.628,-1.31 0.218,0.131 0.187,0.241 -0.012,0.084 0,0"
             style="fill:#000000;fill-opacity:1;fill-rule:nonzero;stroke:none"
             id="path2518" />
        </g>
        <g
           id="g2520"
           transform="translate(114.0898,66.4023)">
          <path
             d="m 0,0 c 0.337,-1.082 0.546,-2.19 0.713,-3.31 0.112,-0.746 0.057,-1.747 0.602,-2.326 0.071,-0.074 0.199,0.064 0.212,0.128 0.204,0.95 -0.1,1.964 -0.282,2.904 C 1.055,-1.622 0.781,-0.667 0.132,0.112 0.085,0.168 -0.017,0.053 0,0"
             style="fill:#000000;fill-opacity:1;fill-rule:nonzero;stroke:none"
             id="path2522" />
        </g>
        <g
           id="g2524"
           transform="translate(116.6074,64.3438)">
          <path
             d="M 0,0 C 0.019,-1.408 0.354,-3.283 1.351,-4.32 1.415,-4.387 1.549,-4.254 1.54,-4.185 1.431,-3.436 1.229,-2.76 1.009,-2.037 0.782,-1.295 0.663,-0.506 0.341,0.204 0.26,0.384 -0.002,0.122 0,0"
             style="fill:#000000;fill-opacity:1;fill-rule:nonzero;stroke:none"
             id="path2526" />
        </g>
        <g
           id="g2528"
           transform="translate(119.9395,63.7988)">
          <path
             d="M 0,0 C -0.151,-1.135 0.181,-2.655 0.912,-3.536 0.968,-3.604 1.084,-3.47 1.082,-3.413 1.057,-2.776 0.948,-2.259 0.776,-1.646 0.611,-1.06 0.535,-0.4 0.159,0.096 0.114,0.156 0.006,0.045 0,0"
             style="fill:#000000;fill-opacity:1;fill-rule:nonzero;stroke:none"
             id="path2530" />
        </g>
        <g
           id="g2532"
           transform="translate(115.6563,69.3047)">
          <path
             d="M 0,0 C -0.014,-0.749 0.138,-1.441 0.465,-2.116 0.504,-2.195 0.617,-2.08 0.617,-2.025 0.622,-1.279 0.542,-0.554 0.199,0.119 0.146,0.223 0.001,0.071 0,0"
             style="fill:#000000;fill-opacity:1;fill-rule:nonzero;stroke:none"
             id="path2534" />
        </g>
        <g
           id="g2536"
           transform="translate(104.0635,85.2188)">
          <path
             d="m 0,0 c 0.087,-0.84 0.188,-1.686 0.567,-2.452 0.041,-0.084 0.161,0.038 0.161,0.096 0.01,0.874 -0.196,1.689 -0.462,2.515 C 0.221,0.297 -0.01,0.1 0,0"
             style="fill:#000000;fill-opacity:1;fill-rule:nonzero;stroke:none"
             id="path2538" />
        </g>
        <g
           id="g2540"
           transform="translate(181.4492,103.1299)">
          <path
             d="m 0,0 c 0.842,-4.106 1.394,-8.226 1.875,-12.386 0.231,-2.004 0.454,-4.009 0.721,-6.008 0.122,-0.914 0.26,-1.824 0.409,-2.734 0.119,-0.727 0.051,-1.715 0.655,-2.197 0.108,-0.086 0.256,0.074 0.283,0.17 0.212,0.743 0.022,1.247 -0.133,2.01 -0.239,1.173 -0.398,2.367 -0.565,3.552 -0.282,1.992 -0.511,3.993 -0.757,5.991 C 2.004,-7.675 1.451,-3.65 0.131,0.094 0.105,0.166 -0.011,0.058 0,0"
             style="fill:#000000;fill-opacity:1;fill-rule:nonzero;stroke:none"
             id="path2542" />
        </g>
        <g
           id="g2544"
           transform="translate(179.9941,96.7695)">
          <path
             d="m 0,0 c 0.636,-3.471 0.766,-6.98 1.181,-10.477 0.198,-1.666 0.646,-3.291 0.929,-4.944 0.155,-0.907 0.271,-1.818 0.352,-2.734 0.057,-0.631 -0.142,-1.333 0.43,-1.704 0.155,-0.102 0.319,0.065 0.394,0.191 0.665,1.121 0.128,2.661 -0.113,3.879 -0.376,1.898 -0.943,3.763 -1.234,5.678 C 1.419,-6.692 1.23,-3.187 0.177,0.127 0.146,0.226 -0.014,0.077 0,0"
             style="fill:#000000;fill-opacity:1;fill-rule:nonzero;stroke:none"
             id="path2546" />
        </g>
        <g
           id="g2548"
           transform="translate(178.6489,102.1836)">
          <path
             d="M 0,0 C 0.099,-0.91 0.232,-1.78 0.603,-2.627 0.636,-2.702 0.747,-2.593 0.746,-2.542 0.726,-1.604 0.532,-0.743 0.247,0.147 0.206,0.275 -0.01,0.092 0,0"
             style="fill:#000000;fill-opacity:1;fill-rule:nonzero;stroke:none"
             id="path2550" />
        </g>
        <g
           id="g2552"
           transform="translate(177.5132,91.8672)">
          <path
             d="m 0,0 c 0.411,-3.105 0.708,-6.223 1.118,-9.327 0.151,-1.138 0.411,-2.265 0.634,-3.39 0.277,-1.393 0.345,-2.714 0.417,-4.121 0.021,-0.404 0.568,0.028 0.619,0.228 0.607,2.354 -0.614,5.284 -1.008,7.601 C 1.272,-6.014 1.36,-2.727 0.209,0.124 0.166,0.23 -0.01,0.078 0,0"
             style="fill:#000000;fill-opacity:1;fill-rule:nonzero;stroke:none"
             id="path2554" />
        </g>
        <g
           id="g2556"
           transform="translate(176.1426,82.7783)">
          <path
             d="M 0,0 C 0.585,-1.511 0.981,-3.109 1.244,-4.707 1.381,-5.543 1.456,-6.389 1.497,-7.234 1.524,-7.795 1.324,-8.572 1.585,-9.072 1.663,-9.221 1.863,-9.044 1.905,-8.954 2.446,-7.82 1.99,-5.978 1.777,-4.792 1.471,-3.086 1.067,-1.387 0.131,0.094 0.09,0.158 -0.022,0.059 0,0"
             style="fill:#000000;fill-opacity:1;fill-rule:nonzero;stroke:none"
             id="path2558" />
        </g>
        <g
           id="g2560"
           transform="translate(174.9575,78.6738)">
          <path
             d="m 0,0 c 0.212,-0.996 0.416,-1.993 0.621,-2.99 0.201,-0.977 0.236,-2.127 0.716,-3.004 0.094,-0.172 0.328,0.077 0.332,0.197 0.039,0.928 -0.268,1.818 -0.493,2.711 C 0.9,-1.991 0.579,-0.932 0.168,0.119 0.131,0.213 -0.015,0.072 0,0"
             style="fill:#000000;fill-opacity:1;fill-rule:nonzero;stroke:none"
             id="path2562" />
        </g>
        <g
           id="g2564"
           transform="translate(173.9009,74.9932)">
          <path
             d="m 0,0 c 0.023,-0.439 0.051,-0.887 0.134,-1.32 0.088,-0.458 0.108,-0.992 0.405,-1.368 0.054,-0.068 0.178,0.059 0.186,0.112 0.126,0.865 -0.26,1.872 -0.573,2.667 C 0.12,0.17 -0.003,0.055 0,0"
             style="fill:#000000;fill-opacity:1;fill-rule:nonzero;stroke:none"
             id="path2566" />
        </g>
        <g
           id="g2568"
           transform="translate(172.2427,79.2188)">
          <path
             d="M 0,0 C 0.003,-0.671 0.107,-1.344 0.442,-1.931 0.489,-2.014 0.601,-1.894 0.604,-1.835 0.639,-1.15 0.526,-0.484 0.237,0.142 0.179,0.267 0,0.085 0,0"
             style="fill:#000000;fill-opacity:1;fill-rule:nonzero;stroke:none"
             id="path2570" />
        </g>
        <g
           id="g2572"
           transform="translate(171.4487,73.373)">
          <path
             d="m 0,0 c 0.009,-0.795 0.09,-1.892 0.705,-2.463 0.077,-0.07 0.21,0.072 0.207,0.15 C 0.88,-1.505 0.555,-0.604 0.218,0.131 0.166,0.245 0,0.078 0,0"
             style="fill:#000000;fill-opacity:1;fill-rule:nonzero;stroke:none"
             id="path2574" />
        </g>
        <g
           id="g2576"
           transform="translate(169.1016,71.418)">
          <path
             d="M 0,0 C 0.055,-0.624 0.096,-1.29 0.583,-1.738 0.65,-1.801 0.754,-1.669 0.741,-1.604 0.618,-1.006 0.427,-0.44 0.228,0.136 0.187,0.255 -0.008,0.084 0,0"
             style="fill:#000000;fill-opacity:1;fill-rule:nonzero;stroke:none"
             id="path2578" />
        </g>
        <g
           id="g2580"
           transform="translate(98.5273,126.2471)">
          <path
             d="m 0,0 c 0.444,-2.737 0.979,-5.456 1.567,-8.166 0.606,-2.797 1.083,-5.668 2.21,-8.308 0.042,-0.097 0.196,0.042 0.19,0.114 -0.245,2.778 -1.032,5.44 -1.704,8.14 C 1.571,-5.443 0.883,-2.668 0.171,0.103 0.149,0.187 -0.011,0.067 0,0"
             style="fill:#000000;fill-opacity:1;fill-rule:nonzero;stroke:none"
             id="path2582" />
        </g>
        <g
           id="g2584"
           transform="translate(101.7627,123.7988)">
          <path
             d="m 0,0 c 0.393,-2.26 0.818,-4.513 1.244,-6.767 0.47,-2.492 0.794,-5.122 1.715,-7.493 0.044,-0.115 0.223,0.051 0.218,0.13 C 3.043,-11.839 2.45,-9.589 1.943,-7.356 1.375,-4.86 0.815,-2.363 0.209,0.124 0.184,0.228 -0.014,0.082 0,0"
             style="fill:#000000;fill-opacity:1;fill-rule:nonzero;stroke:none"
             id="path2586" />
        </g>
        <g
           id="g2588"
           transform="translate(104.7485,121.833)">
          <path
             d="m 0,0 c 0.407,-2.246 0.842,-4.487 1.262,-6.731 0.43,-2.294 0.613,-4.836 1.59,-6.972 0.043,-0.095 0.18,0.043 0.18,0.107 C 3.011,-11.31 2.373,-9.038 1.908,-6.81 1.422,-4.476 0.904,-2.142 0.187,0.133 0.154,0.237 -0.015,0.081 0,0"
             style="fill:#000000;fill-opacity:1;fill-rule:nonzero;stroke:none"
             id="path2590" />
        </g>
        <g
           id="g2592"
           transform="translate(108.0713,113.9375)">
          <path
             d="m 0,0 c 0.045,-0.943 0.236,-1.867 0.421,-2.792 0.204,-1.025 0.331,-2.08 0.767,-3.036 0.041,-0.09 0.172,0.04 0.171,0.101 C 1.336,-3.866 0.826,-1.643 0.133,0.079 0.105,0.148 -0.002,0.048 0,0"
             style="fill:#000000;fill-opacity:1;fill-rule:nonzero;stroke:none"
             id="path2594" />
        </g>
        <g
           id="g2596"
           transform="translate(110.2383,111.0654)">
          <path
             d="m 0,0 c 0.165,-1.108 0.273,-2.306 0.765,-3.321 0.036,-0.075 0.142,0.033 0.142,0.085 0.004,1.158 -0.33,2.288 -0.632,3.4 C 0.237,0.304 -0.016,0.106 0,0"
             style="fill:#000000;fill-opacity:1;fill-rule:nonzero;stroke:none"
             id="path2598" />
        </g>
        <g
           id="g2600"
           transform="translate(112.5093,110.6191)">
          <path
             d="m 0,0 c 0.005,-1.052 0.333,-2.05 0.864,-2.945 0.057,-0.096 0.187,0.042 0.19,0.113 C 1.107,-1.733 0.802,-0.786 0.313,0.187 0.232,0.348 0,0.113 0,0"
             style="fill:#000000;fill-opacity:1;fill-rule:nonzero;stroke:none"
             id="path2602" />
        </g>
        <g
           id="g2604"
           transform="translate(103.9277,126.8262)">
          <path
             d="m 0,0 c 0.055,-0.895 0.085,-1.67 0.504,-2.481 0.041,-0.079 0.151,0.036 0.152,0.09 0.021,0.923 -0.198,1.622 -0.523,2.47 C 0.106,0.148 -0.003,0.048 0,0"
             style="fill:#000000;fill-opacity:1;fill-rule:nonzero;stroke:none"
             id="path2606" />
        </g>
        <g
           id="g2608"
           transform="translate(166.2026,141.0127)">
          <path
             d="m 0,0 c 0.715,-3.352 1.077,-6.755 1.576,-10.142 0.188,-1.281 0.503,-2.533 0.791,-3.793 0.305,-1.336 0.293,-2.691 0.544,-4.015 0.038,-0.2 0.331,0.094 0.355,0.172 0.338,1.091 0.015,2.336 -0.206,3.429 -0.301,1.491 -0.748,2.948 -0.971,4.453 C 1.593,-6.528 1.189,-3.12 0.205,0.146 0.171,0.259 -0.02,0.093 0,0"
             style="fill:#000000;fill-opacity:1;fill-rule:nonzero;stroke:none"
             id="path2610" />
        </g>
        <g
           id="g2612"
           transform="translate(164.875,135.0781)">
          <path
             d="m 0,0 c 0.282,-2.383 0.93,-4.725 1.402,-7.074 0.281,-1.391 0.52,-2.789 0.715,-4.195 0.138,-1.001 -0.054,-2.424 0.536,-3.259 0.057,-0.081 0.18,0.071 0.195,0.116 0.351,1.08 0.006,2.312 -0.159,3.418 C 2.522,-9.878 2.303,-8.771 2.074,-7.667 1.534,-5.071 0.99,-2.413 0.199,0.119 0.167,0.222 -0.009,0.075 0,0"
             style="fill:#000000;fill-opacity:1;fill-rule:nonzero;stroke:none"
             id="path2614" />
        </g>
        <g
           id="g2616"
           transform="translate(162.9404,133.0322)">
          <path
             d="m 0,0 c 0.721,-4.5 1.577,-9.041 2.641,-13.473 0.056,-0.231 0.463,0.112 0.429,0.307 C 2.289,-8.729 1.285,-4.267 0.161,0.096 0.14,0.177 -0.01,0.062 0,0"
             style="fill:#000000;fill-opacity:1;fill-rule:nonzero;stroke:none"
             id="path2618" />
        </g>
        <g
           id="g2620"
           transform="translate(163.2134,121.874)">
          <path
             d="m 0,0 c 0.245,-0.599 0.394,-1.246 0.496,-1.884 0.07,-0.442 0.07,-0.892 0.348,-1.261 0.055,-0.074 0.186,0.063 0.194,0.117 C 1.195,-1.973 0.793,-0.694 0.194,0.164 0.136,0.246 -0.032,0.078 0,0"
             style="fill:#000000;fill-opacity:1;fill-rule:nonzero;stroke:none"
             id="path2622" />
        </g>
        <g
           id="g2624"
           transform="translate(161.4771,120.4316)">
          <path
             d="m 0,0 c 0.021,-0.448 0.114,-0.883 0.194,-1.324 0.085,-0.473 0.073,-1.164 0.427,-1.515 0.063,-0.062 0.172,0.054 0.185,0.111 0.1,0.455 -0.042,0.865 -0.146,1.31 C 0.537,-0.895 0.447,-0.353 0.247,0.147 0.194,0.277 -0.004,0.089 0,0"
             style="fill:#000000;fill-opacity:1;fill-rule:nonzero;stroke:none"
             id="path2626" />
        </g>
        <g
           id="g2628"
           transform="translate(160.1665,118.6865)">
          <path
             d="m 0,0 c 0.069,-0.529 0.078,-1.144 0.39,-1.594 0.057,-0.082 0.174,0.08 0.18,0.13 C 0.633,-0.898 0.444,-0.368 0.285,0.169 0.242,0.315 -0.014,0.108 0,0"
             style="fill:#000000;fill-opacity:1;fill-rule:nonzero;stroke:none"
             id="path2630" />
        </g>
        <g
           id="g2632"
           transform="translate(163.5898,140.3057)">
          <path
             d="M 0,0 C -0.086,-0.855 0.039,-1.706 0.372,-2.497 0.407,-2.582 0.535,-2.459 0.533,-2.401 0.505,-1.552 0.292,-0.733 0.232,0.111 0.221,0.267 0.009,0.091 0,0"
             style="fill:#000000;fill-opacity:1;fill-rule:nonzero;stroke:none"
             id="path2634" />
        </g>
        <g
           id="g2636"
           transform="translate(165.1455,145.4072)">
          <path
             d="M 0,0 C 0.001,-0.628 0.123,-1.19 0.377,-1.765 0.406,-1.83 0.501,-1.735 0.5,-1.691 0.485,-1.067 0.411,-0.481 0.142,0.085 0.106,0.16 0,0.052 0,0"
             style="fill:#000000;fill-opacity:1;fill-rule:nonzero;stroke:none"
             id="path2638" />
        </g>
        <g
           id="g2640"
           transform="translate(98.916,162.2598)">
          <path
             d="m 0,0 c 0.328,-2.1 0.768,-4.173 1.259,-6.24 0.54,-2.27 0.959,-4.762 2.009,-6.856 0.05,-0.1 0.203,0.045 0.199,0.119 -0.118,2.131 -0.831,4.17 -1.387,6.218 C 1.458,-4.466 0.81,-2.18 0.19,0.113 0.164,0.209 -0.012,0.074 0,0"
             style="fill:#000000;fill-opacity:1;fill-rule:nonzero;stroke:none"
             id="path2642" />
        </g>
        <g
           id="g2644"
           transform="translate(101.687,160.4531)">
          <path
             d="m 0,0 c 0.253,-1.816 0.634,-3.618 1.029,-5.408 0.445,-2.014 0.807,-4.063 1.513,-6.002 0.036,-0.1 0.195,0.044 0.189,0.113 C 2.435,-7.484 1.22,-3.565 0.171,0.102 0.146,0.189 -0.009,0.065 0,0"
             style="fill:#000000;fill-opacity:1;fill-rule:nonzero;stroke:none"
             id="path2646" />
        </g>
        <g
           id="g2648"
           transform="translate(104.3618,158.9912)">
          <path
             d="M 0,0 C 0.259,-1.574 0.541,-3.141 0.84,-4.708 1.155,-6.358 1.357,-8.141 1.999,-9.7 2.046,-9.814 2.22,-9.647 2.217,-9.569 2.153,-7.982 1.719,-6.405 1.372,-4.86 0.999,-3.196 0.611,-1.539 0.19,0.113 0.166,0.208 -0.012,0.075 0,0"
             style="fill:#000000;fill-opacity:1;fill-rule:nonzero;stroke:none"
             id="path2650" />
        </g>
        <g
           id="g2652"
           transform="translate(107.3926,154.1201)">
          <path
             d="M 0,0 C 0.175,-1.534 0.322,-3.36 0.998,-4.759 1.042,-4.848 1.169,-4.718 1.169,-4.656 1.175,-3.077 0.656,-1.384 0.19,0.113 0.159,0.212 -0.008,0.071 0,0"
             style="fill:#000000;fill-opacity:1;fill-rule:nonzero;stroke:none"
             id="path2654" />
        </g>
        <g
           id="g2656"
           transform="translate(109.6128,153.1162)">
          <path
             d="m 0,0 c 0.155,-1.422 0.265,-3.128 0.935,-4.402 0.044,-0.084 0.16,0.038 0.161,0.095 0.043,1.476 -0.45,3.031 -0.897,4.426 C 0.167,0.222 -0.008,0.074 0,0"
             style="fill:#000000;fill-opacity:1;fill-rule:nonzero;stroke:none"
             id="path2658" />
        </g>
        <g
           id="g2660"
           transform="translate(111.4697,151.8379)">
          <path
             d="m 0,0 c 0.052,-1.041 0.27,-2.22 0.715,-3.162 0.049,-0.105 0.199,0.048 0.199,0.119 -0.003,1.061 -0.22,2.236 -0.61,3.224 C 0.241,0.341 -0.005,0.109 0,0"
             style="fill:#000000;fill-opacity:1;fill-rule:nonzero;stroke:none"
             id="path2662" />
        </g>
        <g
           id="g2664"
           transform="translate(113.3872,151.501)">
          <path
             d="m 0,0 c 0.052,-0.708 0.131,-1.45 0.315,-2.137 0.026,-0.096 0.167,0.041 0.178,0.086 0.182,0.739 0.041,1.509 -0.218,2.215 C 0.222,0.309 -0.007,0.101 0,0"
             style="fill:#000000;fill-opacity:1;fill-rule:nonzero;stroke:none"
             id="path2666" />
        </g>
        <g
           id="g2668"
           transform="translate(111.0591,154.877)">
          <path
             d="m 0,0 c 0.021,-0.385 0.113,-0.693 0.279,-1.041 0.031,-0.064 0.123,0.029 0.123,0.073 0,0.397 -0.022,0.736 -0.165,1.109 C 0.189,0.266 -0.005,0.085 0,0"
             style="fill:#000000;fill-opacity:1;fill-rule:nonzero;stroke:none"
             id="path2670" />
        </g>
        <g
           id="g2672"
           transform="translate(103.3052,162.4268)">
          <path
             d="M 0,0 C 0.16,-0.521 0.31,-1.029 0.518,-1.534 0.544,-1.6 0.643,-1.506 0.641,-1.461 0.613,-0.86 0.542,-0.352 0.141,0.12 0.09,0.18 -0.017,0.057 0,0"
             style="fill:#000000;fill-opacity:1;fill-rule:nonzero;stroke:none"
             id="path2674" />
        </g>
        <g
           id="g2676"
           transform="translate(151.1333,175.8672)">
          <path
             d="m 0,0 c 0.178,-2.621 0.709,-5.255 1.087,-7.854 0.181,-1.247 0.393,-2.487 0.628,-3.724 0.217,-1.136 0.332,-2.553 0.967,-3.533 0.079,-0.123 0.279,0.116 0.278,0.2 -0.014,1.086 -0.427,2.177 -0.651,3.24 -0.314,1.496 -0.55,3.008 -0.794,4.516 C 1.129,-4.775 0.941,-2.211 0.114,0.067 0.092,0.127 -0.002,0.041 0,0"
             style="fill:#000000;fill-opacity:1;fill-rule:nonzero;stroke:none"
             id="path2678" />
        </g>
        <g
           id="g2680"
           transform="translate(149.7041,169.3086)">
          <path
             d="m 0,0 c 0.699,-3.773 2.12,-7.437 2.055,-11.316 -0.004,-0.253 0.38,0.029 0.397,0.191 C 2.833,-7.371 1.059,-3.447 0.187,0.133 0.162,0.233 -0.016,0.085 0,0"
             style="fill:#000000;fill-opacity:1;fill-rule:nonzero;stroke:none"
             id="path2682" />
        </g>
        <g
           id="g2684"
           transform="translate(148.1475,169.0127)">
          <path
             d="m 0,0 c 0.232,-1.831 0.627,-3.637 1.008,-5.442 0.205,-0.973 0.407,-1.946 0.624,-2.916 0.244,-1.086 0.359,-2.281 0.889,-3.268 0.074,-0.137 0.263,0.063 0.266,0.159 0.059,1.798 -0.622,3.689 -1.058,5.42 C 1.215,-4.002 0.741,-1.94 0.133,0.079 0.112,0.147 -0.007,0.05 0,0"
             style="fill:#000000;fill-opacity:1;fill-rule:nonzero;stroke:none"
             id="path2686" />
        </g>
        <g
           id="g2688"
           transform="translate(148.0898,161.2979)">
          <path
             d="m 0,0 c 0.032,-0.643 0.189,-1.258 0.35,-1.879 0.198,-0.77 0.318,-1.62 0.7,-2.323 0.045,-0.083 0.159,0.037 0.161,0.096 0.016,0.663 -0.169,1.25 -0.349,1.883 -0.218,0.772 -0.4,1.573 -0.71,2.314 C 0.118,0.17 -0.003,0.055 0,0"
             style="fill:#000000;fill-opacity:1;fill-rule:nonzero;stroke:none"
             id="path2690" />
        </g>
        <g
           id="g2692"
           transform="translate(147.123,159.6211)">
          <path
             d="m 0,0 c 0.077,-0.959 0.196,-2.138 0.642,-2.996 0.046,-0.089 0.169,0.04 0.17,0.101 C 0.837,-1.904 0.536,-0.803 0.209,0.124 0.17,0.233 -0.006,0.076 0,0"
             style="fill:#000000;fill-opacity:1;fill-rule:nonzero;stroke:none"
             id="path2694" />
        </g>
        <g
           id="g2696"
           transform="translate(145.7129,157.6836)">
          <path
             d="m 0,0 c 0.023,-0.639 0.099,-1.378 0.413,-1.943 0.044,-0.078 0.149,0.036 0.152,0.09 0.03,0.662 -0.141,1.345 -0.394,1.955 C 0.133,0.192 -0.002,0.062 0,0"
             style="fill:#000000;fill-opacity:1;fill-rule:nonzero;stroke:none"
             id="path2698" />
        </g>
        <g
           id="g2700"
           transform="translate(144.5283,157.2559)">
          <path
             d="m 0,0 c 0.024,-0.648 0.051,-1.605 0.429,-2.157 0.059,-0.086 0.183,0.084 0.189,0.136 0.07,0.685 -0.203,1.487 -0.466,2.112 C 0.118,0.17 -0.002,0.055 0,0"
             style="fill:#000000;fill-opacity:1;fill-rule:nonzero;stroke:none"
             id="path2702" />
        </g>
        <g
           id="g2704"
           transform="translate(145.1504,161.04)">
          <path
             d="M 0,0 C 0.026,-0.506 0.16,-0.933 0.349,-1.398 0.381,-1.478 0.503,-1.362 0.5,-1.308 0.476,-0.795 0.45,-0.331 0.256,0.152 0.202,0.287 -0.005,0.093 0,0"
             style="fill:#000000;fill-opacity:1;fill-rule:nonzero;stroke:none"
             id="path2706" />
        </g>
        <g
           id="g2708"
           transform="translate(120.874,184.6338)">
          <path
             d="m 0,0 c -1.671,1.949 -3.644,3.609 -5.432,5.448 -1.245,1.28 -2.091,2.786 -2.672,4.468 -0.495,1.434 -0.931,3.604 0.507,4.642 2.35,1.695 5.207,-0.524 6.791,-2.173 0.219,-0.228 0.634,0.151 0.713,0.347 0.857,2.119 3.554,5.039 5.751,2.711 1.318,-1.396 1.481,-3.64 0.954,-5.384 C 6.102,8.369 4.683,7.206 4.067,5.593 4.016,5.46 4.126,5.407 4.233,5.485 7.375,7.8 9.517,13.634 6.023,16.578 3.391,18.796 0.068,14.932 -0.813,12.742 c 0.237,0.116 0.475,0.232 0.712,0.348 -1.856,1.927 -4.116,3.43 -6.865,2.48 C -8.594,15.009 -9.369,13.497 -9.365,11.852 -9.352,6.284 -3.88,2.994 -0.24,-0.24 -0.135,-0.334 0.091,-0.106 0,0"
             style="fill:#000000;fill-opacity:1;fill-rule:nonzero;stroke:none"
             id="path2710" />
        </g>
        <g
           id="g2712"
           transform="translate(124.0698,188.2725)">
          <path
             d="m 0,0 c -0.615,-0.529 -1.176,-1.101 -1.743,-1.681 -0.524,-0.537 -1.159,-1.071 -1.528,-1.728 -0.216,-0.386 0.273,-0.373 0.471,-0.178 0.55,0.542 0.981,1.222 1.502,1.8 0.503,0.558 0.99,1.091 1.387,1.73 C 0.144,0.03 0.063,0.055 0,0"
             style="fill:#000000;fill-opacity:1;fill-rule:nonzero;stroke:none"
             id="path2714" />
        </g>
        <g
           id="g2716"
           transform="translate(130.0425,197.5576)">
          <path
             d="m 0,0 c 0.333,-2.869 -0.592,-5.099 -2.35,-7.322 -0.799,-1.011 -1.69,-1.949 -2.533,-2.922 -0.579,-0.669 -1.493,-1.362 -1.706,-2.254 -0.07,-0.291 0.252,-0.307 0.424,-0.165 0.901,0.738 1.491,1.943 2.265,2.826 0.894,1.022 1.797,2.03 2.6,3.127 1.444,1.973 2.367,4.422 1.48,6.817 C 0.146,0.2 -0.008,0.067 0,0"
             style="fill:#000000;fill-opacity:1;fill-rule:nonzero;stroke:none"
             id="path2718" />
        </g>
      </g>
    </g>
    <g
       id="g2724"
       transform="matrix(1.3938941,0,0,-1.3938941,-76.073931,286.04274)">
      <g
         id="g2726"
         clip-path="url(#clipPath2730)">
        <g
           id="g2732"
           transform="translate(86.6616,122.6445)">
          <path
             d="M 0,0 C 0.097,0.199 0.174,0.491 0.231,0.877 0.288,1.263 0.296,1.627 0.257,1.968 0.16,2.805 -0.188,3.19 -0.789,3.121 -0.959,3.101 -1.077,3.016 -1.143,2.865 -1.208,2.715 -1.23,2.551 -1.209,2.372 -1.059,2.239 -0.973,2.084 -0.953,1.907 -0.891,1.373 -1.003,0.917 -1.291,0.538 -1.414,0.374 -1.579,0.224 -1.786,0.092 c -0.206,-0.133 -0.481,-0.27 -0.825,-0.411 -0.345,-0.142 -0.98,-0.266 -1.907,-0.372 l -4.404,-0.408 -0.112,-0.012 c -0.717,-0.091 -1.637,-0.104 -2.757,-0.037 -0.59,0.037 -1.098,0.143 -1.524,0.319 -0.427,0.183 -0.659,0.432 -0.695,0.743 l -0.123,1.067 c -0.023,0.141 -0.102,0.249 -0.235,0.329 -0.132,0.078 -0.277,0.108 -0.433,0.089 -0.156,-0.017 -0.282,-0.089 -0.38,-0.218 -0.098,-0.127 -0.133,-0.311 -0.106,-0.547 0.114,-0.987 0.497,-1.769 1.15,-2.346 0.47,-0.428 1.262,-0.712 2.375,-0.853 0.9,-0.122 2.47,-0.053 4.709,0.206 l 0.546,0.063 1.333,0.166 C -2.261,-1.794 -0.536,-1.085 0,0 Z"
             style="fill:none;stroke:#000000;stroke-width:0.5;stroke-linecap:butt;stroke-linejoin:miter;stroke-miterlimit:10;stroke-dasharray:none;stroke-opacity:1"
             id="path2734" />
        </g>
        <g
           id="g2736"
           transform="translate(81.3076,130.5547)">
          <path
             d="m 0,0 c -1.587,0.02 -4.33,0.153 -8.229,0.401 0.485,0.101 1.263,0.274 2.335,0.518 1.074,0.244 2.016,0.445 2.828,0.602 0.811,0.159 1.494,0.27 2.046,0.333 0.552,0.064 0.937,0.13 1.154,0.202 C 0.186,0.965 0.14,0.278 0,0 Z M -5.321,2.162 C -7.562,1.592 -9.261,1.24 -10.417,1.106 -10.61,1.084 -10.746,0.989 -10.824,0.822 -10.902,0.656 -10.929,0.468 -10.905,0.261 l 0.089,-0.768 c 0.327,-0.173 1.051,-0.231 2.172,-0.176 0.508,0.028 0.814,0.04 0.92,0.038 3.802,-0.063 7.737,-0.379 11.807,-0.946 L 4.29,-1.624 c 0.177,0.02 0.315,0.115 0.413,0.279 0.097,0.166 0.135,0.337 0.114,0.516 -0.042,0.363 -0.352,0.578 -0.93,0.647 -0.283,0.035 -0.729,0.054 -1.337,0.06 -0.61,0.004 -1.174,0.048 -1.695,0.13 L 0.93,2.294 C 2.134,2.658 3.06,2.878 3.705,2.953 4.001,2.987 4.191,3.098 4.274,3.289 4.357,3.479 4.381,3.732 4.344,4.052 4.218,4.292 3.989,4.394 3.655,4.355 L 3.633,4.353 C 3.41,4.327 2.948,4.2 2.245,3.973 1.543,3.745 1.099,3.619 0.914,3.598 L -0.459,3.192 C -1.46,3.076 -3.081,2.733 -5.321,2.162 Z"
             style="fill:none;stroke:#000000;stroke-width:0.5;stroke-linecap:butt;stroke-linejoin:miter;stroke-miterlimit:10;stroke-dasharray:none;stroke-opacity:1"
             id="path2738" />
        </g>
        <g
           id="g2740"
           transform="translate(70.9839,141.9707)">
          <path
             d="M 0,0 C -0.635,0.295 -0.96,0.44 -0.975,0.438 -1.175,0.415 -1.316,0.308 -1.4,0.113 -1.482,-0.08 -1.511,-0.288 -1.485,-0.511 -1.45,-0.815 -0.052,-1.464 2.707,-2.46 3.844,-2.87 4.432,-3.083 4.471,-3.102 L 3.66,-3.195 c -2.417,-0.28 -3.811,-0.339 -4.183,-0.18 l -0.066,-0.008 c -0.193,-0.022 -0.35,-0.109 -0.472,-0.262 -0.121,-0.153 -0.167,-0.358 -0.138,-0.613 0.03,-0.256 0.197,-0.434 0.502,-0.533 0.815,0.094 2.049,0.162 3.7,0.207 1.652,0.044 2.889,0.114 3.712,0.21 l 6.917,0.799 c 0.223,0.026 0.391,0.114 0.505,0.266 0.113,0.152 0.157,0.343 0.131,0.574 -0.036,0.31 -0.232,0.446 -0.588,0.405 L 9.465,-2.817 c -1.549,-0.179 -2.901,-0.058 -4.054,0.366 1.351,0.403 2.927,0.969 4.729,1.695 1.056,0.422 1.937,0.869 2.645,1.343 0.709,0.472 1.042,0.886 1.001,1.241 -0.02,0.171 -0.095,0.315 -0.225,0.432 -0.13,0.116 -0.28,0.164 -0.451,0.144 C 12.94,2.385 12.781,2.331 12.633,2.242 12.486,2.154 12.317,2.021 12.127,1.846 11.937,1.67 11.811,1.556 11.75,1.504 11.211,1.088 10.079,0.516 8.353,-0.213 6.626,-0.941 5.437,-1.346 4.785,-1.421 L 3.423,-1.532 C 3.102,-1.419 1.961,-0.909 0,0 Z"
             style="fill:none;stroke:#000000;stroke-width:0.5;stroke-linecap:butt;stroke-linejoin:miter;stroke-miterlimit:10;stroke-dasharray:none;stroke-opacity:1"
             id="path2742" />
        </g>
        <g
           id="g2744"
           transform="translate(79.0977,146.9502)">
          <path
             d="M 0,0 3.831,0.59 4.432,0.659 C 4.623,0.688 4.778,0.793 4.897,0.972 5.015,1.151 5.062,1.341 5.04,1.541 L 4.817,3.465 C 4.788,3.718 4.709,3.937 4.583,4.125 4.456,4.313 4.278,4.395 4.048,4.368 3.677,4.325 3.525,4.015 3.592,3.437 L 3.842,1.764 C 3.845,1.733 3.42,1.669 2.568,1.57 L -1.569,1.194 C -2.141,1.129 -2.712,1.04 -3.286,0.928 L -3.353,1.506 C -3.351,1.748 -3.361,1.97 -3.384,2.173 -3.408,2.378 -3.488,2.538 -3.626,2.658 -3.765,2.777 -3.915,2.827 -4.078,2.809 -4.493,2.761 -4.658,2.369 -4.573,1.635 L -4.446,0.828 C -4.664,0.758 -4.779,0.722 -4.794,0.72 L -8.075,0.442 C -8.401,0.405 -8.727,0.356 -9.05,0.297 c 0,0.45 0.078,1.041 0.235,1.772 -0.215,0.427 -0.478,0.621 -0.789,0.586 -0.297,-0.034 -0.5,-0.415 -0.607,-1.14 -0.108,-0.727 -0.138,-1.294 -0.091,-1.702 0.074,-0.638 0.648,-0.894 1.723,-0.769 l 1.911,0.344 z"
             style="fill:none;stroke:#000000;stroke-width:0.5;stroke-linecap:butt;stroke-linejoin:miter;stroke-miterlimit:10;stroke-dasharray:none;stroke-opacity:1"
             id="path2746" />
        </g>
      </g>
    </g>
  </g>
</svg>
